<svg xmlns="http://www.w3.org/2000/svg" width="263" height="66.696"><defs><style>.a{fill:#fff}</style></defs><path class="a" d="M26.545 1.672c0 .046.091.046.182.046a2.387 2.387 0 00.907.272.1.1 0 00.091.091c.181.136.409.317.635.454.136.136.272.227.409.363a5.408 5.408 0 01.544.5c.136.091.318.227.5.363a.182.182 0 01.182.091.352.352 0 00.181.181 2.564 2.564 0 01.772.953 2.882 2.882 0 01.544.953 4.585 4.585 0 01.272 1.134 12.04 12.04 0 01-.045 1.815c-.046.272-.091.5-.136.771-.136.545-.227 1.089-.317 1.588-.046.091-.091.136-.091.182a4.149 4.149 0 00.771.409l.091-.045v-.181a.663.663 0 00.409.272.243.243 0 00.181.136 3.356 3.356 0 011.588 1.77.539.539 0 01-.181.59.354.354 0 01-.363.046.2.2 0 00-.227 0c-.181.091-.317.091-.408-.046a.88.88 0 00-.409.227.612.612 0 01-.409-.227 1.091 1.091 0 01-.409-.09 5.121 5.121 0 00-1.134-.136c-.09.272-.181.5-.227.68a.771.771 0 01-.136.454c-.091 0-.091 0-.091.045-.09.181-.136.363-.181.454a2.573 2.573 0 00-.182.545 3.559 3.559 0 01-.227.635c-.046.091 0 .136.045.181v-.046a.394.394 0 00-.136.273c-.045.045-.045.045 0 .045a.2.2 0 000 .227c-.09.317-.181.681-.272 1l-.272.681c0 .045 0 .045.045.045a3.577 3.577 0 00-.227.636 1.769 1.769 0 00-.09.272.165.165 0 00-.091.227.562.562 0 00-.181.363.044.044 0 00.046.045c0-.045 0-.091.091-.136a.418.418 0 01-.181.273 1.287 1.287 0 01-.181.59h-.046a.274.274 0 00-.045.181c.045-.045.045-.136.136-.181l.046-.045a3.026 3.026 0 01-.272.907c-.046.046-.046.136-.091.227a3.731 3.731 0 01-.317.59 3.406 3.406 0 00-.181.5l-.136.136a5.166 5.166 0 01.227-.59c.046-.181.091-.363.136-.5l.272-.817a2.57 2.57 0 01.182-.544q-.068-.068 0-.272a3.137 3.137 0 01-.136.363v.136a.41.41 0 00-.136.317c-.046 0-.091 0-.091.045h.091a3.7 3.7 0 01-.409 1.135.159.159 0 01-.046.091h-.045c-.091.227-.182.408-.272.59-.046.136-.091.227-.136.363l-.272.817c-.091.091-.091.136-.091.136a1.363 1.363 0 01-.182.454 2.293 2.293 0 00-.227.59c-.136.273-.227.545-.363.817v.045a6.607 6.607 0 00-.272.635.044.044 0 01-.045-.045 1.372 1.372 0 01-.181.363l-.046-.046c.046-.045.091-.09.136-.09h-.09a.392.392 0 01-.136.272l.136-.408c.045.046.09 0 .136-.046a.96.96 0 01.181-.454.73.73 0 01.136-.408c0-.181.091-.272.227-.272.046-.09.046-.182.091-.272a.16.16 0 01-.091-.045.14.14 0 00-.045.091h-.046a.816.816 0 00.227-.318c-.046 0-.046 0-.046-.045.046 0 .091-.046.046-.091a.94.94 0 01.181-.272c0-.046 0-.046.091-.091a.14.14 0 00-.091-.046 2.07 2.07 0 00.227-.454.515.515 0 00.136-.363.838.838 0 00.091-.318c.045-.091.091-.227.136-.318a.459.459 0 00-.181.318 4.608 4.608 0 00-.227.545c-.136.227-.227.454-.318.635-.045-.046-.045-.046-.091-.046a.652.652 0 01-.272.454 1.129 1.129 0 00-.181.318.843.843 0 01-.317.363.345.345 0 00-.091.181c0 .091-.045.181-.136.181-.091.272-.181.544-.272.771 0 .046 0 .046.091 0a.141.141 0 01-.091.046v-.046c-.181.363-.318.681-.454.907-.046.136-.046.227-.091.227-.045.091-.09.136-.09.181l-.136.136c0 .045 0 .045.045.045h.046c-.091.045-.136.091-.136.181a2.113 2.113 0 00-.227.454.657.657 0 00-.272.408.249.249 0 00-.091.227.8.8 0 00-.181.227c0 .091 0 .182-.046.182h-.046v.046a.873.873 0 01-.227.408c-.091.046-.091.046-.091-.045-.091.045-.136.091-.136.136h-.045a9.177 9.177 0 00-.59.817c-.181.272-.363.544-.544.772a8.409 8.409 0 01-1.18 1.316 18.9 18.9 0 002.586-3.494 11.438 11.438 0 001-2.269 2.389 2.389 0 00.363-.681c-.045-.045-.045-.045-.09-.045-.136.272-.227.5-.318.726a.984.984 0 01-.136.227 15.3 15.3 0 00-.817 1.77.392.392 0 00-.181.317v.046h-.046c-.227.318-.409.635-.59.907-.046-.045-.046-.045-.091 0 0-.091.046-.136.091-.227a4.074 4.074 0 00.272-.454 1.9 1.9 0 01.363-.544v-.227a.045.045 0 01-.046.046h.046a1.693 1.693 0 01-.227.272v.046c-.045 0-.091.045-.136.045-.046-.136.045-.272.181-.409a5.43 5.43 0 00.227-.817.939.939 0 00-.181.273c-.318.544-.681 1-1 1.452a2.78 2.78 0 00-.318.454 1.977 1.977 0 01-.091.454c-.091.091-.227.181-.318.272a.157.157 0 01-.09-.045c-.227.318-.454.59-.681.907-.091.136-.136.182-.136.272a.912.912 0 00-.091.409 10.509 10.509 0 00-.635.862.426.426 0 01-.363.272 3.458 3.458 0 00-.908.907c-.363.409-.771.771-1.134 1.134a4.029 4.029 0 01-.771.363c-.318.227-.59.408-.862.59a1.942 1.942 0 01-.636.181h-.182a9.307 9.307 0 001.316-1.361h-.045a.392.392 0 00.272-.136.14.14 0 01-.091-.045c.091-.046.136-.046.227-.091v-.091c0 .091.045.091.045.045.045 0 .045-.045.045-.136h.046a1.84 1.84 0 00.454-.409h-.136a.166.166 0 00.136-.046h.046c.091-.045.136-.181.227-.272h.045a.214.214 0 01.227-.227v.045l.544-.681H17.7c0 .046-.045.091-.136.091a1.23 1.23 0 00.363-.318.288.288 0 00.272-.227c.045 0 .091-.045.091-.136-.091 0-.136 0-.182.045s-.091.046-.045.046c0 0 0-.046-.091-.136l-.045.046h.045a5.4 5.4 0 00-.5.544c-.046.045-.046.045-.046.091s0 .046.046.046a1.473 1.473 0 00-.59.59.045.045 0 00.046.046 1.773 1.773 0 00-.454.363h.136c-.091.045-.181.136-.272.136a4.159 4.159 0 01-.409.454c0 .045.046.045.046-.046 0 .091-.046.091-.046.091l-.046-.045c-.09.136-.227.227-.317.181 0 .045 0 .045.045 0 .091-.046.091-.136.091-.318a2.125 2.125 0 00.862-.817.738.738 0 01.227-.409c0-.046.045-.046.091-.091a8.349 8.349 0 00.772-1l-.046-.046a.341.341 0 01-.181.046c0 .045 0 .045.046.045-.091.046-.136.091-.227.136a.044.044 0 01-.045.045c0 .046 0 .046.045.046-.227.272-.409.5-.635.726a.167.167 0 01-.136.045l-.363.363h.045a7.2 7.2 0 01-1 1.044.343.343 0 01-.317.181 1.824 1.824 0 01-.273.091c.046.045.046 0 .046-.046h-.046a2.229 2.229 0 00-.317.136 7.086 7.086 0 001.225-.908.416.416 0 00.181-.272c.045-.091.091-.136.136-.136a.958.958 0 00.272-.182c-.046-.046-.046-.091.045-.136a.3.3 0 00.181-.317 1.849 1.849 0 00.454-.409c.046-.046.091-.136.182-.227a.934.934 0 01.181-.272 1.573 1.573 0 00.317-.544c-.454.454-.862.907-1.271 1.361l-.544.681a.388.388 0 00-.136.227.085.085 0 010-.136c-.272.227-.5.409-.681.59h-.046a3.67 3.67 0 00.726-.726.824.824 0 00-.5.454.813.813 0 01-.408.181c-.045.091-.091.091-.136.091a.287.287 0 00.272-.227h-.045c-.363.318-.681.636-.953.908a3.082 3.082 0 00-.545.544c-.09 0-.136 0-.136.091a3.391 3.391 0 00-.545.318.982.982 0 00.136-.227.356.356 0 00-.363.046 2.58 2.58 0 00-.363.317h-.046a1.33 1.33 0 00.59-.544.1.1 0 00-.091.091l-.046-.045a.49.49 0 00.136-.318c-.091.045-.136.091-.136.181-.272.181-.5.363-.726.544a2.2 2.2 0 00-.317.136 1.769 1.769 0 00-.454.363c0 .091 0 .091-.046.091h-.046c.046 0 .046 0 .091-.091a.273.273 0 01-.182.046c-.045.045-.091.136-.182.182a.352.352 0 00-.136.045c-.182.136-.363.318-.545.454h-.227c.181-.272.409-.544.635-.862a1.507 1.507 0 01.454-.635 1.381 1.381 0 00.227-.317.413.413 0 01.182-.363.274.274 0 00.136-.272v-.182s0-.045.091-.136h.045l-.136.136 1.18-1.18a.456.456 0 00.181-.227 1.979 1.979 0 00.272-.317v-.046a.543.543 0 00.318-.318h-.045a.7.7 0 00.317-.317v-.046l.091-.091h.046c.09-.181.227-.317.317-.5a.235.235 0 00.091-.182h-.045a.783.783 0 00.227-.181c0 .046 0 .091-.045.091a.708.708 0 00.272-.363.045.045 0 00-.046.046v-.046a.168.168 0 00.136-.045c0 .045 0 .045-.046.045h.046c.136-.181.317-.363.544-.635-.091.091-.136.136-.136.181a.2.2 0 010 .227 2.109 2.109 0 00-.454.454.167.167 0 00.046.136c0-.046.045-.091.091-.136a1.994 1.994 0 00-.272.726c.045.181.045.318-.045.409a1 1 0 01-.136.227c0 .136 0 .227-.091.227h.181a35.675 35.675 0 004.946-7.4.416.416 0 01.136-.227c.409-.953.771-1.906 1.18-2.859a.929.929 0 01.227-.409v-.09a.319.319 0 00-.227.181c.046-.045.091-.136.182-.181a.861.861 0 00.09-.363h-.045a1.057 1.057 0 00.318-.5.141.141 0 00.091-.045l-.046.045c0 .136 0 .227-.091.272-.091 0-.091.046-.046.091-.09.091-.09.136-.09.136.045 0 .09 0 .09-.091a.679.679 0 01-.181.363.168.168 0 00-.045.136h.045c0-.045 0-.045.046-.045a.752.752 0 00-.091.227c-.045.045-.045.091-.091.136a.575.575 0 00-.046.273 1.846 1.846 0 00-.227.408h.046a.352.352 0 00-.046.136l-.091.091a.983.983 0 01-.136.227c0 .046 0 .046.046.046.045.091 0 .136-.046.181-.045.091-.091.136-.091.181v.227a2.778 2.778 0 01.227-.544c.272-.681.544-1.316.817-2-.045 0-.045-.046.046-.136.136-.363.272-.726.409-1.134a3.506 3.506 0 00.317-1.18.2.2 0 01-.136.046.044.044 0 01-.045.046.413.413 0 01-.136.317.274.274 0 01-.136.272.864.864 0 00.091-.59 4.042 4.042 0 00-.454 1.043l-.136.409v.046a.817.817 0 00-.181.408.728.728 0 01-.136.272 1.016 1.016 0 00-.136.454c-.045 0-.045 0-.045-.046a.882.882 0 00-.046.318 7.772 7.772 0 01-.408.862 2.008 2.008 0 00-.091.454l-.181.181a7.977 7.977 0 01-.726 1.815c.136-.409.318-.817.5-1.225a1.777 1.777 0 01.091-.273c.136-.317.272-.68.408-1.043 0-.091.046-.136.046-.227.091-.045.091-.091.091-.181a.732.732 0 00.136-.409 3.388 3.388 0 01-.5.908 4.84 4.84 0 00-.409.862c-.181.363-.318.68-.454 1a1.412 1.412 0 01-.272.59 2.137 2.137 0 00-.273.681c-.136.181-.227.363-.363.544-.091.136-.136.318-.227.454a2.893 2.893 0 01-.318.544c-.046 0-.046 0-.046-.045a1.848 1.848 0 00-.408.454h.046c-.046 0-.046 0-.091-.046 0-.045.046-.091.136-.182.181-.318.409-.635.59-1 0-.091.045-.181.045-.272l.046-.046a3.8 3.8 0 00.544-1.044 7.486 7.486 0 01.544-1 .583.583 0 01.181-.454 4.675 4.675 0 00.318-.953.044.044 0 01-.045-.046.892.892 0 01.181-.363v-.045a2.176 2.176 0 00.136-.318c0-.136.045-.227.045-.317 0 .045.046.045.046.09.091-.09.091-.181 0-.227.046 0 .046-.046.046-.091l.136-.136c.091 0 .091-.091.046-.181v-.046c0 .091-.046.136-.046.182 0-.046.046-.091.046-.182h.045c.046 0 .046-.045.046-.136a.141.141 0 00-.046.091.472.472 0 01-.045-.182c-.182.59-.409 1.134-.59 1.634-.272.59-.5 1.18-.771 1.77-.181.272-.363.544-.5.771h.046a.1.1 0 00.091-.091.63.63 0 01-.227.454 1.064 1.064 0 00.091-.363 12.132 12.132 0 01-.544 1.089h.046a.622.622 0 01-.136.181.182.182 0 00-.091.182v-.182c.363-.771.772-1.5 1.18-2.269a2.38 2.38 0 01.273-.726l.045-.045h-.045c.045-.046.045-.136.091-.227.091-.181.182-.409.272-.635.136-.409.317-.817.5-1.225.273-.681.5-1.361.772-2.042a2.034 2.034 0 01.317-.817c0-.136.045-.227.045-.363a.724.724 0 00.181-.318c-.09.045-.09.045-.045.091a1.832 1.832 0 00-.227.409.085.085 0 010-.136c0-.045 0-.045.045-.091a2.066 2.066 0 00.227-.635c-.045.046-.045.046 0 .046a1.929 1.929 0 00.091-.227c-.091.091-.091.136-.091.136a.413.413 0 01.182-.363v-.318c0-.09.09-.181.182-.317a3.524 3.524 0 01.091-.953.044.044 0 00.045.046.339.339 0 00.046-.227.771.771 0 01.046-.318 1.91 1.91 0 00.181-.726 4.766 4.766 0 00.227-.862 3.653 3.653 0 00.227-.953c-.953.272-1.861.5-2.768.771-.409.091-.771.182-1.134.227h-.091l.045-.046h-.045a.442.442 0 01-.409.181c.046 0 .091-.045.136-.091-.046 0-.091.046-.136.046-.091.091-.136.136-.227.136a.142.142 0 01.045-.091h-.045a.141.141 0 00-.046.091 1.843 1.843 0 01-.771.227.181.181 0 00.181-.091 1.069 1.069 0 01-.363.091 4.667 4.667 0 01-.635.182c-.091.091-.181.136-.227.091a4.493 4.493 0 01-.5.227c-.091-.046-.136 0-.181.045a4.243 4.243 0 01-.726.181 2.361 2.361 0 00-.681.318 3.173 3.173 0 01-.136.363.342.342 0 01.045.227c0 .5-.045.953-.045 1.361a3.4 3.4 0 00.181.726c.045.272.091.544.136.771 0 .182.045.318.045.5a3.539 3.539 0 01.091.635 1.916 1.916 0 00-.136 1c0 .045.045.091.045.136l.136.817a1.16 1.16 0 01.091.317.923.923 0 01-.046.227v.136c0-.045-.045-.045-.045-.091 0 .046-.046.046-.046.091a.165.165 0 01-.136.046v.182c-.091 0-.091-.045-.091-.091-.045.091-.09.136-.136.136 0 .046-.046.091-.046.046a.045.045 0 01-.045-.046.045.045 0 00-.046.046c.046.046.046.046.046.091-.091.046-.091.091 0 .136v.045h-.091c0-.091 0-.091-.046-.091a.353.353 0 00-.045.136.045.045 0 01-.046-.046c-.045-.091-.09-.136-.181-.136a.41.41 0 01-.045.227.044.044 0 01-.046-.045c-.091.045-.091.091-.045.136l-.091.091c-.046.045-.046.045-.091.045s-.046-.045-.046-.136c-.045.091-.091.136-.136.136s-.045-.045-.136-.136c-.046.091-.046.181.046.181h-.136c.091.182.091.227 0 .227v-.046a.454.454 0 00-.227-.182.045.045 0 11-.09 0 .142.142 0 01-.091-.045c-.045.136-.136.181-.227.091-.046.091-.091.091-.091.045-.046 0-.091-.045-.182-.045 0 .091 0 .091.046.091h-.046a.166.166 0 01-.181-.181v.045c-.045 0-.045 0-.09-.045a.2.2 0 01-.046.227 1.332 1.332 0 00-.409-.091c0 .091 0 .136.046.136h-.136c-.091.091-.136.136-.227.091a.045.045 0 01-.046-.046c-.091 0-.136-.045-.227-.136a.236.236 0 01-.363.045.214.214 0 01-.273-.045c-.091.045-.136.045-.227-.046-.046-.045-.046-.091-.091-.091-.046.091-.046.091-.091.046-.046 0-.091-.046-.181-.136-.136 0-.182-.091-.272-.136a.822.822 0 00-.318-.227c-.091 0-.091.046-.091.136a.141.141 0 01-.091.045 4.79 4.79 0 01-2.223-2.586 7.706 7.706 0 00-.5-1.226 5 5 0 00-.5.273q-1.77.884-3.4 1.906c-.046.09-.091.136-.136.136a1.242 1.242 0 01-.591.59.592.592 0 01-.454-.409c-.045 0-.045 0-.045-.045a1.012 1.012 0 01.136-.454.776.776 0 00-.273.272c-.045.046-.045.046-.045 0a1.122 1.122 0 00.363-.635H.312c-.091.181-.227.227-.318.181a1.68 1.68 0 00.454-.272 12.776 12.776 0 013.176-2.632c.5-.272 1-.59 1.543-.907a.49.49 0 010-.5c.045.046.045.046 0 .091a.207.207 0 000 .227v-.136c.045.091.045.181.091.272.046 0 .091-.091.046-.227a.765.765 0 010-.454h-.046a2.593 2.593 0 00-.181-1 16.144 16.144 0 01-.227-2.133 13.822 13.822 0 01-.091-1.407.044.044 0 01-.045-.045.1.1 0 01-.091.091.045.045 0 00.046.046l.045-.046v.454a.347.347 0 00-.091.181h.091c0 .318.045.59.045.908v.091a10.62 10.62 0 00.318 2.042 5.046 5.046 0 00.091.862c-.045.046-.091.091-.091.136v-.031c-.046-.318-.091-.59-.136-.907.046-.091 0-.136-.045-.227a.138.138 0 000-.181 2.2 2.2 0 00-.046-.544.743.743 0 01-.136-.272c.091-.046.091-.136 0-.227v-.272a.384.384 0 01-.091-.272c.046 0 .046-.046 0-.136a21.935 21.935 0 010-2.45c0-.136.046-.272.046-.408.045-.363.09-.726.136-1.044a.838.838 0 01.091-.317 1.336 1.336 0 01.091-.454h-.046a.412.412 0 00.136-.318c.046-.181.136-.363.181-.544s.046-.408.091-.59l.046-.046a2.517 2.517 0 01.272-.953.675.675 0 01.091-.409.815.815 0 00.408.182.2.2 0 00.046-.136v.045a.306.306 0 00.181-.272l-.046.046V7.62a.733.733 0 01.409.136.255.255 0 00.272.045l.046-.045a.045.045 0 01-.046-.046c.046.091.181.091.318.091a.754.754 0 00.454 0 1.287 1.287 0 00.59.182c.045.046.091.046.091 0v-.091a.654.654 0 00.318.091 1.166 1.166 0 01.317.091 4.863 4.863 0 00.681.318 4.626 4.626 0 01.681.317c.227.136.5.273.772.409a.274.274 0 00.272.136 6.922 6.922 0 01.952.635c.227.318.5.59.772.907a1.6 1.6 0 00.227.363 7.373 7.373 0 01.5 1.044.544.544 0 01.091.362 5.6 5.6 0 01.091.862.578.578 0 010 .545 2.749 2.749 0 01-.272.862.342.342 0 00.363-.045 23.235 23.235 0 001.633-.59 5.877 5.877 0 001.18-.363c1.86-.544 3.811-1.044 5.763-1.5a2.256 2.256 0 01.091-.726.729.729 0 01.136-.409h-.046l.136-.681a.384.384 0 010-.317c.091-.091.091-.227.046-.409a.442.442 0 00.046-.408.411.411 0 00.045-.227.158.158 0 01.046-.09.045.045 0 01-.046-.046l.046-.091-.046-.045a1.823 1.823 0 00.136-.681c.046 0 .046-.091.046-.181h-.046c.046 0 .046-.091 0-.227a.141.141 0 00.091.046v-.046h-.046a1.014 1.014 0 00.136-.454v-.227c.091-.045.091-.091.045-.227a.772.772 0 01.091-.227 2.015 2.015 0 01.091-.454v-.181a.772.772 0 01.091-.227 1 1 0 01.091-.635 18.406 18.406 0 00.363-3.176 1.206 1.206 0 00.544.136h.181a.275.275 0 00-.046-.363 1.406 1.406 0 01.59.136.2.2 0 000-.227c0-.045.045-.091.091-.136a.166.166 0 01.046-.136 3.37 3.37 0 01.544.318c.049.042.14.042.23-.046zM80.452 7.069c.136.045.227 0 .363-.136v.182a5.485 5.485 0 00.636-.454c0 .046 0 .091.045.091a.864.864 0 00-.317.544h.045a9.028 9.028 0 00-.635.726.93.93 0 01-.363.363 4.055 4.055 0 00-.681.862v.045a2.976 2.976 0 01-.681.817 5.4 5.4 0 00-.681.817 9.447 9.447 0 00-1.679 1.86h.091c-.046.046-.091.091-.091.136v-.136l-.181.181c.091.046.091.091 0 .136 0 .091-.046.091-.091.046a.979.979 0 01-.136.227.044.044 0 00.046.045 2.051 2.051 0 00-.5.771 1.633 1.633 0 00-.317.454c-.046.046-.046.091-.091.136v-.045c-.046.045-.091.09-.091.136a.774.774 0 00-.272.272c-.045 0-.091.046-.136.136-.091.091-.182.227-.273.318a2.491 2.491 0 00-.59.817.582.582 0 01-.181.272 2.63 2.63 0 00-.181.363 1.6 1.6 0 00-.454.544c.045.046.045.046.09 0a1.7 1.7 0 00.545-.59.554.554 0 01.136-.091.41.41 0 00.136-.317 1.251 1.251 0 01.317-.409.044.044 0 01-.045-.045.231.231 0 00.227-.182.961.961 0 01.182-.272c0-.045.045-.09.136-.181a.611.611 0 01.273-.317c.045-.091.045-.136.09-.227.318-.318.636-.635.953-1a.167.167 0 01.046-.136c0 .091-.046.136-.046.181-.091.136-.181.318-.272.454v.272c-.227.317-.454.59-.681.862-.5.726-1 1.407-1.5 2.087-.318.409-.68.817-1 1.225a10.379 10.379 0 00-.953 1.044 8.035 8.035 0 00-.726 1c0 .046 0 .136-.091.136a.345.345 0 00.227-.091 2.047 2.047 0 00-.454.635c-.182.136-.272.272-.227.454a5.433 5.433 0 00-.68.817.464.464 0 01-.363.227 4.592 4.592 0 01-.862.771c-.046.046-.091.046-.136.091a6.965 6.965 0 00-.817.817c-.227.272-.454.5-.636.68a8.832 8.832 0 00-1.089 1.226 6.4 6.4 0 01-.544.817c-.136.136-.272.318-.409.454a12.757 12.757 0 01-1.089 1.134 1.96 1.96 0 01-.272.318.653.653 0 01-.5.408.394.394 0 01-.136.273 5.657 5.657 0 00-.5.589 7.716 7.716 0 01-2.087 1.952 3.7 3.7 0 01-.363.408.465.465 0 01-.227.273.979.979 0 00-.5.544 13.75 13.75 0 00-2.042 1.906 1.634 1.634 0 00-.5.181h-.091a.3.3 0 01-.227.181h-.59c-.091 0-.136 0-.181-.045-.091-.091-.136-.182-.227-.272a3.008 3.008 0 01-.681-.181.767.767 0 01-.454-.136 1.17 1.17 0 01-.59-.363.587.587 0 01-.5-.227 2.784 2.784 0 01-.907-.409.749.749 0 01-.363-.454 2.386 2.386 0 01-.907-1 .389.389 0 01-.363-.318l-.772-.771-.408-.681a.942.942 0 01-.272-.454.348.348 0 01-.045-.454.045.045 0 01-.046-.046c.046-.046.046-.091.046-.181-.046 0-.046-.045-.046-.091a.341.341 0 00.181-.046 4 4 0 01-.227-.681.644.644 0 00-.09-.272 2.192 2.192 0 01.317-.136l.045-.046h.136a.412.412 0 000-.454s0-.045.091-.045.227-.046.318-.046a1.282 1.282 0 00.227-1.044c.045.046.09.046.181 0 0-.091 0-.136.091-.181a1.6 1.6 0 01.635-.136 1.373 1.373 0 01.726.227.284.284 0 00.363.091c.953-.454 1.906-.907 2.814-1.452a1.84 1.84 0 00.408-.227c0 .046.091.091.182.046a210.781 210.781 0 013.358-1.906c.59-.363 1.134-.726 1.724-1.089.318-.227.636-.454.908-.681h.045c1-.681 2-1.361 2.995-2.087a1.3 1.3 0 00.636-.363c.272-.182.544-.363.862-.59a62.735 62.735 0 013.267-2.632 1.733 1.733 0 00.227-.272c-.045 0-.045 0-.045-.046.045.046.136 0 .181-.091.227-.181.5-.409.817-.635 1.134-.953 2.178-1.951 3.268-2.95-.046-.046-.046-.046 0-.046v-.045a.329.329 0 01-.272.181c.045 0 .091-.046.091-.136.091-.045.136-.136.227-.227 0 .091 0 .136-.045.182a1.374 1.374 0 00.317-.227c1.089-1.044 2.224-2 3.4-2.95a1.58 1.58 0 00.59-.5.953.953 0 00.272-.182 2.816 2.816 0 01.862-.635 9.623 9.623 0 001.089-.908c.091.091.181.091.227 0a.942.942 0 00.363-.272h.046a4.84 4.84 0 01-.399.507zM54.995.352a.688.688 0 00.59.136 6.862 6.862 0 001.588.635 11.613 11.613 0 011.271.726 14.352 14.352 0 012.813 2.405c.272.363.5.635.771.953a.266.266 0 00.136.317 2.506 2.506 0 00.272.363 1.523 1.523 0 00.227.544 3.775 3.775 0 01.182.681.341.341 0 00.045.227 1.042 1.042 0 01.046.635 1.745 1.745 0 01-.091 1.089 2.474 2.474 0 00-.363.681 1.671 1.671 0 01-.862.726 3.419 3.419 0 00-.681-.046c-.091-.045-.136-.091-.181-.045a2.419 2.419 0 01-1.18-.363.49.49 0 01-.227-.046l-.046-.045a.044.044 0 01-.045.045.2.2 0 00-.136-.045s-.045 0-.045-.091c-.091.091-.136.136-.227.091l.091-.091h-.227v-.045c-.182.045-.272 0-.272-.091-.046 0-.046-.046-.091-.046a.234.234 0 01-.181.091.244.244 0 01-.181-.136H57.9a.46.46 0 00-.317-.181h-.363a.243.243 0 00-.181-.136.624.624 0 01-.181-.136 1.622 1.622 0 01-.272-.045 1.51 1.51 0 00-.635-.045c-.046-.046-.091-.046-.181-.091a1.234 1.234 0 00-.771-.273 2.629 2.629 0 00-1.861 0q-.2.137-.272 0a.441.441 0 00-.046-.408 10.491 10.491 0 00.454-1.271 7.4 7.4 0 01.046-2 .867.867 0 00-.409-.817 2.488 2.488 0 01-1-.817 1.608 1.608 0 00-.227-.363c-.045-.045-.091-.136-.136-.181.091 0 .136-.046.046-.136v-.272a.818.818 0 01-.091-.454.345.345 0 01.136-.409c0-.045 0-.091-.046-.091.046 0 .091 0 .091-.046v-.317c.136-.136.181-.272.091-.408a.759.759 0 00-.091-.227.683.683 0 00.5-.182.165.165 0 00.227-.09 2.042 2.042 0 01.908-.046.415.415 0 01.5.046 5.542 5.542 0 011.176.141zM119.249 5.39a.214.214 0 00.272-.046v-.046a1.535 1.535 0 01.544.182v-.091a.765.765 0 01.272.272v-.272a1.824 1.824 0 00-.408-.227.763.763 0 00.227.091c0-.045.046-.045.091-.091a2.37 2.37 0 001.225.681c.045-.046.091-.046.181-.046a2.467 2.467 0 01.817.454c.227.181.454.364.726.545a.837.837 0 01.681.544 1.549 1.549 0 00.681.635 8.209 8.209 0 00.817.908 12.8 12.8 0 01.772 1.815 5.127 5.127 0 01.227 1.815 3.991 3.991 0 01-.454 1.588c-.317.726-.635 1.407-.907 2.133a1.071 1.071 0 00-.091.363.752.752 0 00-.227.59 6.245 6.245 0 00-.544.771.275.275 0 00-.045.182 8.619 8.619 0 01-1 1.5 7.189 7.189 0 01-.59 1c0 .046.046.091.136.091v-.091a.516.516 0 01-.136.363.288.288 0 00-.272.227 6.163 6.163 0 00-.68.953 2.313 2.313 0 00-.5.726.913.913 0 01-.409.5 4.12 4.12 0 01-.318.635c-.272.363-.589.681-.817.953a1.413 1.413 0 01.227-.454l.136-.136-.045-.046a1.736 1.736 0 00.408-.59c.045 0 .045-.046.09-.091v-.045a.942.942 0 00.272-.182c.046 0 .046-.091.046-.181a.159.159 0 01-.091.046c-.046.136-.091.181-.227.181.136 0 .182-.091.227-.227-.091 0-.091-.091 0-.182a.366.366 0 00.181-.408.661.661 0 01-.409.272 9.261 9.261 0 00-.817 1.18 4.008 4.008 0 00-.272.454c-.59.908-1.18 1.815-1.77 2.678-.136 0-.182.045-.182.136a25.894 25.894 0 002.223-3.4h-.091a7.176 7.176 0 00-.817 1c-.409.59-.817 1.18-1.226 1.724a3.248 3.248 0 01-.635.862h-.091l.272-.272a2.987 2.987 0 01.772-1.044 1.143 1.143 0 01.318-.544h-.136a.045.045 0 00.046-.045.372.372 0 00-.227.227 12.688 12.688 0 01-1.089 1.5.577.577 0 01-.408.318c-.091.045-.091.091-.091.181-.091-.045-.136 0-.227.091l.045.045-.136.136h.091l-.136.136a.2.2 0 00.045-.136 1.058 1.058 0 00-.317.318c-.045 0-.045.045-.045.091h.09a.576.576 0 01-.272.045c0 .091 0 .091.091.091a.265.265 0 00-.227.091c0 .09 0 .09.045.09-.408.318-.817.59-1.179.862a5.877 5.877 0 01-.544.5v-.045a.45.45 0 01-.272.09 1.636 1.636 0 01.317-.454h-.045l-.545.409a5.365 5.365 0 001.361-1.316v-.046c-.363.272-.681.545-1.044.772 0 .046.045.046.091.046v.045a14.536 14.536 0 00-1.225.953.666.666 0 01-.272.227v-.046c-.091.091-.136.136-.181.136a13.728 13.728 0 001.682-1.6h.091a3.9 3.9 0 00.409-.635v-.046a1.285 1.285 0 00-.409.454 5.259 5.259 0 01-.726.5c-.045-.046-.045-.091-.091-.046s-.046.046.045.046v.136a.044.044 0 01-.045-.045 2.5 2.5 0 00-.363.272.949.949 0 01-.273.181 2.558 2.558 0 00-.681.454h-.136a21.26 21.26 0 01-2.9 2.45 2.756 2.756 0 00-.454.318.773.773 0 01-.227.091 1.775 1.775 0 00-.454.363 4.524 4.524 0 01-.862.544c-.272.182-.5.318-.681.454-.181 0-.272.045-.317.136a13.426 13.426 0 01-1.18 1.089c.091-.09.227-.09.408-.045-.272.091-.5.181-.726.272a.494.494 0 01-.227.045c-.636.5-1.225.908-1.86 1.316a5.371 5.371 0 00-1 .635 2.715 2.715 0 00-.726.227 1.94 1.94 0 01-1.18.317c-.272.046-.5.091-.771.136a1.539 1.539 0 00-.454-.046 31.36 31.36 0 002.995-1.543 33.2 33.2 0 004.311-2.768.4.4 0 00.408-.227h.045c.046 0 0 0-.045-.091a5.667 5.667 0 01-1.271.681c-.5.318-.907.635-1.362.953l-1.225.544a16.4 16.4 0 01-1.543.771c-.454.181-.907.363-1.316.5a.12.12 0 00-.136.136l.046-.045c-.318.045-.409-.046-.363-.227a1.2 1.2 0 00.272-.227q0-.2.272-.272c.454-.318.953-.636 1.5-1a5.124 5.124 0 00.59-.454h-.454a.4.4 0 00-.5.091c-.046 0-.046.045-.091.091a.158.158 0 00.091.045.463.463 0 00-.408.091 2.071 2.071 0 00-.907-.046c-.091.091-.181.136-.227.182 0 .046 0 .046.046.046-.091.091-.136.136-.182.136h.272a2.652 2.652 0 01.272-.181c-.182.091-.272.181-.272.318.045.091.091.045.136-.091-.091.136-.181.227-.272.227 0 .091.046.136.136.046a2.3 2.3 0 01-.363.317c.045.046.091 0 .136-.045a.932.932 0 01-.408.227c-.363.227-.771.408-1.134.59-.091.091-.181.182-.273.182a15.207 15.207 0 01-1.724.862.381.381 0 00-.272.091 1.949 1.949 0 00-.771.272.661.661 0 01-.363.227.206.206 0 010-.227c.091 0 .182-.045.317-.181 0-.045-.045-.091-.045-.182a4.8 4.8 0 001.588-.817.494.494 0 00-.227.045c.181-.091.362-.227.544-.317-.045.045-.09.091-.136.091a.14.14 0 01.046.091c.408-.227.771-.454 1.18-.681.181-.136.363-.227.544-.363a15.948 15.948 0 001.906-1.316l.454-.454a4.4 4.4 0 011.089-.681 3.664 3.664 0 00.635-.408l.045.046c-.045 0-.091.045-.181.09a.218.218 0 00.317 0l.045-.045c-.09-.091-.136-.136-.227-.136a.045.045 0 00-.046-.046 34.868 34.868 0 01-3.131 1.77c-.363.181-.726.409-1.043.59a7.292 7.292 0 00-.59.272.2.2 0 00.045-.136c.181-.09.409-.227.636-.317a45.535 45.535 0 001.86-1.271c1.179-.771 2.36-1.588 3.63-2.36a29.473 29.473 0 002.9-1.951 8.389 8.389 0 01.907-.862c-.045-.091 0-.182.136-.318a21.293 21.293 0 002.133-1.906.6.6 0 01.136-.363 16.531 16.531 0 002.042-1.952.433.433 0 00-.318.091v.136a.044.044 0 00-.045-.046c0 .091 0 .091-.046.046a2.1 2.1 0 01-.317.318c.5-.545 1-1.135 1.543-1.724a.55.55 0 01.272-.409v-.045a5.488 5.488 0 00-.953 1.089 96.93 96.93 0 01-5.354 5.219 2.369 2.369 0 01-1.225.68 3.489 3.489 0 00-.907.591 2.508 2.508 0 01-.817.635 6.123 6.123 0 001.18-1.044v-.091h-.045a1.23 1.23 0 01.544-.318c.5-.409 1-.817 1.5-1.27.091 0 .136-.091.181-.182.181 0 .227-.091.227-.227a.767.767 0 01-.227.091 2.025 2.025 0 00.5-.363.157.157 0 00-.046.091 1.422 1.422 0 00.5-.409 1.183 1.183 0 00.272-.227h-.184v-.045c1.089-.953 2.178-1.952 3.221-3.04a.044.044 0 01-.045-.045.562.562 0 00.272-.363c.091 0 .136 0 .181-.091a2.807 2.807 0 00.409-.544 4.5 4.5 0 00.772-.817 36.531 36.531 0 002.541-4.084.891.891 0 00-.408.408 8.146 8.146 0 01-1 1.543c-.091 0-.136.09-.182.182.045 0 .045.045.091.045a2.8 2.8 0 01-.272.182 22.32 22.32 0 001.27-2.042 1.87 1.87 0 01.136-.364.2.2 0 00-.136.182c0 .091-.045.182-.136.182a.045.045 0 01-.046-.046c.544-.953 1.089-1.86 1.634-2.768a.755.755 0 01.182-.5q.408-.885.817-1.906c.408-.771.817-1.633 1.179-2.45a13.263 13.263 0 01-.181-1.407 10.319 10.319 0 00-1-.5h-.181a.045.045 0 01.046-.045.9.9 0 00-.5.091 12.984 12.984 0 01-1.86.681 16.664 16.664 0 01-1.906.317.373.373 0 00.227-.227.558.558 0 00.362-.181l-.09-.091.045-.046h-.227a36.843 36.843 0 003.721-1.407.556.556 0 00.409-.136 1.619 1.619 0 00-.454-.091 1.457 1.457 0 00-.771.091c.045 0 .091-.045.136-.091-.045.046-.136 0-.181-.091a3.6 3.6 0 00-.726.363c.091-.046.182-.136.272-.182h-.272c-.272.091-.5.182-.681.227a.911.911 0 00-.363.182 7.377 7.377 0 01-1.407.5c-.091.045-.136.091-.227.136-.408.136-.817.273-1.27.409a1.624 1.624 0 01-.772.5c-.681.272-1.316.544-2 .817a.044.044 0 01-.045.045v.046a.342.342 0 00.181-.046v.046a10.324 10.324 0 001.27-.363c-.091 0-.181.091-.272.182l.045-.045a4.478 4.478 0 01-.5.227 5.3 5.3 0 00-.681.272h-.045c-.136.091-.273.136-.409.227a13.094 13.094 0 00-1.316.862c0 .045.045.136.045.181a.12.12 0 00-.136.136.044.044 0 00.045.046c.046-.136.182-.181.363-.181-.091 0-.136.045-.136.091a1.161 1.161 0 00.317-.091c.136-.136.318-.227.408-.318a7.1 7.1 0 00-.907.726h.045c1.77-1.043 3.585-2 5.4-2.995h.099c-.046.045 0 .045.046.045a8.179 8.179 0 01-1.134 1.044.3.3 0 00-.091.317h.136c.318-.136.636-.317 1.044-.454a.346.346 0 01.409-.045v.045a2.256 2.256 0 00-.772.681.988.988 0 00-.409.318 2.631 2.631 0 01-.862.635 2.073 2.073 0 01-.544.544 14.386 14.386 0 01-1.452.726 1.493 1.493 0 01-.59.318.6.6 0 01-.272.227v-.045a1.513 1.513 0 01-.454.272c-.545.408-1.089.817-1.588 1.225a6.5 6.5 0 00-1.543.635 4.857 4.857 0 00-2.269 1.77 3.7 3.7 0 00-1.271 1.089.933.933 0 01-.771.091c-.227.136-.5.272-.681.409a.594.594 0 00-.5.091 3.053 3.053 0 01-1.543-.318 5.454 5.454 0 01-1.543-.771 11.087 11.087 0 01-.771-.545c-.227-.272-.5-.544-.772-.862a4.74 4.74 0 01-1.27-2.042 1.164 1.164 0 01.09-.318c0-.045.046-.136.182-.227q-.2-.272 0-.409v-.136c0-.136.045-.181.136-.181a.12.12 0 00.136-.136c1.316-.771 2.677-1.588 4.039-2.36a3.4 3.4 0 01.817-.363c.454-.273.908-.545 1.452-.817 0 .046.045.046.091 0a42.014 42.014 0 015.128-2.632 1.6 1.6 0 01.635-.272c-.091 0-.136.046-.182.046.045.045.091.045.182-.046a2.079 2.079 0 01.635-.227 4.172 4.172 0 011.044-.408c-.272.182-.544.318-.862.5v-.046c-.045.046-.091.091-.136.091v-.045c-.091 0-.136.045-.181.045a.044.044 0 00.045-.045.676.676 0 00-.409.091h.091a10 10 0 01-1.407.68 2.005 2.005 0 00-.317.272c1.18-.454 2.4-.907 3.63-1.361a40.713 40.713 0 015.672-1.679.16.16 0 00.045-.091.95.95 0 00.59-.091h.046a16.1 16.1 0 014.447-.227c.182 0 .454.045.726.045a3.873 3.873 0 001.046.092zM98.33 34.476a7.891 7.891 0 011.588-1c.771-.5 1.588-1.044 2.4-1.588q-1.633 1.225-3.4 2.314c-.18.093-.407.184-.588.274zm2.768-1.27c-.408.317-.817.59-1.27.907a3.939 3.939 0 00-.454.272v-.045c-.046.091-.091.091-.136.091.907-.59 1.86-1.225 2.768-1.906a4.315 4.315 0 01-.908.681zm-1.27.227c.181-.136.363-.272.59-.454-.091 0-.091 0-.046-.045a.492.492 0 00.227-.046h-.094c0-.045.045-.045.136-.045-.315.222-.587.454-.814.59zm3.358-1c-.181.136-.408.272-.635.409a15.616 15.616 0 01-1.5 1.089 1.361 1.361 0 01.363-.182c-.045.046-.045.091-.091.136h.136c-.09 0-.09.046-.045.136.454-.272.907-.544 1.316-.817a1.576 1.576 0 00.862-.544h-.272a1 1 0 01-.135-.226zm3.858-.091h.09c-.363.182-.68.408-1 .59h-.046a6.016 6.016 0 01-.726.544h.227c-.046.045-.046.045-.046 0a.573.573 0 00.272-.046c.454-.317.862-.681 1.316-1.044a2.582 2.582 0 01.363-.317.939.939 0 00-.451.275zm-.681 1.634a.5.5 0 01-.227.045.765.765 0 01-.227.091.141.141 0 00.045.091 1.151 1.151 0 01-.318.091c.046 0 .091-.045.181-.045-.091.091-.136.182-.181.182a1.624 1.624 0 01.5-.182h.136a.12.12 0 00.136-.136c-.045.045-.136.045-.136-.045zm4.492-4.13c-.544.454-1.044.862-1.543 1.316-1.134.953-2.314 1.815-3.495 2.677.363-.227.726-.409 1.044-.635.726-.544 1.5-1.135 2.314-1.725a3.742 3.742 0 00.817-.862 4.4 4.4 0 00.862-.769zm-3.45-23.004a1.112 1.112 0 00-.68.227c.045.045.091 0 .091-.046a.77.77 0 01-.318.046 1.6 1.6 0 00.635-.272.676.676 0 00-.317.045c.317-.091.635-.181 1-.272a.349.349 0 01.227-.091 4.015 4.015 0 00-.638.363zm2.542-.953a.933.933 0 01-.409.227.412.412 0 00-.318.136v-.087a.738.738 0 00-.272.136v-.046a2.186 2.186 0 00-.726.364c-.045 0-.045-.046-.045-.091h-.091a.3.3 0 00.227-.182.766.766 0 00.454-.136c.409-.091.862-.272 1.316-.409-.091.088-.136.088-.136.088zm-.817 26.863c.182-.09.363-.227.636-.363a.55.55 0 01.227-.045 1.189 1.189 0 01-.864.408zm1.815-1.27a2.025 2.025 0 01-.5.363 1.772 1.772 0 01.363-.454 1.062 1.062 0 00.454-.227.549.549 0 00-.317.317zm.635-.046q0 .068.136 0c-.091.046-.136.091-.181.046a.556.556 0 01-.409.182 1.934 1.934 0 00-.318.227 3.13 3.13 0 01.59-.5 1.738 1.738 0 00-.272.227 2.423 2.423 0 00.5-.227.692.692 0 01.272-.181c-.137.09-.227.181-.318.226zm-.045-25.955c-.091 0-.136 0-.182.045a.045.045 0 00.045.046 3.149 3.149 0 01-.454.182.466.466 0 01.272-.227 2.185 2.185 0 01.318-.136.642.642 0 01.272-.091h.046a1.139 1.139 0 01-.317.181zm3.222-.59c-.136-.046-.227-.091-.318-.046a2.869 2.869 0 01-.318.091.539.539 0 01-.363.045 1.567 1.567 0 01-.59.136c-.318.136-.59.227-.862.318-.046-.045-.091-.045-.182-.045 0-.091 0-.091-.045-.091h-.045a17.137 17.137 0 013.448-.59h.272a6.528 6.528 0 00-.997.181zm.091 12.705a3.7 3.7 0 00-.545.908c0-.046.045-.091.045-.046v.091a9.643 9.643 0 00.499-.953zM160.769 13.967h.408c.5.045.953.136 1.452.227.181.046.363.046.544.091a.755.755 0 01.5.181.879.879 0 00.454.136c.635.454 1.225.907 1.86 1.361a5.486 5.486 0 00.726.726.3.3 0 01.227.181 13.652 13.652 0 011.815 2.133 3.107 3.107 0 00.136.363 3.157 3.157 0 01.409.772c.046.181.091.318.136.454a2.054 2.054 0 01.09 1.043c-.045.136-.136.318-.181.454a3.8 3.8 0 01-.59.817 2.182 2.182 0 01-.681.317 1.6 1.6 0 01-.59.363c-.182.045-.318.045-.5.091a.49.49 0 01-.317.136.167.167 0 01-.046-.136c-.136.091-.227.091-.317 0a.274.274 0 01-.272-.136c-.046.046-.091.046-.136.091a.482.482 0 01-.544.046c-.091.091-.227.181-.318.272a.372.372 0 00-.227.227h-.136a1.81 1.81 0 00-.544.454c-.136 0-.182 0-.227.091a6.034 6.034 0 00.726-.545l-.046-.045.091-.091a.353.353 0 00-.363.091 3.484 3.484 0 00-.59.409h.046a.14.14 0 00-.046-.091.641.641 0 00-.272.091c0 .045-.045.091-.136.091a1.893 1.893 0 01-.635.408h-.091c-.091.091-.181.136-.227.181.045 0 .09-.045.182-.136a1.184 1.184 0 01-.5.136 5.567 5.567 0 001.815-1.044h-.095a.451.451 0 01.181-.227c.045-.046.045-.136.091-.182a.343.343 0 00-.318.046c-.091.045-.136.09-.227.136h-.409a.366.366 0 00-.409.136.729.729 0 00-.317.182c-.091 0-.136 0-.136.045h.046a.044.044 0 00-.046.045v-.045a.32.32 0 00-.227.181h-.09a1.228 1.228 0 00.363-.318h-.046l-.953.545c.272-.182.5-.318.726-.5a.411.411 0 00.273-.272 1.071 1.071 0 01-.454.227 3.712 3.712 0 01-.907.545c-.091 0-.182.045-.182.091h.046c-.091 0-.136 0-.182.045v-.045c-.272.136-.5.272-.726.363a.25.25 0 01.227-.136h-.136a.842.842 0 00-.317.091 7.4 7.4 0 01-.817.454c-.091.045-.181.045-.181.091a2.432 2.432 0 00-.862.317.249.249 0 00-.227.136.342.342 0 01-.046.182c-.046 0-.091 0-.091-.046v-.091a.219.219 0 01-.317-.045.411.411 0 01-.227.045.159.159 0 00-.046-.091c-.045 0-.045 0-.045.046a.044.044 0 01.045.045c-.045 0-.045.046-.091.091a.344.344 0 01-.227-.091c0 .046 0 .091-.046.091-.045-.045-.045-.091-.091-.091-.046.091-.046.091-.091.046-.045-.091-.045-.091-.091-.091h.091c.045-.046.091-.046.136-.091a.1.1 0 00.091.091.2.2 0 01.136-.046c.046 0 .091-.045.136-.091a.929.929 0 00.5 0c0-.045 0-.045.046-.045a.1.1 0 00.091-.091.641.641 0 00.272-.091h-.091c.272-.136.544-.317.862-.454-.091.046-.136.091-.181.091v.045a.12.12 0 00-.136.136c-.045 0-.045 0-.045-.046 0 .046 0 .046-.046.091s-.045.046-.091.046c.046.045.091.045.136.09a13.829 13.829 0 002.9-1.588c-.272.181-.59.318-.907.5a8.059 8.059 0 01-1.089.544c-.091.091-.136.091-.182 0 .046 0 .091-.091.182-.181-.182.091-.363.136-.454.181.045 0 .045-.045.091-.091a3.043 3.043 0 00.409-.272.7.7 0 00-.454.181.2.2 0 00-.136.046c-.046 0-.136-.046-.181-.046a.807.807 0 01-.454.181.472.472 0 01-.363.182.044.044 0 01-.045.045l-.272.136c-.091.045-.136.091-.182.045-.091-.045-.136-.045-.136 0v-.045a.653.653 0 00-.317.091c-.136.09-.318.181-.454.272a.044.044 0 01-.045.045 1.408 1.408 0 00-.363.091c.181.272.318.59.454.817a3.327 3.327 0 01.544.091.769.769 0 00.318.454c0 .045 0 .045.091.045-.091.046-.091.046-.091.091l.272.273a1.284 1.284 0 01.454.408c.046.091.091.227.136.318a3.534 3.534 0 01.635 1.905.25.25 0 01-.136.227c0 .046 0 .091.046.091a1.489 1.489 0 00-.409 1 2.707 2.707 0 00-.408.68c-.091.272-.181.5-.273.771v.136c-.091.045-.181.091-.181.181a4.682 4.682 0 01-.772 1.407 1.125 1.125 0 00-.181.454.844.844 0 00-.545.318 2.214 2.214 0 00.726-.726 11.016 11.016 0 00.817-1.815c-.091 0-.136 0-.182-.046v-.091c-.227.227-.409.5-.635.726-.045.09-.045.136-.09.181a.939.939 0 00-.454.272h-.091a.994.994 0 01.227-.363c.046-.045.046-.09.046-.182v-.045a8.088 8.088 0 00-.636.817.393.393 0 00-.136.272s0-.045.091-.091a1.134 1.134 0 01-.227.318h-.085a1.843 1.843 0 00-.272.5c-.136.136-.227.272-.363.408h.045v.091h-.091c-.045 0-.045 0 0 .046h-.091a.609.609 0 01-.317.272 1.16 1.16 0 01-.318.454 6.967 6.967 0 00-.59.544c0-.045.046-.09.136-.136h-.139a.319.319 0 00.182-.227c0-.091.046-.136.181-.136a.725.725 0 00.318-.409c.046 0 .091-.045.182-.136a.928.928 0 00.363-.363c.046-.045.046-.091.091-.182a.7.7 0 00.363-.363c.045-.046.045-.091.045-.182a.6.6 0 00.136-.363 1.113 1.113 0 01-.408.5 1.921 1.921 0 01-.772.817.7.7 0 01-.363.272c0 .091-.045.136-.091.136-.046.091-.091.091-.136.091a2.4 2.4 0 01-.635.544.6.6 0 01-.272.227.16.16 0 01-.045.091l-.046-.046c-.046 0-.091.046-.136.046a.517.517 0 01.136-.363.411.411 0 00.136-.317 1.829 1.829 0 01-.408.227 2.769 2.769 0 01-.726.544.762.762 0 01-.227.091.514.514 0 00-.363.136s0 .046-.091.136c-.046 0-.091.045-.182.091h-.045a.044.044 0 01-.045.045c0 .091-.046.091-.136.091a4.95 4.95 0 01-.771.59c-.363.181-.681.363-1.044.544-.045.046-.091.091-.136.091a7.078 7.078 0 01-1 .545 1.95 1.95 0 01-.227.045.344.344 0 01-.181-.045h.181a4.84 4.84 0 01.5-.409.646.646 0 01-.272.091 1.6 1.6 0 00-.408.182.516.516 0 01-.363.136h.091c-.136.045-.272.09-.317.181l-.363.181a.631.631 0 01-.408.182c-.046 0-.091 0-.091-.046a.573.573 0 01-.272.046.846.846 0 01-.318.091v-.046a1.9 1.9 0 01-1.18.227.138.138 0 01-.181 0v-.091h.045a.933.933 0 00-.5 0h-.045a.515.515 0 01-.363.136c-.046.046-.091.046-.181.046a1.7 1.7 0 00.544-.318 2.679 2.679 0 00-.908.272.489.489 0 01-.227.046v-.046a4.116 4.116 0 00.59-.363c0-.045 0-.091.091-.136a9.2 9.2 0 001.179-.816.8.8 0 00.227-.182l-.046-.045a1.323 1.323 0 01.363-.181c0-.091.09-.182.181-.272a51.25 51.25 0 003.086-2.314 4.36 4.36 0 00.68-.635l.046-.046a.045.045 0 01-.046.046.159.159 0 00.091-.046l.454-.454h-.046a1.25 1.25 0 00.409-.318.5.5 0 01.227-.181 2.142 2.142 0 01.409-.544c.046 0 .091-.045.181-.091a1.542 1.542 0 01.272-.545c.363-.408.726-.862 1.089-1.316v-.136a3.444 3.444 0 01.363-.5c0-.091.046-.181.046-.273l.091-.045c-.046.045-.046.045 0 .091a1.134 1.134 0 00.136-.59s.046 0 .046-.091c0 .046 0 .046.045.046v-.046a.383.383 0 00.136-.227.159.159 0 01-.046-.091.99.99 0 01.227-.362.768.768 0 01.046-.318c.045-.136.09-.272.136-.454a5.257 5.257 0 00.227-1.27l-.317-.318a1.4 1.4 0 01-.409-.862c-.045 0-.045-.045-.045-.136a.767.767 0 01-.136-.454v-.409a.361.361 0 01-.091-.454h.091c0-.045 0-.091.091-.136 0 .046.046.046.091 0a1.429 1.429 0 01.227-.454c.091 0 .136.046.227.091l.046-.046v-.046c0 .091.091.091.181 0a.76.76 0 01.091-.227.528.528 0 00.454-.091h.046q0-.136.136 0a1.926 1.926 0 00.545-.182c.272-.136.5-.272.726-.408a19.99 19.99 0 004.084-2.859c.181-.136.363-.272.635-.454a2.757 2.757 0 01.363-.363c0-.136.136-.272.318-.409a17.669 17.669 0 001.951-1.724 8.566 8.566 0 01.907-.908c-.091-.091-.181-.181-.272-.181a.861.861 0 00-.59-.045c0-.046-.045-.046-.136-.046h-.315a.181.181 0 01-.182.091v.045c-.045-.09-.091-.136-.182-.136a.333.333 0 01-.272.091.044.044 0 01-.046-.045.353.353 0 01-.136.045c-.181 0-.318.045-.408.045a.291.291 0 00-.272 0c-.318 0-.59.046-.862.046a1.15 1.15 0 01-.544.091 2.1 2.1 0 01-.862.181c0 .046-.045.091-.045.136h-.318a1.409 1.409 0 01-.363.091c-.454.182-.907.272-1.362.408a.248.248 0 01-.227.136h.045a2.068 2.068 0 00-.635.227.9.9 0 00-.5.272 1.634 1.634 0 01.5-.181 2.794 2.794 0 01.544-.227h.046a6.079 6.079 0 00-1.089.5v.091a.235.235 0 00-.181.091.1.1 0 01.091-.091h-.046c-.045 0-.09.045-.181.091a.044.044 0 01.045.045.157.157 0 01-.091.046 2.889 2.889 0 00-.544.317.213.213 0 00.272-.045c0 .045 0 .045.045.045a4.17 4.17 0 01-.589.363.158.158 0 00-.091.045 2.722 2.722 0 01-.681.409.546.546 0 00-.136.091.961.961 0 00-.227.136.5.5 0 00-.454.227.492.492 0 01-.227.046 2.377 2.377 0 01-.862.5h-.045a.637.637 0 01-.182.136.809.809 0 00-.318.363c-.182.091-.272.181-.363.227l-.181.181a.237.237 0 01-.091.182.636.636 0 01-.136.182l-.136.272a.3.3 0 01-.227.182 2.206 2.206 0 01-.136.317.167.167 0 01-.045.136 3.586 3.586 0 01-1.679 1.5 1.912 1.912 0 00-.726.181h-.726a.346.346 0 01-.227-.09 1.94 1.94 0 01-.545-.091.675.675 0 00-.318-.045 1.907 1.907 0 01-.454-.181.348.348 0 01-.227-.091 2.569 2.569 0 00-.544-.182 1.1 1.1 0 00-.681-.181 2.357 2.357 0 01-.726-.272.343.343 0 01-.182-.09 1.418 1.418 0 01-.681-.681 4.212 4.212 0 01-.227-.454v-.136a.386.386 0 000-.318v-.136a.8.8 0 00.363-.408c.817-.681 1.679-1.362 2.5-2.133a4.152 4.152 0 00.408-.227 10.5 10.5 0 011.588-.817c.272-.136.5-.273.726-.409 0 .046.045.091.136.046h.318c.272-.136.59-.227.907-.363.273-.136.545-.317.908-.5a3.056 3.056 0 011-.59c0-.046.091-.046.181-.046.5-.272 1-.5 1.5-.726a1.178 1.178 0 00.5-.136c.363-.136.772-.317 1.18-.454l1.633-.545a3.843 3.843 0 01.771-.181 19.532 19.532 0 011.725-.5 1.065 1.065 0 00.5-.091h.726c.409 0 .862-.045 1.271-.045a8.813 8.813 0 011.043-.091 1.066 1.066 0 01.356.093zM210.046.126a.655.655 0 00.318.091.171.171 0 00.272 0 .4.4 0 00.363.227c0 .091.046.091.091 0a5.489 5.489 0 01.5.544.808.808 0 00.544.409 3.375 3.375 0 00.317.544 4.556 4.556 0 01.544 1.044 2.125 2.125 0 01.409 1 1.794 1.794 0 00.272.68c-.181.136-.227.273-.181.409-.046.045-.091.091-.136.091a.085.085 0 000 .136c0-.045 0-.045.045-.09a1.262 1.262 0 00-.045.408.2.2 0 00.136.272v.681a.555.555 0 01-.273.636 1.052 1.052 0 00-.227.317c-.136.091-.227.181-.227.272 0 .181-.046.272-.136.318h.136a2.14 2.14 0 00-.454.454.139.139 0 00-.09.046 1.08 1.08 0 00-.5.635 10.911 10.911 0 00-1.271.59.543.543 0 01-.091.136c-.046 0-.09.046-.136.046l-.182.181c.091 0 .136 0 .136-.046 0 .046 0 .046.046.046a4.377 4.377 0 00-.681.454c-.227.136-.409.227-.544.317 0-.045 0-.045-.091-.045s-.182 0-.182.091h.182a.631.631 0 01-.182.136h-.227a3.97 3.97 0 01-1.407.907c0 .045-.091.091-.182.136a1 1 0 00-.5.227c-.136 0-.227.046-.227.091a.787.787 0 01-.227.181 6.088 6.088 0 00-.454.136.347.347 0 00-.045.181h-.182a1.22 1.22 0 01-.363.318 2.369 2.369 0 00-.5.454c-.046 0-.046 0-.046-.046a.789.789 0 00-.136.181c-.046-.091-.09-.136-.136-.136a13.329 13.329 0 01-1.679 1.543c0-.045-.046-.136-.091-.136-.09.045-.136.091-.227.136-.046.091-.091.091-.182.091.091 0 .136-.091.091-.182a4.871 4.871 0 01.635-.726.249.249 0 01-.227.136c-.091 0-.136 0-.091.046a23.522 23.522 0 00-1.86 1.815c0 .091.091.136.182.227 0-.045.045-.091.136-.091v.046c-.091 0-.091.045-.091.045a6.6 6.6 0 01.5.681 1.564 1.564 0 00.272.409c.136.272.272.544.408.771a1.132 1.132 0 01.181.317 1.012 1.012 0 00.136.227c0 .091 0 .182.091.182a2.017 2.017 0 00.363.5c0 .046 0 .046.045.046.227.454.408.907.59 1.316a5.971 5.971 0 00.272 1.134 1.013 1.013 0 01.136.454 10.73 10.73 0 01.318 1.134 3.2 3.2 0 00.272 1.271l.272 2.042a2.072 2.072 0 01.091.908 7.153 7.153 0 01-.045 1.407c-.045.862-.045 1.724-.045 2.586a.455.455 0 01.045-.182 2.3 2.3 0 01.091.409v.091a.471.471 0 00.045.181v.046l-.045-.046v.181a.2.2 0 000 .227 1.988 1.988 0 00.045-.227 5.556 5.556 0 01-.091.907.045.045 0 00.046.046h-.046v.363c-.045-.045-.091-.045-.091 0a.2.2 0 00.045.136h.091c-.046.045-.046.091-.046.182-.091.045-.091.091-.091.181 0 .045-.046.045-.091.045a1.061 1.061 0 01-.091.363.547.547 0 00-.091.363.711.711 0 00-.046.544.544.544 0 00-.181.363 4.309 4.309 0 01-.317 1.316c-.046 0-.046.091-.091.181a.412.412 0 00-.317.136.2.2 0 01-.181.182l-.046.045v-.091c-.181.046-.272.046-.317 0a.433.433 0 01-.318.273.35.35 0 00-.045.136 2.387 2.387 0 01-.545-.046c-.091-.045-.136-.09-.182-.09-.136.181-.227.227-.408.09-.045 0-.09 0-.136-.09a.275.275 0 01-.363 0 1.59 1.59 0 01-.635-.273 2.376 2.376 0 01-.454-.5.208.208 0 01-.182-.227.265.265 0 01-.317-.136c-.227-.227-.454-.5-.681-.772a3.224 3.224 0 01-.363-.817 2.139 2.139 0 01-.272-.68 6.365 6.365 0 01-.681-1.362v-.046c.045 0 .045-.045.045-.181a.044.044 0 01-.045-.046c0 .046.045.046.136.046.045-.046.045-.136.045-.318.181 0 .227-.091.227-.363a.141.141 0 00-.046-.091c.091 0 .136-.045.046-.181v-.045c.091.091.136.045.181-.091a.182.182 0 00.182.091 2.154 2.154 0 00.59-1.089c-.091-.045-.091-.136 0-.317a7.7 7.7 0 01.272-1.407 2.363 2.363 0 00.091-.636h-.182a8.075 8.075 0 00.409-1.588l-.091-.091h-.081a21.986 21.986 0 01.408-2.269.16.16 0 00-.045-.091 1.275 1.275 0 00.045-.408 13.251 13.251 0 00.136-1.861h-.091c0-.272-.046-.5-.046-.726a.2.2 0 000-.227 2.321 2.321 0 00-.363-1.724.9.9 0 01-.136-.454c-.046-.091-.091-.136-.136-.227a2.634 2.634 0 00.454.363c.045.136.091.181.181.091a12.056 12.056 0 001.089.544 5.249 5.249 0 011.225 1.225l.046-.091a15.778 15.778 0 00-1.86-2.541 3.4 3.4 0 00-.544-.408c-.046-.046-.091-.136-.182-.182a1.728 1.728 0 01-.5.5c.045 0 .09-.046.181-.136a.814.814 0 00-.317.227c-.136.091-.227.181-.363.272a2.171 2.171 0 01.409-.5.886.886 0 00.363-.363h-.045a5.062 5.062 0 00-.726.545.267.267 0 00-.181.045.16.16 0 01.09-.045.58.58 0 00-.272.045c0 .046.046.091.136.091h-.091c-.046 0-.046-.045-.046-.091a9.306 9.306 0 01-.771.681v.182a9.222 9.222 0 01-1.226 1.044.512.512 0 00-.362.136c.045-.045.045-.091-.046-.091a2.029 2.029 0 00-.5.363h.046l-.046.045c-.09 0-.181.046-.181.091s0 .046.045 0c0 .091-.045.091-.045.091a2.58 2.58 0 00-.363.272h-.045a.249.249 0 00-.136.227h-.046a.167.167 0 01-.136.045c-.046 0-.046.045-.046.136v.045h-.181c-.045.091-.091.136-.091.182-.045 0-.091 0-.091.045l-.272.272v-.136h-.046a.608.608 0 00.363-.318v.136c.091-.046.136-.091.136-.182.045 0 .045-.045.045-.136.046-.045.091-.045.136-.091h-.136a5.626 5.626 0 01-1.044.771 4.349 4.349 0 01-.907.59c.046 0 .046 0 .046-.045h-.046a.045.045 0 01-.046.045l-.272.273c-.136.045-.181.091-.181.182v-.091a2.175 2.175 0 01-.726.363v.091c0 .045.045 0 .09-.046l-.09.091c-.046 0-.046-.045-.046-.091a.142.142 0 00-.045.091h-.136c-.091.091-.181.136-.227.091h-.136a.729.729 0 00-.364.136c.091 0 .227-.045.318-.045a.14.14 0 01-.09.045.329.329 0 01-.272.182c-.091 0-.091.046-.091.136v.045h-.045c0 .091-.046.136-.091.136-.045-.091 0-.136.091-.136a.705.705 0 01-.272.136.085.085 0 000 .136s0 .045.091.045a.49.49 0 01-.318.091c-.091 0-.091.045-.045.136h-.182c-.046 0-.09-.045-.136-.045a1.817 1.817 0 00-.5.544 1.53 1.53 0 01.545-.272.2.2 0 01.136-.045 8.72 8.72 0 00-.136.136h-.046a.706.706 0 01-.363.272 1.667 1.667 0 01-.227.409 5.269 5.269 0 01-.772.635 7.35 7.35 0 00-.862.817c.045-.136.136-.182.272-.227a1.429 1.429 0 00-.272.317.685.685 0 00-.363.182.471.471 0 01-.317.227c-.091 0-.182.045-.272.045-.09.091-.136.182-.227.227a.867.867 0 00-.59.091c-.136 0-.227.046-.363.046a2.123 2.123 0 01.635-.635v-.091c.272-.273.59-.545.863-.817a.166.166 0 00.181-.182c.454-.363.908-.771 1.407-1.134-.091-.045-.091-.091-.046-.091.046-.045.136-.045.272-.091a.159.159 0 00.046-.091c.045 0 .091 0 .136-.091-.045 0-.091 0-.091-.091.091 0 .136-.091.182-.182-.045.091-.091.136-.182.091a1 1 0 00.364-.227c.09.09.135.09.227.045-.136.091-.272.136-.409.227v.046a7.377 7.377 0 001.18-.908 4.312 4.312 0 00.953-.862h-.09a5.189 5.189 0 01-.772.68c-.136.046-.181.091-.181.136a.3.3 0 01.181-.227c-.091 0-.181.045-.181.091a3.989 3.989 0 00-.454.273h.136c-.091 0-.136 0-.136.045v-.045a.372.372 0 00-.227.227h.136c-.091 0-.136 0-.091.046v-.041c-.045.136-.091.182-.181.136h-.09v.045a.393.393 0 00-.273.136c0 .091-.091.091-.136.091v.092c-.091.045-.091.091-.091.182a1.028 1.028 0 01-.454.227.494.494 0 01-.227.045c0-.045.091-.045.227-.091l.454-.454a1.372 1.372 0 00.318-.227h-.091c.091-.091.136-.182.182-.182h.181a8.236 8.236 0 00.862-.907c-.136.046-.227.091-.363.136a1.067 1.067 0 01-.408.272.236.236 0 00-.181-.091l-.182.182c.091-.091.136-.091.182 0a3.61 3.61 0 00-.364.408h.091a1.96 1.96 0 00-.318.273c-.272.272-.544.544-.817.862h.182a.21.21 0 00-.227.136h.046c-.046.091-.091.091-.182.045a1.31 1.31 0 01-.5.5c-.181.091-.363.227-.544.318-.317.227-.635.454-.908.635a.533.533 0 01.227-.227c.136-.091.272-.227.454-.363a18.967 18.967 0 011.906-1.905v-.091h.091c.046 0 .091-.091.182-.182h.045c-.045-.136 0-.227.136-.227a4.842 4.842 0 01.318-.5.321.321 0 00.182-.227c-.046-.045-.091-.091-.091-.136a45.303 45.303 0 00-1.543 1.633c.045 0 .136-.091.227-.182v.182c-.046 0-.046 0-.046.046h.046a8.1 8.1 0 00-1.27 1.225.459.459 0 00-.318.181c-.046.181-.136.227-.318.181-.227.318-.454.59-.726.907a.3.3 0 00-.318.182c-.045.045 0 .045.091.045v.045c-.091 0-.136-.045-.136-.09a.739.739 0 01-.181.317c-.045.046-.091.091-.136.091-.091.046-.136.091-.227.091-.046.091-.136.091-.227 0a4.128 4.128 0 00.771-.771.2.2 0 010-.227h-.046v.136c-.09 0-.09-.045-.09-.091-.046.091-.091.136-.091.182-.091 0-.182.045-.182.09a.243.243 0 00-.136.182.6.6 0 00-.227.272c-.363.363-.681.681-1 1.044l-.545.408c-.272.181-.544.363-.771.545h-.046v-.135a1.81 1.81 0 00.454-.544 2.032 2.032 0 01-.59.5.465.465 0 01-.181.046v-.046a.577.577 0 00-.317.182c-.046 0-.091.045-.136.045a.16.16 0 00.091-.045v-.138a16.8 16.8 0 001.679-1.861 11.51 11.51 0 011-1.18c.136-.091.318-.227.5-.363a12.7 12.7 0 001.135-1.407h-.045c-.046.091-.091.091-.091 0a2.4 2.4 0 00.5-.454.249.249 0 01-.136.227 1.121 1.121 0 00.454-.544.632.632 0 01-.136.181.916.916 0 01.181-.363.275.275 0 01-.363-.045 20.762 20.762 0 00-1.634 1.86 27.073 27.073 0 01-1.906 2 1.837 1.837 0 00-.408.227v.046a2.63 2.63 0 00-.726.862 3.1 3.1 0 01-.409.272.235.235 0 00.091-.182.549.549 0 01-.091.136c.046-.136.046-.181.136-.227v.09a.768.768 0 00.272-.272h-.181a.45.45 0 00.181-.046v.046c.091-.136.272-.318.409-.5a.251.251 0 00.136-.227c-.09.091-.136.181-.227.227a.77.77 0 00.181-.59v-.136l-.136.136.046.045c-.046.045-.136.091-.182.136 0-.045.046-.091.091-.136v.091c.045-.091.045-.136 0-.136.181-.272.363-.59.589-.907a3.331 3.331 0 00.5-.409c.045 0 .136-.091.227-.181 0-.091.046-.136.182-.181h-.136a.973.973 0 01.136-.227h-.136c.09-.182.181-.272.317-.272v-.046c0 .046.046.046.136.046v-.181c0-.045.091-.091.182-.182a.906.906 0 00.363-.454.044.044 0 01-.045-.045c-.045.09-.091.136-.136.136a.12.12 0 01-.136.136 4.2 4.2 0 00-.227.409h-.09a1.179 1.179 0 01.317-.454.478.478 0 00.181-.454c0-.046.046-.091.136-.091v.045a.417.417 0 00.136-.227c.046 0 .091-.046.227-.136a.354.354 0 00-.136-.045 2.751 2.751 0 00.363-.364.273.273 0 00-.046.182 11.209 11.209 0 00.953-1.225 1.85 1.85 0 01.5-.272.49.49 0 01.136-.317.989.989 0 01.363-.409c.046 0 .046-.046.091-.181a1.984 1.984 0 00.5-.409c.091-.045.136-.091.136-.136v-.136c-.091.046-.136.136-.182.136-.09 0-.09 0-.09-.046l.272-.136c.09-.09.182-.136.182-.227h.045c.091 0 .091-.045.091-.091s0-.045-.091-.045a.343.343 0 00.182-.318 1.372 1.372 0 00.317-.227c-.09.136-.181.227-.181.363a.354.354 0 01.181-.182.317.317 0 01-.181.227 1.588 1.588 0 00.363-.227h.04v-.136a.736.736 0 00.318-.181.167.167 0 01-.136-.046.708.708 0 00.363-.272l-.046.045c.046.046.091.046.182-.045a1.031 1.031 0 01.317-.454h-.045c-.046 0-.046.045-.046.091 0-.091.091-.182.181-.272 0 .091 0 .136-.091.136a.235.235 0 00.182-.091v-.091c.045 0 .091-.045.182-.091-.046-.045-.046-.091 0-.091 0-.046.045-.091.09-.136a1.567 1.567 0 00.545-.545h-.046c.046-.045.09-.045.136-.091v.046c-.046.045-.046.045 0 .045a6.179 6.179 0 011.089-1.089h-.136l.272-.272a.157.157 0 01.091.045 1.46 1.46 0 01.272-.227c-.045 0-.09 0-.09-.046l-.182.181a.583.583 0 01.272-.181 1.734 1.734 0 00.5-.5h-.045l.862-.862a.35.35 0 00.228-.091 1.161 1.161 0 00.725-.59.275.275 0 00.136-.272.544.544 0 01-.318.318c0-.046.046-.046.091-.046h-.182c.408-.409.862-.817 1.271-1.225.045-.045.045-.091 0-.181a.462.462 0 01-.363.227c0 .045.046.091.046.136h-.046l.046-.136c-.046.045-.046.045-.046 0a137.75 137.75 0 002.587-2.632 5.89 5.89 0 01.545-.59l2.677-2.541q1.225-1.089 2.45-2.042c1.77-1.361 3.54-2.677 5.219-4.038a1.034 1.034 0 00.544-.272c.136-.091.318-.181.545-.318.091 0 .136-.046.227-.181a5.381 5.381 0 001.134-.59c.136-.09.227 0 .272.182a2.28 2.28 0 00.592-.092zM261.956 7.069c.136.045.227 0 .363-.136v.182a5.447 5.447 0 00.635-.454c0 .046 0 .091.046.091a.865.865 0 00-.318.544h.045a9.021 9.021 0 00-.635.726.931.931 0 01-.363.363 4.048 4.048 0 00-.681.862v.045a2.99 2.99 0 01-.681.817 5.441 5.441 0 00-.681.817 9.448 9.448 0 00-1.679 1.86h.091c-.046.046-.091.091-.091.136v-.136l-.181.181c.091.046.091.091 0 .136 0 .091-.046.091-.091.046a1.03 1.03 0 01-.136.227.044.044 0 00.045.045 2.05 2.05 0 00-.5.771 1.646 1.646 0 00-.318.454c-.045.046-.045.091-.091.136v-.045c-.046.045-.09.09-.09.136a.772.772 0 00-.273.272c-.045 0-.09.046-.136.136-.091.091-.182.227-.272.318a2.486 2.486 0 00-.591.817.574.574 0 01-.181.272 2.593 2.593 0 00-.182.363 1.615 1.615 0 00-.454.544c.046.046.046.046.091 0a1.7 1.7 0 00.545-.59.55.55 0 01.136-.091.413.413 0 00.136-.317 1.246 1.246 0 01.317-.409.044.044 0 01-.045-.045.232.232 0 00.227-.182.95.95 0 01.181-.272c0-.045.045-.09.136-.181a.609.609 0 01.272-.317c.046-.091.046-.136.091-.227.317-.318.635-.635.953-1a.169.169 0 01.045-.136c0 .091-.045.136-.045.181-.091.136-.182.318-.273.454v.272c-.227.317-.454.59-.68.862-.5.726-1 1.407-1.5 2.087-.318.409-.681.817-1 1.225a10.353 10.353 0 00-.953 1.044 8.072 8.072 0 00-.726 1c0 .046 0 .136-.09.136a.346.346 0 00.226-.091 2.05 2.05 0 00-.454.635c-.181.136-.272.272-.227.454a5.442 5.442 0 00-.681.817.463.463 0 01-.363.227 4.582 4.582 0 01-.862.771c-.046.046-.091.046-.136.091a6.951 6.951 0 00-.817.817c-.227.272-.454.5-.635.68a8.808 8.808 0 00-1.089 1.226 6.452 6.452 0 01-.544.817c-.136.136-.272.318-.409.454a12.862 12.862 0 01-1.089 1.134 2.01 2.01 0 01-.272.318.654.654 0 01-.5.408.4.4 0 01-.136.273 5.692 5.692 0 00-.5.589 7.7 7.7 0 01-2.087 1.952 3.808 3.808 0 01-.363.408.466.466 0 01-.227.273.981.981 0 00-.5.544 13.7 13.7 0 00-2.042 1.906 1.626 1.626 0 00-.5.181h-.091a.3.3 0 01-.227.181h-.59c-.091 0-.136 0-.182-.045-.091-.091-.136-.182-.227-.272a3 3 0 01-.681-.181.769.769 0 01-.454-.136 1.17 1.17 0 01-.59-.363.585.585 0 01-.5-.227 2.779 2.779 0 01-.907-.409.747.747 0 01-.363-.454 2.391 2.391 0 01-.908-1 .389.389 0 01-.363-.318l-.771-.771-.408-.681a.945.945 0 01-.272-.454.35.35 0 01-.046-.454.045.045 0 01-.045-.046c.045-.046.045-.091.045-.181-.045 0-.045-.045-.045-.091a.342.342 0 00.182-.046 3.976 3.976 0 01-.227-.681.647.647 0 00-.09-.272 2.164 2.164 0 01.317-.136l.046-.046h.136a.411.411 0 000-.454s0-.045.091-.045.226-.046.318-.046a1.281 1.281 0 00.227-1.044c.046.046.091.046.182 0 0-.091 0-.136.09-.181a1.6 1.6 0 01.635-.136 1.373 1.373 0 01.726.227.284.284 0 00.363.091c.953-.454 1.906-.907 2.813-1.452a1.846 1.846 0 00.409-.227c0 .046.091.091.182.046 1.088-.636 2.223-1.271 3.357-1.906.59-.363 1.135-.726 1.725-1.089.318-.227.636-.454.908-.681h.045c1-.681 2-1.361 3-2.087a1.3 1.3 0 00.635-.363c.272-.182.544-.363.862-.59a63.588 63.588 0 013.267-2.632 1.741 1.741 0 00.227-.272c-.045 0-.045 0-.045-.046.045.046.136 0 .182-.091.227-.181.5-.409.817-.635 1.135-.953 2.178-1.951 3.268-2.95-.046-.046-.046-.046 0-.046v-.045a.329.329 0 01-.272.181c.045 0 .09-.046.09-.136.09-.045.136-.136.227-.227 0 .091 0 .136-.045.182a1.384 1.384 0 00.317-.227c1.089-1.044 2.224-2 3.4-2.95a1.579 1.579 0 00.59-.5.953.953 0 00.272-.182 2.818 2.818 0 01.862-.635 9.615 9.615 0 001.089-.908c.091.091.181.091.227 0a.945.945 0 00.363-.272h.046a4.824 4.824 0 01-.4.507zM236.499.352a.689.689 0 00.59.136 6.872 6.872 0 001.588.635 11.533 11.533 0 011.27.726 14.339 14.339 0 012.814 2.405c.272.363.5.635.771.953a.266.266 0 00.136.317 2.515 2.515 0 00.272.363 1.51 1.51 0 00.227.544 3.768 3.768 0 01.182.681.337.337 0 00.046.227 1.043 1.043 0 01.045.635 1.742 1.742 0 01-.09 1.089 2.475 2.475 0 00-.363.681 1.669 1.669 0 01-.863.726 3.412 3.412 0 00-.68-.046c-.091-.045-.136-.091-.181-.045a2.419 2.419 0 01-1.179-.363.493.493 0 01-.228-.046l-.045-.045a.045.045 0 01-.046.045.2.2 0 00-.136-.045s-.046 0-.046-.091c-.09.091-.136.136-.226.091l.09-.091h-.227v-.045c-.181.045-.272 0-.272-.091-.046 0-.046-.046-.09-.046a.237.237 0 01-.182.091.244.244 0 01-.182-.136h-.091a.458.458 0 00-.317-.181h-.363a.243.243 0 00-.181-.136.618.618 0 01-.182-.136 1.624 1.624 0 01-.272-.045 1.509 1.509 0 00-.635-.045c-.046-.046-.09-.046-.181-.091a1.234 1.234 0 00-.772-.273 2.627 2.627 0 00-1.86 0q-.2.137-.272 0a.44.44 0 00-.046-.408 10.414 10.414 0 00.454-1.271 7.41 7.41 0 01.046-2 .867.867 0 00-.408-.817 2.488 2.488 0 01-1-.817 1.6 1.6 0 00-.227-.363c-.046-.045-.091-.136-.136-.181.09 0 .136-.046.045-.136v-.272a.82.82 0 01-.091-.454.345.345 0 01.136-.409c0-.045 0-.091-.045-.091.045 0 .091 0 .091-.046v-.317c.136-.136.182-.272.091-.408a.769.769 0 00-.091-.227.682.682 0 00.5-.182.165.165 0 00.227-.09 2.043 2.043 0 01.908-.046.416.416 0 01.5.046 5.541 5.541 0 011.177.141z"/><path fill="none" stroke="#fff" stroke-width=".5" stroke-dasharray="3" d="M0 66.446h150.286"/><path class="a" d="M168.855 58.159c-1.027-.4-1.612-.949-1.612-1.859 0-1.092.845-1.664 1.989-1.664a2.187 2.187 0 011.157.286l.364 1.7h.741l.091-1.863a3.843 3.843 0 00-2.339-.75c-1.794 0-3.172.962-3.172 2.613 0 1.43.975 2.249 2.457 2.847l.533.221c1.274.507 1.794.949 1.794 1.872 0 1.157-.9 1.781-2.275 1.781a2.893 2.893 0 01-1.495-.351l-.364-1.781h-.728l-.091 2a5.4 5.4 0 002.769.754c1.976 0 3.354-1.014 3.354-2.7 0-1.339-.7-2.132-2.6-2.886zm11.154 5.015v-4.108l.039-2.015-.13-.143-2.054.221v.43l1.014.2-.039 4.329a2.818 2.818 0 01-1.993.93c-.78 0-1.183-.442-1.183-1.716v-2.236l.065-2.015-.143-.143-2.093.208v.416l1.027.208-.039 3.627c-.013 1.9.7 2.574 1.859 2.574a3.308 3.308 0 002.539-1.352l.13 1.287 1.976-.117v-.429zm9.337-.015c-.013-.715-.026-1.7-.026-2.392v-1.363c0-1.833-.611-2.587-1.82-2.587a3.638 3.638 0 00-2.564 1.313l-.117-1.17-.195-.13-2 .78v.429l1.131.117c.026.572.039 1.066.039 1.872v.741c0 .663-.013 1.664-.026 2.392l-1.053.156v.442h3.276v-.442l-.991-.158c-.013-.728-.026-1.729-.026-2.392v-2.108a2.924 2.924 0 011.989-.949c.832 0 1.183.442 1.183 1.729v1.33c0 .689-.013 1.677-.026 2.392l-1.053.156v.442h3.279v-.442zm12.762-8.3l.378 1.88h.7l-.076-2.509h-7.072v.494l1.326.143c.026 1.248.026 2.509.026 3.783v.7c0 1.274 0 2.522-.026 3.77l-1.326.145v.494h4.03v-.494l-1.352-.156c-.027-1.25-.027-2.522-.027-3.913h2.25l.182 1.482h.6V57.22h-.6l-.182 1.4h-2.25c0-1.287 0-2.535.026-3.77zm4.238.338a.891.891 0 00.91-.884.872.872 0 00-.91-.871.868.868 0 00-.923.871.886.886 0 00.923.879zm.624 7.962c-.013-.728-.026-1.729-.026-2.392v-1.908l.026-1.9-.2-.13-2.184.767v.429l1.157.1c.026.624.039 1.092.039 1.885v.754c0 .663-.013 1.664-.026 2.392l-1.087.161v.442h3.277v-.442zm9.321 0c-.013-.715-.026-1.7-.026-2.392v-1.363c0-1.833-.611-2.587-1.82-2.587a3.638 3.638 0 00-2.561 1.313l-.116-1.171-.195-.13-2 .78v.429l1.131.117c.026.572.039 1.066.039 1.872v.741c0 .663-.013 1.664-.026 2.392l-1.053.156v.443h3.276v-.442l-.994-.158c-.013-.728-.026-1.729-.026-2.392v-2.108a2.924 2.924 0 011.989-.949c.832 0 1.183.442 1.183 1.729v1.33c0 .689-.013 1.677-.026 2.392l-1.053.156v.442h3.276v-.442zm3.978-3.38c.143-1.688 1.066-2.42 1.937-2.42a1.6 1.6 0 011.573 1.651c0 .468-.143.793-.767.793zm4.563.546a2.6 2.6 0 00.1-.793 2.552 2.552 0 00-2.665-2.717 3.359 3.359 0 00-3.263 3.614c0 2.223 1.3 3.51 3.211 3.51a2.887 2.887 0 002.691-1.625l-.286-.195a2.418 2.418 0 01-2 1.027c-1.391 0-2.34-.949-2.366-2.834z"/></svg>