<svg xmlns="http://www.w3.org/2000/svg" width="112" height="28.877"><defs><style>.a{fill:#fff}</style></defs><path class="a" d="M11.305.711c0 .019.039.019.077.019a1.017 1.017 0 00.386.116.042.042 0 00.039.039c.077.058.174.135.271.193.058.058.116.1.174.155a2.3 2.3 0 01.232.213c.058.039.135.1.213.155a.077.077 0 01.077.039.15.15 0 00.077.077 1.092 1.092 0 01.329.406 1.226 1.226 0 01.232.406 1.952 1.952 0 01.116.483 5.127 5.127 0 01-.019.773c-.019.116-.039.212-.058.328-.058.232-.1.464-.135.676-.019.039-.039.058-.039.077a1.766 1.766 0 00.329.174l.039-.019v-.077a.282.282 0 00.174.116.1.1 0 00.077.058 1.429 1.429 0 01.676.754.23.23 0 01-.077.251.151.151 0 01-.155.019.086.086 0 00-.1 0c-.077.039-.135.039-.174-.019a.375.375 0 00-.174.1.26.26 0 01-.174-.1.464.464 0 01-.174-.038 2.18 2.18 0 00-.483-.058c-.038.116-.077.212-.1.29a.328.328 0 01-.058.193c-.039 0-.039 0-.039.019-.038.077-.058.155-.077.193a1.1 1.1 0 00-.077.232 1.509 1.509 0 01-.1.271c-.019.039 0 .058.019.077v-.019a.168.168 0 00-.058.116c-.019.019-.019.019 0 .019a.087.087 0 000 .1c-.038.135-.077.29-.116.425l-.116.29c0 .019 0 .019.019.019a1.524 1.524 0 00-.1.271.755.755 0 00-.038.116.07.07 0 00-.039.1.239.239 0 00-.077.155.019.019 0 00.019.019c0-.019 0-.039.039-.058a.178.178 0 01-.077.116.548.548 0 01-.077.251h-.019a.117.117 0 00-.019.077c.019-.019.019-.058.058-.077l.019-.019a1.289 1.289 0 01-.116.386c-.019.019-.019.058-.039.1a1.587 1.587 0 01-.135.251 1.451 1.451 0 00-.077.213l-.058.058a2.2 2.2 0 01.1-.251c.019-.077.039-.155.058-.213l.116-.348a1.1 1.1 0 01.077-.232q-.029-.029 0-.116a1.333 1.333 0 01-.058.155v.058a.175.175 0 00-.058.135c-.019 0-.039 0-.039.019h.039a1.577 1.577 0 01-.174.483.068.068 0 01-.019.039h-.019c-.039.1-.077.174-.116.251-.019.058-.039.1-.058.155l-.116.348c-.039.039-.039.058-.039.058a.581.581 0 01-.077.193.976.976 0 00-.1.251c-.058.116-.1.232-.155.348v.019a2.826 2.826 0 00-.116.271.019.019 0 01-.019-.019.585.585 0 01-.077.155l-.019-.019c.019-.019.039-.038.058-.038h-.038a.167.167 0 01-.058.116l.058-.174c.019.019.038 0 .058-.019a.409.409 0 01.077-.193.311.311 0 01.058-.174c0-.077.039-.116.1-.116.019-.038.019-.077.039-.116a.068.068 0 01-.039-.019.06.06 0 00-.019.039h-.01a.348.348 0 00.1-.135c-.019 0-.019 0-.019-.019.019 0 .039-.019.019-.039a.4.4 0 01.077-.116c0-.019 0-.019.039-.039a.06.06 0 00-.039-.019.882.882 0 00.1-.193.22.22 0 00.058-.155.357.357 0 00.039-.135c.019-.039.039-.1.058-.135a.2.2 0 00-.077.135 1.966 1.966 0 00-.1.232c-.058.1-.1.193-.135.27-.019-.019-.019-.019-.039-.019a.278.278 0 01-.116.193.482.482 0 00-.077.135.359.359 0 01-.135.155.147.147 0 00-.039.077c0 .039-.019.077-.058.077-.039.116-.077.232-.116.329 0 .019 0 .019.039 0a.06.06 0 01-.039.019v-.019c-.077.155-.135.29-.193.386-.019.058-.019.1-.039.1-.019.039-.038.058-.038.077l-.058.058c0 .019 0 .019.019.019h.019c-.039.019-.058.039-.058.077a.9.9 0 00-.1.193.28.28 0 00-.116.174.106.106 0 00-.039.1.34.34 0 00-.077.1c0 .039 0 .077-.019.077h-.019v.019a.371.371 0 01-.1.174c-.039.019-.039.019-.039-.019-.039.019-.058.039-.058.058h-.019a3.89 3.89 0 00-.251.348 4.932 4.932 0 01-.232.329 3.581 3.581 0 01-.5.56 8.046 8.046 0 001.1-1.488 4.873 4.873 0 00.425-.966 1.018 1.018 0 00.155-.29c-.019-.019-.019-.019-.038-.019-.058.116-.1.212-.135.309a.419.419 0 01-.058.1 6.512 6.512 0 00-.348.754.167.167 0 00-.077.135v.019h-.019c-.1.135-.174.27-.251.386-.019-.019-.019-.019-.039 0 0-.039.019-.058.039-.1a1.735 1.735 0 00.116-.193.81.81 0 01.155-.232v-.1a.019.019 0 01-.019.019h.019a.72.72 0 01-.1.116v.019c-.019 0-.039.019-.058.019-.019-.058.019-.116.077-.174a2.31 2.31 0 00.1-.348.4.4 0 00-.077.116c-.136.232-.29.425-.425.618a1.187 1.187 0 00-.135.193.844.844 0 01-.039.193c-.039.039-.1.077-.135.116a.067.067 0 01-.038-.019c-.1.135-.193.251-.29.386-.039.058-.058.077-.058.116a.389.389 0 00-.039.174 4.477 4.477 0 00-.27.367.181.181 0 01-.155.116 1.472 1.472 0 00-.387.386c-.155.174-.328.329-.483.483a1.713 1.713 0 01-.328.155c-.135.1-.251.174-.367.251a.827.827 0 01-.271.077H6.13a3.964 3.964 0 00.56-.58h-.019a.167.167 0 00.116-.058.06.06 0 01-.039-.019c.039-.019.058-.019.1-.039v-.039c0 .039.019.039.019.019.019 0 .019-.019.019-.058h.019a.784.784 0 00.193-.174h-.061a.071.071 0 00.058-.019h.019c.039-.019.058-.077.1-.116h.019a.091.091 0 01.1-.1v.019l.232-.29h-.028c0 .019-.019.039-.058.039a.523.523 0 00.155-.135.122.122 0 00.116-.1c.019 0 .039-.019.039-.058-.039 0-.058 0-.077.019s-.039.019-.019.019c0 0 0-.019-.039-.058l-.019.019h.019a2.3 2.3 0 00-.212.232c-.019.019-.019.019-.019.039s0 .019.019.019a.627.627 0 00-.251.251.019.019 0 00.019.019.754.754 0 00-.193.155h.058c-.039.019-.077.058-.116.058a1.765 1.765 0 01-.174.193c0 .019.019.019.019-.019 0 .039-.019.039-.019.039l-.019-.019c-.038.058-.1.1-.135.077 0 .019 0 .019.019 0 .039-.019.039-.058.039-.135a.9.9 0 00.367-.348.314.314 0 01.1-.174c0-.019.019-.019.039-.039a3.553 3.553 0 00.329-.425l-.019-.019a.145.145 0 01-.077.019c0 .019 0 .019.019.019-.039.019-.058.039-.1.058a.019.019 0 01-.019.019c0 .019 0 .019.019.019-.1.116-.174.212-.27.309a.071.071 0 01-.058.019l-.155.155h.019a3.068 3.068 0 01-.425.444.146.146 0 01-.135.077.771.771 0 01-.116.039c.019.019.019 0 .019-.019h-.019a.943.943 0 00-.135.058 3.018 3.018 0 00.522-.387.177.177 0 00.077-.116c.019-.039.039-.058.058-.058a.408.408 0 00.116-.077c-.019-.019-.019-.039.019-.058a.129.129 0 00.077-.135.785.785 0 00.193-.174c.019-.019.039-.058.077-.1a.4.4 0 01.077-.116.67.67 0 00.135-.232c-.193.193-.367.386-.541.58l-.232.29a.165.165 0 00-.058.1.036.036 0 010-.058c-.116.1-.213.174-.29.251h-.019a1.564 1.564 0 00.309-.309.351.351 0 00-.213.193.346.346 0 01-.174.077c-.019.039-.039.039-.058.039a.122.122 0 00.116-.1h-.026c-.155.135-.29.271-.406.387a1.312 1.312 0 00-.232.232c-.038 0-.058 0-.058.039a1.446 1.446 0 00-.232.135.418.418 0 00.058-.1.152.152 0 00-.155.019 1.1 1.1 0 00-.155.135h-.019a.566.566 0 00.251-.232.042.042 0 00-.039.039l-.019-.019a.208.208 0 00.058-.135c-.039.019-.058.039-.058.077-.116.077-.212.155-.309.232a.938.938 0 00-.135.058.753.753 0 00-.193.155c0 .039 0 .039-.019.039h-.019c.019 0 .019 0 .039-.039a.116.116 0 01-.077.019c-.019.019-.039.058-.077.077a.15.15 0 00-.058.019c-.077.058-.155.135-.232.193h-.1c.077-.116.174-.232.271-.367a.642.642 0 01.193-.27.587.587 0 00.1-.135.176.176 0 01.077-.155.117.117 0 00.058-.116v-.077s0-.019.039-.058h.019l-.058.058.5-.5a.194.194 0 00.077-.1.842.842 0 00.116-.135v-.019a.231.231 0 00.135-.135h-.019a.3.3 0 00.135-.135v-.017l.039-.039h.019c.038-.077.1-.135.135-.213a.1.1 0 00.039-.077h-.019a.334.334 0 00.1-.077c0 .019 0 .039-.019.039a.3.3 0 00.116-.155.019.019 0 00-.019.019v-.019a.071.071 0 00.058-.019c0 .019 0 .019-.019.019h.019c.058-.077.135-.155.232-.271-.039.039-.058.058-.058.077a.086.086 0 010 .1.9.9 0 00-.193.193.071.071 0 00.019.058c0-.019.019-.039.039-.058a.849.849 0 00-.116.309c.019.077.019.135-.019.174a.425.425 0 01-.058.1c0 .058 0 .1-.039.1h.077a15.192 15.192 0 002.106-3.15.177.177 0 01.058-.1c.174-.406.329-.812.5-1.217a.4.4 0 01.1-.174v-.038a.136.136 0 00-.1.077c.019-.019.039-.058.077-.077a.367.367 0 00.038-.155h-.019a.45.45 0 00.135-.213.06.06 0 00.039-.019l-.019.019c0 .058 0 .1-.039.116-.039 0-.039.019-.019.039-.038.039-.038.058-.038.058.019 0 .038 0 .038-.039a.289.289 0 01-.077.155.072.072 0 00-.019.058h.019c0-.019 0-.019.019-.019a.32.32 0 00-.039.1c-.019.019-.019.039-.039.058a.245.245 0 00-.019.116.787.787 0 00-.1.174h.019a.15.15 0 00-.019.058l-.039.039a.42.42 0 01-.058.1c0 .019 0 .019.019.019.019.039 0 .058-.019.077-.019.039-.039.058-.039.077v.1a1.184 1.184 0 01.1-.232c.116-.29.232-.561.348-.85-.019 0-.019-.019.019-.058.058-.155.116-.309.174-.483a1.493 1.493 0 00.135-.5.084.084 0 01-.058.019.019.019 0 01-.019.019.176.176 0 01-.058.135.117.117 0 01-.058.116.368.368 0 00.039-.251 1.722 1.722 0 00-.193.444l-.058.174v.019a.348.348 0 00-.077.174.31.31 0 01-.058.116.433.433 0 00-.058.193c-.019 0-.019 0-.019-.019a.376.376 0 00-.019.135 3.316 3.316 0 01-.174.367.854.854 0 00-.039.193l-.077.077a3.4 3.4 0 01-.309.773c.058-.174.135-.348.212-.522a.757.757 0 01.039-.116c.058-.135.116-.29.174-.444 0-.039.019-.058.019-.1.039-.019.039-.039.039-.077a.312.312 0 00.058-.174 1.443 1.443 0 01-.212.387 2.058 2.058 0 00-.174.367 8.03 8.03 0 00-.193.425.6.6 0 01-.116.251.911.911 0 00-.116.29c-.058.077-.1.155-.155.232-.039.058-.058.135-.1.193a1.23 1.23 0 01-.135.232c-.019 0-.019 0-.019-.019a.786.786 0 00-.174.193H7.2c-.019 0-.019 0-.039-.019 0-.019.019-.039.058-.077.077-.135.174-.27.251-.425 0-.039.019-.077.019-.116l.019-.019a1.616 1.616 0 00.232-.444 3.191 3.191 0 01.232-.425.248.248 0 01.077-.193 1.992 1.992 0 00.135-.406.019.019 0 01-.019-.019.38.38 0 01.077-.155v-.019a.925.925 0 00.058-.135c0-.058.019-.1.019-.135 0 .019.019.019.019.038.039-.038.039-.077 0-.1.019 0 .019-.019.019-.039l.058-.058c.039 0 .039-.039.019-.077v-.019c0 .039-.019.058-.019.077 0-.019.019-.039.019-.077h.019c.019 0 .019-.019.019-.058a.06.06 0 00-.019.039.2.2 0 01-.019-.077c-.077.251-.174.483-.251.7-.116.251-.213.5-.329.754-.077.116-.155.232-.213.329h.019a.042.042 0 00.039-.039.268.268 0 01-.1.193.453.453 0 00.039-.155 5.179 5.179 0 01-.232.464h.019a.264.264 0 01-.058.077.077.077 0 00-.039.077v-.077c.155-.328.329-.638.5-.966a1.013 1.013 0 01.116-.309l.019-.019h-.019c.019-.019.019-.058.039-.1.039-.077.077-.174.116-.271.058-.174.135-.348.212-.522.116-.29.213-.58.329-.87a.866.866 0 01.135-.348c0-.058.019-.1.019-.155a.308.308 0 00.077-.135c-.038.019-.038.019-.019.039a.781.781 0 00-.1.174.036.036 0 010-.058c0-.019 0-.019.019-.039a.879.879 0 00.1-.27c-.019.019-.019.019 0 .019a.82.82 0 00.039-.1c-.039.039-.039.058-.039.058a.176.176 0 01.077-.155v-.135c0-.038.038-.077.077-.135a1.5 1.5 0 01.039-.406.019.019 0 00.019.019.145.145 0 00.019-.1.328.328 0 01.019-.135.813.813 0 00.077-.309 2.027 2.027 0 00.1-.367 1.556 1.556 0 00.1-.406c-.406.116-.792.213-1.179.329-.174.039-.329.077-.483.1h-.039l.019-.019h-.019a.188.188 0 01-.174.077c.019 0 .039-.019.058-.039-.019 0-.039.019-.058.019-.039.039-.058.058-.1.058a.06.06 0 01.019-.039h-.005a.06.06 0 00-.019.039.785.785 0 01-.329.1.077.077 0 00.077-.039.455.455 0 01-.155.039 1.992 1.992 0 01-.27.077c-.039.039-.077.058-.1.039a1.91 1.91 0 01-.212.1c-.039-.019-.058 0-.077.019a1.814 1.814 0 01-.309.077 1.006 1.006 0 00-.29.135 1.354 1.354 0 01-.058.155.146.146 0 01.019.1c0 .212-.019.406-.019.58a1.447 1.447 0 00.077.309c.019.116.039.232.058.328 0 .077.019.135.019.213a1.507 1.507 0 01.039.27.816.816 0 00-.058.425c0 .019.019.039.019.058l.058.348a.493.493 0 01.039.135.394.394 0 01-.019.1v.058c0-.019-.019-.019-.019-.039 0 .019-.019.019-.019.039a.071.071 0 01-.058.019v.077c-.039 0-.039-.019-.039-.039q-.029.058-.058.058c0 .019-.019.039-.019.019a.019.019 0 01-.019-.019.019.019 0 00-.019.019c.019.019.019.019.019.039q-.058.029 0 .058v.019h-.039c0-.039 0-.039-.019-.039a.15.15 0 00-.019.058.019.019 0 01-.019-.019c-.019-.039-.038-.058-.077-.058a.175.175 0 01-.019.1.019.019 0 01-.019-.019c-.039.019-.039.039-.019.058l-.039.039c-.019.019-.019.019-.039.019s-.019-.019-.019-.058c-.019.039-.039.058-.058.058s-.019-.019-.058-.058c-.019.039-.019.077.019.077h-.058c.039.077.039.1 0 .1v-.019a.193.193 0 00-.1-.077.019.019 0 11-.038 0 .06.06 0 01-.039-.019c-.019.058-.058.077-.1.039-.019.039-.039.039-.039.019-.019 0-.039-.019-.077-.019 0 .039 0 .039.019.039h-.019a.071.071 0 01-.077-.077v.019c-.019 0-.019 0-.038-.019a.085.085 0 01-.019.1.568.568 0 00-.174-.039c0 .039 0 .058.019.058h-.058c-.039.039-.058.058-.1.039a.019.019 0 01-.019-.019c-.039 0-.058-.019-.1-.058a.1.1 0 01-.154.019.091.091 0 01-.116-.019c-.039.019-.058.019-.1-.019-.019-.019-.019-.039-.039-.039-.019.039-.019.039-.039.019-.019 0-.039-.019-.077-.058-.058 0-.077-.039-.116-.058a.35.35 0 00-.135-.1c-.039 0-.039.019-.039.058a.06.06 0 01-.039.019 2.04 2.04 0 01-.947-1.1 3.281 3.281 0 00-.213-.522 2.134 2.134 0 00-.213.116q-.754.377-1.449.812c-.019.038-.039.058-.058.058a.529.529 0 01-.251.251.252.252 0 01-.193-.174c-.019 0-.019 0-.019-.019a.431.431 0 01.079-.232.331.331 0 00-.116.116c-.019.019-.019.019-.019 0a.478.478 0 00.155-.271h-.02c-.039.077-.1.1-.135.077a.716.716 0 00.193-.116 5.441 5.441 0 011.353-1.121c.213-.116.425-.251.657-.386a.209.209 0 010-.213c.019.019.019.019 0 .039a.088.088 0 000 .1v-.058c.019.039.019.077.039.116.019 0 .039-.039.019-.1a.326.326 0 010-.193h-.026a1.1 1.1 0 00-.077-.425 6.876 6.876 0 01-.1-.908 5.886 5.886 0 01-.039-.6.019.019 0 01-.019-.019.042.042 0 01-.039.039.019.019 0 00.019.019l.019-.019v.193a.148.148 0 00-.039.077h.039c0 .135.019.251.019.387v.039a4.523 4.523 0 00.135.869 2.15 2.15 0 00.039.367c-.019.019-.039.039-.039.058v-.019c-.019-.135-.039-.251-.058-.386.019-.039 0-.058-.019-.1a.059.059 0 000-.077.937.937 0 00-.019-.232.316.316 0 01-.058-.116c.039-.019.039-.058 0-.1v-.116a.164.164 0 01-.039-.116q.029 0 0-.058a9.351 9.351 0 010-1.044c0-.058.019-.116.019-.174.019-.155.038-.309.058-.445a.357.357 0 01.039-.135.569.569 0 01.039-.193h-.019a.176.176 0 00.058-.135c.019-.077.058-.155.077-.232s.019-.174.039-.251l.019-.019a1.072 1.072 0 01.116-.406.287.287 0 01.039-.174.347.347 0 00.174.077.084.084 0 00.019-.058v.019a.13.13 0 00.077-.116l-.019.019v-.019a.312.312 0 01.174.058.108.108 0 00.116.019l.019-.019a.019.019 0 01-.019-.019c.019.039.077.039.135.039a.321.321 0 00.193 0 .548.548 0 00.251.077c.019.019.039.019.039 0v-.039a.279.279 0 00.135.039.5.5 0 01.135.039 2.07 2.07 0 00.29.135 1.968 1.968 0 01.29.135c.1.058.213.116.329.174a.117.117 0 00.116.058 2.947 2.947 0 01.406.27c.1.135.213.251.329.386a.682.682 0 00.1.155 3.137 3.137 0 01.213.444.232.232 0 01.039.154 2.385 2.385 0 01.039.367.246.246 0 010 .232 1.171 1.171 0 01-.116.367.146.146 0 00.155-.019c.232-.077.464-.155.7-.251a2.5 2.5 0 00.5-.155 45.067 45.067 0 012.454-.638.961.961 0 01.039-.309.311.311 0 01.058-.174h-.019l.058-.29a.164.164 0 010-.135c.039-.039.039-.1.019-.174a.188.188 0 00.019-.174.175.175 0 00.019-.1.067.067 0 01.019-.038.019.019 0 01-.019-.019l.019-.039-.019-.019a.776.776 0 00.058-.29c.019 0 .019-.039.019-.077H9.97c.019 0 .019-.039 0-.1a.06.06 0 00.039.019v-.019H9.99a.432.432 0 00.058-.193v-.1c.039-.019.039-.039.019-.1a.329.329 0 01.039-.1.857.857 0 01.039-.193V2.57a.328.328 0 01.039-.1.426.426 0 01.039-.27 7.839 7.839 0 00.155-1.353.514.514 0 00.232.058h.077a.117.117 0 00-.019-.155.6.6 0 01.251.058.087.087 0 000-.1c0-.019.019-.039.039-.058a.071.071 0 01.019-.058 1.434 1.434 0 01.232.135c.018.023.057.023.096-.016zM34.261 3.01c.058.019.1 0 .155-.058v.077a2.337 2.337 0 00.271-.193c0 .019 0 .039.019.039a.368.368 0 00-.135.232h.019a3.858 3.858 0 00-.27.309.4.4 0 01-.155.155 1.724 1.724 0 00-.29.367v.019a1.266 1.266 0 01-.29.348 2.3 2.3 0 00-.29.348 4.023 4.023 0 00-.715.792h.039c-.019.019-.039.039-.039.058v-.058l-.077.077c.039.019.039.039 0 .058 0 .039-.019.039-.039.019a.417.417 0 01-.058.1.019.019 0 00.019.019.873.873 0 00-.213.329.7.7 0 00-.135.193c-.019.019-.019.039-.039.058v-.019c-.019.019-.039.038-.039.058a.33.33 0 00-.116.116c-.019 0-.039.019-.058.058-.039.039-.077.1-.116.135a1.062 1.062 0 00-.251.348.247.247 0 01-.077.116 1.12 1.12 0 00-.077.155.681.681 0 00-.193.232c.019.019.019.019.038 0a.724.724 0 00.232-.251.236.236 0 01.058-.039.175.175 0 00.058-.135.533.533 0 01.135-.174.019.019 0 01-.019-.019.1.1 0 00.1-.077.409.409 0 01.077-.116c0-.019.019-.038.058-.077a.26.26 0 01.116-.135c.019-.039.019-.058.038-.1.135-.135.271-.27.406-.425a.071.071 0 01.019-.058c0 .039-.019.058-.019.077-.039.058-.077.135-.116.193v.116c-.1.135-.193.251-.29.367-.212.309-.425.6-.638.889-.135.174-.29.348-.425.522a4.429 4.429 0 00-.406.444 3.427 3.427 0 00-.309.425c0 .019 0 .058-.039.058a.147.147 0 00.1-.039.872.872 0 00-.193.27c-.077.058-.116.116-.1.193a2.314 2.314 0 00-.29.348.2.2 0 01-.155.1 1.957 1.957 0 01-.367.328c-.019.019-.039.019-.058.039a2.971 2.971 0 00-.348.348c-.1.116-.193.212-.271.29a3.758 3.758 0 00-.464.522 2.725 2.725 0 01-.232.348c-.058.058-.116.135-.174.193a5.436 5.436 0 01-.464.483.839.839 0 01-.116.135.278.278 0 01-.213.174.168.168 0 01-.058.116 2.416 2.416 0 00-.212.251 3.285 3.285 0 01-.889.831 1.565 1.565 0 01-.155.174.2.2 0 01-.1.116.417.417 0 00-.213.232 5.856 5.856 0 00-.87.812.7.7 0 00-.213.077h-.039a.128.128 0 01-.1.077h-.246c-.039 0-.058 0-.077-.019-.039-.039-.058-.077-.1-.116a1.281 1.281 0 01-.29-.077.327.327 0 01-.193-.058.5.5 0 01-.251-.155.25.25 0 01-.213-.1 1.185 1.185 0 01-.386-.174.319.319 0 01-.155-.193 1.016 1.016 0 01-.386-.425.165.165 0 01-.155-.135l-.329-.328-.174-.29a.4.4 0 01-.116-.193.148.148 0 01-.019-.193.019.019 0 01-.019-.019c.019-.019.019-.039.019-.077-.019 0-.019-.019-.019-.039a.145.145 0 00.077-.019 1.7 1.7 0 01-.1-.29.275.275 0 00-.038-.116.932.932 0 01.135-.058l.019-.019h.058a.175.175 0 000-.193s0-.019.039-.019.1-.019.135-.019a.546.546 0 00.1-.444c.019.019.038.019.077 0 0-.039 0-.058.039-.077a.68.68 0 01.27-.058.585.585 0 01.309.1.121.121 0 00.155.039c.406-.193.812-.386 1.2-.618a.786.786 0 00.174-.1c0 .019.039.039.077.019.464-.271.947-.541 1.43-.812.251-.155.483-.309.734-.464.135-.1.271-.193.387-.29h.019c.425-.29.85-.58 1.275-.889a.552.552 0 00.271-.155c.116-.078.232-.155.367-.251.444-.387.908-.754 1.391-1.121a.739.739 0 00.1-.116c-.019 0-.019 0-.019-.019.019.019.058 0 .077-.039.1-.077.213-.174.348-.27.483-.406.928-.831 1.392-1.256-.019-.019-.019-.019 0-.019v-.019a.14.14 0 01-.116.077c.019 0 .039-.019.039-.058.039-.019.058-.058.1-.1 0 .039 0 .058-.019.077a.584.584 0 00.135-.1c.464-.445.947-.85 1.449-1.256a.673.673 0 00.251-.213.406.406 0 00.116-.077 1.2 1.2 0 01.367-.27 4.094 4.094 0 00.464-.387c.039.039.077.039.1 0a.4.4 0 00.155-.116h.019a2.064 2.064 0 01-.179.216zM23.42.15a.293.293 0 00.251.058 2.922 2.922 0 00.676.27 4.946 4.946 0 01.541.309 6.111 6.111 0 011.2 1.024c.116.155.212.27.328.406a.113.113 0 00.058.135 1.066 1.066 0 00.116.155.649.649 0 00.1.232 1.609 1.609 0 01.077.29.145.145 0 00.019.1.444.444 0 01.019.27.744.744 0 01-.039.464 1.052 1.052 0 00-.155.29.712.712 0 01-.367.309 1.454 1.454 0 00-.29-.019c-.039-.019-.058-.039-.077-.019a1.03 1.03 0 01-.5-.155.209.209 0 01-.1-.019l-.019-.019a.019.019 0 01-.019.019.085.085 0 00-.058-.019s-.019 0-.019-.039c-.039.039-.058.058-.1.039l.039-.039h-.1v-.019c-.077.019-.116 0-.116-.039-.019 0-.019-.019-.039-.019a.1.1 0 01-.077.039.1.1 0 01-.077-.058h-.039a.2.2 0 00-.135-.077h-.155a.1.1 0 00-.077-.058.265.265 0 01-.077-.058.692.692 0 01-.116-.019.643.643 0 00-.271-.019c-.019-.019-.039-.019-.077-.039a.525.525 0 00-.329-.116 1.119 1.119 0 00-.792 0q-.087.058-.116 0a.188.188 0 00-.019-.174 4.473 4.473 0 00.193-.541 3.153 3.153 0 01.019-.85.369.369 0 00-.174-.348 1.059 1.059 0 01-.425-.348.683.683 0 00-.1-.155c-.019-.019-.039-.058-.058-.077.039 0 .058-.019.019-.058v-.116a.349.349 0 01-.039-.193.147.147 0 01.058-.174c0-.019 0-.039-.019-.039.019 0 .039 0 .039-.019V.483c.058-.058.077-.116.039-.174a.323.323 0 00-.039-.1.291.291 0 00.213-.077.07.07 0 00.1-.038.869.869 0 01.387-.019.177.177 0 01.212.019 2.36 2.36 0 01.506.056zM50.783 2.296a.091.091 0 00.116-.019v-.015a.653.653 0 01.232.077V2.3a.326.326 0 01.116.116V2.3a.778.778 0 00-.174-.1.325.325 0 00.1.039c0-.019.019-.019.039-.039a1.01 1.01 0 00.522.29c.019-.019.039-.019.077-.019a1.05 1.05 0 01.348.193c.1.077.193.155.309.232a.356.356 0 01.29.232.659.659 0 00.29.27 3.49 3.49 0 00.348.387 5.456 5.456 0 01.329.773 2.183 2.183 0 01.1.773 1.7 1.7 0 01-.193.676c-.135.309-.27.6-.386.908a.456.456 0 00-.039.155.32.32 0 00-.1.251 2.658 2.658 0 00-.232.328.117.117 0 00-.019.077 3.669 3.669 0 01-.425.637 3.061 3.061 0 01-.251.425c0 .019.019.039.058.039v-.039a.22.22 0 01-.058.155.123.123 0 00-.116.1 2.626 2.626 0 00-.29.406.985.985 0 00-.213.309.389.389 0 01-.174.213 1.754 1.754 0 01-.135.27c-.116.155-.251.29-.348.406a.6.6 0 01.1-.193l.058-.058-.019-.019a.74.74 0 00.174-.251c.019 0 .019-.019.038-.039v-.025a.4.4 0 00.116-.077c.019 0 .019-.039.019-.077a.068.068 0 01-.039.019c-.019.058-.039.077-.1.077.058 0 .077-.039.1-.1-.039 0-.039-.039 0-.077a.156.156 0 00.077-.174.281.281 0 01-.174.116 3.941 3.941 0 00-.348.5 1.706 1.706 0 00-.116.193c-.251.386-.5.773-.754 1.14-.058 0-.077.019-.077.058a11.024 11.024 0 00.947-1.449h-.039a3.058 3.058 0 00-.348.425c-.174.251-.348.5-.522.734a1.383 1.383 0 01-.27.367h-.039l.116-.116a1.273 1.273 0 01.329-.445.487.487 0 01.135-.232h-.058a.019.019 0 00.019-.019.158.158 0 00-.1.1 5.4 5.4 0 01-.464.638.246.246 0 01-.174.135c-.039.019-.039.039-.039.077-.039-.019-.058 0-.1.039l.019.019-.058.058h.039l-.058.058a.085.085 0 00.019-.058.451.451 0 00-.135.135c-.019 0-.019.019-.019.039h.038a.246.246 0 01-.116.019c0 .039 0 .039.039.039a.113.113 0 00-.1.039c0 .038 0 .038.019.038-.174.135-.348.251-.5.367a2.509 2.509 0 01-.232.213v-.018a.192.192 0 01-.116.038.7.7 0 01.135-.193h-.019l-.232.174a2.285 2.285 0 00.58-.56v-.019c-.155.116-.29.232-.444.329 0 .019.019.019.039.019v.019a6.181 6.181 0 00-.522.406.284.284 0 01-.116.1v-.019c-.039.039-.058.058-.077.058a5.841 5.841 0 00.715-.676h.039a1.658 1.658 0 00.174-.271v-.019a.547.547 0 00-.174.193 2.245 2.245 0 01-.309.213c-.019-.019-.019-.039-.039-.019s-.019.019.019.019v.058a.019.019 0 01-.019-.019 1.062 1.062 0 00-.155.116.4.4 0 01-.116.077 1.09 1.09 0 00-.29.193h-.058a9.054 9.054 0 01-1.237 1.044 1.172 1.172 0 00-.193.135.328.328 0 01-.1.039.758.758 0 00-.193.155 1.928 1.928 0 01-.367.232c-.116.077-.213.135-.29.193-.077 0-.116.019-.135.058a5.713 5.713 0 01-.5.464c.039-.038.1-.038.174-.019a5.158 5.158 0 00-.309.116.21.21 0 01-.1.019c-.271.213-.522.387-.792.561a2.288 2.288 0 00-.425.27 1.158 1.158 0 00-.309.1.826.826 0 01-.5.135c-.116.019-.212.039-.328.058a.655.655 0 00-.193-.019 13.372 13.372 0 001.275-.657 14.131 14.131 0 001.836-1.179.169.169 0 00.174-.1h.019c.019 0 0 0-.019-.039a2.414 2.414 0 01-.541.29c-.213.135-.386.271-.58.406l-.522.232a6.985 6.985 0 01-.657.329c-.193.077-.386.155-.56.213a.051.051 0 00-.058.058l.019-.019c-.135.019-.174-.019-.155-.1a.512.512 0 00.116-.1q0-.087.116-.116c.193-.135.406-.271.638-.425a2.182 2.182 0 00.251-.193h-.193a.171.171 0 00-.213.039c-.019 0-.019.019-.039.039a.067.067 0 00.039.019.2.2 0 00-.174.039.881.881 0 00-.386-.019c-.039.039-.077.058-.1.077 0 .019 0 .019.019.019-.039.039-.058.058-.077.058h.116a1.137 1.137 0 01.116-.077c-.077.039-.116.077-.116.135.019.039.039.019.058-.039-.039.058-.077.1-.116.1 0 .039.019.058.058.019a.978.978 0 01-.155.135c.019.019.039 0 .058-.019a.4.4 0 01-.174.1c-.155.1-.329.174-.483.251-.039.039-.077.077-.116.077a6.472 6.472 0 01-.734.367.163.163 0 00-.116.039.83.83 0 00-.329.116.282.282 0 01-.155.1.088.088 0 010-.1c.039 0 .077-.019.135-.077 0-.019-.019-.039-.019-.077a2.044 2.044 0 00.676-.348.21.21 0 00-.1.019c.077-.039.154-.1.232-.135-.019.019-.038.039-.058.039a.06.06 0 01.019.039c.174-.1.328-.193.5-.29.077-.058.155-.1.232-.155a6.792 6.792 0 00.812-.56l.193-.193a1.876 1.876 0 01.464-.29 1.563 1.563 0 00.271-.174l.019.019c-.019 0-.039.019-.077.038a.093.093 0 00.135 0l.019-.019c-.038-.039-.058-.058-.1-.058a.019.019 0 00-.019-.019 14.832 14.832 0 01-1.333.754c-.154.077-.309.174-.444.251-.1.039-.174.077-.251.116a.085.085 0 00.019-.058c.077-.038.174-.1.271-.135.27-.174.522-.348.792-.541.5-.328 1-.676 1.546-1a12.55 12.55 0 001.237-.831 3.567 3.567 0 01.386-.367c-.019-.039 0-.077.058-.135a9.06 9.06 0 00.908-.811.256.256 0 01.058-.155 7.034 7.034 0 00.87-.831.184.184 0 00-.135.039v.058a.019.019 0 00-.019-.019c0 .039 0 .039-.019.019a.9.9 0 01-.135.135c.213-.232.425-.483.657-.734a.234.234 0 01.116-.174v-.019a2.339 2.339 0 00-.406.464 41.209 41.209 0 01-2.28 2.222 1.009 1.009 0 01-.522.29 1.486 1.486 0 00-.386.251 1.069 1.069 0 01-.348.27 2.607 2.607 0 00.5-.444v-.039h-.019a.524.524 0 01.232-.135c.212-.174.425-.348.638-.541.039 0 .058-.039.077-.077.077 0 .1-.039.1-.1a.328.328 0 01-.1.039.862.862 0 00.213-.155.067.067 0 00-.019.039.606.606 0 00.213-.174.505.505 0 00.116-.1h-.077v-.019a21.23 21.23 0 001.372-1.295.019.019 0 01-.019-.019.239.239 0 00.116-.155c.039 0 .058 0 .077-.039a1.2 1.2 0 00.174-.232 1.914 1.914 0 00.329-.348 15.552 15.552 0 001.082-1.739.379.379 0 00-.174.174 3.47 3.47 0 01-.425.657c-.039 0-.058.038-.077.077.019 0 .019.019.039.019a1.177 1.177 0 01-.116.077 9.485 9.485 0 00.541-.87.8.8 0 01.058-.155.087.087 0 00-.058.077c0 .039-.019.077-.058.077a.019.019 0 01-.019-.019c.232-.406.464-.792.7-1.179a.322.322 0 01.077-.213q.174-.377.348-.812c.174-.329.348-.7.5-1.043a5.639 5.639 0 01-.077-.6 4.381 4.381 0 00-.425-.213h-.077a.019.019 0 01.019-.019.383.383 0 00-.213.039 5.535 5.535 0 01-.792.29 7.106 7.106 0 01-.812.135.159.159 0 00.1-.1.238.238 0 00.154-.077l-.038-.039.019-.019h-.1a15.7 15.7 0 001.585-.6.237.237 0 00.174-.058.69.69 0 00-.193-.039.62.62 0 00-.328.039c.019 0 .039-.019.058-.039-.019.019-.058 0-.077-.039a1.532 1.532 0 00-.309.155c.039-.019.077-.058.116-.077h-.116c-.116.039-.213.077-.29.1a.388.388 0 00-.155.077 3.142 3.142 0 01-.6.213c-.039.019-.058.039-.1.058-.174.058-.348.116-.541.174a.691.691 0 01-.329.213c-.29.116-.56.232-.85.348a.019.019 0 01-.019.019v.019a.146.146 0 00.077-.019v.019a4.4 4.4 0 00.541-.155c-.039 0-.077.039-.116.077l.019-.019a1.9 1.9 0 01-.212.1 2.255 2.255 0 00-.29.116h-.008c-.058.039-.116.058-.174.1a5.579 5.579 0 00-.56.367c0 .019.019.058.019.077a.051.051 0 00-.058.058.019.019 0 00.019.019c.019-.058.077-.077.155-.077-.039 0-.058.019-.058.039a.494.494 0 00.135-.039c.058-.058.135-.1.174-.135a3.019 3.019 0 00-.386.309h.019c.754-.444 1.527-.85 2.3-1.275h.039c-.019.019 0 .019.019.019a3.484 3.484 0 01-.483.445.128.128 0 00-.039.135h.058c.135-.058.271-.135.444-.193a.147.147 0 01.174-.019v.019a.961.961 0 00-.329.29.421.421 0 00-.174.135 1.12 1.12 0 01-.367.271.883.883 0 01-.232.232 6.132 6.132 0 01-.618.309.636.636 0 01-.251.135.257.257 0 01-.116.1v-.019a.643.643 0 01-.193.116c-.232.174-.464.348-.676.522a2.77 2.77 0 00-.657.27 2.068 2.068 0 00-.966.754 1.574 1.574 0 00-.541.464.4.4 0 01-.328.039c-.1.058-.213.116-.29.174a.253.253 0 00-.213.039 1.3 1.3 0 01-.657-.135 2.322 2.322 0 01-.657-.329 4.932 4.932 0 01-.329-.232c-.1-.116-.213-.232-.329-.367a2.018 2.018 0 01-.541-.87.5.5 0 01.038-.135c0-.019.019-.058.078-.1q-.087-.116 0-.174v-.058c0-.058.019-.077.058-.077a.051.051 0 00.058-.058c.56-.329 1.14-.676 1.72-1a1.449 1.449 0 01.348-.155c.193-.116.387-.232.618-.348 0 .019.019.019.039 0a17.893 17.893 0 012.184-1.121.679.679 0 01.27-.116c-.039 0-.058.019-.077.019.019.019.039.019.077-.019a.886.886 0 01.271-.1 1.774 1.774 0 01.444-.174c-.116.077-.232.135-.367.213v-.019c-.019.019-.039.039-.058.039v-.028c-.039 0-.058.019-.077.019a.019.019 0 00.019-.019.288.288 0 00-.174.039h.039a4.253 4.253 0 01-.6.29.854.854 0 00-.135.116c.5-.193 1.024-.386 1.546-.58a17.339 17.339 0 012.415-.715.068.068 0 00.019-.039.4.4 0 00.251-.039h.019a6.852 6.852 0 011.894-.1c.077 0 .193.019.309.019a1.65 1.65 0 00.449.043zm-8.908 12.387a3.357 3.357 0 01.676-.425c.329-.213.676-.444 1.024-.676q-.7.522-1.449.985c-.078.038-.174.077-.251.116zm1.179-.541c-.174.135-.348.251-.541.386a1.68 1.68 0 00-.193.116v-.019c-.019.039-.039.039-.058.039.386-.251.792-.522 1.179-.812a1.834 1.834 0 01-.388.29zm-.541.1c.077-.058.154-.116.251-.193-.039 0-.039 0-.019-.019a.209.209 0 00.1-.019h-.039c0-.019.019-.019.058-.019-.14.092-.255.188-.352.246zm1.43-.425c-.077.058-.174.116-.27.174a6.646 6.646 0 01-.638.464.581.581 0 01.155-.077c-.019.019-.019.039-.039.058h.058c-.038 0-.038.019-.019.058.193-.116.386-.232.56-.348a.671.671 0 00.367-.232h-.116a.426.426 0 01-.059-.101zm1.643-.039h.038c-.155.077-.29.174-.425.251h-.024a2.558 2.558 0 01-.309.232h.1c-.019.019-.019.019-.019 0a.244.244 0 00.116-.019c.193-.135.367-.29.56-.444a1.1 1.1 0 01.155-.135.4.4 0 00-.193.111zm-.29.7a.211.211 0 01-.1.019.325.325 0 01-.1.039.06.06 0 00.019.039.49.49 0 01-.135.039c.019 0 .039-.019.077-.019-.039.039-.058.077-.077.077a.69.69 0 01.213-.077h.058a.051.051 0 00.058-.058c-.019.019-.058.019-.058-.019zm1.913-1.759c-.232.193-.444.367-.657.56-.483.406-.986.773-1.488 1.14.155-.1.309-.174.444-.27.309-.232.638-.483.986-.734a1.593 1.593 0 00.348-.367 1.874 1.874 0 00.366-.336zm-1.469-9.8a.474.474 0 00-.29.1c.019.019.039 0 .039-.019a.328.328 0 01-.135.019.679.679 0 00.271-.116.288.288 0 00-.135.019c.135-.039.27-.077.425-.116a.149.149 0 01.1-.039 1.709 1.709 0 00-.276.147zm1.082-.406a.4.4 0 01-.174.1.176.176 0 00-.135.058v-.039a.315.315 0 00-.116.058v-.028a.931.931 0 00-.309.155c-.019 0-.019-.019-.019-.039h-.039a.129.129 0 00.1-.077.326.326 0 00.193-.058c.174-.039.367-.116.56-.174-.042.039-.062.039-.062.039zm-.348 11.44c.078-.038.155-.1.271-.155a.234.234 0 01.1-.019.506.506 0 01-.37.169zm.773-.541a.864.864 0 01-.212.155.755.755 0 01.154-.193.452.452 0 00.193-.1.234.234 0 00-.136.133zm.271-.019q0 .029.058 0c-.039.019-.058.039-.077.019a.237.237 0 01-.174.077.826.826 0 00-.135.1 1.338 1.338 0 01.251-.213.742.742 0 00-.116.1 1.03 1.03 0 00.213-.1.3.3 0 01.116-.077c-.06.031-.098.07-.137.089zM47.499 2.34c-.039 0-.058 0-.077.019a.019.019 0 00.019.019 1.334 1.334 0 01-.193.077.2.2 0 01.116-.1.937.937 0 01.135-.058.273.273 0 01.116-.039h.019a.486.486 0 01-.136.077zm1.372-.251c-.058-.019-.1-.039-.135-.019a1.217 1.217 0 01-.135.039.23.23 0 01-.155.019.667.667 0 01-.251.058c-.135.058-.251.1-.367.135-.019-.019-.039-.019-.077-.019 0-.039 0-.039-.019-.039h-.019a7.3 7.3 0 011.469-.251h.116a2.78 2.78 0 00-.428.071zM48.91 7.5a1.572 1.572 0 00-.232.387c0-.019.019-.039.019-.019v.039a4.118 4.118 0 00.211-.413zM68.464 5.948h.174c.213.019.406.058.618.1.077.019.155.019.232.039a.322.322 0 01.213.077.374.374 0 00.193.058c.27.193.522.386.792.58a2.342 2.342 0 00.309.309.128.128 0 01.1.077 5.816 5.816 0 01.773.908 1.324 1.324 0 00.058.155 1.347 1.347 0 01.174.329c.019.077.039.135.058.193a.875.875 0 01.038.444c-.019.058-.058.135-.077.193a1.615 1.615 0 01-.251.348.927.927 0 01-.29.135.68.68 0 01-.251.155c-.077.019-.135.019-.213.039a.209.209 0 01-.135.058.071.071 0 01-.019-.058c-.058.039-.1.039-.135 0a.117.117 0 01-.116-.058c-.019.019-.039.019-.058.039a.205.205 0 01-.232.019c-.039.039-.1.077-.135.116a.158.158 0 00-.1.1h-.058a.772.772 0 00-.232.193c-.058 0-.077 0-.1.039a2.561 2.561 0 00.309-.232l-.019-.019.039-.039a.15.15 0 00-.155.039 1.481 1.481 0 00-.251.174h.019a.06.06 0 00-.019-.039.273.273 0 00-.116.039c0 .019-.019.039-.058.039a.806.806 0 01-.27.174h-.039c-.039.039-.077.058-.1.077.019 0 .038-.019.077-.058a.5.5 0 01-.213.058 2.372 2.372 0 00.773-.444h-.039a.192.192 0 01.077-.1c.019-.019.019-.058.039-.077a.146.146 0 00-.135.019c-.039.019-.058.038-.1.058h-.174a.156.156 0 00-.174.058.31.31 0 00-.135.077c-.039 0-.058 0-.058.019h.019a.019.019 0 00-.019.019v-.019a.137.137 0 00-.1.077h-.038a.523.523 0 00.155-.135h-.019l-.406.232c.116-.077.213-.135.309-.213a.175.175 0 00.116-.116.455.455 0 01-.193.1 1.58 1.58 0 01-.386.232c-.039 0-.077.019-.077.039h.019c-.039 0-.058 0-.078.019v-.027c-.116.058-.212.116-.309.155a.107.107 0 01.1-.058h-.058a.359.359 0 00-.135.039 3.155 3.155 0 01-.348.193c-.039.019-.077.019-.077.039a1.037 1.037 0 00-.367.135.106.106 0 00-.1.058.146.146 0 01-.019.077c-.019 0-.039 0-.039-.019v-.039a.093.093 0 01-.135-.019.175.175 0 01-.1.019.068.068 0 00-.019-.039c-.019 0-.019 0-.019.019a.019.019 0 01.019.019c-.019 0-.019.019-.039.039a.147.147 0 01-.1-.039c0 .019 0 .039-.019.039-.019-.019-.019-.039-.039-.039-.019.039-.019.039-.039.019-.019-.039-.019-.039-.039-.039h.039c.019-.019.039-.019.058-.039a.042.042 0 00.039.039.084.084 0 01.058-.019c.019 0 .039-.019.058-.039a.4.4 0 00.212 0c0-.019 0-.019.019-.019a.042.042 0 00.039-.039.273.273 0 00.116-.039h-.039c.116-.058.232-.135.367-.193-.039.019-.058.039-.077.039v.019a.051.051 0 00-.058.058c-.019 0-.019 0-.019-.019 0 .019 0 .019-.019.039s-.019.019-.039.019c.019.019.039.019.058.038a5.892 5.892 0 001.237-.676c-.116.077-.251.135-.386.213a3.435 3.435 0 01-.464.232c-.039.039-.058.039-.077 0 .019 0 .039-.039.077-.077-.077.039-.155.058-.193.077.019 0 .019-.019.039-.039a1.291 1.291 0 00.174-.116.3.3 0 00-.193.077.085.085 0 00-.058.019c-.019 0-.058-.019-.077-.019a.343.343 0 01-.193.077.2.2 0 01-.155.077.019.019 0 01-.019.019l-.116.058c-.039.019-.058.039-.077.019-.039-.019-.058-.019-.058 0v-.019a.278.278 0 00-.135.039c-.058.038-.135.077-.193.116a.019.019 0 01-.019.019.6.6 0 00-.155.039c.077.116.135.251.193.348a1.417 1.417 0 01.232.039.327.327 0 00.135.193c0 .019 0 .019.039.019-.039.019-.039.019-.039.039l.116.116a.547.547 0 01.193.174c.019.039.039.1.058.135a1.505 1.505 0 01.271.811.106.106 0 01-.058.1c0 .019 0 .039.019.039a.634.634 0 00-.174.425 1.152 1.152 0 00-.174.29c-.039.116-.077.213-.116.329v.058c-.039.019-.077.039-.077.077a2 2 0 01-.329.6.478.478 0 00-.077.193.359.359 0 00-.232.135.943.943 0 00.309-.309 4.693 4.693 0 00.348-.773c-.039 0-.058 0-.077-.019v-.039c-.1.1-.174.213-.271.309-.019.038-.019.058-.038.077a.4.4 0 00-.193.116h-.039a.424.424 0 01.1-.155c.019-.019.019-.038.019-.077v-.019a3.446 3.446 0 00-.271.348.167.167 0 00-.058.116s0-.019.039-.039a.482.482 0 01-.1.135h-.039a.786.786 0 00-.116.213c-.058.058-.1.116-.155.174h.019v.039h-.039c-.019 0-.019 0 0 .019h-.039a.26.26 0 01-.135.116.5.5 0 01-.135.193 2.951 2.951 0 00-.251.232c0-.019.019-.038.058-.058h-.058a.136.136 0 00.077-.1c0-.039.019-.058.077-.058a.309.309 0 00.135-.174c.019 0 .039-.019.077-.058a.4.4 0 00.155-.155c.019-.019.019-.039.039-.077a.3.3 0 00.155-.155c.019-.019.019-.039.019-.077a.257.257 0 00.058-.155.474.474 0 01-.174.212.818.818 0 01-.329.348.3.3 0 01-.155.116c0 .039-.019.058-.039.058-.019.039-.039.039-.058.039a1.021 1.021 0 01-.27.232.257.257 0 01-.116.1.068.068 0 01-.019.039l-.019-.019c-.019 0-.039.019-.058.019a.22.22 0 01.058-.155.175.175 0 00.058-.135.777.777 0 01-.174.1 1.178 1.178 0 01-.309.232.324.324 0 01-.1.039.219.219 0 00-.155.058s0 .019-.039.058c-.019 0-.039.019-.077.039h-.019a.019.019 0 01-.019.019c0 .039-.019.039-.058.039a2.11 2.11 0 01-.329.251c-.155.077-.29.155-.444.232-.019.019-.039.039-.058.039a3.006 3.006 0 01-.425.232.83.83 0 01-.1.019.146.146 0 01-.077-.019h.077a2.054 2.054 0 01.213-.174.276.276 0 01-.116.039.683.683 0 00-.174.077.22.22 0 01-.155.058h.039c-.058.019-.116.038-.135.077l-.155.077a.269.269 0 01-.174.078c-.019 0-.039 0-.039-.019a.244.244 0 01-.116.019.36.36 0 01-.135.039v-.019a.81.81 0 01-.5.1.059.059 0 01-.077 0v-.039h.019a.4.4 0 00-.213 0h.005a.219.219 0 01-.155.058c-.019.019-.039.019-.077.019a.724.724 0 00.232-.135 1.141 1.141 0 00-.387.116.208.208 0 01-.1.019v-.031a1.756 1.756 0 00.251-.155c0-.019 0-.039.039-.058a3.922 3.922 0 00.5-.348.343.343 0 00.1-.078l-.019-.019a.563.563 0 01.155-.077c0-.039.038-.077.077-.116.444-.309.889-.638 1.314-.986a1.857 1.857 0 00.29-.27l.019-.019a.019.019 0 01-.019.019.068.068 0 00.039-.019l.193-.193h-.019a.531.531 0 00.174-.135.211.211 0 01.1-.077.912.912 0 01.174-.232c.019 0 .039-.019.077-.039a.657.657 0 01.116-.232c.155-.174.309-.367.464-.56v-.058a1.472 1.472 0 01.155-.213c0-.039.019-.077.019-.116l.039-.019c-.019.019-.019.019 0 .039a.483.483 0 00.058-.251s.019 0 .019-.039c0 .019 0 .019.019.019v-.019a.163.163 0 00.058-.1.068.068 0 01-.019-.039.422.422 0 01.1-.154.328.328 0 01.019-.135c.019-.058.038-.116.058-.193a2.236 2.236 0 00.1-.541l-.135-.135a.6.6 0 01-.174-.367c-.019 0-.019-.019-.019-.058a.327.327 0 01-.058-.193v-.174a.154.154 0 01-.039-.193h.039c0-.019 0-.039.039-.058 0 .019.019.019.039 0a.609.609 0 01.1-.193c.039 0 .058.019.1.039l.019-.019v-.019c0 .039.039.039.077 0a.324.324 0 01.039-.1.225.225 0 00.193-.039h.019c0-.039.019-.039.058 0a.819.819 0 00.232-.077c.116-.058.212-.116.309-.174a8.509 8.509 0 001.739-1.217c.077-.058.155-.116.271-.193a1.169 1.169 0 01.155-.155c0-.058.058-.116.135-.174a7.522 7.522 0 00.831-.734 3.654 3.654 0 01.386-.387c-.039-.039-.077-.077-.116-.077a.367.367 0 00-.251-.019c0-.019-.019-.019-.058-.019h-.135a.077.077 0 01-.077.039v.019c-.019-.038-.039-.058-.077-.058a.142.142 0 01-.116.039.019.019 0 01-.019-.019.15.15 0 01-.058.019c-.077 0-.135.019-.174.019a.124.124 0 00-.116 0c-.135 0-.251.019-.367.019a.49.49 0 01-.232.039.9.9 0 01-.367.077c0 .019-.019.039-.019.058h-.135a.6.6 0 01-.155.039c-.193.077-.386.116-.58.174a.106.106 0 01-.1.058h.019a.881.881 0 00-.271.1.382.382 0 00-.213.116.7.7 0 01.213-.077 1.192 1.192 0 01.232-.1h.019a2.592 2.592 0 00-.464.213v.039a.1.1 0 00-.077.039.041.041 0 01.039-.039h-.019c-.019 0-.038.019-.077.039a.019.019 0 01.019.019.067.067 0 01-.039.019 1.227 1.227 0 00-.232.135.091.091 0 00.116-.019c0 .019 0 .019.019.019a1.773 1.773 0 01-.251.155.067.067 0 00-.039.019 1.156 1.156 0 01-.29.174.232.232 0 00-.058.039.409.409 0 00-.1.058.213.213 0 00-.193.1.21.21 0 01-.1.019 1.012 1.012 0 01-.367.212h-.019a.271.271 0 01-.077.058.344.344 0 00-.135.155c-.077.039-.116.077-.155.1l-.077.077a.1.1 0 01-.039.077.271.271 0 01-.058.077l-.058.116a.129.129 0 01-.1.077.941.941 0 01-.058.135.071.071 0 01-.019.058 1.527 1.527 0 01-.715.638.814.814 0 00-.309.077h-.309a.147.147 0 01-.1-.038.827.827 0 01-.232-.039.287.287 0 00-.135-.019.812.812 0 01-.193-.077.148.148 0 01-.1-.039 1.093 1.093 0 00-.232-.077.467.467 0 00-.29-.077 1 1 0 01-.309-.116.146.146 0 01-.077-.038.6.6 0 01-.29-.29 1.789 1.789 0 01-.1-.193v-.058a.164.164 0 000-.135V9.41a.34.34 0 00.155-.174c.348-.29.715-.58 1.063-.908a1.774 1.774 0 00.174-.1 4.464 4.464 0 01.676-.348c.116-.058.213-.116.309-.174 0 .019.019.039.058.019h.135c.116-.058.251-.1.386-.155.116-.058.232-.135.387-.212a1.3 1.3 0 01.425-.251c0-.019.039-.019.077-.019.213-.116.425-.212.638-.309a.5.5 0 00.213-.058c.155-.058.329-.135.5-.193l.7-.232a1.631 1.631 0 01.328-.077c.232-.077.483-.155.734-.213a.453.453 0 00.213-.039h.309c.174 0 .367-.019.541-.019a3.751 3.751 0 01.444-.039.454.454 0 01.159.039zM89.449.054a.279.279 0 00.135.039.073.073 0 00.116 0 .172.172 0 00.155.1c0 .039.019.039.039 0a2.336 2.336 0 01.213.232.344.344 0 00.232.174 1.438 1.438 0 00.135.232 1.94 1.94 0 01.232.444.905.905 0 01.174.425.764.764 0 00.116.29c-.077.058-.1.116-.077.174-.02.019-.039.039-.058.039a.036.036 0 000 .058c0-.019 0-.019.019-.038a.537.537 0 00-.019.174.086.086 0 00.058.116v.29a.236.236 0 01-.116.271.449.449 0 00-.1.135c-.058.039-.1.077-.1.116 0 .077-.019.116-.058.135h.058a.911.911 0 00-.193.193.059.059 0 00-.038.019.46.46 0 00-.213.27 4.66 4.66 0 00-.541.251.232.232 0 01-.039.058c-.019 0-.038.019-.058.019l-.077.077c.039 0 .058 0 .058-.019 0 .019 0 .019.019.019a1.868 1.868 0 00-.29.193c-.1.058-.174.1-.232.135 0-.019 0-.019-.039-.019s-.077 0-.077.039h.077a.266.266 0 01-.077.058h-.1a1.691 1.691 0 01-.6.386c0 .019-.039.039-.077.058a.426.426 0 00-.212.1c-.058 0-.1.019-.1.039a.335.335 0 01-.1.077c-.077.019-.135.039-.193.058a.148.148 0 00-.019.077h-.078a.52.52 0 01-.155.135 1.008 1.008 0 00-.212.193c-.019 0-.019 0-.019-.019a.338.338 0 00-.058.077c-.019-.039-.038-.058-.058-.058a5.67 5.67 0 01-.715.657c0-.019-.019-.058-.039-.058-.038.019-.058.039-.1.058-.019.039-.039.039-.077.039.039 0 .058-.039.039-.077a2.073 2.073 0 01.271-.309.106.106 0 01-.1.058c-.039 0-.058 0-.039.019a10.018 10.018 0 00-.792.773c0 .039.039.058.077.1 0-.019.019-.039.058-.039v.019c-.039 0-.039.019-.039.019a2.814 2.814 0 01.213.29.665.665 0 00.116.174c.058.116.116.232.174.329a.481.481 0 01.077.135.434.434 0 00.058.1c0 .039 0 .077.039.077a.858.858 0 00.155.212c0 .019 0 .019.019.019.1.193.174.386.251.56a2.543 2.543 0 00.116.483.432.432 0 01.058.193 4.591 4.591 0 01.135.483 1.364 1.364 0 00.116.541l.116.87a.883.883 0 01.039.387 3.043 3.043 0 01-.019.6c-.019.367-.019.734-.019 1.1a.194.194 0 01.019-.077.972.972 0 01.039.174v.039a.2.2 0 00.019.077v.019l-.019-.019v.077a.086.086 0 000 .1.843.843 0 00.019-.1 2.374 2.374 0 01-.039.386.019.019 0 00.019.019h-.019v.155c-.019-.019-.039-.019-.039 0a.085.085 0 00.019.058h.039c-.019.019-.019.039-.019.077-.039.019-.039.039-.039.077 0 .019-.019.019-.039.019a.451.451 0 01-.039.155.233.233 0 00-.039.155.3.3 0 00-.019.232.232.232 0 00-.077.155 1.833 1.833 0 01-.135.56c-.019 0-.019.039-.039.077a.175.175 0 00-.135.058.083.083 0 01-.077.077l-.019.019v-.039c-.077.019-.116.019-.135 0a.184.184 0 01-.135.116.149.149 0 00-.019.058 1.015 1.015 0 01-.232-.019c-.039-.019-.058-.038-.077-.038-.058.077-.1.1-.174.038-.019 0-.038 0-.058-.038a.117.117 0 01-.155 0 .676.676 0 01-.271-.116 1.008 1.008 0 01-.193-.213.088.088 0 01-.077-.1.113.113 0 01-.135-.058c-.1-.1-.193-.213-.29-.329a1.371 1.371 0 01-.155-.348.911.911 0 01-.116-.29 2.711 2.711 0 01-.29-.58v-.024c.019 0 .019-.019.019-.077a.019.019 0 01-.019-.019c0 .019.019.019.058.019.019-.019.019-.058.019-.135.077 0 .1-.039.1-.155a.06.06 0 00-.019-.039c.039 0 .058-.019.019-.077v-.017c.039.039.058.019.077-.039a.077.077 0 00.078.039.918.918 0 00.251-.464c-.039-.019-.039-.058 0-.135a3.27 3.27 0 01.116-.6 1.008 1.008 0 00.039-.271h-.077a3.44 3.44 0 00.174-.676l-.039-.039h-.039a9.343 9.343 0 01.174-.966.068.068 0 00-.019-.039.542.542 0 00.019-.174 5.653 5.653 0 00.058-.792h-.039c0-.116-.019-.213-.019-.309a.086.086 0 000-.1.989.989 0 00-.155-.734.381.381 0 01-.058-.193c-.019-.039-.039-.058-.058-.1a1.121 1.121 0 00.193.155c.019.058.039.077.077.039a5.144 5.144 0 00.464.232 2.234 2.234 0 01.522.522l.019-.039a6.721 6.721 0 00-.792-1.082 1.45 1.45 0 00-.232-.174c-.019-.019-.039-.058-.078-.077a.736.736 0 01-.212.213c.019 0 .038-.019.077-.058a.346.346 0 00-.135.1c-.058.039-.1.077-.155.116a.924.924 0 01.174-.212.378.378 0 00.154-.155h-.019a2.159 2.159 0 00-.309.232.114.114 0 00-.077.019.068.068 0 01.038-.019.247.247 0 00-.116.019c0 .019.019.039.058.039h-.039c-.019 0-.019-.019-.019-.039a3.978 3.978 0 01-.328.29v.077a3.93 3.93 0 01-.522.444.218.218 0 00-.154.058c.019-.019.019-.039-.019-.039a.864.864 0 00-.213.155h.019l-.019.019c-.038 0-.077.019-.077.039s0 .019.019 0c0 .039-.019.039-.019.039a1.1 1.1 0 00-.155.116h-.019a.106.106 0 00-.058.1h-.003a.071.071 0 01-.058.019c-.019 0-.019.019-.019.058v.019h-.077c-.019.039-.039.058-.039.077-.019 0-.039 0-.039.019l-.116.116v-.058h-.019a.259.259 0 00.155-.135v.058c.039-.019.058-.039.058-.077.019 0 .019-.019.019-.058.019-.019.039-.019.058-.039h-.058a2.4 2.4 0 01-.444.329 1.854 1.854 0 01-.386.251c.019 0 .019 0 .019-.019h-.019a.019.019 0 01-.019.019l-.116.116c-.058.019-.077.039-.077.077v-.039a.925.925 0 01-.309.155v.039c0 .019.019 0 .038-.019l-.038.039c-.019 0-.019-.019-.019-.039a.06.06 0 00-.019.039h-.058c-.039.039-.077.058-.1.039h-.058a.31.31 0 00-.155.058c.039 0 .1-.019.135-.019a.06.06 0 01-.039.019.14.14 0 01-.116.077c-.039 0-.039.019-.039.058v.019h-.019c0 .039-.019.058-.039.058-.019-.039 0-.058.039-.058a.3.3 0 01-.116.058.036.036 0 000 .058s0 .019.039.019a.209.209 0 01-.135.039c-.039 0-.039.019-.019.058h-.078c-.019 0-.038-.019-.058-.019a.773.773 0 00-.213.232.652.652 0 01.232-.116.084.084 0 01.058-.019l-.058.058h-.019a.3.3 0 01-.155.116.709.709 0 01-.1.174 2.251 2.251 0 01-.329.27 3.127 3.127 0 00-.367.348c.019-.058.058-.078.116-.1a.6.6 0 00-.116.135.291.291 0 00-.155.077.2.2 0 01-.135.1c-.039 0-.078.019-.116.019-.039.039-.058.077-.1.1a.37.37 0 00-.251.039c-.058 0-.1.019-.155.019a.9.9 0 01.271-.271v-.039c.116-.116.251-.232.367-.348a.071.071 0 00.077-.077c.193-.155.386-.328.6-.483-.039-.019-.039-.039-.019-.039.019-.019.058-.019.116-.039a.068.068 0 00.019-.039c.019 0 .039 0 .058-.039-.019 0-.039 0-.039-.039.039 0 .058-.039.077-.077-.019.039-.039.058-.077.039a.428.428 0 00.155-.1c.038.038.058.038.1.019-.058.039-.116.058-.174.1v.019a3.139 3.139 0 00.5-.387 1.837 1.837 0 00.406-.367h-.039a2.213 2.213 0 01-.329.29c-.058.019-.077.039-.077.058a.128.128 0 01.077-.1c-.039 0-.077.019-.077.039a1.69 1.69 0 00-.193.116h.058c-.039 0-.058 0-.058.019v-.019a.159.159 0 00-.1.1h.058c-.039 0-.058 0-.039.019v-.019c-.019.058-.039.077-.077.058h-.038v.019a.168.168 0 00-.116.058c0 .039-.039.039-.058.039v.039c-.039.019-.039.039-.039.077a.437.437 0 01-.193.1.211.211 0 01-.1.019c0-.019.039-.019.1-.039l.193-.193a.584.584 0 00.135-.1h-.022c.039-.039.058-.077.077-.077h.077a3.506 3.506 0 00.367-.386c-.058.019-.1.039-.155.058a.455.455 0 01-.174.116.1.1 0 00-.077-.039l-.078.077c.039-.039.058-.039.078 0a1.533 1.533 0 00-.155.174h.039a.836.836 0 00-.135.116c-.116.116-.232.232-.348.367h.077a.09.09 0 00-.1.058h.019c-.019.039-.039.039-.078.019a.558.558 0 01-.212.213c-.077.039-.155.1-.232.135-.135.1-.27.193-.386.27a.227.227 0 01.1-.1c.058-.039.116-.1.193-.155a8.068 8.068 0 01.812-.811v-.039h.039c.019 0 .039-.039.078-.077h.019c-.019-.058 0-.1.058-.1a2.062 2.062 0 01.135-.213.137.137 0 00.078-.1c-.019-.019-.039-.039-.039-.058-.251.251-.464.483-.657.7.019 0 .058-.039.1-.077v.077c-.019 0-.019 0-.019.019h.019a3.451 3.451 0 00-.541.522.2.2 0 00-.135.077c-.019.077-.058.1-.135.077-.1.135-.193.251-.309.386a.13.13 0 00-.135.077c-.019.019 0 .019.039.019v.019c-.039 0-.058-.019-.058-.038a.315.315 0 01-.077.135c-.019.019-.039.039-.058.039-.039.019-.058.039-.1.039-.019.039-.058.039-.1 0a1.756 1.756 0 00.328-.328.086.086 0 010-.1h-.019v.058c-.038 0-.038-.019-.038-.039-.019.039-.039.058-.039.078-.039 0-.077.019-.077.038a.1.1 0 00-.058.077.256.256 0 00-.1.116c-.155.155-.29.29-.425.445l-.232.174a4.656 4.656 0 00-.328.232h-.023v-.058a.772.772 0 00.193-.232.865.865 0 01-.251.212.2.2 0 01-.077.019v-.019a.246.246 0 00-.135.078c-.019 0-.039.019-.058.019a.068.068 0 00.039-.019v-.058a7.147 7.147 0 00.715-.792 4.891 4.891 0 01.425-.5c.058-.039.135-.1.212-.155a5.41 5.41 0 00.483-.6h-.019c-.019.039-.039.039-.039 0a1.021 1.021 0 00.213-.193.106.106 0 01-.058.1.478.478 0 00.193-.232.269.269 0 01-.058.077.39.39 0 01.077-.155.117.117 0 01-.154-.019 8.848 8.848 0 00-.7.792 11.546 11.546 0 01-.812.85.782.782 0 00-.174.1v.019a1.121 1.121 0 00-.309.367 1.313 1.313 0 01-.174.116.1.1 0 00.039-.077.236.236 0 01-.039.058c.019-.058.019-.077.058-.1v.038a.327.327 0 00.116-.116h-.077a.192.192 0 00.077-.019v.019c.039-.058.116-.135.174-.213a.107.107 0 00.058-.1c-.038.039-.058.077-.1.1a.328.328 0 00.077-.251v-.058l-.058.058.019.019c-.019.019-.058.039-.078.058 0-.019.019-.039.039-.058v.039c.019-.039.019-.058 0-.058.077-.116.155-.251.251-.386a1.418 1.418 0 00.213-.174c.019 0 .058-.039.1-.077 0-.039.02-.058.077-.077h-.058a.415.415 0 01.058-.1h-.058c.038-.077.077-.116.135-.116v-.019c0 .019.019.019.058.019v-.077c0-.019.039-.039.077-.077a.386.386 0 00.155-.193.019.019 0 01-.019-.019c-.019.038-.039.058-.058.058a.051.051 0 01-.058.058 1.764 1.764 0 00-.1.174h-.038a.5.5 0 01.135-.193.2.2 0 00.077-.193c0-.019.019-.039.058-.039v.019a.178.178 0 00.058-.1c.019 0 .039-.019.1-.058a.15.15 0 00-.058-.019 1.168 1.168 0 00.155-.155.116.116 0 00-.019.077 4.771 4.771 0 00.406-.522.788.788 0 01.213-.116.209.209 0 01.058-.135.421.421 0 01.155-.174c.019 0 .019-.019.039-.077a.846.846 0 00.212-.174c.039-.019.058-.039.058-.058v-.058c-.039.019-.058.058-.078.058-.038 0-.038 0-.038-.019l.116-.058c.039-.038.077-.058.077-.1h.019c.039 0 .039-.019.039-.039s0-.019-.039-.019a.146.146 0 00.077-.135.583.583 0 00.135-.1c-.038.058-.077.1-.077.155a.15.15 0 01.077-.077.135.135 0 01-.077.1.678.678 0 00.155-.1h.019v-.058a.313.313 0 00.135-.077.071.071 0 01-.058-.019.3.3 0 00.155-.116l-.019.019c.019.019.039.019.078-.019a.439.439 0 01.135-.193h-.019c-.019 0-.019.019-.019.039 0-.039.039-.077.077-.116 0 .039 0 .058-.039.058a.1.1 0 00.077-.039v-.039c.019 0 .039-.019.078-.039-.019-.019-.019-.039 0-.039 0-.019.019-.039.038-.058a.668.668 0 00.232-.232h-.019c.019-.019.038-.019.058-.039v.019c-.019.019-.019.019 0 .019a2.633 2.633 0 01.464-.464h-.058l.116-.116a.067.067 0 01.039.019.622.622 0 01.116-.1c-.019 0-.038 0-.038-.019l-.077.077a.249.249 0 01.116-.077.738.738 0 00.213-.213h-.019l.367-.367a.149.149 0 00.1-.039.494.494 0 00.309-.251.117.117 0 00.058-.116.232.232 0 01-.135.135c0-.019.019-.019.039-.019h-.077c.174-.174.367-.348.541-.522.019-.019.019-.039 0-.077a.2.2 0 01-.155.1c0 .019.019.039.019.058h-.019l.019-.058c-.019.019-.019.019-.019 0 .367-.367.734-.734 1.1-1.121a2.523 2.523 0 01.232-.251l1.14-1.082q.522-.464 1.043-.87c.754-.58 1.507-1.14 2.222-1.72a.441.441 0 00.232-.116c.058-.039.135-.077.232-.135.039 0 .058-.019.1-.077A2.289 2.289 0 0089.081 0c.058-.038.1 0 .116.077a.973.973 0 00.252-.023zM111.555 3.01c.058.019.1 0 .155-.058v.077a2.325 2.325 0 00.271-.193c0 .019 0 .039.019.039a.368.368 0 00-.135.232h.019a3.853 3.853 0 00-.271.309.4.4 0 01-.155.155 1.723 1.723 0 00-.29.367v.019a1.271 1.271 0 01-.29.348 2.323 2.323 0 00-.29.348 4.026 4.026 0 00-.715.792h.039c-.019.019-.039.039-.039.058v-.058l-.077.077c.039.019.039.039 0 .058 0 .039-.019.039-.039.019a.438.438 0 01-.058.1.019.019 0 00.019.019.873.873 0 00-.212.329.7.7 0 00-.135.193c-.019.019-.019.039-.039.058v-.019c-.019.019-.038.038-.038.058a.33.33 0 00-.116.116c-.019 0-.038.019-.058.058-.039.039-.078.1-.116.135a1.06 1.06 0 00-.251.348.245.245 0 01-.077.116 1.1 1.1 0 00-.077.155.687.687 0 00-.193.232c.019.019.019.019.039 0a.724.724 0 00.232-.251.237.237 0 01.058-.039.176.176 0 00.058-.135.531.531 0 01.135-.174.019.019 0 01-.019-.019.1.1 0 00.1-.077.4.4 0 01.077-.116c0-.019.019-.038.058-.077a.259.259 0 01.116-.135c.019-.039.019-.058.039-.1.135-.135.271-.27.406-.425a.072.072 0 01.019-.058c0 .039-.019.058-.019.077-.039.058-.078.135-.116.193v.116c-.1.135-.193.251-.29.367-.213.309-.425.6-.638.889-.135.174-.29.348-.425.522a4.41 4.41 0 00-.406.444 3.444 3.444 0 00-.309.425c0 .019 0 .058-.039.058a.147.147 0 00.1-.039.873.873 0 00-.193.27c-.077.058-.116.116-.1.193a2.317 2.317 0 00-.29.348.2.2 0 01-.155.1 1.951 1.951 0 01-.367.328c-.019.019-.039.019-.058.039a2.955 2.955 0 00-.348.348c-.1.116-.193.212-.271.29a3.75 3.75 0 00-.464.522 2.745 2.745 0 01-.232.348c-.058.058-.116.135-.174.193a5.492 5.492 0 01-.464.483.861.861 0 01-.116.135.279.279 0 01-.213.174.168.168 0 01-.058.116 2.422 2.422 0 00-.213.251 3.282 3.282 0 01-.889.831 1.611 1.611 0 01-.155.174.2.2 0 01-.1.116.418.418 0 00-.213.232 5.841 5.841 0 00-.87.812.694.694 0 00-.213.077h-.039a.128.128 0 01-.1.077h-.251c-.039 0-.058 0-.077-.019-.039-.039-.058-.077-.1-.116a1.277 1.277 0 01-.29-.077.327.327 0 01-.193-.058.5.5 0 01-.251-.155.249.249 0 01-.212-.1 1.185 1.185 0 01-.386-.174.318.318 0 01-.155-.193 1.018 1.018 0 01-.387-.425.165.165 0 01-.154-.135l-.329-.328-.174-.29a.4.4 0 01-.116-.193.149.149 0 01-.019-.193.019.019 0 01-.019-.019c.019-.019.019-.039.019-.077-.019 0-.019-.019-.019-.039a.146.146 0 00.077-.019 1.687 1.687 0 01-.1-.29.276.276 0 00-.039-.116.929.929 0 01.135-.058l.019-.019h.058a.175.175 0 000-.193s0-.019.039-.019.1-.019.135-.019a.546.546 0 00.1-.444c.019.019.039.019.078 0 0-.039 0-.058.038-.077a.683.683 0 01.271-.058.585.585 0 01.309.1.121.121 0 00.155.039c.406-.193.812-.386 1.2-.618a.785.785 0 00.174-.1c0 .019.039.039.078.019.463-.271.947-.541 1.43-.812.251-.155.483-.309.734-.464.135-.1.271-.193.387-.29h.019c.425-.29.85-.58 1.276-.889a.552.552 0 00.27-.155c.116-.078.232-.155.367-.251.444-.387.908-.754 1.391-1.121a.744.744 0 00.1-.116c-.019 0-.019 0-.019-.019.019.019.058 0 .077-.039.1-.077.213-.174.348-.27.483-.406.928-.831 1.391-1.256-.019-.019-.019-.019 0-.019v-.019a.14.14 0 01-.116.077c.019 0 .039-.019.039-.058.038-.019.058-.058.1-.1 0 .039 0 .058-.019.077a.591.591 0 00.135-.1c.464-.445.947-.85 1.449-1.256a.672.672 0 00.251-.213.406.406 0 00.116-.077 1.2 1.2 0 01.367-.27 4.1 4.1 0 00.464-.387c.039.039.077.039.1 0a.4.4 0 00.155-.116h.019a2.064 2.064 0 01-.177.216zM100.714.15a.293.293 0 00.251.058 2.926 2.926 0 00.676.27 4.921 4.921 0 01.541.309 6.1 6.1 0 011.2 1.024c.116.155.212.27.328.406a.113.113 0 00.058.135 1.066 1.066 0 00.116.155.644.644 0 00.1.232 1.614 1.614 0 01.077.29.144.144 0 00.019.1.444.444 0 01.019.27.743.743 0 01-.038.464 1.048 1.048 0 00-.155.29.711.711 0 01-.367.309 1.452 1.452 0 00-.29-.019c-.039-.019-.058-.039-.077-.019a1.03 1.03 0 01-.5-.155.211.211 0 01-.1-.019l-.019-.019a.019.019 0 01-.019.019.085.085 0 00-.058-.019s-.02 0-.02-.039c-.038.039-.058.058-.1.039l.039-.039h-.1v-.019c-.077.019-.116 0-.116-.039-.019 0-.019-.019-.038-.019a.1.1 0 01-.077.039.1.1 0 01-.077-.058h-.039a.2.2 0 00-.135-.077h-.155a.1.1 0 00-.077-.058.263.263 0 01-.077-.058.692.692 0 01-.116-.019.643.643 0 00-.27-.019c-.019-.019-.039-.019-.077-.039a.526.526 0 00-.329-.116 1.118 1.118 0 00-.792 0q-.087.058-.116 0a.188.188 0 00-.019-.174 4.442 4.442 0 00.193-.541 3.155 3.155 0 01.019-.85.369.369 0 00-.174-.348 1.06 1.06 0 01-.425-.348.684.684 0 00-.1-.155c-.019-.019-.039-.058-.058-.077.038 0 .058-.019.019-.058v-.116A.349.349 0 0199.22.85a.147.147 0 01.058-.174c0-.019 0-.039-.019-.039.019 0 .039 0 .039-.019V.483c.058-.058.077-.116.039-.174a.331.331 0 00-.039-.1.29.29 0 00.213-.077.07.07 0 00.1-.038.87.87 0 01.387-.019.177.177 0 01.213.019 2.361 2.361 0 01.503.056z"/><path fill="none" stroke="#fff" stroke-width=".5" stroke-dasharray="3" d="M0 28.297h64"/><path class="a" d="M72.138 25.748c-.553-.217-.868-.511-.868-1 0-.588.455-.9 1.071-.9a1.177 1.177 0 01.623.154l.2.917h.4l.049-1a2.069 2.069 0 00-1.26-.406c-.966 0-1.708.518-1.708 1.407 0 .77.525 1.211 1.323 1.533l.287.119c.686.273.966.511.966 1.008 0 .623-.483.959-1.225.959a1.558 1.558 0 01-.805-.189l-.2-.959h-.392l-.049 1.078a2.91 2.91 0 001.491.406c1.064 0 1.806-.546 1.806-1.456 0-.721-.378-1.148-1.4-1.554zm6.006 2.7v-2.21l.021-1.085-.07-.077-1.106.119v.231l.546.1-.021 2.339a1.517 1.517 0 01-1.071.5c-.42 0-.637-.238-.637-.924v-1.2l.035-1.085-.077-.077-1.127.112v.224l.553.112-.021 1.953c-.007 1.022.378 1.386 1 1.386a1.781 1.781 0 001.366-.731l.07.693 1.064-.063v-.231zm5.026-.007a70.063 70.063 0 01-.014-1.286v-.735c0-.987-.329-1.393-.98-1.393a1.959 1.959 0 00-1.379.707l-.063-.63-.105-.07-1.078.42v.231l.609.063c.014.308.021.574.021 1.008v.4c0 .357-.007.9-.014 1.288l-.567.084v.237h1.764v-.238l-.532-.084a83.519 83.519 0 01-.014-1.288v-1.134a1.575 1.575 0 011.071-.511c.448 0 .637.238.637.931v.714c0 .371-.007.9-.014 1.288l-.567.084v.238h1.764v-.238zm6.873-4.476l.2 1.015h.378l-.038-1.346h-3.808v.266l.714.077c.014.672.014 1.351.014 2.037v.378c0 .686 0 1.358-.014 2.03l-.714.077v.266h2.17v-.266l-.728-.084c-.014-.672-.014-1.358-.014-2.107h1.21l.1.8h.322v-1.864h-.323l-.1.756h-1.209c0-.693 0-1.365.014-2.03zm2.282.182a.48.48 0 00.49-.476.469.469 0 00-.49-.469.467.467 0 00-.5.469.477.477 0 00.501.481zm.337 4.296a98.38 98.38 0 01-.014-1.288v-1.029l.014-1.022-.106-.07-1.176.413v.231l.623.056c.014.336.021.588.021 1.015v.406c0 .357-.007.9-.014 1.288l-.588.084v.238h1.765v-.238zm5.019 0a80.763 80.763 0 01-.014-1.288v-.735c0-.987-.329-1.393-.98-1.393a1.959 1.959 0 00-1.379.707l-.063-.63-.105-.07-1.078.42v.231l.609.063c.014.308.021.574.021 1.008v.4c0 .357-.007.9-.014 1.288l-.567.084v.237h1.764v-.238l-.532-.084a83.519 83.519 0 01-.014-1.288v-1.134a1.575 1.575 0 011.071-.511c.448 0 .637.238.637.931v.714c0 .371-.007.9-.014 1.288l-.567.084v.238h1.764v-.238zm2.142-1.82c.077-.91.574-1.3 1.043-1.3a.859.859 0 01.847.889c0 .252-.077.427-.413.427zm2.457.294a1.4 1.4 0 00.056-.427 1.374 1.374 0 00-1.435-1.463 1.808 1.808 0 00-1.757 1.946 1.687 1.687 0 001.729 1.892 1.555 1.555 0 001.449-.875l-.154-.105a1.3 1.3 0 01-1.078.553c-.749 0-1.26-.511-1.274-1.526z"/></svg>