<svg xmlns="http://www.w3.org/2000/svg" width="196" height="56.338"><defs><style>.a{fill:#fff}</style></defs><path class="a" d="M19.783 1.244c0 .034.068.034.136.034a1.78 1.78 0 00.676.2.073.073 0 00.068.068c.135.1.3.236.473.338.1.1.2.169.3.27a4.03 4.03 0 01.406.372c.1.068.237.169.372.27a.135.135 0 01.135.068.263.263 0 00.135.135 1.911 1.911 0 01.575.71 2.147 2.147 0 01.406.71 3.417 3.417 0 01.2.845 8.973 8.973 0 01-.034 1.353c-.034.2-.068.372-.1.575-.1.406-.169.812-.236 1.184-.034.068-.068.1-.068.135a3.092 3.092 0 00.575.3l.068-.034v-.135a.494.494 0 00.3.2.181.181 0 00.135.1 2.5 2.5 0 011.184 1.319.4.4 0 01-.135.439.264.264 0 01-.27.034.151.151 0 00-.169 0c-.135.068-.236.068-.3-.034a.656.656 0 00-.3.169.456.456 0 01-.3-.169.812.812 0 01-.3-.067 3.815 3.815 0 00-.845-.1c-.067.2-.135.372-.169.507a.574.574 0 01-.1.338c-.068 0-.068 0-.068.034-.067.135-.1.27-.135.338a1.916 1.916 0 00-.135.406 2.643 2.643 0 01-.169.473c-.034.068 0 .1.034.135v-.034a.294.294 0 00-.1.2c-.034.034-.034.034 0 .034a.152.152 0 000 .169c-.067.237-.135.507-.2.744l-.2.507c0 .034 0 .034.034.034a2.668 2.668 0 00-.169.474 1.32 1.32 0 00-.067.2.123.123 0 00-.068.169.419.419 0 00-.135.271.033.033 0 00.034.034c0-.034 0-.068.068-.1a.312.312 0 01-.135.2.959.959 0 01-.135.439h-.034a.2.2 0 00-.034.135c.034-.034.034-.1.1-.135l.034-.034a2.256 2.256 0 01-.2.676c-.034.034-.034.1-.068.169a2.783 2.783 0 01-.236.44 2.541 2.541 0 00-.135.372l-.1.1a3.84 3.84 0 01.169-.44c.034-.135.068-.27.1-.372q.1-.3.2-.609a1.917 1.917 0 01.136-.406q-.051-.051 0-.2a2.334 2.334 0 01-.1.27v.1a.306.306 0 00-.1.237c-.034 0-.068 0-.068.034h.068a2.759 2.759 0 01-.3.845.119.119 0 01-.034.068h-.034c-.068.169-.135.3-.2.439-.034.1-.068.169-.1.271l-.2.609c-.068.068-.068.1-.068.1a1.016 1.016 0 01-.135.338 1.708 1.708 0 00-.169.439c-.1.2-.169.406-.27.609v.056a4.935 4.935 0 00-.2.473.033.033 0 01-.034-.034 1.022 1.022 0 01-.135.27l-.034-.034c.034-.034.068-.067.1-.067h-.067a.292.292 0 01-.1.2l.1-.3c.034.034.067 0 .1-.034a.715.715 0 01.135-.338.544.544 0 01.1-.3c0-.135.068-.2.169-.2.034-.067.034-.135.068-.2a.119.119 0 01-.068-.034.1.1 0 00-.034.068h-.034a.609.609 0 00.169-.237c-.034 0-.034 0-.034-.034.034 0 .068-.034.034-.068a.7.7 0 01.135-.2c0-.034 0-.034.068-.068a.1.1 0 00-.068-.034 1.545 1.545 0 00.169-.338.384.384 0 00.1-.27.624.624 0 00.068-.237c.034-.068.068-.169.1-.237a.342.342 0 00-.135.237 3.432 3.432 0 00-.169.406c-.1.169-.169.338-.237.473-.034-.034-.034-.034-.068-.034a.486.486 0 01-.2.338.844.844 0 00-.135.237.628.628 0 01-.237.271.257.257 0 00-.068.135c0 .068-.034.135-.1.135-.068.2-.135.406-.2.575 0 .034 0 .034.068 0a.1.1 0 01-.068.034v-.034c-.135.271-.237.507-.338.676-.034.1-.034.169-.068.169-.034.068-.067.1-.067.135l-.1.1c0 .034 0 .034.034.034h.034c-.068.034-.1.068-.1.135a1.573 1.573 0 00-.169.338.49.49 0 00-.2.3.186.186 0 00-.068.169.6.6 0 00-.135.169c0 .068 0 .135-.034.135h-.034v.034a.65.65 0 01-.169.3c-.068.034-.068.034-.068-.034-.068.034-.1.068-.1.1h-.034a6.828 6.828 0 00-.44.609c-.135.2-.27.406-.406.575a6.267 6.267 0 01-.879.981 14.082 14.082 0 001.927-2.6 8.525 8.525 0 00.744-1.691 1.78 1.78 0 00.27-.507c-.034-.034-.034-.034-.067-.034-.1.2-.169.372-.237.541a.732.732 0 01-.1.169 11.4 11.4 0 00-.609 1.319.292.292 0 00-.135.237v.034h-.034c-.169.237-.3.473-.439.676-.034-.034-.034-.034-.068 0 0-.068.034-.1.068-.169a3.036 3.036 0 00.2-.338 1.418 1.418 0 01.271-.406v-.176a.033.033 0 01-.034.034h.034a1.258 1.258 0 01-.169.2v.034c-.034 0-.068.034-.1.034-.034-.1.034-.2.135-.3a4.042 4.042 0 00.169-.609.7.7 0 00-.135.2c-.237.405-.507.744-.744 1.082a2.075 2.075 0 00-.237.338 1.476 1.476 0 01-.068.338c-.068.068-.169.135-.237.2a.118.118 0 01-.067-.034c-.169.237-.338.44-.507.676-.068.1-.1.135-.1.2a.68.68 0 00-.068.3 7.833 7.833 0 00-.473.643.317.317 0 01-.271.2 2.576 2.576 0 00-.677.676c-.27.3-.575.575-.845.845a3 3 0 01-.575.271c-.237.169-.44.3-.643.439a1.447 1.447 0 01-.474.135h-.135a6.937 6.937 0 00.981-1.014h-.034a.292.292 0 00.2-.1.1.1 0 01-.068-.034c.068-.034.1-.034.169-.068v-.068c0 .068.034.068.034.034.034 0 .034-.034.034-.1h.034a1.371 1.371 0 00.338-.3h-.1a.123.123 0 00.1-.034h.034c.068-.034.1-.135.169-.2h.034a.16.16 0 01.169-.169v.034l.406-.507h-.034c0 .034-.034.068-.1.068a.916.916 0 00.271-.237.214.214 0 00.2-.169c.034 0 .068-.034.068-.1-.068 0-.1 0-.135.034s-.068.034-.034.034c0 0 0-.034-.068-.1l-.034.034h.034a4.033 4.033 0 00-.372.406c-.034.034-.034.034-.034.068s0 .034.034.034a1.1 1.1 0 00-.44.439.033.033 0 00.034.034 1.319 1.319 0 00-.338.27h.1c-.068.034-.135.1-.2.1a3.093 3.093 0 01-.3.338c0 .034.034.034.034-.034 0 .068-.034.068-.034.068l-.034-.034c-.067.1-.169.169-.236.135 0 .034 0 .034.034 0 .068-.034.068-.1.068-.237a1.583 1.583 0 00.643-.609.55.55 0 01.169-.3c0-.034.034-.034.068-.068a6.22 6.22 0 00.575-.744l-.034-.034a.254.254 0 01-.135.034c0 .034 0 .034.034.034-.068.034-.1.068-.169.1a.033.033 0 01-.034.034c0 .034 0 .034.034.034-.169.2-.3.372-.473.541a.125.125 0 01-.1.034l-.27.271h.034a5.368 5.368 0 01-.744.778.255.255 0 01-.236.135 1.354 1.354 0 01-.2.068c.034.034.034 0 .034-.034h-.034a1.655 1.655 0 00-.237.1 5.283 5.283 0 00.913-.677.31.31 0 00.135-.2c.034-.068.068-.1.1-.1a.716.716 0 00.2-.135c-.034-.034-.034-.068.034-.1a.226.226 0 00.135-.237 1.376 1.376 0 00.338-.3c.034-.034.068-.1.136-.169a.7.7 0 01.135-.2 1.172 1.172 0 00.237-.406c-.338.338-.643.676-.947 1.014l-.406.507a.289.289 0 00-.1.169.063.063 0 010-.1c-.2.169-.372.3-.507.44h-.034a2.736 2.736 0 00.541-.541.614.614 0 00-.372.338.606.606 0 01-.3.135c-.034.068-.068.068-.1.068a.214.214 0 00.2-.169h-.034c-.271.237-.507.474-.71.677a2.3 2.3 0 00-.406.406c-.067 0-.1 0-.1.068a2.531 2.531 0 00-.406.237.732.732 0 00.1-.169.265.265 0 00-.271.034 1.921 1.921 0 00-.27.236H8.88a.991.991 0 00.44-.406.073.073 0 00-.068.068l-.034-.034a.365.365 0 00.1-.237c-.068.034-.1.068-.1.135-.2.135-.372.27-.541.406a1.645 1.645 0 00-.236.1 1.317 1.317 0 00-.338.271c0 .068 0 .068-.034.068h-.034c.034 0 .034 0 .068-.068a.2.2 0 01-.136.034c-.034.034-.068.1-.135.135a.263.263 0 00-.1.034c-.135.1-.27.237-.406.338h-.169c.135-.2.3-.406.473-.643a1.123 1.123 0 01.338-.473 1.03 1.03 0 00.169-.237.308.308 0 01.135-.271.2.2 0 00.1-.2v-.147s0-.034.068-.1h.034l-.1.1.879-.879a.34.34 0 00.135-.169 1.475 1.475 0 00.2-.236v-.034a.4.4 0 00.237-.237h-.088a.521.521 0 00.236-.237v-.034l.068-.068h.034c.067-.135.169-.236.237-.372a.175.175 0 00.068-.135h-.034a.584.584 0 00.169-.135c0 .034 0 .068-.034.068a.527.527 0 00.2-.271.033.033 0 00-.034.034v-.034a.125.125 0 00.1-.034c0 .034 0 .034-.034.034h.034c.1-.135.236-.271.406-.473-.068.068-.1.1-.1.135a.151.151 0 010 .169 1.57 1.57 0 00-.338.338.124.124 0 00.034.1c0-.034.034-.068.068-.1a1.486 1.486 0 00-.2.541c.034.135.034.237-.034.3a.745.745 0 01-.1.169c0 .1 0 .169-.068.169h.135a26.586 26.586 0 003.687-5.509.31.31 0 01.1-.169c.3-.71.575-1.42.879-2.131a.692.692 0 01.169-.3v-.067a.238.238 0 00-.169.135c.034-.034.068-.1.136-.135a.642.642 0 00.067-.271h-.034a.788.788 0 00.237-.372.105.105 0 00.068-.034l-.034.034c0 .1 0 .169-.068.2-.068 0-.068.034-.034.068-.067.068-.067.1-.067.1.034 0 .067 0 .067-.068a.506.506 0 01-.135.271.125.125 0 00-.034.1h.034c0-.034 0-.034.034-.034a.56.56 0 00-.068.169c-.034.034-.034.068-.068.1a.428.428 0 00-.034.2 1.377 1.377 0 00-.169.3h.034a.262.262 0 00-.034.1l-.068.068a.734.734 0 01-.1.169c0 .034 0 .034.034.034.034.068 0 .1-.034.135-.034.068-.068.1-.068.135v.169a2.073 2.073 0 01.169-.406c.2-.507.406-.981.609-1.488-.034 0-.034-.034.034-.1.1-.27.2-.541.3-.845a2.613 2.613 0 00.236-.879.147.147 0 01-.1.034.033.033 0 01-.034.034.308.308 0 01-.1.237.2.2 0 01-.1.2.644.644 0 00.068-.439 3.012 3.012 0 00-.338.777l-.1.3v.034a.609.609 0 00-.135.3.542.542 0 01-.1.2.757.757 0 00-.1.338c-.034 0-.034 0-.034-.034a.658.658 0 00-.034.237 5.8 5.8 0 01-.3.643 1.5 1.5 0 00-.068.338l-.135.135a5.946 5.946 0 01-.541 1.353c.1-.3.237-.609.372-.913a1.323 1.323 0 01.068-.2c.1-.237.2-.507.3-.777 0-.068.034-.1.034-.169.068-.034.068-.068.068-.135a.546.546 0 00.1-.3 2.525 2.525 0 01-.372.677 3.6 3.6 0 00-.3.643c-.135.271-.237.507-.338.744a1.053 1.053 0 01-.2.44 1.593 1.593 0 00-.2.507c-.1.135-.169.27-.27.406-.068.1-.1.237-.169.338a2.156 2.156 0 01-.237.406c-.034 0-.034 0-.034-.034a1.376 1.376 0 00-.3.338h.034c-.034 0-.034 0-.068-.034 0-.034.034-.068.1-.135.135-.237.3-.473.44-.744 0-.068.034-.135.034-.2l.034-.034a2.828 2.828 0 00.406-.778 5.585 5.585 0 01.406-.744.434.434 0 01.135-.338 3.486 3.486 0 00.237-.71.033.033 0 01-.034-.034.666.666 0 01.135-.271v-.024a1.618 1.618 0 00.1-.237c0-.1.034-.169.034-.236 0 .034.034.034.034.067.068-.067.068-.135 0-.169.034 0 .034-.034.034-.068l.1-.1c.068 0 .068-.068.034-.135v-.034c0 .068-.034.1-.034.136 0-.034.034-.068.034-.136h.034c.034 0 .034-.034.034-.1a.1.1 0 00-.034.068.351.351 0 01-.034-.135c-.135.44-.3.845-.44 1.218-.2.439-.372.879-.575 1.319-.135.2-.271.406-.372.575h.034a.073.073 0 00.068-.068.469.469 0 01-.169.338.793.793 0 00.068-.27 9.058 9.058 0 01-.406.811h.034a.463.463 0 01-.1.135.135.135 0 00-.068.135v-.135c.27-.575.575-1.116.879-1.691a1.772 1.772 0 01.2-.541l.034-.034h-.042c.034-.034.034-.1.068-.169.068-.135.135-.3.2-.473.1-.3.236-.609.372-.913.2-.507.372-1.015.575-1.522a1.516 1.516 0 01.236-.609c0-.1.034-.169.034-.271a.539.539 0 00.135-.237c-.067.034-.067.034-.034.068a1.365 1.365 0 00-.169.3.063.063 0 010-.1c0-.034 0-.034.034-.068a1.538 1.538 0 00.169-.473c-.034.034-.034.034 0 .034a1.439 1.439 0 00.068-.169c-.068.068-.068.1-.068.1a.308.308 0 01.136-.271v-.237c0-.067.067-.135.135-.237a2.628 2.628 0 01.068-.71.033.033 0 00.034.034.253.253 0 00.034-.169.574.574 0 01.034-.237 1.423 1.423 0 00.135-.541 3.548 3.548 0 00.169-.643 2.723 2.723 0 00.169-.71c-.711.2-1.387.372-2.063.575-.3.068-.575.135-.845.169h-.068l.034-.034h-.034a.329.329 0 01-.3.135c.034 0 .068-.034.1-.068-.034 0-.068.034-.1.034-.068.068-.1.1-.169.1a.106.106 0 01.034-.068h-.034a.105.105 0 00-.034.068 1.374 1.374 0 01-.575.169.135.135 0 00.135-.068.8.8 0 01-.27.068 3.48 3.48 0 01-.473.135c-.068.068-.135.1-.169.068a3.345 3.345 0 01-.372.169c-.068-.034-.1 0-.135.034a3.165 3.165 0 01-.541.135 1.761 1.761 0 00-.507.237 2.373 2.373 0 01-.1.27.255.255 0 01.034.169c0 .372-.034.71-.034 1.014a2.532 2.532 0 00.135.541c.034.2.068.406.1.575 0 .135.034.237.034.372a2.638 2.638 0 01.068.473 1.428 1.428 0 00-.1.744c0 .034.034.068.034.1l.1.609a.863.863 0 01.068.237.688.688 0 01-.034.169v.1c0-.034-.034-.034-.034-.068 0 .034-.034.034-.034.068a.123.123 0 01-.1.034v.135c-.068 0-.068-.034-.068-.068-.034.068-.067.1-.1.1 0 .034-.034.068-.034.034a.033.033 0 01-.034-.034.033.033 0 00-.034.034c.034.034.034.034.034.068-.068.034-.068.068 0 .1v.034h-.068c0-.068 0-.068-.034-.068a.263.263 0 00-.034.1.033.033 0 01-.034-.034c-.034-.068-.067-.1-.135-.1a.306.306 0 01-.034.169.033.033 0 01-.034-.034c-.068.034-.068.068-.034.1l-.068.068c-.034.034-.034.034-.068.034s-.034-.034-.034-.1c-.034.068-.068.1-.1.1s-.034-.034-.1-.1c-.034.068-.034.135.034.135h-.1c.068.135.068.169 0 .169v-.034a.338.338 0 00-.169-.135.034.034 0 11-.067 0 .106.106 0 01-.068-.034c-.034.1-.1.135-.169.068-.034.068-.068.068-.068.034-.034 0-.068-.034-.136-.034 0 .068 0 .068.034.068h-.034a.124.124 0 01-.135-.135v.034c-.034 0-.034 0-.067-.034a.148.148 0 01-.034.169.994.994 0 00-.3-.068c0 .068 0 .1.034.1h-.1c-.068.068-.1.1-.169.068a.033.033 0 01-.034-.034c-.068 0-.1-.034-.169-.1a.176.176 0 01-.27.034.16.16 0 01-.2-.034c-.068.034-.1.034-.169-.034-.034-.034-.034-.068-.068-.068-.034.068-.034.068-.068.034-.034 0-.068-.034-.135-.1-.1 0-.136-.068-.2-.1a.613.613 0 00-.237-.169c-.068 0-.068.034-.068.1a.105.105 0 01-.068.034 3.57 3.57 0 01-1.657-1.927 5.741 5.741 0 00-.372-.913 3.73 3.73 0 00-.372.2q-1.319.659-2.536 1.42c-.034.067-.068.1-.1.1a.926.926 0 01-.44.44.441.441 0 01-.338-.3c-.034 0-.034 0-.034-.034a.754.754 0 01.1-.338.578.578 0 00-.2.2c-.034.034-.034.034-.034 0a.836.836 0 00.27-.473H.237c-.068.135-.169.169-.237.135a1.253 1.253 0 00.338-.2 9.521 9.521 0 012.367-1.961c.372-.2.744-.439 1.15-.676a.365.365 0 010-.372c.034.034.034.034 0 .068a.155.155 0 000 .169v-.1c.034.068.034.135.068.2.034 0 .068-.068.034-.169a.57.57 0 010-.338h-.034a1.932 1.932 0 00-.135-.744 12.031 12.031 0 01-.169-1.589 10.3 10.3 0 01-.068-1.049.033.033 0 01-.034-.034.073.073 0 01-.068.068.033.033 0 00.034.034l.034-.034v.338a.259.259 0 00-.068.135h.068c0 .237.034.44.034.677v.068a7.916 7.916 0 00.237 1.522 3.761 3.761 0 00.068.643c-.034.034-.068.068-.068.1v-.034c-.034-.237-.068-.44-.1-.676.034-.068 0-.1-.034-.169a.1.1 0 000-.135 1.639 1.639 0 00-.034-.406.553.553 0 01-.1-.2c.068-.034.068-.1 0-.169v-.2a.287.287 0 01-.068-.2c.034 0 .034-.034 0-.1a16.363 16.363 0 010-1.826c0-.1.034-.2.034-.3.034-.271.067-.541.1-.778a.625.625 0 01.068-.237 1 1 0 01.068-.338h-.034a.307.307 0 00.1-.237c.034-.135.1-.27.135-.406s.034-.3.068-.44l.034-.034a1.876 1.876 0 01.2-.71.5.5 0 01.068-.3.607.607 0 00.3.135.147.147 0 00.034-.1v.034a.228.228 0 00.135-.2l-.034.034v-.034a.546.546 0 01.3.1.19.19 0 00.2.034l.034-.034a.033.033 0 01-.034-.034c.034.068.135.068.237.068a.562.562 0 00.338 0 .959.959 0 00.44.135c.034.034.068.034.068 0v-.068a.488.488 0 00.237.068.868.868 0 01.237.068 3.624 3.624 0 00.507.237 3.447 3.447 0 01.507.236c.169.1.372.2.575.3a.2.2 0 00.2.1 5.156 5.156 0 01.71.473c.169.237.372.44.575.676a1.194 1.194 0 00.169.271 5.493 5.493 0 01.372.778.406.406 0 01.068.27 4.173 4.173 0 01.068.643.431.431 0 010 .406 2.047 2.047 0 01-.2.642.255.255 0 00.27-.034c.406-.135.811-.27 1.217-.44a4.378 4.378 0 00.879-.27 78.937 78.937 0 014.295-1.116 1.681 1.681 0 01.068-.541.543.543 0 01.1-.3h-.034l.1-.507a.287.287 0 010-.236c.068-.068.068-.169.034-.3a.329.329 0 00.034-.3.306.306 0 00.034-.169.117.117 0 01.034-.067.033.033 0 01-.034-.034l.034-.068-.034-.034a1.359 1.359 0 00.1-.507c.034 0 .034-.068.034-.135h-.034c.034 0 .034-.068 0-.169a.105.105 0 00.068.034v-.034h-.034a.756.756 0 00.1-.338v-.169c.068-.034.068-.068.034-.169a.575.575 0 01.068-.169 1.5 1.5 0 01.068-.338v-.135a.575.575 0 01.068-.169.745.745 0 01.068-.473 13.719 13.719 0 00.271-2.367.9.9 0 00.406.1h.135a.2.2 0 00-.034-.271 1.047 1.047 0 01.44.1.151.151 0 000-.169c0-.034.034-.068.068-.1a.124.124 0 01.034-.1 2.511 2.511 0 01.406.237c.049.021.117.021.184-.051zM59.957 5.268c.1.034.169 0 .27-.1v.135a4.093 4.093 0 00.474-.338c0 .034 0 .068.034.068a.644.644 0 00-.236.406h.034a6.753 6.753 0 00-.473.541.693.693 0 01-.27.27 3.018 3.018 0 00-.507.643v.034a2.216 2.216 0 01-.507.609 4.031 4.031 0 00-.507.609 7.038 7.038 0 00-1.251 1.386h.068c-.034.034-.068.068-.068.1v-.1l-.135.135c.068.034.068.068 0 .1 0 .068-.034.068-.068.034a.729.729 0 01-.1.169.033.033 0 00.034.034 1.528 1.528 0 00-.372.575 1.217 1.217 0 00-.236.338c-.034.034-.034.068-.068.1v-.034c-.034.034-.068.067-.068.1a.578.578 0 00-.2.2c-.034 0-.068.034-.1.1-.068.068-.135.169-.2.237a1.858 1.858 0 00-.439.609.433.433 0 01-.135.2 1.962 1.962 0 00-.135.27 1.191 1.191 0 00-.338.406c.034.034.034.034.067 0a1.267 1.267 0 00.406-.439.414.414 0 01.1-.068.306.306 0 00.1-.236.933.933 0 01.237-.3.033.033 0 01-.034-.034.172.172 0 00.169-.136.717.717 0 01.136-.2c0-.034.034-.067.1-.135a.455.455 0 01.2-.236c.034-.068.034-.1.067-.169.237-.237.474-.473.71-.744a.124.124 0 01.034-.1c0 .068-.034.1-.034.135-.068.1-.135.237-.2.339v.2c-.169.237-.338.439-.507.643a61.596 61.596 0 01-1.116 1.555c-.237.3-.507.609-.744.913a7.751 7.751 0 00-.71.778 6 6 0 00-.541.744c0 .034 0 .1-.068.1a.257.257 0 00.169-.068 1.526 1.526 0 00-.338.473c-.135.1-.2.2-.169.338a4.048 4.048 0 00-.507.609.346.346 0 01-.271.169 3.424 3.424 0 01-.643.575c-.034.034-.068.034-.1.068a5.2 5.2 0 00-.609.609c-.169.2-.338.372-.474.507a6.573 6.573 0 00-.811.913 4.771 4.771 0 01-.406.609c-.1.1-.2.237-.3.338a9.5 9.5 0 01-.812.845 1.469 1.469 0 01-.2.237.487.487 0 01-.372.3.293.293 0 01-.1.2 4.221 4.221 0 00-.372.439 5.749 5.749 0 01-1.556 1.454 2.745 2.745 0 01-.271.3.346.346 0 01-.169.2.73.73 0 00-.372.405 10.251 10.251 0 00-1.522 1.42 1.219 1.219 0 00-.372.135h-.085a.224.224 0 01-.169.135h-.439c-.068 0-.1 0-.135-.034-.068-.068-.1-.135-.169-.2a2.241 2.241 0 01-.507-.135.572.572 0 01-.338-.1.871.871 0 01-.44-.271.438.438 0 01-.372-.169 2.075 2.075 0 01-.676-.3.558.558 0 01-.27-.338 1.778 1.778 0 01-.676-.744.289.289 0 01-.27-.237l-.575-.575-.3-.507a.7.7 0 01-.2-.338.259.259 0 01-.034-.338.033.033 0 01-.034-.034c.034-.034.034-.068.034-.135-.034 0-.034-.034-.034-.068a.254.254 0 00.135-.034 2.979 2.979 0 01-.169-.507.481.481 0 00-.067-.2 1.635 1.635 0 01.237-.1l.034-.034h.1a.307.307 0 000-.338s0-.034.068-.034.169-.034.237-.034a.955.955 0 00.169-.778c.034.034.067.034.135 0 0-.068 0-.1.068-.135a1.192 1.192 0 01.473-.1 1.023 1.023 0 01.541.169.212.212 0 00.27.068c.71-.338 1.42-.676 2.1-1.082a1.375 1.375 0 00.3-.169c0 .034.068.068.135.034.811-.474 1.657-.947 2.5-1.42.44-.27.845-.541 1.285-.811.237-.169.474-.339.677-.507h.034a88.476 88.476 0 002.232-1.556.967.967 0 00.474-.27c.2-.136.406-.271.643-.44a46.202 46.202 0 012.435-1.961 1.294 1.294 0 00.169-.2c-.034 0-.034 0-.034-.034.034.034.1 0 .135-.068.169-.135.372-.3.609-.473.845-.71 1.623-1.454 2.435-2.2-.034-.034-.034-.034 0-.034v-.028a.245.245 0 01-.2.135c.034 0 .068-.034.068-.1.068-.034.1-.1.169-.169 0 .068 0 .1-.034.135a1.023 1.023 0 00.237-.169c.812-.778 1.657-1.488 2.536-2.2a1.178 1.178 0 00.44-.372.71.71 0 00.2-.135 2.1 2.1 0 01.643-.473 7.165 7.165 0 00.812-.677c.068.068.135.068.169 0a.7.7 0 00.27-.2h.034a3.605 3.605 0 01-.311.368zm-18.971-5a.513.513 0 00.44.1 5.112 5.112 0 001.184.473 8.655 8.655 0 01.947.541 10.693 10.693 0 012.1 1.793c.2.27.372.473.575.71a.2.2 0 00.1.237 1.863 1.863 0 00.2.27 1.134 1.134 0 00.169.406 2.815 2.815 0 01.136.507.255.255 0 00.034.169.777.777 0 01.034.473 1.3 1.3 0 01-.068.812 1.841 1.841 0 00-.271.507 1.245 1.245 0 01-.643.541 2.546 2.546 0 00-.507-.034c-.068-.034-.1-.068-.135-.034a1.8 1.8 0 01-.879-.27.366.366 0 01-.169-.034l-.034-.034a.033.033 0 01-.034.034.149.149 0 00-.1-.034s-.034 0-.034-.068c-.068.068-.1.1-.169.068l.068-.068h-.169v-.034c-.136.034-.2 0-.2-.068-.034 0-.034-.034-.068-.034a.175.175 0 01-.135.068.182.182 0 01-.135-.1h-.068a.342.342 0 00-.236-.135h-.271a.181.181 0 00-.135-.1.463.463 0 01-.135-.1 1.21 1.21 0 01-.2-.034 1.126 1.126 0 00-.473-.034c-.034-.034-.068-.034-.135-.068a.92.92 0 00-.575-.2 1.959 1.959 0 00-1.387 0q-.152.1-.2 0a.329.329 0 00-.034-.3 7.825 7.825 0 00.338-.947 5.516 5.516 0 01.034-1.488.647.647 0 00-.3-.609 1.854 1.854 0 01-.744-.609 1.2 1.2 0 00-.169-.271c-.034-.034-.068-.1-.1-.135.068 0 .1-.034.034-.1v-.2a.61.61 0 01-.068-.338.257.257 0 01.1-.3c0-.034 0-.068-.034-.068.034 0 .068 0 .068-.034V.858c.1-.1.135-.2.068-.3a.567.567 0 00-.068-.169.509.509 0 00.372-.136.123.123 0 00.169-.067 1.521 1.521 0 01.677-.034.31.31 0 01.372.034 4.131 4.131 0 01.862.078zM88.87 4.017a.16.16 0 00.2-.034v-.034a1.143 1.143 0 01.406.136v-.068a.57.57 0 01.2.2v-.2a1.362 1.362 0 00-.3-.169.568.568 0 00.169.068c0-.034.034-.034.068-.068a1.766 1.766 0 00.913.507c.034-.034.068-.034.135-.034a1.837 1.837 0 01.609.338c.169.135.338.271.541.406a.624.624 0 01.507.406 1.154 1.154 0 00.507.473 6.11 6.11 0 00.609.677 9.545 9.545 0 01.575 1.352 3.82 3.82 0 01.169 1.353 2.974 2.974 0 01-.338 1.184c-.237.541-.473 1.048-.676 1.59a.8.8 0 00-.068.271.56.56 0 00-.169.44 4.649 4.649 0 00-.406.575.205.205 0 00-.034.136 6.42 6.42 0 01-.744 1.116 5.36 5.36 0 01-.44.744c0 .034.034.068.1.068v-.068a.385.385 0 01-.1.271.215.215 0 00-.2.169 4.594 4.594 0 00-.507.71 1.723 1.723 0 00-.372.541.681.681 0 01-.3.372 3.072 3.072 0 01-.237.473c-.2.27-.439.507-.609.71a1.053 1.053 0 01.169-.338l.1-.1-.034-.034a1.294 1.294 0 00.3-.439c.034 0 .034-.034.067-.068v-.034a.7.7 0 00.2-.135c.034 0 .034-.068.034-.135a.119.119 0 01-.068.034c-.034.1-.068.135-.169.135.1 0 .135-.068.169-.169-.068 0-.068-.068 0-.135a.273.273 0 00.135-.3.492.492 0 01-.3.2 6.9 6.9 0 00-.609.879 2.988 2.988 0 00-.2.338c-.44.676-.879 1.353-1.319 2-.1 0-.135.034-.135.1a19.3 19.3 0 001.657-2.536h-.067a5.353 5.353 0 00-.609.744c-.3.44-.609.879-.913 1.285a2.422 2.422 0 01-.473.642h-.068l.2-.2a2.228 2.228 0 01.575-.778.852.852 0 01.237-.406h-.1a.033.033 0 00.034-.034.277.277 0 00-.169.169 9.454 9.454 0 01-.811 1.116.43.43 0 01-.3.237c-.068.034-.068.068-.068.135-.068-.034-.1 0-.169.068l.034.034-.1.1h.068l-.1.1a.149.149 0 00.034-.1.79.79 0 00-.237.237c-.034 0-.034.034-.034.068h.067a.43.43 0 01-.2.034c0 .068 0 .068.068.068a.2.2 0 00-.169.068c0 .067 0 .067.034.067-.3.237-.609.44-.879.643a4.392 4.392 0 01-.406.372v-.034a.336.336 0 01-.2.067 1.217 1.217 0 01.236-.338h-.034l-.406.3a4 4 0 001.015-.981v-.034c-.271.2-.507.406-.778.575 0 .034.034.034.068.034v.034a10.818 10.818 0 00-.913.71.5.5 0 01-.2.169v-.034c-.068.068-.1.1-.135.1a10.218 10.218 0 001.251-1.184h.068a2.9 2.9 0 00.3-.473v-.034a.958.958 0 00-.3.338 3.924 3.924 0 01-.541.372c-.034-.034-.034-.068-.068-.034s-.034.034.034.034v.1a.033.033 0 01-.034-.034 1.861 1.861 0 00-.27.2.705.705 0 01-.2.135 1.906 1.906 0 00-.507.338h-.1a15.852 15.852 0 01-2.164 1.826 2.049 2.049 0 00-.338.237.575.575 0 01-.169.068 1.325 1.325 0 00-.338.27 3.373 3.373 0 01-.643.406c-.2.135-.372.237-.507.338-.135 0-.2.034-.236.1a10.008 10.008 0 01-.879.811c.068-.067.169-.067.3-.034-.2.068-.372.135-.541.2a.368.368 0 01-.169.034c-.474.372-.913.677-1.386.981a4 4 0 00-.744.473 2.024 2.024 0 00-.541.169 1.445 1.445 0 01-.879.236c-.2.034-.372.068-.575.1a1.146 1.146 0 00-.338-.034 23.394 23.394 0 002.215-1.141 24.727 24.727 0 003.213-2.063.3.3 0 00.3-.169h.034c.034 0 0 0-.034-.068a4.226 4.226 0 01-.947.507c-.372.237-.676.473-1.015.71l-.913.406a12.218 12.218 0 01-1.15.575c-.338.135-.676.271-.981.372a.09.09 0 00-.1.1l.034-.034c-.237.034-.3-.034-.271-.169a.9.9 0 00.2-.169q0-.152.2-.2c.338-.237.71-.474 1.116-.744a3.818 3.818 0 00.44-.338h-.338a.3.3 0 00-.372.068c-.034 0-.034.034-.068.068a.118.118 0 00.068.034.345.345 0 00-.3.068 1.543 1.543 0 00-.676-.034c-.068.068-.135.1-.169.135 0 .034 0 .034.034.034-.068.068-.1.1-.135.1h.2a1.986 1.986 0 01.2-.135c-.135.068-.2.135-.2.237.034.068.068.034.1-.068-.068.1-.135.169-.2.169 0 .068.034.1.1.034a1.713 1.713 0 01-.27.236c.034.034.068 0 .1-.034a.7.7 0 01-.3.169c-.271.169-.575.3-.845.439-.068.068-.135.135-.2.135a11.325 11.325 0 01-1.285.643.284.284 0 00-.2.068 1.452 1.452 0 00-.575.2.493.493 0 01-.271.169.153.153 0 010-.169c.068 0 .135-.034.237-.135 0-.034-.034-.068-.034-.135a3.576 3.576 0 001.184-.609.368.368 0 00-.169.034c.135-.068.27-.169.405-.237-.034.034-.067.068-.1.068a.1.1 0 01.034.068c.3-.169.575-.338.879-.507.135-.1.271-.169.406-.27a11.881 11.881 0 001.42-.981l.338-.338a3.282 3.282 0 01.812-.507 2.733 2.733 0 00.473-.3l.034.034c-.034 0-.068.034-.135.067a.163.163 0 00.237 0l.034-.034c-.067-.068-.1-.1-.169-.1a.033.033 0 00-.034-.034 25.953 25.953 0 01-2.333 1.319c-.27.135-.541.3-.777.44-.169.068-.3.135-.44.2a.148.148 0 00.034-.1c.135-.067.3-.169.474-.236.473-.3.913-.609 1.386-.947.879-.575 1.758-1.184 2.705-1.759a21.953 21.953 0 002.165-1.454 6.246 6.246 0 01.676-.643c-.034-.068 0-.135.1-.237a15.859 15.859 0 001.589-1.42.447.447 0 01.1-.27 12.312 12.312 0 001.522-1.454.322.322 0 00-.237.068v.1a.033.033 0 00-.034-.034c0 .068 0 .068-.034.034a1.571 1.571 0 01-.236.237c.372-.406.744-.845 1.15-1.285a.41.41 0 01.2-.3v-.034a4.092 4.092 0 00-.71.811 70.744 70.744 0 01-3.99 3.889 1.766 1.766 0 01-.913.507 2.6 2.6 0 00-.676.44 1.87 1.87 0 01-.609.473 4.561 4.561 0 00.879-.778v-.068h-.034a.917.917 0 01.406-.237c.372-.3.744-.609 1.116-.947.068 0 .1-.068.135-.135.135 0 .169-.068.169-.169a.573.573 0 01-.169.068 1.509 1.509 0 00.372-.27.117.117 0 00-.034.068 1.059 1.059 0 00.372-.3.883.883 0 00.2-.169h-.135v-.034a37.259 37.259 0 002.4-2.266.033.033 0 01-.034-.034.419.419 0 00.2-.27c.068 0 .1 0 .135-.068a2.094 2.094 0 00.3-.406 3.353 3.353 0 00.575-.609 27.218 27.218 0 001.894-3.044.664.664 0 00-.3.3 6.073 6.073 0 01-.744 1.15c-.068 0-.1.067-.135.135.034 0 .034.034.068.034a2.064 2.064 0 01-.2.135 16.609 16.609 0 00.947-1.522 1.391 1.391 0 01.1-.271.151.151 0 00-.1.136c0 .068-.034.135-.1.135a.033.033 0 01-.034-.034c.406-.71.811-1.386 1.218-2.063a.563.563 0 01.135-.372q.3-.66.609-1.42c.3-.575.609-1.217.879-1.826a9.869 9.869 0 01-.135-1.048 7.672 7.672 0 00-.744-.372h-.135a.033.033 0 01.034-.034.67.67 0 00-.372.068 9.684 9.684 0 01-1.386.507 12.434 12.434 0 01-1.42.236.278.278 0 00.169-.169.416.416 0 00.27-.135l-.067-.068.034-.034h-.169a27.469 27.469 0 002.773-1.048.414.414 0 00.3-.1 1.209 1.209 0 00-.339-.068 1.086 1.086 0 00-.575.068c.034 0 .068-.034.1-.068-.034.034-.1 0-.135-.068a2.682 2.682 0 00-.541.271c.068-.034.135-.1.2-.136h-.2c-.2.068-.372.136-.507.169a.679.679 0 00-.271.135 5.5 5.5 0 01-1.048.372c-.068.034-.1.068-.169.1-.3.1-.609.2-.947.3a1.21 1.21 0 01-.575.372c-.507.2-.981.406-1.488.609a.033.033 0 01-.034.034v.034a.255.255 0 00.135-.034v.034a7.71 7.71 0 00.947-.271c-.068 0-.135.068-.2.135l.034-.034a3.337 3.337 0 01-.372.169 3.941 3.941 0 00-.507.2h-.038c-.1.068-.2.1-.3.169a9.767 9.767 0 00-.981.643c0 .034.034.1.034.135a.089.089 0 00-.1.1.033.033 0 00.034.034c.034-.1.136-.135.27-.135-.068 0-.1.034-.1.068a.865.865 0 00.237-.068c.1-.1.237-.169.3-.237a5.286 5.286 0 00-.676.541h.034c1.319-.777 2.672-1.488 4.024-2.232h.068c-.034.034 0 .034.034.034a6.1 6.1 0 01-.845.778.224.224 0 00-.068.237h.1c.237-.1.474-.237.778-.338a.258.258 0 01.3-.034v.034a1.682 1.682 0 00-.575.507.737.737 0 00-.3.237 1.96 1.96 0 01-.643.473 1.545 1.545 0 01-.406.406 10.723 10.723 0 01-1.082.541 1.113 1.113 0 01-.44.237.45.45 0 01-.2.169v-.034a1.126 1.126 0 01-.338.2c-.406.3-.812.609-1.184.913a4.848 4.848 0 00-1.15.473 3.62 3.62 0 00-1.691 1.319 2.754 2.754 0 00-.947.811.7.7 0 01-.575.068c-.169.1-.372.2-.507.3a.443.443 0 00-.372.068 2.274 2.274 0 01-1.15-.237 4.063 4.063 0 01-1.15-.575c-.2-.135-.406-.271-.575-.406-.169-.2-.372-.406-.575-.643a3.533 3.533 0 01-.947-1.522.867.867 0 01.067-.237c0-.034.034-.1.136-.169q-.152-.2 0-.3v-.1c0-.1.034-.135.1-.135a.09.09 0 00.1-.1c.981-.575 1.995-1.184 3.01-1.759a2.536 2.536 0 01.609-.271c.338-.2.677-.406 1.082-.609 0 .034.034.034.068 0a31.306 31.306 0 013.821-1.961 1.189 1.189 0 01.473-.2c-.068 0-.1.034-.135.034.034.034.068.034.135-.034a1.549 1.549 0 01.473-.169 3.105 3.105 0 01.778-.3c-.2.135-.406.237-.643.372v-.034c-.034.034-.068.068-.1.068v-.034c-.068 0-.1.034-.135.034a.033.033 0 00.034-.034.5.5 0 00-.3.068h.068a7.442 7.442 0 01-1.049.507 1.5 1.5 0 00-.237.2c.879-.338 1.792-.676 2.705-1.014a30.344 30.344 0 014.227-1.251.119.119 0 00.034-.068.708.708 0 00.44-.068h.034a11.993 11.993 0 013.314-.169c.135 0 .338.034.541.034a2.886 2.886 0 00.776.07zM73.28 25.694a5.874 5.874 0 011.184-.744c.575-.372 1.184-.778 1.792-1.184q-1.217.913-2.536 1.724c-.136.069-.305.136-.44.204zm2.063-.947c-.3.236-.609.44-.947.676a2.946 2.946 0 00-.338.2v-.034c-.034.068-.068.068-.1.068.676-.44 1.386-.913 2.063-1.42a3.21 3.21 0 01-.679.51zm-.947.169c.135-.1.27-.2.44-.338-.068 0-.068 0-.034-.034a.366.366 0 00.169-.034h-.063c0-.034.034-.034.1-.034-.241.17-.443.339-.612.44zm2.5-.744c-.135.1-.3.2-.473.3a11.631 11.631 0 01-1.116.811 1.018 1.018 0 01.271-.135c-.034.034-.034.068-.068.1h.1c-.067 0-.067.034-.034.1.338-.2.676-.406.981-.609a1.174 1.174 0 00.643-.406H77a.747.747 0 01-.102-.161zm2.875-.068h.067c-.271.135-.507.3-.744.44h-.034a4.479 4.479 0 01-.541.406h.169c-.034.034-.034.034-.034 0a.427.427 0 00.2-.034c.338-.237.643-.507.981-.778a1.921 1.921 0 01.271-.236.7.7 0 00-.333.203zm-.507 1.218a.37.37 0 01-.169.034.569.569 0 01-.169.068.105.105 0 00.034.068.857.857 0 01-.237.068c.034 0 .068-.034.135-.034-.068.068-.1.135-.135.135a1.209 1.209 0 01.372-.135h.1a.09.09 0 00.1-.1c-.034.034-.1.034-.1-.034zm3.348-3.078c-.406.338-.778.643-1.15.981-.845.71-1.725 1.353-2.6 2 .271-.169.541-.3.778-.473.541-.406 1.116-.845 1.725-1.285a2.789 2.789 0 00.609-.643 3.28 3.28 0 00.639-.579zm-2.57-17.145a.829.829 0 00-.507.169c.034.034.068 0 .068-.034a.574.574 0 01-.237.034 1.189 1.189 0 00.473-.2.5.5 0 00-.237.034c.237-.068.473-.135.744-.2a.26.26 0 01.169-.068 2.985 2.985 0 00-.472.265zm1.894-.71a.7.7 0 01-.3.169.307.307 0 00-.237.1V4.59a.55.55 0 00-.2.1v-.034a1.629 1.629 0 00-.541.271c-.034 0-.034-.034-.034-.068h-.068a.225.225 0 00.169-.135.571.571 0 00.338-.1c.3-.068.643-.2.981-.3-.073.065-.107.065-.107.065zm-.609 20.02c.136-.067.271-.169.474-.271a.41.41 0 01.169-.034.886.886 0 01-.642.305zm1.353-.947a1.512 1.512 0 01-.372.271 1.32 1.32 0 01.27-.338.791.791 0 00.338-.169.41.41 0 00-.235.24zm.473-.034q0 .051.1 0c-.068.034-.1.068-.135.034a.415.415 0 01-.3.135 1.441 1.441 0 00-.237.169 2.339 2.339 0 01.44-.372 1.3 1.3 0 00-.2.169 1.806 1.806 0 00.372-.169.517.517 0 01.2-.135c-.103.068-.171.136-.239.169zm-.034-19.343c-.068 0-.1 0-.135.034a.033.033 0 00.034.034 2.335 2.335 0 01-.338.135.347.347 0 01.2-.169 1.638 1.638 0 01.237-.1.478.478 0 01.2-.068h.034a.851.851 0 01-.23.134zm2.4-.44c-.1-.034-.169-.068-.237-.034a2.134 2.134 0 01-.237.068.4.4 0 01-.27.034 1.167 1.167 0 01-.439.1c-.237.1-.44.169-.643.237-.034-.034-.068-.034-.136-.034 0-.068 0-.068-.034-.068h-.034a12.771 12.771 0 012.57-.439h.2a4.865 4.865 0 00-.737.136zm.068 9.469a2.751 2.751 0 00-.406.677c0-.034.034-.068.034-.034v.068a7.2 7.2 0 00.374-.711zM119.812 10.409h.3c.372.034.71.1 1.082.169.135.034.27.034.406.068a.563.563 0 01.372.135.655.655 0 00.338.1c.473.338.913.676 1.386 1.014a4.09 4.09 0 00.541.541.225.225 0 01.169.135 10.178 10.178 0 011.353 1.589 2.309 2.309 0 00.1.27 2.356 2.356 0 01.3.575c.034.135.068.237.1.338a1.531 1.531 0 01.067.777c-.034.1-.1.237-.135.338a2.828 2.828 0 01-.44.609 1.623 1.623 0 01-.507.236 1.189 1.189 0 01-.439.271c-.136.034-.237.034-.372.068a.365.365 0 01-.236.1.124.124 0 01-.034-.1c-.1.068-.169.068-.237 0a.2.2 0 01-.2-.1c-.034.034-.068.034-.1.068a.359.359 0 01-.406.034c-.068.068-.169.135-.237.2a.277.277 0 00-.169.169h-.1a1.351 1.351 0 00-.406.338c-.1 0-.135 0-.169.068a4.484 4.484 0 00.541-.406l-.034-.034.068-.068a.263.263 0 00-.271.068 2.593 2.593 0 00-.44.3h.034a.1.1 0 00-.034-.068.478.478 0 00-.2.068c0 .034-.034.068-.1.068a1.411 1.411 0 01-.473.3h-.068c-.068.068-.135.1-.169.135.034 0 .067-.034.135-.1a.882.882 0 01-.372.1 4.149 4.149 0 001.353-.778h-.068a.336.336 0 01.135-.169c.034-.034.034-.1.068-.135a.256.256 0 00-.237.034c-.068.034-.1.067-.169.1h-.3a.273.273 0 00-.3.1.542.542 0 00-.237.136c-.068 0-.1 0-.1.034h.034a.033.033 0 00-.034.034v-.034a.239.239 0 00-.169.135h-.074a.915.915 0 00.271-.237h-.034l-.71.406c.2-.135.372-.237.541-.372a.306.306 0 00.2-.2.8.8 0 01-.338.169 2.763 2.763 0 01-.676.406c-.068 0-.135.034-.135.068h.034c-.068 0-.1 0-.136.034v-.034c-.2.1-.372.2-.541.271a.186.186 0 01.169-.1h-.1a.627.627 0 00-.237.068 5.515 5.515 0 01-.609.338c-.068.034-.135.034-.135.068a1.813 1.813 0 00-.643.237.186.186 0 00-.169.1.255.255 0 01-.034.135c-.034 0-.068 0-.068-.034v-.068a.163.163 0 01-.236-.034.307.307 0 01-.169.034.119.119 0 00-.034-.068c-.034 0-.034 0-.034.034a.033.033 0 01.034.034c-.034 0-.034.034-.068.068a.257.257 0 01-.169-.068c0 .034 0 .068-.034.068-.034-.034-.034-.068-.068-.068-.034.068-.034.068-.068.034-.034-.068-.034-.068-.068-.068h.068c.034-.034.068-.034.1-.068a.073.073 0 00.068.068.147.147 0 01.1-.034c.034 0 .068-.034.1-.068a.692.692 0 00.372 0c0-.034 0-.034.034-.034a.073.073 0 00.068-.068.478.478 0 00.2-.068h-.068c.2-.1.406-.237.643-.338-.068.034-.1.068-.135.068v.034a.09.09 0 00-.1.1c-.034 0-.034 0-.034-.034 0 .034 0 .034-.034.068s-.034.034-.068.034c.034.034.068.034.1.067a10.309 10.309 0 002.164-1.184c-.2.135-.44.237-.676.372a6 6 0 01-.812.406c-.068.068-.1.068-.135 0 .034 0 .068-.068.135-.135-.135.068-.271.1-.338.135.034 0 .034-.034.068-.068a2.261 2.261 0 00.3-.2.52.52 0 00-.339.135.148.148 0 00-.1.034c-.034 0-.1-.034-.135-.034a.6.6 0 01-.338.135.352.352 0 01-.271.136.033.033 0 01-.034.034l-.2.1c-.068.034-.1.068-.135.034-.068-.034-.1-.034-.1 0v-.034a.486.486 0 00-.237.068c-.1.067-.237.135-.338.2a.033.033 0 01-.034.034 1.05 1.05 0 00-.27.068c.135.2.237.44.338.609a2.478 2.478 0 01.406.068.573.573 0 00.237.338c0 .034 0 .034.068.034-.068.034-.068.034-.068.068l.2.2a.957.957 0 01.338.3c.034.068.068.169.1.237a2.634 2.634 0 01.473 1.42.186.186 0 01-.1.169c0 .034 0 .068.034.068a1.11 1.11 0 00-.3.744 2.018 2.018 0 00-.3.507c-.068.2-.135.372-.2.575v.1c-.068.034-.135.068-.135.135a3.49 3.49 0 01-.575 1.048.838.838 0 00-.135.338.629.629 0 00-.406.237 1.649 1.649 0 00.541-.541 8.211 8.211 0 00.609-1.352c-.068 0-.1 0-.135-.034v-.068c-.169.169-.3.372-.474.541-.034.067-.034.1-.067.135a.7.7 0 00-.338.2h-.068a.742.742 0 01.169-.271c.034-.034.034-.067.034-.135v-.034a6.027 6.027 0 00-.474.609.292.292 0 00-.1.2s0-.034.068-.068a.843.843 0 01-.169.237h-.068a1.375 1.375 0 00-.2.372c-.1.1-.169.2-.27.3h.034v.068h-.068c-.034 0-.034 0 0 .034h-.068a.455.455 0 01-.236.2.865.865 0 01-.237.338 5.169 5.169 0 00-.44.406c0-.034.034-.067.1-.1h-.1a.238.238 0 00.135-.169c0-.068.034-.1.135-.1a.54.54 0 00.237-.3c.034 0 .068-.034.135-.1a.692.692 0 00.27-.271c.034-.034.034-.068.068-.135a.525.525 0 00.271-.27c.034-.034.034-.068.034-.135a.45.45 0 00.1-.27.829.829 0 01-.3.372 1.43 1.43 0 01-.575.609.524.524 0 01-.27.2c0 .068-.034.1-.068.1-.034.068-.068.068-.1.068a1.789 1.789 0 01-.473.406.45.45 0 01-.2.169.119.119 0 01-.034.068l-.034-.034c-.034 0-.068.034-.1.034a.385.385 0 01.1-.271.307.307 0 00.1-.237 1.36 1.36 0 01-.3.169 2.061 2.061 0 01-.541.406.568.568 0 01-.169.068.383.383 0 00-.27.1s0 .034-.068.1c-.034 0-.068.034-.136.068h-.034a.033.033 0 01-.034.034c0 .068-.034.068-.1.068a3.691 3.691 0 01-.575.44c-.27.135-.507.271-.778.406-.034.034-.068.068-.1.068a5.26 5.26 0 01-.744.406 1.453 1.453 0 01-.169.034.256.256 0 01-.135-.034h.135a3.6 3.6 0 01.372-.3.482.482 0 01-.2.068 1.193 1.193 0 00-.3.135.385.385 0 01-.271.1h.068c-.1.034-.2.067-.236.135l-.271.135a.47.47 0 01-.3.136c-.034 0-.068 0-.068-.034a.427.427 0 01-.2.034.631.631 0 01-.237.068v-.034a1.417 1.417 0 01-.879.169.1.1 0 01-.135 0v-.036h.034a.7.7 0 00-.372 0h-.034a.384.384 0 01-.271.1c-.034.034-.068.034-.135.034a1.267 1.267 0 00.406-.237 2 2 0 00-.677.2.365.365 0 01-.169.034v-.031a3.074 3.074 0 00.44-.271c0-.034 0-.068.068-.1a6.851 6.851 0 00.879-.608.6.6 0 00.169-.136l-.034-.034a.986.986 0 01.271-.135c0-.068.067-.136.135-.2a37.448 37.448 0 002.3-1.725 3.248 3.248 0 00.507-.473l.034-.034a.033.033 0 01-.034.034.119.119 0 00.068-.034l.338-.338h-.034a.93.93 0 00.3-.237.369.369 0 01.169-.135 1.6 1.6 0 01.3-.406c.034 0 .068-.034.135-.068a1.148 1.148 0 01.2-.406c.271-.3.541-.643.812-.981v-.1a2.572 2.572 0 01.27-.372c0-.068.034-.135.034-.2l.068-.034c-.034.034-.034.034 0 .068a.846.846 0 00.1-.44s.034 0 .034-.068c0 .034 0 .034.034.034v-.034a.286.286 0 00.1-.169.119.119 0 01-.034-.068.738.738 0 01.169-.27.573.573 0 01.034-.237c.034-.1.067-.2.1-.338a3.917 3.917 0 00.169-.947l-.237-.237a1.046 1.046 0 01-.3-.643c-.034 0-.034-.034-.034-.1a.572.572 0 01-.1-.338v-.3a.269.269 0 01-.068-.338h.068c0-.034 0-.068.068-.1 0 .034.034.034.068 0a1.064 1.064 0 01.169-.338c.068 0 .1.034.169.068l.034-.034v-.034c0 .068.068.068.135 0a.567.567 0 01.068-.169.394.394 0 00.338-.068h.034q0-.1.1 0a1.432 1.432 0 00.406-.136c.2-.1.372-.2.541-.3a14.89 14.89 0 003.044-2.131c.135-.1.271-.2.473-.338a2.049 2.049 0 01.27-.27c0-.1.1-.2.237-.3a13.165 13.165 0 001.435-1.31 6.39 6.39 0 01.676-.677c-.068-.068-.135-.135-.2-.135a.642.642 0 00-.44-.034c0-.034-.034-.034-.1-.034h-.237a.135.135 0 01-.135.068v.034c-.034-.067-.068-.1-.135-.1a.248.248 0 01-.2.068.033.033 0 01-.034-.034.263.263 0 01-.1.034c-.135 0-.237.034-.3.034a.216.216 0 00-.2 0c-.237 0-.44.034-.643.034a.858.858 0 01-.406.068 1.567 1.567 0 01-.643.135c0 .034-.034.068-.034.1h-.237a1.05 1.05 0 01-.27.068c-.338.135-.676.2-1.015.3a.185.185 0 01-.169.1h.034a1.54 1.54 0 00-.473.169.668.668 0 00-.372.2 1.218 1.218 0 01.372-.135 2.082 2.082 0 01.406-.169h.034a4.53 4.53 0 00-.812.372v.068a.175.175 0 00-.135.068.073.073 0 01.068-.068h-.034c-.034 0-.067.034-.135.068a.033.033 0 01.034.034.117.117 0 01-.068.034 2.149 2.149 0 00-.406.236.159.159 0 00.2-.034c0 .034 0 .034.034.034a3.1 3.1 0 01-.439.271.118.118 0 00-.068.034 2.026 2.026 0 01-.507.3.407.407 0 00-.1.068.717.717 0 00-.169.1.372.372 0 00-.338.169.367.367 0 01-.169.034 1.773 1.773 0 01-.643.372h-.034a.475.475 0 01-.135.1.6.6 0 00-.237.27c-.135.068-.2.135-.27.169l-.135.135a.177.177 0 01-.068.136.474.474 0 01-.1.135l-.1.2a.225.225 0 01-.169.135 1.64 1.64 0 01-.1.236.125.125 0 01-.034.1 2.673 2.673 0 01-1.251 1.116 1.424 1.424 0 00-.541.135h-.541a.258.258 0 01-.169-.067 1.447 1.447 0 01-.406-.068.5.5 0 00-.237-.034 1.423 1.423 0 01-.338-.135.259.259 0 01-.169-.068 1.915 1.915 0 00-.406-.136.817.817 0 00-.507-.135 1.757 1.757 0 01-.541-.2.256.256 0 01-.135-.067 1.057 1.057 0 01-.507-.507 3.147 3.147 0 01-.169-.338v-.1a.288.288 0 000-.237v-.1a.6.6 0 00.271-.3c.609-.507 1.251-1.015 1.86-1.589a3.1 3.1 0 00.3-.169 7.817 7.817 0 011.184-.609c.2-.1.372-.2.541-.3 0 .034.034.068.1.034h.237c.2-.1.44-.169.676-.271.2-.1.406-.237.677-.372a2.279 2.279 0 01.744-.44c0-.034.068-.034.135-.034.372-.2.744-.372 1.116-.541a.877.877 0 00.372-.1c.271-.1.575-.237.879-.338l1.217-.406a2.856 2.856 0 01.575-.135 14.17 14.17 0 011.285-.372.794.794 0 00.372-.068h.541c.3 0 .643-.034.947-.034a6.564 6.564 0 01.777-.068.794.794 0 01.255.072zM156.536.094a.489.489 0 00.237.068.127.127 0 00.2 0 .3.3 0 00.27.169c0 .068.034.068.068 0a4.085 4.085 0 01.372.406.6.6 0 00.406.3 2.511 2.511 0 00.237.406 3.4 3.4 0 01.406.778 1.584 1.584 0 01.3.744 1.338 1.338 0 00.2.507c-.135.1-.169.2-.135.3-.034.034-.068.068-.1.068a.063.063 0 000 .1c0-.034 0-.034.034-.067a.941.941 0 00-.034.3.15.15 0 00.1.2v.507a.413.413 0 01-.2.474.785.785 0 00-.169.237c-.1.068-.169.135-.169.2 0 .135-.034.2-.1.237h.1a1.6 1.6 0 00-.338.338.1.1 0 00-.067.034.805.805 0 00-.372.473 8.145 8.145 0 00-.947.439.4.4 0 01-.068.1c-.034 0-.067.034-.1.034l-.136.135c.068 0 .1 0 .1-.034 0 .034 0 .034.034.034a3.269 3.269 0 00-.507.338c-.169.1-.3.169-.406.237 0-.034 0-.034-.068-.034s-.136 0-.136.068h.136a.468.468 0 01-.136.1h-.169a2.959 2.959 0 01-1.048.676c0 .034-.068.068-.135.1a.745.745 0 00-.372.169c-.1 0-.17.034-.17.068a.585.585 0 01-.169.135c-.135.034-.237.068-.338.1a.258.258 0 00-.033.135h-.136a.91.91 0 01-.271.237 1.763 1.763 0 00-.372.338c-.034 0-.034 0-.034-.034a.592.592 0 00-.1.135c-.034-.068-.067-.1-.1-.1a9.924 9.924 0 01-1.251 1.15c0-.034-.034-.1-.068-.1-.067.034-.1.068-.169.1-.034.068-.068.068-.135.068.068 0 .1-.068.068-.135a3.632 3.632 0 01.473-.541.186.186 0 01-.169.1c-.068 0-.1 0-.068.034a17.543 17.543 0 00-1.386 1.353c0 .068.068.1.135.169 0-.034.034-.068.1-.068v.034c-.068 0-.068.034-.068.034a4.916 4.916 0 01.372.507 1.164 1.164 0 00.2.3c.1.2.2.406.3.575a.842.842 0 01.135.237.756.756 0 00.1.169c0 .068 0 .135.068.135a1.5 1.5 0 00.271.372c0 .034 0 .034.034.034.169.338.3.676.439.981a4.446 4.446 0 00.2.845.757.757 0 01.1.338 7.994 7.994 0 01.237.845 2.387 2.387 0 00.2.947l.2 1.522a1.543 1.543 0 01.068.677 5.325 5.325 0 01-.034 1.048c-.034.643-.034 1.285-.034 1.927a.338.338 0 01.034-.135 1.707 1.707 0 01.068.3v.106a.352.352 0 00.034.135v.034l-.034-.034v.135a.151.151 0 000 .169 1.483 1.483 0 00.034-.169 4.146 4.146 0 01-.068.676.033.033 0 00.034.034h-.034v.27c-.034-.034-.068-.034-.068 0a.149.149 0 00.034.1h.068c-.034.034-.034.068-.034.135-.068.034-.068.068-.068.135 0 .034-.034.034-.068.034a.79.79 0 01-.068.271.408.408 0 00-.068.271.53.53 0 00-.034.406.405.405 0 00-.135.271 3.208 3.208 0 01-.237.981c-.034 0-.034.068-.068.135a.307.307 0 00-.237.1.146.146 0 01-.135.135l-.034.034v-.068c-.135.034-.2.034-.236 0a.322.322 0 01-.237.2.261.261 0 00-.034.1 1.778 1.778 0 01-.406-.034c-.068-.034-.1-.067-.136-.067-.1.135-.169.169-.3.067-.034 0-.067 0-.1-.067a.205.205 0 01-.27 0 1.184 1.184 0 01-.473-.2 1.768 1.768 0 01-.338-.372.155.155 0 01-.135-.169.2.2 0 01-.236-.1 8.43 8.43 0 01-.507-.575 2.4 2.4 0 01-.27-.609 1.6 1.6 0 01-.2-.507 4.746 4.746 0 01-.489-1.017v-.034c.034 0 .034-.034.034-.135a.033.033 0 01-.034-.034c0 .034.034.034.1.034.034-.034.034-.1.034-.237.135 0 .169-.068.169-.27a.105.105 0 00-.034-.068c.068 0 .1-.034.034-.135v-.034c.068.068.1.034.135-.068a.135.135 0 00.136.068 1.606 1.606 0 00.44-.812c-.068-.034-.068-.1 0-.237a5.735 5.735 0 01.2-1.048 1.761 1.761 0 00.068-.474h-.136a6.023 6.023 0 00.3-1.183l-.068-.068h-.068a16.348 16.348 0 01.3-1.691.119.119 0 00-.033-.068.948.948 0 00.033-.3 9.887 9.887 0 00.1-1.387h-.068c0-.2-.034-.372-.034-.541a.151.151 0 000-.169 1.73 1.73 0 00-.27-1.285.667.667 0 01-.1-.338c-.034-.068-.068-.1-.1-.169a1.96 1.96 0 00.339.27c.034.1.068.135.135.068a9 9 0 00.812.406 3.908 3.908 0 01.913.913l.034-.068a11.765 11.765 0 00-1.386-1.894 2.539 2.539 0 00-.406-.3c-.034-.034-.068-.1-.136-.136a1.289 1.289 0 01-.372.372c.034 0 .067-.034.135-.1a.605.605 0 00-.237.169c-.1.068-.169.135-.27.2a1.618 1.618 0 01.3-.372.66.66 0 00.27-.271h-.034a3.772 3.772 0 00-.541.406.2.2 0 00-.135.034.119.119 0 01.067-.034.432.432 0 00-.2.034c0 .034.034.068.1.068h-.068c-.034 0-.034-.034-.034-.068a6.939 6.939 0 01-.575.507v.135a6.872 6.872 0 01-.913.778.382.382 0 00-.27.1c.034-.034.034-.068-.034-.068a1.512 1.512 0 00-.372.271h.034l-.034.034c-.067 0-.135.034-.135.068s0 .034.034 0c0 .068-.034.068-.034.068a1.913 1.913 0 00-.27.2h-.034a.186.186 0 00-.1.169h-.021a.125.125 0 01-.1.034c-.034 0-.034.034-.034.1v.034h-.135c-.034.068-.068.1-.068.136-.034 0-.068 0-.068.034l-.2.2v-.1h-.034a.453.453 0 00.271-.237v.1c.068-.034.1-.068.1-.136.034 0 .034-.034.034-.1.034-.034.068-.034.1-.068h-.1a4.2 4.2 0 01-.778.575 3.242 3.242 0 01-.676.439c.034 0 .034 0 .034-.034h-.034a.033.033 0 01-.034.034l-.2.2c-.1.034-.135.068-.135.135v-.062a1.619 1.619 0 01-.541.27v.068c0 .034.034 0 .067-.034l-.067.068c-.034 0-.034-.034-.034-.068a.105.105 0 00-.034.068h-.1c-.068.068-.135.1-.169.068h-.1a.543.543 0 00-.271.1c.068 0 .169-.034.237-.034a.1.1 0 01-.067.034.245.245 0 01-.2.135c-.068 0-.068.034-.068.1v.034h-.034c0 .068-.034.1-.068.1-.034-.068 0-.1.068-.1a.526.526 0 01-.2.1.063.063 0 000 .1s0 .034.068.034a.365.365 0 01-.237.068c-.068 0-.068.034-.034.1h-.136c-.034 0-.067-.034-.1-.034a1.353 1.353 0 00-.372.406 1.14 1.14 0 01.406-.2.146.146 0 01.1-.034l-.1.1h-.034a.526.526 0 01-.271.2 1.239 1.239 0 01-.169.3 3.928 3.928 0 01-.575.473 5.466 5.466 0 00-.642.609c.033-.1.1-.136.2-.169a1.063 1.063 0 00-.2.237.51.51 0 00-.271.136.351.351 0 01-.237.169c-.068 0-.136.034-.2.034-.068.068-.1.136-.169.169a.647.647 0 00-.44.068c-.1 0-.169.034-.271.034a1.581 1.581 0 01.473-.473v-.068c.2-.2.44-.406.643-.609a.124.124 0 00.135-.135c.339-.27.676-.575 1.049-.845-.068-.034-.068-.068-.034-.068.034-.034.1-.034.2-.068a.118.118 0 00.034-.068c.034 0 .068 0 .1-.068-.034 0-.068 0-.068-.068.068 0 .1-.068.135-.135-.034.068-.068.1-.135.068a.748.748 0 00.271-.169c.067.067.1.067.169.034-.1.068-.2.1-.3.169v.034a5.5 5.5 0 00.879-.677 3.213 3.213 0 00.71-.642h-.067a3.865 3.865 0 01-.575.507c-.1.034-.135.068-.135.1a.224.224 0 01.135-.169c-.068 0-.135.034-.135.068a2.973 2.973 0 00-.339.2h.1c-.068 0-.1 0-.1.034v-.034a.277.277 0 00-.169.169h.1c-.068 0-.1 0-.068.034v-.034c-.034.1-.068.135-.135.1h-.067v.034a.293.293 0 00-.2.1c0 .068-.068.068-.1.068v.068c-.068.034-.068.068-.068.135a.766.766 0 01-.338.169.369.369 0 01-.169.034c0-.034.068-.034.169-.068l.338-.338a1.021 1.021 0 00.237-.169h-.068c.068-.068.1-.135.135-.135h.135a6.138 6.138 0 00.643-.676c-.1.034-.169.068-.27.1a.8.8 0 01-.3.2.176.176 0 00-.135-.068l-.136.136c.068-.068.1-.068.136 0a2.69 2.69 0 00-.271.3h.068a1.465 1.465 0 00-.237.2c-.2.2-.406.405-.609.642h.135a.157.157 0 00-.169.1h.034c-.034.068-.068.068-.136.034a.977.977 0 01-.372.372c-.135.068-.271.169-.406.237-.237.169-.473.338-.676.473a.4.4 0 01.169-.169c.1-.068.2-.169.338-.271a14.128 14.128 0 011.42-1.42v-.068h.068c.034 0 .068-.068.136-.135h.033c-.033-.1 0-.169.1-.169a3.611 3.611 0 01.237-.372.239.239 0 00.136-.169c-.034-.034-.068-.068-.068-.1-.439.439-.812.845-1.15 1.217.033 0 .1-.068.169-.135v.135c-.034 0-.034 0-.034.034h.034a6.037 6.037 0 00-.947.913.342.342 0 00-.237.135c-.034.135-.1.169-.237.135a9.2 9.2 0 01-.541.676.227.227 0 00-.237.136c-.034.034 0 .034.068.034v.034c-.068 0-.1-.034-.1-.067a.551.551 0 01-.135.237c-.034.034-.068.068-.1.068-.068.034-.1.068-.169.068-.034.068-.1.068-.169 0a3.075 3.075 0 00.575-.575.151.151 0 010-.169h-.034v.1c-.067 0-.067-.034-.067-.068-.034.068-.068.1-.068.136-.068 0-.135.034-.135.067a.181.181 0 00-.1.136.449.449 0 00-.169.2c-.271.271-.507.507-.744.778l-.406.3c-.2.135-.406.27-.575.406h-.034v-.1a1.35 1.35 0 00.338-.406 1.515 1.515 0 01-.44.372.346.346 0 01-.135.034v-.002a.43.43 0 00-.237.136c-.034 0-.068.034-.1.034a.119.119 0 00.068-.034v-.1a12.516 12.516 0 001.252-1.387 8.566 8.566 0 01.744-.879c.1-.068.237-.169.372-.271a9.47 9.47 0 00.846-1.048h-.034c-.034.068-.068.068-.068 0a1.79 1.79 0 00.372-.338.185.185 0 01-.1.169.836.836 0 00.339-.406.471.471 0 01-.1.135.683.683 0 01.135-.271.2.2 0 01-.27-.034 15.472 15.472 0 00-1.217 1.386 20.174 20.174 0 01-1.42 1.488 1.366 1.366 0 00-.3.169v.034a1.96 1.96 0 00-.541.643 2.3 2.3 0 01-.3.2.176.176 0 00.068-.136.412.412 0 01-.068.1c.034-.1.034-.135.1-.169v.067a.573.573 0 00.2-.2h-.135a.336.336 0 00.135-.034v.034c.068-.1.2-.237.3-.372a.187.187 0 00.1-.169c-.067.068-.1.135-.169.169a.574.574 0 00.135-.44v-.1l-.1.1.034.034c-.034.034-.1.068-.136.1 0-.034.034-.068.068-.1v.068c.034-.068.034-.1 0-.1.135-.2.27-.44.439-.676a2.485 2.485 0 00.372-.3c.033 0 .1-.068.169-.135 0-.068.034-.1.135-.135h-.1a.731.731 0 01.1-.169h-.1c.067-.135.135-.2.236-.2v-.034c0 .034.034.034.1.034v-.135c0-.034.068-.068.136-.135a.676.676 0 00.27-.338.033.033 0 01-.034-.034c-.034.067-.068.1-.1.1a.089.089 0 01-.1.1 3.1 3.1 0 00-.169.3h-.067a.877.877 0 01.237-.338.356.356 0 00.135-.338c0-.034.034-.068.1-.068v.034a.311.311 0 00.1-.169c.034 0 .068-.034.169-.1a.263.263 0 00-.1-.034 2.053 2.053 0 00.271-.271.2.2 0 00-.034.135 8.348 8.348 0 00.71-.913 1.379 1.379 0 01.372-.2.365.365 0 01.1-.237.737.737 0 01.271-.3c.034 0 .034-.034.068-.135a1.481 1.481 0 00.372-.3c.068-.034.1-.068.1-.1v-.1c-.068.034-.1.1-.136.1-.067 0-.067 0-.067-.034l.2-.1c.067-.067.135-.1.135-.169h.034c.068 0 .068-.034.068-.068s0-.034-.068-.034a.255.255 0 00.135-.237 1.022 1.022 0 00.237-.169c-.067.1-.135.169-.135.271a.263.263 0 01.135-.136.236.236 0 01-.135.169 1.183 1.183 0 00.27-.169h.034v-.1a.548.548 0 00.237-.135.125.125 0 01-.1-.034.528.528 0 00.271-.2l-.034.034c.034.034.068.034.136-.034a.768.768 0 01.236-.338h-.034c-.034 0-.034.034-.034.068 0-.068.068-.135.135-.2 0 .068 0 .1-.068.1a.175.175 0 00.135-.068v-.068c.034 0 .068-.034.136-.068-.034-.034-.034-.068 0-.068 0-.034.033-.068.067-.1a1.168 1.168 0 00.406-.406h-.034c.034-.034.067-.034.1-.068v.034c-.034.034-.034.034 0 .034a4.608 4.608 0 01.812-.811h-.1l.2-.2a.117.117 0 01.068.034 1.088 1.088 0 01.2-.169c-.034 0-.067 0-.067-.034l-.136.135a.435.435 0 01.2-.135 1.293 1.293 0 00.372-.372h-.034l.642-.642a.26.26 0 00.17-.068.865.865 0 00.541-.44.2.2 0 00.1-.2.406.406 0 01-.237.237c0-.034.034-.034.068-.034h-.136c.3-.3.643-.609.947-.913.034-.034.034-.068 0-.135a.345.345 0 01-.271.169c0 .034.034.068.034.1h-.034l.034-.1c-.034.034-.034.034-.034 0 .643-.643 1.285-1.285 1.928-1.961a4.4 4.4 0 01.406-.439l1.995-1.894q.913-.812 1.826-1.522c1.319-1.014 2.638-2 3.889-3.01a.771.771 0 00.406-.2c.1-.068.237-.135.406-.237.068 0 .1-.034.169-.135a4.008 4.008 0 00.845-.44c.1-.067.169 0 .2.136a1.7 1.7 0 00.422-.097zM195.222 5.268c.1.034.169 0 .271-.1v.135a4.067 4.067 0 00.473-.338c0 .034 0 .068.034.068a.644.644 0 00-.237.406h.034a6.737 6.737 0 00-.473.541.692.692 0 01-.27.27 3.014 3.014 0 00-.507.643v.034a2.224 2.224 0 01-.507.609 4.053 4.053 0 00-.507.609 7.04 7.04 0 00-1.251 1.386h.068c-.034.034-.068.068-.068.1v-.1l-.135.135c.068.034.068.068 0 .1 0 .068-.034.068-.068.034a.77.77 0 01-.1.169.033.033 0 00.033.034 1.531 1.531 0 00-.372.575 1.225 1.225 0 00-.237.338c-.034.034-.034.068-.068.1v-.034c-.034.034-.067.067-.067.1a.576.576 0 00-.2.2c-.034 0-.067.034-.1.1-.068.068-.136.169-.2.237a1.854 1.854 0 00-.44.609.428.428 0 01-.135.2 1.929 1.929 0 00-.135.27 1.2 1.2 0 00-.338.406c.034.034.034.034.068 0a1.268 1.268 0 00.406-.439.414.414 0 01.1-.068.308.308 0 00.1-.236.929.929 0 01.236-.3.033.033 0 01-.034-.034.173.173 0 00.169-.136.707.707 0 01.135-.2c0-.034.034-.067.1-.135a.454.454 0 01.2-.236c.034-.068.034-.1.068-.169.237-.237.473-.473.71-.744a.126.126 0 01.033-.1c0 .068-.033.1-.033.135-.068.1-.136.237-.2.339v.2c-.169.237-.338.439-.507.643a61.596 61.596 0 01-1.116 1.555c-.237.3-.507.609-.744.913a7.726 7.726 0 00-.71.778 6.032 6.032 0 00-.541.744c0 .034 0 .1-.067.1a.257.257 0 00.169-.068 1.527 1.527 0 00-.338.473c-.135.1-.2.2-.169.338a4.062 4.062 0 00-.507.609.345.345 0 01-.271.169 3.415 3.415 0 01-.642.575c-.034.034-.068.034-.1.068a5.169 5.169 0 00-.609.609c-.169.2-.339.372-.474.507a6.567 6.567 0 00-.811.913 4.8 4.8 0 01-.406.609c-.1.1-.2.237-.3.338a9.593 9.593 0 01-.811.845 1.505 1.505 0 01-.2.237.488.488 0 01-.372.3.294.294 0 01-.1.2 4.239 4.239 0 00-.372.439 5.742 5.742 0 01-1.555 1.454 2.822 2.822 0 01-.271.3.348.348 0 01-.169.2.731.731 0 00-.372.405 10.221 10.221 0 00-1.522 1.42 1.215 1.215 0 00-.372.135h-.068a.224.224 0 01-.169.135h-.44c-.068 0-.1 0-.135-.034-.068-.068-.1-.135-.169-.2a2.234 2.234 0 01-.507-.135.573.573 0 01-.338-.1.871.871 0 01-.44-.271.436.436 0 01-.372-.169 2.072 2.072 0 01-.676-.3.557.557 0 01-.271-.338 1.782 1.782 0 01-.677-.744.289.289 0 01-.27-.237l-.575-.575-.3-.507a.7.7 0 01-.2-.338.261.261 0 01-.034-.338.033.033 0 01-.034-.034c.034-.034.034-.068.034-.135-.034 0-.034-.034-.034-.068a.255.255 0 00.135-.034 2.948 2.948 0 01-.169-.507.482.482 0 00-.068-.2 1.631 1.631 0 01.236-.1l.034-.034h.1a.307.307 0 000-.338s0-.034.068-.034.169-.034.237-.034a.955.955 0 00.169-.778c.034.034.068.034.136 0 0-.068 0-.1.067-.135a1.194 1.194 0 01.473-.1 1.024 1.024 0 01.541.169.212.212 0 00.27.068c.71-.338 1.42-.676 2.1-1.082a1.373 1.373 0 00.3-.169c0 .034.068.068.136.034.811-.474 1.657-.947 2.5-1.42.44-.27.846-.541 1.285-.811.237-.169.474-.339.677-.507h.034a88.476 88.476 0 002.232-1.556.967.967 0 00.473-.27c.2-.136.406-.271.643-.44a46.616 46.616 0 012.435-1.961 1.3 1.3 0 00.169-.2c-.034 0-.034 0-.034-.034.034.034.1 0 .135-.068.169-.135.372-.3.609-.473.846-.71 1.623-1.454 2.435-2.2-.034-.034-.034-.034 0-.034v-.028a.245.245 0 01-.2.135c.034 0 .068-.034.068-.1.067-.034.1-.1.169-.169 0 .068 0 .1-.034.135a1.031 1.031 0 00.236-.169c.812-.778 1.657-1.488 2.536-2.2a1.178 1.178 0 00.44-.372.709.709 0 00.2-.135 2.1 2.1 0 01.643-.473 7.154 7.154 0 00.812-.677c.068.068.135.068.169 0a.7.7 0 00.271-.2h.034a3.609 3.609 0 01-.324.368zm-18.971-5a.513.513 0 00.44.1 5.12 5.12 0 001.183.473 8.6 8.6 0 01.947.541 10.686 10.686 0 012.1 1.793c.2.27.372.473.575.71a.2.2 0 00.1.237 1.869 1.869 0 00.2.27 1.127 1.127 0 00.169.406 2.812 2.812 0 01.136.507.252.252 0 00.034.169.777.777 0 01.033.473 1.3 1.3 0 01-.067.812 1.832 1.832 0 00-.271.507 1.244 1.244 0 01-.643.541 2.542 2.542 0 00-.507-.034c-.068-.034-.1-.068-.135-.034a1.8 1.8 0 01-.879-.27.368.368 0 01-.17-.034l-.033-.034a.033.033 0 01-.034.034.149.149 0 00-.1-.034s-.034 0-.034-.068c-.067.068-.1.1-.169.068l.068-.068h-.169v-.034c-.135.034-.2 0-.2-.068-.034 0-.034-.034-.067-.034a.177.177 0 01-.136.068.181.181 0 01-.135-.1h-.068a.341.341 0 00-.237-.135h-.271a.181.181 0 00-.135-.1.461.461 0 01-.136-.1 1.211 1.211 0 01-.2-.034 1.125 1.125 0 00-.473-.034c-.034-.034-.068-.034-.135-.068a.92.92 0 00-.575-.2 1.958 1.958 0 00-1.386 0q-.152.1-.2 0a.328.328 0 00-.034-.3 7.779 7.779 0 00.338-.947 5.518 5.518 0 01.034-1.488.646.646 0 00-.3-.609 1.855 1.855 0 01-.744-.609 1.2 1.2 0 00-.169-.271c-.034-.034-.068-.1-.1-.135.067 0 .1-.034.034-.1v-.2a.611.611 0 01-.068-.338.257.257 0 01.1-.3c0-.034 0-.068-.034-.068.034 0 .068 0 .068-.034V.858c.1-.1.135-.2.068-.3a.577.577 0 00-.068-.169.508.508 0 00.372-.136.123.123 0 00.169-.067 1.522 1.522 0 01.677-.034.31.31 0 01.372.034 4.133 4.133 0 01.864.078z"/><path fill="none" stroke="#fff" stroke-width=".5" stroke-dasharray="3" d="M0 49.519h112"/><text transform="translate(155.298 52.338)" font-size="14" font-family="SourceHanSerif-Medium,Source Han Serif" font-weight="500" letter-spacing=".05em" fill="#fff"><tspan x="-32.473" y="0">Sun Fine</tspan></text></svg>