<svg xmlns="http://www.w3.org/2000/svg" width="171" height="46.911" viewBox="0 0 171 46.911"><defs><style>.a{fill:#fff;}.b{fill:none;stroke:#fff;stroke-width:0.5px;stroke-dasharray:3;}</style></defs><g transform="translate(-137 -47.297)"><g transform="translate(-12.163 -201.526)"><g transform="translate(149.163 248.823)"><path class="a" d="M166.423,252c0,.03.059.03.118.03a1.553,1.553,0,0,0,.59.177.063.063,0,0,0,.059.059c.118.088.266.206.413.295.089.089.177.147.266.236a3.52,3.52,0,0,1,.354.325c.089.059.207.148.325.236a.118.118,0,0,1,.118.059.229.229,0,0,0,.118.118,1.667,1.667,0,0,1,.5.62,1.873,1.873,0,0,1,.354.62,2.98,2.98,0,0,1,.177.738,7.83,7.83,0,0,1-.029,1.18c-.03.177-.059.324-.089.5-.088.354-.148.708-.206,1.033-.03.059-.059.089-.059.118a2.7,2.7,0,0,0,.5.266l.059-.029v-.118a.431.431,0,0,0,.266.177.158.158,0,0,0,.118.089,2.182,2.182,0,0,1,1.033,1.151.351.351,0,0,1-.118.383.23.23,0,0,1-.236.03.131.131,0,0,0-.148,0c-.118.059-.206.059-.265-.03a.572.572,0,0,0-.266.148.4.4,0,0,1-.266-.148.709.709,0,0,1-.266-.059,3.328,3.328,0,0,0-.738-.089c-.059.177-.118.324-.147.442a.5.5,0,0,1-.088.3c-.059,0-.059,0-.059.029-.059.118-.088.236-.118.3a1.672,1.672,0,0,0-.118.354,2.307,2.307,0,0,1-.147.413c-.03.059,0,.088.029.118v-.03a.256.256,0,0,0-.089.177c-.029.029-.029.029,0,.029a.132.132,0,0,0,0,.148c-.059.206-.118.443-.177.649l-.177.443c0,.029,0,.029.029.029a2.328,2.328,0,0,0-.148.413,1.152,1.152,0,0,0-.059.177.108.108,0,0,0-.059.147.365.365,0,0,0-.118.236.029.029,0,0,0,.03.029c0-.029,0-.059.059-.089a.272.272,0,0,1-.118.177.837.837,0,0,1-.118.383h-.03a.178.178,0,0,0-.029.118c.029-.029.029-.088.088-.118l.03-.029a1.968,1.968,0,0,1-.177.59c-.03.03-.03.089-.059.148a2.428,2.428,0,0,1-.206.384,2.215,2.215,0,0,0-.118.325l-.089.088a3.353,3.353,0,0,1,.148-.384c.03-.118.059-.236.088-.325l.177-.531a1.673,1.673,0,0,1,.118-.354q-.044-.044,0-.177a2.039,2.039,0,0,1-.089.236v.089a.267.267,0,0,0-.088.206c-.03,0-.059,0-.059.029h.059a2.407,2.407,0,0,1-.266.738.1.1,0,0,1-.03.059h-.029c-.059.147-.118.265-.177.383-.03.089-.059.148-.089.236l-.177.531c-.059.059-.059.088-.059.088a.887.887,0,0,1-.118.3,1.489,1.489,0,0,0-.148.383c-.088.177-.147.354-.236.531v.029a4.309,4.309,0,0,0-.177.413.029.029,0,0,1-.029-.029.892.892,0,0,1-.118.236l-.03-.03c.03-.029.059-.059.088-.059h-.059a.255.255,0,0,1-.089.177l.089-.265c.029.03.059,0,.088-.03a.624.624,0,0,1,.118-.3.475.475,0,0,1,.089-.266c0-.118.059-.177.147-.177.03-.059.03-.118.059-.177a.1.1,0,0,1-.059-.029.091.091,0,0,0-.029.059h-.03a.531.531,0,0,0,.148-.207c-.03,0-.03,0-.03-.029.03,0,.059-.03.03-.059a.61.61,0,0,1,.118-.177c0-.03,0-.03.059-.059a.091.091,0,0,0-.059-.03,1.347,1.347,0,0,0,.147-.295.335.335,0,0,0,.089-.236.545.545,0,0,0,.059-.207c.029-.059.059-.148.089-.207a.3.3,0,0,0-.118.207,2.994,2.994,0,0,0-.148.354c-.089.147-.148.295-.207.413-.029-.03-.029-.03-.059-.03a.424.424,0,0,1-.177.295.736.736,0,0,0-.118.207.548.548,0,0,1-.206.236.224.224,0,0,0-.059.118c0,.059-.029.118-.088.118-.059.177-.118.354-.177.5,0,.03,0,.03.059,0a.091.091,0,0,1-.059.03V269c-.118.236-.207.443-.295.59-.03.089-.03.148-.059.148-.029.059-.059.089-.059.118l-.089.089c0,.029,0,.029.029.029h.03c-.059.029-.089.059-.089.118a1.373,1.373,0,0,0-.147.3.427.427,0,0,0-.177.265.162.162,0,0,0-.059.148.519.519,0,0,0-.118.147c0,.059,0,.118-.03.118h-.03v.03a.567.567,0,0,1-.147.265c-.059.03-.059.03-.059-.029-.059.029-.089.059-.089.089h-.029a5.957,5.957,0,0,0-.384.531c-.118.177-.236.354-.354.5a5.468,5.468,0,0,1-.767.856,12.285,12.285,0,0,0,1.682-2.272,7.438,7.438,0,0,0,.649-1.475,1.553,1.553,0,0,0,.236-.443c-.029-.029-.029-.029-.059-.029-.089.177-.148.324-.207.472a.639.639,0,0,1-.089.147,9.947,9.947,0,0,0-.531,1.151.255.255,0,0,0-.118.206v.03h-.03c-.147.207-.266.413-.383.59-.03-.029-.03-.029-.059,0,0-.059.03-.088.059-.147a2.653,2.653,0,0,0,.177-.3,1.237,1.237,0,0,1,.236-.354v-.148a.029.029,0,0,1-.03.03h.03a1.1,1.1,0,0,1-.148.177v.03c-.029,0-.059.029-.088.029-.03-.088.029-.177.118-.266a3.527,3.527,0,0,0,.147-.531.61.61,0,0,0-.118.177c-.207.354-.443.649-.649.944a1.813,1.813,0,0,0-.207.295,1.287,1.287,0,0,1-.059.295c-.059.059-.147.118-.207.177a.1.1,0,0,1-.059-.029c-.148.207-.295.384-.443.59-.059.089-.089.118-.089.177a.593.593,0,0,0-.059.266,6.839,6.839,0,0,0-.413.561.277.277,0,0,1-.236.177,2.247,2.247,0,0,0-.59.59c-.236.266-.5.5-.738.738a2.618,2.618,0,0,1-.5.236c-.207.147-.384.265-.561.383a1.261,1.261,0,0,1-.413.118h-.118a6.053,6.053,0,0,0,.856-.885h-.029a.255.255,0,0,0,.177-.089.091.091,0,0,1-.059-.029c.059-.03.089-.03.148-.059v-.059c0,.059.029.059.029.029.029,0,.029-.029.029-.088h.03a1.2,1.2,0,0,0,.295-.266H159.9a.108.108,0,0,0,.088-.03h.03c.059-.029.088-.118.148-.177h.029a.139.139,0,0,1,.148-.147v.029l.354-.443h-.03c0,.03-.029.059-.088.059a.8.8,0,0,0,.236-.207.187.187,0,0,0,.177-.148c.029,0,.059-.029.059-.088-.059,0-.089,0-.118.029s-.059.03-.029.03c0,0,0-.03-.059-.089l-.029.03h.029a3.515,3.515,0,0,0-.324.354c-.03.029-.03.029-.03.059s0,.03.03.03a.958.958,0,0,0-.384.383.029.029,0,0,0,.03.03,1.151,1.151,0,0,0-.3.236h.089c-.059.029-.118.089-.177.089a2.7,2.7,0,0,1-.266.295c0,.029.03.029.03-.03,0,.059-.03.059-.03.059l-.03-.029c-.059.088-.147.147-.206.118,0,.029,0,.029.029,0,.059-.03.059-.089.059-.207a1.381,1.381,0,0,0,.561-.531.48.48,0,0,1,.148-.266c0-.03.029-.03.059-.059a5.43,5.43,0,0,0,.5-.649l-.03-.03a.222.222,0,0,1-.118.03c0,.029,0,.029.03.029-.059.03-.089.059-.148.089a.029.029,0,0,1-.029.029c0,.03,0,.03.029.03-.148.177-.266.324-.413.472a.109.109,0,0,1-.089.029l-.236.236h.029a4.683,4.683,0,0,1-.649.679.223.223,0,0,1-.206.118,1.179,1.179,0,0,1-.177.059c.03.029.03,0,.03-.03h-.03a1.442,1.442,0,0,0-.206.089,4.608,4.608,0,0,0,.8-.59.271.271,0,0,0,.118-.177c.029-.059.059-.088.089-.088a.624.624,0,0,0,.177-.118c-.03-.03-.03-.059.029-.089a.2.2,0,0,0,.118-.206,1.2,1.2,0,0,0,.295-.266c.03-.03.059-.089.118-.148a.608.608,0,0,1,.118-.177,1.022,1.022,0,0,0,.206-.354c-.295.295-.561.59-.826.885l-.354.443a.252.252,0,0,0-.088.148.055.055,0,0,1,0-.089c-.177.148-.325.266-.443.384h-.03a2.389,2.389,0,0,0,.472-.472.536.536,0,0,0-.325.295.529.529,0,0,1-.266.118c-.029.059-.059.059-.088.059a.187.187,0,0,0,.177-.148h-.029c-.236.207-.443.413-.62.59v0a2,2,0,0,0-.354.354c-.059,0-.088,0-.088.059a2.208,2.208,0,0,0-.354.207.639.639,0,0,0,.089-.148.231.231,0,0,0-.236.03,1.676,1.676,0,0,0-.236.206h-.03a.865.865,0,0,0,.384-.354.064.064,0,0,0-.059.059l-.03-.029a.318.318,0,0,0,.089-.207c-.059.029-.089.059-.089.118-.177.118-.324.236-.472.354a1.429,1.429,0,0,0-.206.089,1.148,1.148,0,0,0-.295.236c0,.059,0,.059-.03.059h-.03c.03,0,.03,0,.059-.059a.178.178,0,0,1-.118.03c-.029.029-.059.088-.118.118a.229.229,0,0,0-.088.029c-.118.089-.236.207-.354.295h-.147c.118-.177.266-.354.413-.561a.98.98,0,0,1,.295-.413.9.9,0,0,0,.148-.206.269.269,0,0,1,.118-.236.178.178,0,0,0,.088-.177v-.118h0s0-.029.059-.088h.029l-.089.088.767-.767a.3.3,0,0,0,.118-.148,1.288,1.288,0,0,0,.177-.206v-.03a.353.353,0,0,0,.207-.207h-.029a.455.455,0,0,0,.206-.206h0v-.03l.059-.059h.03c.059-.118.147-.206.206-.325a.153.153,0,0,0,.059-.118h-.029a.51.51,0,0,0,.147-.118c0,.03,0,.059-.029.059a.46.46,0,0,0,.177-.236.029.029,0,0,0-.03.03v-.03a.109.109,0,0,0,.089-.029c0,.029,0,.029-.03.029h.03c.088-.118.206-.236.354-.413-.059.059-.088.088-.088.118a.132.132,0,0,1,0,.147,1.37,1.37,0,0,0-.3.3.109.109,0,0,0,.03.089c0-.03.029-.059.059-.089a1.3,1.3,0,0,0-.177.472c.029.118.029.207-.029.266a.651.651,0,0,1-.089.147c0,.089,0,.148-.059.148h.118a23.194,23.194,0,0,0,3.216-4.809.27.27,0,0,1,.089-.147c.266-.62.5-1.239.767-1.859a.6.6,0,0,1,.148-.266V266.4a.207.207,0,0,0-.148.118c.03-.029.059-.088.118-.118a.56.56,0,0,0,.059-.236h-.029a.687.687,0,0,0,.207-.325.092.092,0,0,0,.059-.029l-.03.029c0,.089,0,.148-.059.177-.059,0-.059.03-.03.059-.059.059-.059.088-.059.088.029,0,.059,0,.059-.059a.441.441,0,0,1-.118.236.109.109,0,0,0-.029.089h.029c0-.029,0-.029.03-.029a.489.489,0,0,0-.059.147c-.029.029-.029.059-.059.088a.374.374,0,0,0-.03.177,1.2,1.2,0,0,0-.147.265h.03a.229.229,0,0,0-.03.089l-.059.059a.64.64,0,0,1-.089.147c0,.03,0,.03.03.03.029.059,0,.088-.03.118-.029.059-.059.089-.059.118h0v.148a1.807,1.807,0,0,1,.148-.354c.177-.443.354-.856.531-1.3-.029,0-.029-.03.03-.089.088-.236.177-.472.266-.738a2.279,2.279,0,0,0,.206-.767.129.129,0,0,1-.089.03.029.029,0,0,1-.029.03.269.269,0,0,1-.088.206.178.178,0,0,1-.089.177.561.561,0,0,0,.059-.383,2.628,2.628,0,0,0-.295.678l-.089.266v.03a.531.531,0,0,0-.118.265.473.473,0,0,1-.089.177.661.661,0,0,0-.088.3c-.029,0-.029,0-.029-.03a.574.574,0,0,0-.03.207,5.06,5.06,0,0,1-.266.561,1.305,1.305,0,0,0-.059.295l-.118.118a5.188,5.188,0,0,1-.472,1.18c.088-.266.207-.531.324-.8a1.155,1.155,0,0,1,.059-.177c.088-.206.177-.442.265-.678,0-.059.03-.089.03-.148.059-.029.059-.059.059-.118a.476.476,0,0,0,.088-.266,2.2,2.2,0,0,1-.324.59,3.142,3.142,0,0,0-.266.561c-.118.236-.207.442-.295.649a.919.919,0,0,1-.177.384,1.39,1.39,0,0,0-.177.443c-.088.118-.147.236-.236.354-.059.088-.088.207-.147.3a1.881,1.881,0,0,1-.207.354c-.03,0-.03,0-.03-.029a1.2,1.2,0,0,0-.265.295h.03c-.03,0-.03,0-.059-.03,0-.029.03-.059.089-.118.118-.207.266-.413.384-.649,0-.059.029-.118.029-.177l.03-.03a2.467,2.467,0,0,0,.354-.679,4.874,4.874,0,0,1,.354-.649.379.379,0,0,1,.118-.295,3.041,3.041,0,0,0,.207-.62.029.029,0,0,1-.029-.03.581.581,0,0,1,.118-.236v-.029a1.411,1.411,0,0,0,.089-.207c0-.089.029-.148.029-.206,0,.029.03.029.03.059.059-.059.059-.118,0-.147.03,0,.03-.03.03-.059l.088-.089c.059,0,.059-.059.03-.118v-.03c0,.059-.03.089-.03.118,0-.03.03-.059.03-.118h.029c.03,0,.03-.029.03-.088a.091.091,0,0,0-.03.059.307.307,0,0,1-.029-.118c-.118.384-.266.738-.384,1.062-.177.383-.325.767-.5,1.151-.118.177-.236.354-.325.5h.03a.063.063,0,0,0,.059-.059.41.41,0,0,1-.148.295.693.693,0,0,0,.059-.236,7.9,7.9,0,0,1-.354.708h.03a.405.405,0,0,1-.089.118.118.118,0,0,0-.059.118v-.118c.236-.5.5-.974.767-1.475a1.546,1.546,0,0,1,.177-.472l.029-.029h-.029c.029-.03.029-.089.059-.148.059-.118.118-.266.177-.413.089-.266.206-.531.324-.8.177-.443.325-.885.5-1.328a1.322,1.322,0,0,1,.206-.531c0-.089.029-.148.029-.236a.47.47,0,0,0,.118-.207c-.059.029-.059.029-.029.059a1.19,1.19,0,0,0-.147.266.055.055,0,0,1,0-.089c0-.029,0-.029.029-.059a1.342,1.342,0,0,0,.147-.413c-.029.03-.029.03,0,.03a1.259,1.259,0,0,0,.059-.148c-.059.059-.059.088-.059.088a.268.268,0,0,1,.118-.236v-.207c0-.059.059-.118.118-.206a2.292,2.292,0,0,1,.059-.62.029.029,0,0,0,.029.03.221.221,0,0,0,.03-.148.5.5,0,0,1,.03-.207,1.241,1.241,0,0,0,.118-.472,3.1,3.1,0,0,0,.148-.561,2.376,2.376,0,0,0,.148-.62c-.62.177-1.21.325-1.8.5-.266.059-.5.118-.738.148h-.059l.029-.03h-.029a.287.287,0,0,1-.266.118c.03,0,.059-.029.089-.059-.03,0-.059.03-.089.03-.059.059-.088.089-.147.089a.092.092,0,0,1,.029-.059h-.029a.092.092,0,0,0-.03.059,1.2,1.2,0,0,1-.5.147.118.118,0,0,0,.118-.059.7.7,0,0,1-.236.059,3.037,3.037,0,0,1-.413.118c-.059.059-.118.089-.148.059a2.921,2.921,0,0,1-.324.148c-.059-.03-.089,0-.118.029a2.762,2.762,0,0,1-.472.118,1.535,1.535,0,0,0-.443.207,2.072,2.072,0,0,1-.089.236.223.223,0,0,1,.029.148c0,.324-.029.62-.029.885a2.207,2.207,0,0,0,.118.472c.029.177.059.354.089.5,0,.118.029.207.029.325a2.3,2.3,0,0,1,.059.413,1.246,1.246,0,0,0-.088.649c0,.029.029.059.029.088l.089.531a.753.753,0,0,1,.059.206.6.6,0,0,1-.03.148v.088c0-.029-.029-.029-.029-.059,0,.03-.03.03-.03.059a.108.108,0,0,1-.088.03v.118c-.059,0-.059-.029-.059-.059-.029.059-.059.088-.088.088,0,.03-.03.059-.03.03a.029.029,0,0,1-.029-.03.029.029,0,0,0-.03.03c.03.03.03.03.03.059-.059.03-.059.059,0,.089v.029h-.059c0-.059,0-.059-.03-.059a.229.229,0,0,0-.029.089.029.029,0,0,1-.03-.03c-.029-.059-.059-.088-.118-.088a.267.267,0,0,1-.029.147.029.029,0,0,1-.03-.029c-.059.029-.059.059-.029.088l-.059.059c-.03.029-.03.029-.059.029s-.03-.029-.03-.089c-.029.059-.059.089-.089.089s-.029-.029-.088-.089c-.03.059-.03.118.03.118h-.089c.059.118.059.148,0,.148v-.03a.3.3,0,0,0-.148-.118.029.029,0,1,1-.059,0,.092.092,0,0,1-.059-.029c-.029.088-.088.118-.147.059-.03.059-.059.059-.059.029-.03,0-.059-.029-.118-.029,0,.059,0,.059.03.059h-.03a.108.108,0,0,1-.118-.118v.029c-.029,0-.029,0-.059-.029a.129.129,0,0,1-.03.147.867.867,0,0,0-.266-.059c0,.059,0,.089.03.089h-.089c-.059.059-.088.089-.147.059a.029.029,0,0,1-.03-.03c-.059,0-.088-.029-.148-.088a.153.153,0,0,1-.236.029.139.139,0,0,1-.177-.029c-.059.029-.088.029-.147-.03-.03-.029-.03-.059-.059-.059-.03.059-.03.059-.059.03-.03,0-.059-.03-.118-.088-.089,0-.118-.059-.177-.089a.535.535,0,0,0-.207-.148c-.059,0-.059.03-.059.089a.092.092,0,0,1-.059.029,3.114,3.114,0,0,1-1.446-1.682,5.007,5.007,0,0,0-.325-.8,3.263,3.263,0,0,0-.325.177q-1.151.575-2.213,1.239c-.03.059-.059.088-.088.088a.808.808,0,0,1-.384.384.385.385,0,0,1-.295-.266c-.029,0-.029,0-.029-.029a.658.658,0,0,1,.089-.3.5.5,0,0,0-.177.177c-.029.03-.029.03-.029,0a.73.73,0,0,0,.236-.413h-.029c-.059.118-.148.148-.207.118a1.093,1.093,0,0,0,.295-.177,8.306,8.306,0,0,1,2.065-1.711c.325-.177.649-.383,1-.59a.319.319,0,0,1,0-.325c.029.03.029.03,0,.059a.135.135,0,0,0,0,.148v-.089c.029.059.029.118.059.177.03,0,.059-.059.03-.148a.5.5,0,0,1,0-.295h-.03a1.685,1.685,0,0,0-.118-.649,10.5,10.5,0,0,1-.148-1.387,8.99,8.99,0,0,1-.059-.915.029.029,0,0,1-.029-.029.063.063,0,0,1-.059.059.029.029,0,0,0,.03.03l.029-.03v.3a.226.226,0,0,0-.059.118h.059c0,.207.029.384.029.59v.059a6.908,6.908,0,0,0,.207,1.328,3.281,3.281,0,0,0,.059.561c-.029.03-.059.059-.059.089v-.03c-.03-.207-.059-.384-.089-.59.03-.059,0-.089-.029-.148a.09.09,0,0,0,0-.118,1.429,1.429,0,0,0-.03-.354.483.483,0,0,1-.088-.177c.059-.03.059-.089,0-.148v-.177a.25.25,0,0,1-.059-.177c.03,0,.03-.03,0-.089a14.269,14.269,0,0,1,0-1.593c0-.088.03-.177.03-.265.029-.236.059-.472.088-.679a.545.545,0,0,1,.059-.206.868.868,0,0,1,.059-.295h-.03a.268.268,0,0,0,.089-.207c.03-.118.088-.236.118-.354s.03-.266.059-.384l.03-.03a1.637,1.637,0,0,1,.177-.619.439.439,0,0,1,.059-.266.53.53,0,0,0,.265.118.128.128,0,0,0,.03-.088v.029a.2.2,0,0,0,.118-.177l-.03.03v-.03a.477.477,0,0,1,.266.089.166.166,0,0,0,.177.029l.03-.029a.029.029,0,0,1-.03-.03c.03.059.118.059.207.059a.49.49,0,0,0,.295,0,.837.837,0,0,0,.384.118c.029.03.059.03.059,0v-.059a.425.425,0,0,0,.207.059.757.757,0,0,1,.206.059,3.166,3.166,0,0,0,.443.207,3.008,3.008,0,0,1,.443.206c.147.089.325.177.5.266a.178.178,0,0,0,.177.089,4.5,4.5,0,0,1,.619.413c.148.207.325.384.5.59a1.042,1.042,0,0,0,.148.236,4.791,4.791,0,0,1,.325.679.354.354,0,0,1,.059.236,3.641,3.641,0,0,1,.059.561.376.376,0,0,1,0,.354,1.785,1.785,0,0,1-.177.56.222.222,0,0,0,.236-.029c.354-.118.708-.236,1.062-.384a3.821,3.821,0,0,0,.767-.236c1.21-.354,2.478-.679,3.747-.974a1.466,1.466,0,0,1,.059-.472.474.474,0,0,1,.089-.266h-.03l.088-.443a.25.25,0,0,1,0-.206c.059-.059.059-.148.03-.266a.287.287,0,0,0,.03-.266.267.267,0,0,0,.029-.148.1.1,0,0,1,.03-.059.029.029,0,0,1-.03-.03l.03-.059-.03-.029a1.185,1.185,0,0,0,.088-.443c.03,0,.03-.059.03-.118h-.03c.03,0,.03-.059,0-.148a.092.092,0,0,0,.059.03v-.03h-.03a.659.659,0,0,0,.089-.295v-.148c.059-.029.059-.059.029-.147a.5.5,0,0,1,.059-.148,1.309,1.309,0,0,1,.059-.295v-.118a.5.5,0,0,1,.059-.148.65.65,0,0,1,.059-.413,11.968,11.968,0,0,0,.236-2.065.784.784,0,0,0,.354.088h.118a.179.179,0,0,0-.03-.236.913.913,0,0,1,.384.088.132.132,0,0,0,0-.147c0-.029.029-.059.059-.088a.108.108,0,0,1,.03-.089,2.193,2.193,0,0,1,.354.207C166.3,252.061,166.364,252.061,166.423,252Z" transform="translate(-149.163 -250.917)"/><path class="a" d="M274.791,253.582c.089.029.148,0,.236-.089v.118a3.563,3.563,0,0,0,.413-.295c0,.03,0,.059.029.059a.562.562,0,0,0-.206.354h.029a5.888,5.888,0,0,0-.413.472.6.6,0,0,1-.236.236,2.632,2.632,0,0,0-.443.561v.029a1.933,1.933,0,0,1-.443.531,3.515,3.515,0,0,0-.443.531,6.143,6.143,0,0,0-1.092,1.21h.059c-.03.03-.059.059-.059.089V257.3l-.118.118c.059.03.059.059,0,.089,0,.059-.03.059-.059.03a.635.635,0,0,1-.089.147.029.029,0,0,0,.03.029,1.333,1.333,0,0,0-.325.5,1.062,1.062,0,0,0-.206.295c-.03.03-.03.059-.059.089v-.029c-.03.029-.059.059-.059.088a.5.5,0,0,0-.177.177c-.029,0-.059.03-.088.089-.059.059-.118.147-.177.207a1.621,1.621,0,0,0-.383.531.378.378,0,0,1-.118.177,1.711,1.711,0,0,0-.118.236,1.04,1.04,0,0,0-.295.354c.029.03.029.03.059,0a1.105,1.105,0,0,0,.354-.383.361.361,0,0,1,.088-.059.267.267,0,0,0,.089-.206.813.813,0,0,1,.206-.266.029.029,0,0,1-.029-.029.15.15,0,0,0,.147-.118.625.625,0,0,1,.118-.177c0-.029.029-.059.088-.118a.4.4,0,0,1,.177-.206c.029-.059.029-.089.059-.148.207-.207.413-.413.62-.649a.108.108,0,0,1,.03-.089c0,.059-.03.089-.03.118-.059.089-.118.207-.177.3v.177c-.148.206-.3.383-.443.561-.324.472-.649.915-.974,1.357-.207.266-.442.531-.649.8a6.761,6.761,0,0,0-.62.679,5.232,5.232,0,0,0-.472.649c0,.03,0,.089-.059.089a.224.224,0,0,0,.148-.059,1.332,1.332,0,0,0-.295.413c-.118.089-.177.177-.148.295a3.532,3.532,0,0,0-.442.531.3.3,0,0,1-.236.148,2.987,2.987,0,0,1-.561.5c-.03.03-.059.03-.089.059a4.535,4.535,0,0,0-.531.531c-.148.177-.295.324-.413.442a5.736,5.736,0,0,0-.708.8,4.165,4.165,0,0,1-.354.531c-.089.089-.177.207-.266.295a8.284,8.284,0,0,1-.708.738,1.279,1.279,0,0,1-.177.207.425.425,0,0,1-.325.265.256.256,0,0,1-.089.177,3.684,3.684,0,0,0-.324.383,5.016,5.016,0,0,1-1.357,1.269,2.39,2.39,0,0,1-.236.265.3.3,0,0,1-.147.177.637.637,0,0,0-.325.354,8.943,8.943,0,0,0-1.328,1.239,1.063,1.063,0,0,0-.325.118h-.059a.2.2,0,0,1-.148.118h-.383c-.059,0-.089,0-.118-.029-.059-.059-.089-.118-.148-.177a1.954,1.954,0,0,1-.443-.118.5.5,0,0,1-.3-.089.76.76,0,0,1-.384-.236.382.382,0,0,1-.325-.147,1.812,1.812,0,0,1-.59-.266.487.487,0,0,1-.236-.3,1.551,1.551,0,0,1-.59-.649.253.253,0,0,1-.236-.207l-.5-.5-.266-.443a.613.613,0,0,1-.177-.295.226.226,0,0,1-.029-.295.029.029,0,0,1-.03-.03c.03-.03.03-.059.03-.118-.03,0-.03-.029-.03-.059a.222.222,0,0,0,.118-.03,2.6,2.6,0,0,1-.148-.443.419.419,0,0,0-.059-.177,1.425,1.425,0,0,1,.206-.089l.029-.03h.089a.268.268,0,0,0,0-.295s0-.029.059-.029.148-.03.207-.03a.833.833,0,0,0,.148-.679c.029.03.059.03.118,0,0-.059,0-.088.059-.118a1.039,1.039,0,0,1,.413-.088.892.892,0,0,1,.472.147.185.185,0,0,0,.236.059c.62-.3,1.239-.59,1.829-.944a1.2,1.2,0,0,0,.265-.148c0,.03.059.059.118.03.708-.413,1.446-.826,2.183-1.239.384-.236.738-.472,1.121-.708.207-.148.413-.3.59-.443h.029c.649-.443,1.3-.885,1.947-1.357a.844.844,0,0,0,.413-.236c.177-.118.354-.236.561-.384.678-.59,1.387-1.151,2.124-1.711a1.129,1.129,0,0,0,.147-.177c-.029,0-.029,0-.029-.03.029.03.089,0,.118-.059.148-.118.325-.266.531-.413.738-.62,1.416-1.269,2.125-1.918-.03-.03-.03-.03,0-.03v-.029a.214.214,0,0,1-.177.118c.029,0,.059-.03.059-.089.059-.029.088-.088.147-.147,0,.059,0,.089-.029.118a.892.892,0,0,0,.206-.147c.708-.679,1.446-1.3,2.213-1.918a1.028,1.028,0,0,0,.384-.325.62.62,0,0,0,.177-.118,1.832,1.832,0,0,1,.561-.413,6.252,6.252,0,0,0,.708-.59c.059.059.118.059.147,0a.613.613,0,0,0,.236-.177h.03A3.151,3.151,0,0,1,274.791,253.582Zm-16.552-4.367a.448.448,0,0,0,.384.089,4.462,4.462,0,0,0,1.033.413,7.544,7.544,0,0,1,.826.472,9.33,9.33,0,0,1,1.829,1.564c.177.236.324.413.5.62a.173.173,0,0,0,.089.206,1.628,1.628,0,0,0,.177.236.99.99,0,0,0,.147.354,2.454,2.454,0,0,1,.118.443.222.222,0,0,0,.029.148.678.678,0,0,1,.03.413,1.136,1.136,0,0,1-.059.708,1.606,1.606,0,0,0-.236.443,1.086,1.086,0,0,1-.561.472,2.222,2.222,0,0,0-.443-.03c-.059-.029-.089-.059-.118-.029a1.572,1.572,0,0,1-.767-.236.32.32,0,0,1-.148-.03l-.03-.029a.029.029,0,0,1-.029.029.13.13,0,0,0-.089-.029s-.029,0-.029-.059c-.059.059-.089.089-.148.059l.059-.059h-.147v-.029c-.118.029-.177,0-.177-.059-.03,0-.03-.03-.059-.03a.152.152,0,0,1-.118.059.159.159,0,0,1-.118-.089h-.059a.3.3,0,0,0-.206-.118h-.236a.158.158,0,0,0-.118-.089.4.4,0,0,1-.118-.089,1.055,1.055,0,0,1-.177-.029.982.982,0,0,0-.413-.029c-.03-.03-.059-.03-.118-.059a.8.8,0,0,0-.5-.177,1.709,1.709,0,0,0-1.21,0q-.132.089-.177,0a.287.287,0,0,0-.03-.265,6.826,6.826,0,0,0,.295-.826,4.812,4.812,0,0,1,.03-1.3.564.564,0,0,0-.266-.531,1.617,1.617,0,0,1-.649-.531,1.043,1.043,0,0,0-.148-.236c-.029-.029-.059-.088-.089-.118.059,0,.089-.03.03-.089v-.177a.532.532,0,0,1-.059-.295.224.224,0,0,1,.089-.266c0-.029,0-.059-.03-.059.03,0,.059,0,.059-.03v-.206c.089-.089.118-.177.059-.266a.5.5,0,0,0-.059-.147.444.444,0,0,0,.325-.118.108.108,0,0,0,.147-.059,1.327,1.327,0,0,1,.59-.03.27.27,0,0,1,.324.03A3.6,3.6,0,0,1,258.239,249.215Z" transform="translate(-222.482 -248.986)"/><path class="a" d="M364.356,259.387a.139.139,0,0,0,.177-.03v-.03a1,1,0,0,1,.354.118v-.059a.5.5,0,0,1,.177.177v-.177a1.19,1.19,0,0,0-.265-.148.5.5,0,0,0,.147.059c0-.029.03-.029.059-.059a1.541,1.541,0,0,0,.8.443c.03-.03.059-.03.118-.03a1.6,1.6,0,0,1,.531.295c.148.118.3.236.472.354a.544.544,0,0,1,.443.354,1.007,1.007,0,0,0,.443.413,5.33,5.33,0,0,0,.531.59,8.325,8.325,0,0,1,.5,1.18,3.332,3.332,0,0,1,.148,1.18,2.594,2.594,0,0,1-.3,1.033c-.206.472-.413.915-.59,1.387a.7.7,0,0,0-.059.236.489.489,0,0,0-.148.384,4.056,4.056,0,0,0-.354.5.179.179,0,0,0-.029.118,5.6,5.6,0,0,1-.649.973,4.676,4.676,0,0,1-.384.649c0,.03.03.059.089.059V269.3a.335.335,0,0,1-.089.236.187.187,0,0,0-.177.148,4.008,4.008,0,0,0-.442.62,1.5,1.5,0,0,0-.325.472.594.594,0,0,1-.266.325,2.685,2.685,0,0,1-.207.413c-.177.236-.383.443-.531.62a.919.919,0,0,1,.148-.3l.088-.089-.029-.03a1.128,1.128,0,0,0,.266-.383c.029,0,.029-.03.059-.059v-.03a.611.611,0,0,0,.177-.118c.03,0,.03-.059.03-.118a.1.1,0,0,1-.059.03c-.03.088-.059.118-.148.118.089,0,.118-.059.148-.148-.059,0-.059-.059,0-.118a.238.238,0,0,0,.118-.265.429.429,0,0,1-.266.177,6.021,6.021,0,0,0-.531.767,2.6,2.6,0,0,0-.177.295c-.384.59-.767,1.18-1.151,1.741-.089,0-.118.029-.118.088a16.838,16.838,0,0,0,1.446-2.213h-.059a4.67,4.67,0,0,0-.531.649c-.266.384-.531.767-.8,1.121a2.113,2.113,0,0,1-.413.56h-.059l.177-.177a1.944,1.944,0,0,1,.5-.679.744.744,0,0,1,.207-.354h-.089a.029.029,0,0,0,.03-.029.242.242,0,0,0-.148.147,8.243,8.243,0,0,1-.708.974.375.375,0,0,1-.266.207c-.059.029-.059.059-.059.118-.059-.029-.088,0-.147.059l.029.029-.089.089h.059l-.089.089a.13.13,0,0,0,.029-.089.689.689,0,0,0-.206.207c-.029,0-.029.029-.029.059h.059a.375.375,0,0,1-.177.029c0,.059,0,.059.059.059a.173.173,0,0,0-.147.059c0,.059,0,.059.029.059-.265.207-.531.384-.767.561a3.831,3.831,0,0,1-.354.325v-.029a.293.293,0,0,1-.177.059,1.062,1.062,0,0,1,.206-.295h-.029l-.354.266a3.487,3.487,0,0,0,.885-.856v-.03c-.236.177-.443.354-.679.5,0,.03.029.03.059.03v.029a9.432,9.432,0,0,0-.8.62.434.434,0,0,1-.177.148v-.03c-.059.059-.089.089-.118.089a8.914,8.914,0,0,0,1.092-1.033h.059a2.531,2.531,0,0,0,.266-.413v-.03a.836.836,0,0,0-.266.295,3.426,3.426,0,0,1-.472.325c-.03-.03-.03-.059-.059-.03s-.03.03.029.03v.088a.029.029,0,0,1-.029-.029,1.627,1.627,0,0,0-.236.177.614.614,0,0,1-.177.118,1.663,1.663,0,0,0-.443.295h-.088a13.831,13.831,0,0,1-1.888,1.593,1.788,1.788,0,0,0-.295.207.5.5,0,0,1-.148.059,1.157,1.157,0,0,0-.295.236,2.943,2.943,0,0,1-.561.354c-.177.118-.325.207-.443.3-.118,0-.177.029-.206.088a8.726,8.726,0,0,1-.767.708c.059-.059.148-.059.266-.029-.177.059-.325.118-.472.177a.321.321,0,0,1-.147.029c-.413.325-.8.59-1.21.856a3.487,3.487,0,0,0-.649.413,1.764,1.764,0,0,0-.472.148,1.261,1.261,0,0,1-.767.206c-.177.03-.324.059-.5.089a1,1,0,0,0-.295-.03,20.414,20.414,0,0,0,1.947-1,21.572,21.572,0,0,0,2.8-1.8.259.259,0,0,0,.266-.148h.029c.03,0,0,0-.029-.059a3.687,3.687,0,0,1-.826.443c-.325.207-.59.413-.885.62l-.8.354a10.649,10.649,0,0,1-1,.5c-.3.118-.59.236-.856.325a.078.078,0,0,0-.089.088l.03-.029c-.207.029-.266-.03-.236-.148a.784.784,0,0,0,.177-.147q0-.133.177-.177c.295-.207.62-.413.974-.649a3.325,3.325,0,0,0,.384-.295h-.295a.261.261,0,0,0-.325.059c-.03,0-.03.029-.059.059a.1.1,0,0,0,.059.029.3.3,0,0,0-.266.059,1.345,1.345,0,0,0-.59-.03c-.059.059-.118.088-.148.118,0,.03,0,.03.03.03-.059.059-.089.088-.118.088h.177a1.736,1.736,0,0,1,.177-.118c-.118.059-.177.118-.177.207.029.059.059.029.088-.059-.059.089-.118.148-.177.148,0,.059.03.089.089.03a1.5,1.5,0,0,1-.236.206c.029.03.059,0,.088-.029a.606.606,0,0,1-.265.148c-.236.147-.5.265-.738.383-.059.059-.118.118-.177.118a9.886,9.886,0,0,1-1.121.561.248.248,0,0,0-.177.059,1.267,1.267,0,0,0-.5.177.43.43,0,0,1-.236.148.134.134,0,0,1,0-.148c.059,0,.118-.029.206-.118,0-.029-.029-.059-.029-.118a3.12,3.12,0,0,0,1.033-.531.321.321,0,0,0-.147.029c.118-.059.236-.147.354-.206-.029.029-.059.059-.088.059a.091.091,0,0,1,.03.059c.265-.148.5-.295.767-.443.118-.089.236-.148.354-.236a10.37,10.37,0,0,0,1.239-.856l.295-.295a2.865,2.865,0,0,1,.708-.443,2.384,2.384,0,0,0,.413-.266l.029.03c-.029,0-.059.029-.118.059a.142.142,0,0,0,.206,0l.029-.029c-.059-.059-.088-.088-.147-.088a.029.029,0,0,0-.03-.03,22.649,22.649,0,0,1-2.036,1.151c-.236.118-.472.266-.678.384-.148.059-.266.118-.384.177a.129.129,0,0,0,.029-.089c.118-.059.266-.147.413-.206.413-.266.8-.531,1.21-.826.767-.5,1.534-1.033,2.36-1.534a19.155,19.155,0,0,0,1.888-1.269,5.459,5.459,0,0,1,.59-.561c-.029-.059,0-.118.089-.207a13.837,13.837,0,0,0,1.387-1.239.39.39,0,0,1,.089-.236,10.741,10.741,0,0,0,1.328-1.269.282.282,0,0,0-.207.059v.089a.029.029,0,0,0-.029-.03c0,.059,0,.059-.03.03a1.37,1.37,0,0,1-.206.207c.325-.354.649-.738,1-1.121a.358.358,0,0,1,.177-.266v-.029a3.569,3.569,0,0,0-.62.708c-1.121,1.18-2.272,2.3-3.481,3.393a1.54,1.54,0,0,1-.8.442,2.269,2.269,0,0,0-.59.384,1.631,1.631,0,0,1-.531.413,3.979,3.979,0,0,0,.767-.679v-.059h-.029a.8.8,0,0,1,.354-.207c.324-.266.649-.531.974-.826.059,0,.088-.059.118-.118.118,0,.147-.059.147-.148a.5.5,0,0,1-.147.059,1.317,1.317,0,0,0,.325-.236.1.1,0,0,0-.03.059.925.925,0,0,0,.325-.266.772.772,0,0,0,.177-.148h-.118V273.9c.708-.62,1.416-1.269,2.094-1.977a.029.029,0,0,1-.029-.029.365.365,0,0,0,.177-.236c.059,0,.089,0,.118-.059a1.827,1.827,0,0,0,.266-.354,2.923,2.923,0,0,0,.5-.531,23.736,23.736,0,0,0,1.652-2.655.579.579,0,0,0-.266.266,5.3,5.3,0,0,1-.649,1c-.059,0-.089.059-.118.118.029,0,.029.029.059.029a1.8,1.8,0,0,1-.177.118,14.478,14.478,0,0,0,.826-1.328,1.212,1.212,0,0,1,.089-.236.132.132,0,0,0-.089.118c0,.059-.029.118-.088.118a.029.029,0,0,1-.03-.03c.354-.62.708-1.21,1.062-1.8a.491.491,0,0,1,.118-.325q.266-.575.531-1.239c.266-.5.531-1.062.767-1.593a8.618,8.618,0,0,1-.118-.915,6.7,6.7,0,0,0-.649-.325h-.118a.029.029,0,0,1,.03-.029.584.584,0,0,0-.325.059,8.454,8.454,0,0,1-1.21.443,10.85,10.85,0,0,1-1.239.206.242.242,0,0,0,.148-.148.363.363,0,0,0,.236-.118l-.059-.059.029-.03h-.148a23.963,23.963,0,0,0,2.419-.915.361.361,0,0,0,.266-.089,1.055,1.055,0,0,0-.3-.059.948.948,0,0,0-.5.059c.029,0,.059-.029.088-.059-.029.03-.088,0-.118-.059a2.341,2.341,0,0,0-.472.236c.059-.03.118-.089.177-.118h-.177c-.177.059-.325.118-.443.148a.592.592,0,0,0-.236.118,4.8,4.8,0,0,1-.915.325c-.059.029-.089.059-.148.088-.265.089-.531.177-.826.266a1.056,1.056,0,0,1-.5.325c-.443.177-.856.354-1.3.531a.029.029,0,0,1-.029.029v.03a.222.222,0,0,0,.118-.03v.03a6.726,6.726,0,0,0,.826-.236c-.059,0-.118.059-.177.118l.029-.029a2.916,2.916,0,0,1-.324.147,3.438,3.438,0,0,0-.443.177h-.029c-.089.059-.177.089-.266.148a8.529,8.529,0,0,0-.856.561c0,.029.029.088.029.118a.078.078,0,0,0-.088.088.029.029,0,0,0,.029.03c.03-.089.118-.118.236-.118-.059,0-.088.029-.088.059a.754.754,0,0,0,.206-.059c.089-.089.207-.148.266-.207a4.614,4.614,0,0,0-.59.472h.029c1.151-.678,2.331-1.3,3.511-1.947h.059c-.03.029,0,.029.03.029a5.316,5.316,0,0,1-.738.679.2.2,0,0,0-.059.206h.089c.207-.088.413-.206.679-.295a.225.225,0,0,1,.266-.029v.029a1.467,1.467,0,0,0-.5.443.642.642,0,0,0-.266.207,1.711,1.711,0,0,1-.561.413,1.348,1.348,0,0,1-.354.354,9.362,9.362,0,0,1-.944.472.971.971,0,0,1-.384.207.393.393,0,0,1-.177.147v-.029a.981.981,0,0,1-.3.177c-.354.266-.708.531-1.033.8a4.23,4.23,0,0,0-1,.413,3.158,3.158,0,0,0-1.475,1.151,2.4,2.4,0,0,0-.826.708.607.607,0,0,1-.5.059c-.148.088-.325.177-.443.266a.386.386,0,0,0-.325.059,1.984,1.984,0,0,1-1-.207,3.544,3.544,0,0,1-1-.5c-.177-.118-.354-.236-.5-.354-.147-.177-.325-.354-.5-.561a3.082,3.082,0,0,1-.826-1.328.756.756,0,0,1,.059-.207c0-.029.03-.088.118-.147q-.133-.177,0-.266v-.089c0-.088.029-.118.088-.118a.078.078,0,0,0,.089-.088c.856-.5,1.741-1.033,2.626-1.534a2.213,2.213,0,0,1,.531-.236c.3-.177.59-.354.944-.531,0,.03.029.03.059,0a27.308,27.308,0,0,1,3.334-1.711,1.037,1.037,0,0,1,.413-.177c-.059,0-.089.03-.118.03.029.029.059.029.118-.03a1.352,1.352,0,0,1,.413-.148,2.709,2.709,0,0,1,.679-.265c-.177.118-.354.207-.561.325v-.03c-.029.03-.059.059-.088.059v-.029c-.059,0-.089.029-.118.029a.029.029,0,0,0,.029-.029.439.439,0,0,0-.266.059h.059a6.488,6.488,0,0,1-.915.442,1.3,1.3,0,0,0-.206.177c.767-.295,1.564-.59,2.36-.885a26.479,26.479,0,0,1,3.688-1.092.1.1,0,0,0,.029-.059.617.617,0,0,0,.384-.059h.03a10.463,10.463,0,0,1,2.891-.148c.118,0,.3.029.472.029A2.519,2.519,0,0,0,364.356,259.387Zm-13.6,18.912a5.121,5.121,0,0,1,1.033-.649c.5-.325,1.033-.679,1.564-1.033q-1.062.8-2.212,1.5C351.02,278.18,350.873,278.239,350.755,278.3Zm1.8-.826c-.265.206-.531.384-.826.59a2.582,2.582,0,0,0-.3.177v-.029c-.03.059-.059.059-.089.059.59-.384,1.21-.8,1.8-1.239A2.8,2.8,0,0,1,352.555,277.472Zm-.826.147c.118-.088.236-.177.384-.295-.059,0-.059,0-.03-.029a.319.319,0,0,0,.148-.03h-.059c0-.029.029-.029.088-.029C352.053,277.384,351.876,277.531,351.729,277.62Zm2.183-.649c-.118.088-.265.177-.413.266a10.142,10.142,0,0,1-.974.708.888.888,0,0,1,.236-.118c-.029.03-.029.059-.059.088h.088c-.059,0-.059.03-.029.089.295-.177.59-.354.856-.531a1.024,1.024,0,0,0,.561-.354H354A.65.65,0,0,1,353.912,276.971Zm2.508-.059h.059c-.236.118-.442.265-.649.384h-.03a3.906,3.906,0,0,1-.472.354h.148c-.03.029-.03.029-.03,0a.373.373,0,0,0,.177-.03c.295-.206.561-.443.856-.679a1.68,1.68,0,0,1,.236-.206A.611.611,0,0,0,356.42,276.912Zm-.443,1.062a.323.323,0,0,1-.148.029.5.5,0,0,1-.147.059.092.092,0,0,0,.029.059.747.747,0,0,1-.207.059c.03,0,.059-.029.118-.029-.059.059-.088.118-.118.118a1.054,1.054,0,0,1,.325-.118h.088a.078.078,0,0,0,.089-.089c-.029.029-.089.029-.089-.029Zm2.921-2.685c-.354.295-.679.561-1,.856-.738.62-1.5,1.18-2.272,1.741.236-.148.472-.266.679-.413.472-.354.974-.738,1.5-1.121a2.433,2.433,0,0,0,.531-.561A2.86,2.86,0,0,0,358.9,275.289Zm-2.242-14.958a.723.723,0,0,0-.442.148c.029.029.059,0,.059-.03a.5.5,0,0,1-.207.03,1.037,1.037,0,0,0,.413-.177.439.439,0,0,0-.206.029c.206-.059.413-.118.649-.177a.227.227,0,0,1,.148-.059A2.6,2.6,0,0,0,356.656,260.331Zm1.653-.62a.606.606,0,0,1-.266.148.268.268,0,0,0-.207.088v-.059a.48.48,0,0,0-.177.089v-.03a1.421,1.421,0,0,0-.472.236c-.029,0-.029-.03-.029-.059H357.1a.2.2,0,0,0,.148-.118.5.5,0,0,0,.295-.089c.266-.059.561-.177.856-.266C358.337,259.711,358.308,259.711,358.308,259.711Zm-.531,17.466c.118-.059.236-.147.413-.236a.357.357,0,0,1,.147-.029A.773.773,0,0,1,357.777,277.177Zm1.18-.826a1.32,1.32,0,0,1-.324.236,1.152,1.152,0,0,1,.236-.3.69.69,0,0,0,.295-.148A.357.357,0,0,0,358.957,276.351Zm.413-.03q0,.044.089,0c-.059.03-.089.059-.118.03a.362.362,0,0,1-.266.118,1.258,1.258,0,0,0-.207.148,2.041,2.041,0,0,1,.384-.325,1.131,1.131,0,0,0-.177.147,1.575,1.575,0,0,0,.325-.147.451.451,0,0,1,.177-.118C359.488,276.233,359.429,276.292,359.37,276.322Zm-.029-16.876c-.059,0-.089,0-.118.029a.029.029,0,0,0,.029.03,2.046,2.046,0,0,1-.295.118.3.3,0,0,1,.177-.148,1.434,1.434,0,0,1,.207-.088.418.418,0,0,1,.177-.059h.03A.743.743,0,0,1,359.341,259.446Zm2.095-.384c-.089-.03-.148-.059-.207-.03a1.862,1.862,0,0,1-.207.059.351.351,0,0,1-.236.029,1.018,1.018,0,0,1-.383.088c-.207.089-.384.148-.561.207-.03-.029-.059-.029-.118-.029,0-.059,0-.059-.029-.059h-.029a11.142,11.142,0,0,1,2.242-.383h.177A4.245,4.245,0,0,0,361.435,259.062Zm.059,8.261a2.4,2.4,0,0,0-.354.59c0-.03.029-.059.029-.03v.059A6.272,6.272,0,0,0,361.494,267.323Z" transform="translate(-286.822 -255.882)"/><path class="a" d="M464.33,278.7h.265c.325.029.62.088.944.147.118.03.236.03.354.059a.491.491,0,0,1,.325.118.571.571,0,0,0,.295.088c.413.295.8.59,1.21.885a3.57,3.57,0,0,0,.472.472.2.2,0,0,1,.148.118,8.881,8.881,0,0,1,1.18,1.387,2.007,2.007,0,0,0,.088.236,2.055,2.055,0,0,1,.266.5c.03.118.059.207.089.3a1.336,1.336,0,0,1,.059.678c-.029.089-.088.207-.118.3a2.465,2.465,0,0,1-.384.531,1.416,1.416,0,0,1-.443.206,1.038,1.038,0,0,1-.383.236c-.118.029-.207.029-.325.059a.319.319,0,0,1-.206.089.109.109,0,0,1-.03-.089c-.088.059-.147.059-.206,0a.178.178,0,0,1-.177-.089c-.03.03-.059.03-.089.059a.313.313,0,0,1-.354.03c-.059.059-.148.118-.207.177a.242.242,0,0,0-.147.147h-.089a1.18,1.18,0,0,0-.354.3c-.089,0-.118,0-.148.059a3.913,3.913,0,0,0,.472-.354l-.03-.029.059-.059a.229.229,0,0,0-.236.059,2.262,2.262,0,0,0-.384.266h.03a.091.091,0,0,0-.03-.059.417.417,0,0,0-.177.059c0,.029-.029.059-.089.059a1.231,1.231,0,0,1-.413.265h-.059c-.059.059-.118.089-.147.118.029,0,.059-.029.118-.088a.77.77,0,0,1-.325.088,3.619,3.619,0,0,0,1.18-.679h-.059a.293.293,0,0,1,.118-.147c.029-.03.029-.088.059-.118a.223.223,0,0,0-.207.03c-.059.029-.089.059-.147.088h-.266a.238.238,0,0,0-.266.088.473.473,0,0,0-.206.118c-.059,0-.089,0-.089.029h.03a.029.029,0,0,0-.03.029v-.029a.208.208,0,0,0-.148.118h-.059a.8.8,0,0,0,.236-.207h-.03l-.62.354c.177-.118.325-.207.472-.325a.267.267,0,0,0,.177-.177.7.7,0,0,1-.3.147,2.411,2.411,0,0,1-.59.354c-.059,0-.118.029-.118.059h.03c-.059,0-.089,0-.118.029v-.029c-.177.089-.324.177-.472.236a.163.163,0,0,1,.148-.089H463.8a.547.547,0,0,0-.206.059,4.81,4.81,0,0,1-.531.3c-.059.029-.118.029-.118.059a1.581,1.581,0,0,0-.561.206.162.162,0,0,0-.147.089.222.222,0,0,1-.03.118c-.03,0-.059,0-.059-.03v-.059a.142.142,0,0,1-.206-.029.268.268,0,0,1-.148.029.1.1,0,0,0-.03-.059c-.029,0-.029,0-.029.03a.029.029,0,0,1,.029.029c-.029,0-.029.03-.059.059a.224.224,0,0,1-.147-.059c0,.03,0,.059-.03.059-.029-.029-.029-.059-.059-.059-.03.059-.03.059-.059.03-.029-.059-.029-.059-.059-.059h.059c.029-.03.059-.03.089-.059a.063.063,0,0,0,.059.059.128.128,0,0,1,.088-.03c.03,0,.059-.029.089-.059a.6.6,0,0,0,.324,0c0-.029,0-.029.03-.029a.063.063,0,0,0,.059-.059.417.417,0,0,0,.177-.059h-.059c.177-.088.354-.206.561-.295-.059.03-.089.059-.118.059v.029a.078.078,0,0,0-.089.089c-.029,0-.029,0-.029-.03,0,.03,0,.03-.03.059s-.029.03-.059.03c.03.029.059.029.089.059a8.994,8.994,0,0,0,1.888-1.033c-.177.118-.384.207-.59.325a5.24,5.24,0,0,1-.708.354c-.059.059-.088.059-.118,0,.03,0,.059-.059.118-.118-.118.059-.236.089-.3.118.029,0,.029-.029.059-.059a1.971,1.971,0,0,0,.266-.177.454.454,0,0,0-.3.118.129.129,0,0,0-.088.03c-.03,0-.089-.03-.118-.03a.524.524,0,0,1-.3.118.307.307,0,0,1-.236.118.029.029,0,0,1-.029.029l-.177.089c-.059.029-.089.059-.118.029-.059-.029-.089-.029-.089,0v-.029a.425.425,0,0,0-.206.059c-.089.059-.207.118-.3.177a.029.029,0,0,1-.029.029.916.916,0,0,0-.236.059c.118.177.207.384.295.531a2.161,2.161,0,0,1,.354.059.5.5,0,0,0,.207.295h0c0,.029,0,.029.059.029-.059.03-.059.03-.059.059l.177.177a.835.835,0,0,1,.295.265c.03.059.059.148.089.207a2.3,2.3,0,0,1,.413,1.239.162.162,0,0,1-.089.148c0,.03,0,.059.03.059a.969.969,0,0,0-.266.649,1.76,1.76,0,0,0-.265.442c-.059.177-.118.325-.177.5v.089c-.059.029-.118.059-.118.118a3.045,3.045,0,0,1-.5.915.73.73,0,0,0-.118.295.549.549,0,0,0-.354.207,1.439,1.439,0,0,0,.472-.472,7.167,7.167,0,0,0,.531-1.18c-.059,0-.089,0-.118-.03v-.059c-.148.148-.266.325-.413.472-.029.059-.029.088-.059.118a.61.61,0,0,0-.3.177h-.059a.647.647,0,0,1,.148-.236c.03-.029.03-.059.03-.118v-.029a5.262,5.262,0,0,0-.413.531.255.255,0,0,0-.089.177s0-.029.059-.059a.736.736,0,0,1-.148.207h-.059a1.2,1.2,0,0,0-.177.325c-.089.088-.148.177-.236.265h.029v.059h-.059c-.029,0-.029,0,0,.03h-.059a.4.4,0,0,1-.206.177.755.755,0,0,1-.207.295,4.519,4.519,0,0,0-.384.354c0-.029.03-.059.089-.088h-.089a.208.208,0,0,0,.118-.148c0-.059.03-.088.118-.088a.471.471,0,0,0,.207-.266c.03,0,.059-.029.118-.088a.6.6,0,0,0,.236-.236c.03-.029.03-.059.059-.118a.458.458,0,0,0,.236-.236c.029-.03.029-.059.029-.118a.393.393,0,0,0,.089-.236.723.723,0,0,1-.266.324,1.248,1.248,0,0,1-.5.531.458.458,0,0,1-.236.177c0,.059-.029.089-.059.089-.03.059-.059.059-.089.059a1.56,1.56,0,0,1-.413.354.393.393,0,0,1-.177.147.1.1,0,0,1-.029.059l-.03-.03c-.03,0-.059.03-.089.03a.336.336,0,0,1,.089-.236.268.268,0,0,0,.088-.206,1.186,1.186,0,0,1-.265.147,1.8,1.8,0,0,1-.472.354.5.5,0,0,1-.147.059.334.334,0,0,0-.236.088s0,.03-.059.089c-.03,0-.059.029-.118.059h-.029a.029.029,0,0,1-.029.029c0,.059-.03.059-.089.059a3.221,3.221,0,0,1-.5.384c-.236.118-.443.236-.679.354-.029.03-.059.059-.088.059a4.591,4.591,0,0,1-.649.354,1.268,1.268,0,0,1-.148.029.223.223,0,0,1-.118-.029h.118a3.146,3.146,0,0,1,.325-.266.42.42,0,0,1-.177.059,1.041,1.041,0,0,0-.265.118.336.336,0,0,1-.236.089h.059c-.088.029-.177.059-.206.118l-.236.118a.41.41,0,0,1-.265.118c-.03,0-.059,0-.059-.03a.372.372,0,0,1-.177.03.55.55,0,0,1-.207.059v-.03a1.236,1.236,0,0,1-.767.148.09.09,0,0,1-.118,0v-.059h.029a.607.607,0,0,0-.325,0h-.029a.335.335,0,0,1-.236.088c-.03.03-.059.03-.118.03a1.106,1.106,0,0,0,.354-.207,1.741,1.741,0,0,0-.59.177.318.318,0,0,1-.147.03v-.03a2.682,2.682,0,0,0,.384-.236c0-.029,0-.059.059-.089a5.978,5.978,0,0,0,.767-.531.523.523,0,0,0,.148-.118l-.03-.029a.86.86,0,0,1,.236-.118c0-.059.059-.118.118-.177.678-.472,1.357-.974,2.006-1.5a2.832,2.832,0,0,0,.442-.413l.03-.03a.029.029,0,0,1-.03.03.1.1,0,0,0,.059-.03l.295-.295h-.03a.811.811,0,0,0,.266-.207.323.323,0,0,1,.147-.118,1.393,1.393,0,0,1,.266-.354c.03,0,.059-.029.118-.059a1,1,0,0,1,.177-.354c.236-.266.472-.561.708-.856v-.088a2.248,2.248,0,0,1,.236-.325c0-.059.03-.118.03-.177l.059-.029c-.03.029-.03.029,0,.059a.738.738,0,0,0,.088-.384s.03,0,.03-.059c0,.03,0,.03.029.03v-.03a.25.25,0,0,0,.089-.147.1.1,0,0,1-.03-.059.644.644,0,0,1,.148-.236.5.5,0,0,1,.03-.207c.029-.089.059-.177.088-.3a3.419,3.419,0,0,0,.147-.826l-.206-.207a.913.913,0,0,1-.266-.561c-.029,0-.029-.029-.029-.088a.5.5,0,0,1-.089-.295v-.266a.235.235,0,0,1-.059-.3h.059c0-.029,0-.059.059-.089,0,.03.03.03.059,0a.928.928,0,0,1,.148-.295c.059,0,.089.03.147.059l.03-.03v-.03c0,.059.059.059.118,0a.5.5,0,0,1,.059-.147.343.343,0,0,0,.295-.059h.03q0-.089.088,0a1.249,1.249,0,0,0,.354-.118c.177-.088.324-.177.472-.265a12.991,12.991,0,0,0,2.655-1.859c.118-.089.236-.177.413-.3a1.792,1.792,0,0,1,.236-.236c0-.089.089-.177.207-.266a11.488,11.488,0,0,0,1.269-1.121,5.574,5.574,0,0,1,.59-.59c-.059-.059-.118-.118-.177-.118a.56.56,0,0,0-.384-.029c0-.03-.029-.03-.088-.03h-.207a.118.118,0,0,1-.118.059v.029c-.029-.059-.059-.088-.118-.088a.217.217,0,0,1-.177.059.029.029,0,0,1-.03-.029.229.229,0,0,1-.088.029c-.118,0-.207.029-.266.029a.189.189,0,0,0-.177,0c-.207,0-.384.03-.561.03a.748.748,0,0,1-.354.059,1.367,1.367,0,0,1-.561.118c0,.03-.029.059-.029.089h-.207a.916.916,0,0,1-.236.059c-.3.118-.59.177-.885.265a.161.161,0,0,1-.147.089h.029a1.344,1.344,0,0,0-.413.148.583.583,0,0,0-.325.177,1.063,1.063,0,0,1,.325-.118,1.816,1.816,0,0,1,.354-.148h.03a3.95,3.95,0,0,0-.708.325v.059a.153.153,0,0,0-.118.059.063.063,0,0,1,.059-.059h-.03c-.029,0-.059.029-.118.059a.029.029,0,0,1,.029.029.1.1,0,0,1-.059.03,1.878,1.878,0,0,0-.354.206.139.139,0,0,0,.177-.029c0,.029,0,.029.029.029a2.71,2.71,0,0,1-.383.236.1.1,0,0,0-.059.029,1.767,1.767,0,0,1-.443.266.356.356,0,0,0-.088.059.626.626,0,0,0-.148.089.325.325,0,0,0-.295.147.32.32,0,0,1-.148.03,1.547,1.547,0,0,1-.561.324h-.029a.414.414,0,0,1-.118.089.526.526,0,0,0-.207.236c-.118.059-.177.118-.236.147l-.118.118a.154.154,0,0,1-.059.118.415.415,0,0,1-.089.118l-.088.177a.2.2,0,0,1-.148.118,1.429,1.429,0,0,1-.089.206.109.109,0,0,1-.029.089,2.332,2.332,0,0,1-1.092.974,1.242,1.242,0,0,0-.472.118H454.3a.225.225,0,0,1-.147-.059,1.263,1.263,0,0,1-.354-.059.439.439,0,0,0-.207-.029,1.241,1.241,0,0,1-.295-.118.226.226,0,0,1-.147-.059,1.672,1.672,0,0,0-.354-.118.713.713,0,0,0-.443-.118,1.532,1.532,0,0,1-.472-.177.223.223,0,0,1-.118-.059.922.922,0,0,1-.443-.443,2.737,2.737,0,0,1-.148-.3v-.089a.251.251,0,0,0,0-.207v-.089a.519.519,0,0,0,.236-.265c.531-.443,1.092-.885,1.623-1.387a2.718,2.718,0,0,0,.265-.148,6.818,6.818,0,0,1,1.033-.531c.177-.089.325-.177.472-.266,0,.03.029.059.088.03h.207c.177-.089.384-.148.59-.236.177-.088.354-.206.59-.324a1.988,1.988,0,0,1,.649-.384c0-.03.059-.03.118-.03.325-.177.649-.324.974-.472a.766.766,0,0,0,.325-.089c.236-.088.5-.206.767-.295l1.062-.354a2.492,2.492,0,0,1,.5-.118c.354-.118.738-.236,1.121-.325a.693.693,0,0,0,.325-.059h.472c.266,0,.561-.029.826-.029a5.726,5.726,0,0,1,.678-.059A.693.693,0,0,1,464.33,278.7Z" transform="translate(-359.8 -269.621)"/><path class="a" d="M554.656,248.9a.427.427,0,0,0,.207.059.111.111,0,0,0,.177,0,.263.263,0,0,0,.236.147c0,.059.03.059.059,0a3.563,3.563,0,0,1,.325.354.525.525,0,0,0,.354.266,2.187,2.187,0,0,0,.206.354,2.965,2.965,0,0,1,.354.679,1.382,1.382,0,0,1,.266.649,1.168,1.168,0,0,0,.177.442c-.118.089-.147.177-.118.266-.03.029-.059.059-.089.059a.055.055,0,0,0,0,.088c0-.029,0-.029.029-.059a.819.819,0,0,0-.029.265.131.131,0,0,0,.089.177v.443a.361.361,0,0,1-.177.413.685.685,0,0,0-.148.206c-.088.059-.147.118-.147.177,0,.118-.03.177-.089.207h.089a1.393,1.393,0,0,0-.3.295.09.09,0,0,0-.059.03.7.7,0,0,0-.325.413,7.1,7.1,0,0,0-.826.383.355.355,0,0,1-.059.089c-.03,0-.059.03-.088.03l-.118.118c.059,0,.089,0,.089-.03,0,.03,0,.03.03.03a2.856,2.856,0,0,0-.443.295c-.147.088-.266.148-.354.206,0-.029,0-.029-.059-.029s-.118,0-.118.059h.118a.408.408,0,0,1-.118.089h-.147a2.581,2.581,0,0,1-.915.59c0,.029-.059.059-.118.089a.65.65,0,0,0-.324.147c-.089,0-.148.03-.148.059a.51.51,0,0,1-.147.118c-.118.03-.207.059-.3.089a.226.226,0,0,0-.029.118h-.118a.8.8,0,0,1-.236.207,1.538,1.538,0,0,0-.324.3c-.03,0-.03,0-.03-.03a.516.516,0,0,0-.089.118c-.03-.059-.059-.088-.088-.088a8.66,8.66,0,0,1-1.092,1c0-.029-.03-.088-.059-.088-.059.029-.088.059-.147.088-.03.059-.059.059-.118.059.059,0,.088-.059.059-.118a3.172,3.172,0,0,1,.413-.472.162.162,0,0,1-.147.088c-.059,0-.089,0-.059.03a15.314,15.314,0,0,0-1.21,1.18c0,.059.059.088.118.147,0-.029.03-.059.089-.059v.03c-.059,0-.059.029-.059.029a4.283,4.283,0,0,1,.325.443,1.014,1.014,0,0,0,.177.266c.088.177.177.354.266.5a.734.734,0,0,1,.118.206.66.66,0,0,0,.089.148c0,.059,0,.118.059.118a1.31,1.31,0,0,0,.236.324c0,.03,0,.03.03.03.147.295.265.59.383.856a3.887,3.887,0,0,0,.177.738.66.66,0,0,1,.089.295,6.956,6.956,0,0,1,.207.738,2.083,2.083,0,0,0,.177.826l.177,1.328a1.346,1.346,0,0,1,.059.59,4.646,4.646,0,0,1-.03.915c-.029.561-.029,1.121-.029,1.682a.3.3,0,0,1,.029-.118,1.489,1.489,0,0,1,.059.266v.059a.306.306,0,0,0,.029.118v.03l-.029-.03v.118a.132.132,0,0,0,0,.148,1.3,1.3,0,0,0,.029-.148,3.618,3.618,0,0,1-.059.59.029.029,0,0,0,.03.03h-.03V271c-.03-.029-.059-.029-.059,0a.13.13,0,0,0,.029.089h.059c-.03.029-.03.059-.03.118-.059.029-.059.059-.059.118,0,.029-.03.029-.059.029a.689.689,0,0,1-.059.236.356.356,0,0,0-.059.236.462.462,0,0,0-.03.354.354.354,0,0,0-.118.236,2.8,2.8,0,0,1-.206.856c-.03,0-.03.059-.059.118a.268.268,0,0,0-.206.089.127.127,0,0,1-.118.118l-.03.029v-.059c-.118.03-.177.03-.206,0a.281.281,0,0,1-.207.177.228.228,0,0,0-.029.088,1.552,1.552,0,0,1-.354-.03c-.059-.029-.089-.059-.118-.059-.088.118-.147.147-.266.059-.029,0-.059,0-.088-.059a.179.179,0,0,1-.236,0,1.033,1.033,0,0,1-.413-.177,1.544,1.544,0,0,1-.3-.325.135.135,0,0,1-.118-.147.173.173,0,0,1-.206-.088c-.148-.148-.3-.325-.443-.5a2.1,2.1,0,0,1-.236-.531,1.391,1.391,0,0,1-.177-.442,4.137,4.137,0,0,1-.443-.885v-.03c.029,0,.029-.029.029-.118a.029.029,0,0,1-.029-.03c0,.03.029.03.089.03.029-.03.029-.089.029-.207.118,0,.148-.059.148-.236a.092.092,0,0,0-.03-.059c.059,0,.089-.029.03-.118v-.029c.059.059.088.029.118-.059a.118.118,0,0,0,.118.059,1.4,1.4,0,0,0,.384-.708c-.059-.029-.059-.088,0-.206a5,5,0,0,1,.177-.915,1.536,1.536,0,0,0,.059-.413h-.118a5.255,5.255,0,0,0,.266-1.033l-.059-.059h-.059a14.254,14.254,0,0,1,.265-1.475.1.1,0,0,0-.029-.059.827.827,0,0,0,.029-.265,8.618,8.618,0,0,0,.089-1.21h-.059c0-.177-.03-.325-.03-.472a.131.131,0,0,0,0-.148,1.509,1.509,0,0,0-.236-1.121.583.583,0,0,1-.088-.3c-.03-.059-.059-.089-.089-.148a1.71,1.71,0,0,0,.3.236c.029.089.059.118.118.059a7.858,7.858,0,0,0,.708.354,3.411,3.411,0,0,1,.8.8l.03-.059a10.263,10.263,0,0,0-1.21-1.652,2.215,2.215,0,0,0-.354-.265c-.03-.03-.059-.089-.118-.118a1.124,1.124,0,0,1-.324.325c.029,0,.059-.03.118-.088a.528.528,0,0,0-.206.147c-.089.059-.147.118-.236.177a1.413,1.413,0,0,1,.266-.324.576.576,0,0,0,.236-.236h-.03a3.3,3.3,0,0,0-.472.354.173.173,0,0,0-.118.029.1.1,0,0,1,.059-.029.377.377,0,0,0-.177.029c0,.03.03.059.089.059h-.059c-.03,0-.03-.029-.03-.059a6.054,6.054,0,0,1-.5.443v.118a6,6,0,0,1-.8.679.333.333,0,0,0-.236.089c.029-.03.029-.059-.03-.059a1.32,1.32,0,0,0-.325.236h.03l-.03.029c-.059,0-.118.03-.118.059s0,.03.03,0c0,.059-.03.059-.03.059a1.67,1.67,0,0,0-.236.177h-.029a.162.162,0,0,0-.088.148h-.03a.109.109,0,0,1-.089.029c-.03,0-.03.03-.03.089v.029h-.118c-.03.059-.059.089-.059.118-.029,0-.059,0-.059.029l-.177.177v-.088h-.03a.4.4,0,0,0,.236-.207v.089c.059-.03.089-.059.089-.118.029,0,.029-.029.029-.088.03-.03.059-.03.088-.059h-.088a3.66,3.66,0,0,1-.679.5,2.828,2.828,0,0,1-.59.383c.03,0,.03,0,.03-.029h-.03a.029.029,0,0,1-.03.029l-.177.177h0c-.089.029-.118.059-.118.118v-.059a1.412,1.412,0,0,1-.472.236v.059c0,.029.029,0,.059-.03l-.059.059c-.03,0-.03-.029-.03-.059a.092.092,0,0,0-.029.059h-.089c-.059.059-.118.089-.147.059h-.089a.473.473,0,0,0-.236.089c.059,0,.148-.029.207-.029a.091.091,0,0,1-.059.029.214.214,0,0,1-.177.118c-.059,0-.059.03-.059.089v.029h-.029c0,.059-.03.089-.059.089-.029-.059,0-.089.059-.089a.46.46,0,0,1-.177.089.055.055,0,0,0,0,.089s0,.029.059.029a.319.319,0,0,1-.207.059c-.059,0-.059.029-.029.088h-.118c-.03,0-.059-.029-.088-.029a1.179,1.179,0,0,0-.325.354,1,1,0,0,1,.354-.177.128.128,0,0,1,.088-.029l-.088.088h-.03a.459.459,0,0,1-.236.177,1.082,1.082,0,0,1-.147.266,3.433,3.433,0,0,1-.5.413,4.771,4.771,0,0,0-.56.531c.029-.089.088-.118.177-.148a.928.928,0,0,0-.177.206.445.445,0,0,0-.236.118.306.306,0,0,1-.206.147c-.059,0-.118.029-.177.029-.059.059-.089.118-.148.148a.564.564,0,0,0-.384.059c-.088,0-.147.03-.236.03a1.379,1.379,0,0,1,.413-.413v-.059c.177-.177.384-.354.561-.531a.108.108,0,0,0,.118-.118c.3-.236.59-.5.915-.738-.059-.029-.059-.059-.03-.059.03-.029.088-.029.177-.059a.1.1,0,0,0,.03-.059c.029,0,.059,0,.088-.059-.029,0-.059,0-.059-.059.059,0,.088-.059.118-.118-.03.059-.059.088-.118.059a.652.652,0,0,0,.236-.147c.059.059.088.059.147.029-.089.059-.177.088-.266.147v.03a4.792,4.792,0,0,0,.767-.59,2.8,2.8,0,0,0,.62-.56h-.059a3.371,3.371,0,0,1-.5.442c-.088.03-.118.059-.118.089a.2.2,0,0,1,.118-.148c-.059,0-.118.03-.118.059a2.59,2.59,0,0,0-.3.177h.089c-.059,0-.089,0-.089.029v-.029a.242.242,0,0,0-.147.147h.088c-.059,0-.088,0-.059.03v-.03c-.029.089-.059.118-.118.089h-.059v.029a.255.255,0,0,0-.177.089c0,.059-.059.059-.088.059v.059c-.059.029-.059.059-.059.118a.668.668,0,0,1-.295.148.322.322,0,0,1-.148.029c0-.029.059-.029.148-.059l.295-.295a.888.888,0,0,0,.207-.148h-.059c.059-.059.089-.118.118-.118h.118a5.359,5.359,0,0,0,.561-.59c-.089.03-.148.059-.236.088a.694.694,0,0,1-.266.177.154.154,0,0,0-.118-.059l-.118.118c.059-.059.089-.059.118,0a2.344,2.344,0,0,0-.236.265h.059a1.276,1.276,0,0,0-.207.177c-.177.177-.354.354-.531.56h.118a.137.137,0,0,0-.148.089h.03c-.03.059-.059.059-.118.029a.853.853,0,0,1-.324.325c-.118.059-.236.148-.354.207-.206.147-.413.295-.59.413a.346.346,0,0,1,.147-.148c.088-.059.177-.147.295-.236a12.322,12.322,0,0,1,1.239-1.239v-.059h.059c.03,0,.059-.059.118-.118h.029c-.029-.088,0-.147.089-.147a3.152,3.152,0,0,1,.207-.325.208.208,0,0,0,.118-.148c-.03-.029-.059-.059-.059-.088-.383.383-.708.738-1,1.062.029,0,.088-.059.147-.118v.118c-.03,0-.03,0-.03.03h.03a5.263,5.263,0,0,0-.826.8.3.3,0,0,0-.207.118c-.03.118-.089.147-.207.118-.147.207-.295.384-.472.59a.2.2,0,0,0-.207.118c-.029.029,0,.029.059.029v.029c-.059,0-.089-.029-.089-.059a.48.48,0,0,1-.118.206c-.03.03-.059.059-.089.059v0c-.059.03-.088.059-.147.059-.03.059-.089.059-.148,0a2.684,2.684,0,0,0,.5-.5.132.132,0,0,1,0-.148h-.03v.088c-.059,0-.059-.029-.059-.059-.03.059-.059.089-.059.118-.059,0-.118.029-.118.059a.158.158,0,0,0-.088.118.391.391,0,0,0-.148.177v0c-.236.236-.443.443-.649.679l-.354.265c-.177.118-.354.236-.5.354h-.03v-.089a1.178,1.178,0,0,0,.295-.354,1.322,1.322,0,0,1-.384.324.3.3,0,0,1-.118.03v-.03a.375.375,0,0,0-.206.118c-.03,0-.059.029-.089.029a.1.1,0,0,0,.059-.029v-.089a10.917,10.917,0,0,0,1.092-1.21,7.468,7.468,0,0,1,.649-.767c.088-.059.207-.147.324-.236a8.264,8.264,0,0,0,.738-.915h-.03c-.03.059-.059.059-.059,0a1.562,1.562,0,0,0,.325-.295.162.162,0,0,1-.089.147.729.729,0,0,0,.3-.354.411.411,0,0,1-.089.118.6.6,0,0,1,.118-.236.178.178,0,0,1-.236-.029,13.486,13.486,0,0,0-1.062,1.21,17.6,17.6,0,0,1-1.239,1.3,1.188,1.188,0,0,0-.265.147v.03a1.71,1.71,0,0,0-.472.561,2.009,2.009,0,0,1-.266.177.153.153,0,0,0,.059-.118.359.359,0,0,1-.059.089c.03-.089.03-.118.089-.147v.059a.5.5,0,0,0,.177-.177h-.118a.293.293,0,0,0,.118-.03v.03c.059-.089.177-.207.266-.325a.163.163,0,0,0,.088-.148c-.059.059-.088.118-.147.148a.5.5,0,0,0,.118-.384v-.088l-.088.088.03.029c-.03.03-.089.059-.118.089,0-.029.03-.059.059-.089v.059c.029-.059.029-.089,0-.089.118-.177.236-.384.383-.59a2.163,2.163,0,0,0,.325-.266c.029,0,.088-.059.147-.118,0-.059.03-.089.118-.118H536.1a.636.636,0,0,1,.088-.148H536.1c.059-.118.118-.177.206-.177v-.03c0,.03.03.03.088.03v-.118c0-.029.059-.059.118-.118a.591.591,0,0,0,.236-.3.029.029,0,0,1-.03-.029c-.029.059-.059.088-.089.088a.078.078,0,0,1-.088.088,2.708,2.708,0,0,0-.148.266h-.059a.766.766,0,0,1,.206-.295.311.311,0,0,0,.118-.295h0c0-.03.03-.059.089-.059v.029a.271.271,0,0,0,.088-.147c.03,0,.059-.03.148-.089a.23.23,0,0,0-.089-.029,1.789,1.789,0,0,0,.236-.236.177.177,0,0,0-.03.118,7.277,7.277,0,0,0,.62-.8,1.2,1.2,0,0,1,.325-.177.318.318,0,0,1,.088-.206.643.643,0,0,1,.236-.266c.03,0,.03-.03.059-.118a1.292,1.292,0,0,0,.324-.266c.059-.029.089-.059.089-.088v-.089c-.059.03-.089.089-.118.089-.059,0-.059,0-.059-.03l.177-.089c.059-.059.118-.088.118-.147h.029c.059,0,.059-.029.059-.059s0-.029-.059-.029a.223.223,0,0,0,.118-.207.894.894,0,0,0,.206-.148c-.059.089-.118.148-.118.236a.23.23,0,0,1,.118-.118.206.206,0,0,1-.118.148,1.032,1.032,0,0,0,.236-.148h.03v-.088a.477.477,0,0,0,.206-.118.109.109,0,0,1-.089-.03.46.46,0,0,0,.236-.177l-.03.029c.03.03.059.03.118-.029a.67.67,0,0,1,.206-.3h-.029c-.03,0-.03.029-.03.059,0-.059.059-.118.118-.177,0,.059,0,.088-.059.088a.153.153,0,0,0,.118-.059v-.059c.03,0,.059-.029.118-.059-.03-.029-.03-.059,0-.059,0-.03.029-.059.059-.088a1.019,1.019,0,0,0,.354-.354h-.03c.03-.029.059-.029.088-.059v.03c-.03.029-.03.029,0,.029a4.018,4.018,0,0,1,.708-.708h-.089l.177-.177a.1.1,0,0,1,.059.029.949.949,0,0,1,.177-.147c-.029,0-.059,0-.059-.03l-.118.118a.379.379,0,0,1,.177-.118,1.128,1.128,0,0,0,.325-.325h-.029l.56-.56a.227.227,0,0,0,.148-.059.755.755,0,0,0,.472-.384.178.178,0,0,0,.089-.177.354.354,0,0,1-.207.207c0-.03.03-.03.059-.03h-.118c.266-.266.561-.531.826-.8.029-.029.029-.059,0-.118a.3.3,0,0,1-.236.147c0,.03.03.059.03.089h-.03l.03-.089c-.03.03-.03.03-.03,0,.561-.561,1.121-1.121,1.682-1.711a3.846,3.846,0,0,1,.354-.383l1.741-1.652q.8-.708,1.593-1.328c1.151-.885,2.3-1.741,3.393-2.626a.673.673,0,0,0,.354-.177c.088-.059.207-.118.354-.207.059,0,.089-.03.148-.118a3.5,3.5,0,0,0,.738-.384c.089-.059.147,0,.177.118A1.485,1.485,0,0,0,554.656,248.9Z" transform="translate(-418.086 -248.823)"/><path class="a" d="M664.856,253.582c.089.029.147,0,.236-.089v.118a3.535,3.535,0,0,0,.413-.295c0,.03,0,.059.03.059a.562.562,0,0,0-.206.354h.029a5.877,5.877,0,0,0-.413.472.6.6,0,0,1-.236.236,2.63,2.63,0,0,0-.443.561v.029a1.941,1.941,0,0,1-.443.531,3.534,3.534,0,0,0-.443.531,6.142,6.142,0,0,0-1.092,1.21h.059c-.03.03-.059.059-.059.089V257.3l-.118.118c.059.03.059.059,0,.089,0,.059-.03.059-.059.03a.672.672,0,0,1-.088.147.029.029,0,0,0,.029.029,1.336,1.336,0,0,0-.324.5,1.068,1.068,0,0,0-.207.295c-.029.03-.029.059-.059.089v-.029c-.03.029-.059.059-.059.088a.5.5,0,0,0-.177.177c-.029,0-.059.03-.088.089-.059.059-.118.147-.177.207a1.619,1.619,0,0,0-.384.531.373.373,0,0,1-.118.177,1.677,1.677,0,0,0-.118.236,1.049,1.049,0,0,0-.3.354c.03.03.03.03.059,0a1.107,1.107,0,0,0,.354-.383.36.36,0,0,1,.089-.059.269.269,0,0,0,.088-.206.812.812,0,0,1,.206-.266.029.029,0,0,1-.029-.029.151.151,0,0,0,.148-.118.618.618,0,0,1,.118-.177c0-.029.029-.059.089-.118a.4.4,0,0,1,.177-.206c.03-.059.03-.089.059-.148.206-.207.413-.413.62-.649a.11.11,0,0,1,.029-.089c0,.059-.029.089-.029.118-.059.089-.118.207-.177.3v.177c-.148.206-.295.383-.442.561-.325.472-.649.915-.974,1.357-.207.266-.443.531-.649.8a6.753,6.753,0,0,0-.62.679,5.269,5.269,0,0,0-.472.649c0,.03,0,.089-.059.089a.225.225,0,0,0,.147-.059,1.332,1.332,0,0,0-.295.413c-.118.089-.177.177-.148.295a3.549,3.549,0,0,0-.443.531.3.3,0,0,1-.236.148,2.978,2.978,0,0,1-.56.5c-.03.03-.059.03-.089.059a4.511,4.511,0,0,0-.531.531c-.148.177-.3.324-.413.442a5.733,5.733,0,0,0-.708.8,4.191,4.191,0,0,1-.354.531c-.089.089-.177.207-.266.295a8.368,8.368,0,0,1-.708.738,1.308,1.308,0,0,1-.177.207.425.425,0,0,1-.325.265.257.257,0,0,1-.088.177,3.693,3.693,0,0,0-.325.383,5.01,5.01,0,0,1-1.357,1.269,2.457,2.457,0,0,1-.236.265.3.3,0,0,1-.148.177.638.638,0,0,0-.325.354,8.917,8.917,0,0,0-1.328,1.239,1.059,1.059,0,0,0-.325.118h-.059a.2.2,0,0,1-.147.118h-.384c-.059,0-.089,0-.118-.029-.059-.059-.088-.118-.148-.177a1.949,1.949,0,0,1-.443-.118.5.5,0,0,1-.295-.089.76.76,0,0,1-.384-.236.381.381,0,0,1-.324-.147,1.809,1.809,0,0,1-.59-.266.486.486,0,0,1-.236-.3,1.555,1.555,0,0,1-.59-.649.253.253,0,0,1-.236-.207l-.5-.5-.266-.443a.615.615,0,0,1-.177-.295.227.227,0,0,1-.03-.295.029.029,0,0,1-.029-.03c.029-.03.029-.059.029-.118-.029,0-.029-.029-.029-.059a.222.222,0,0,0,.118-.03,2.578,2.578,0,0,1-.147-.443.421.421,0,0,0-.059-.177,1.419,1.419,0,0,1,.206-.089l.03-.03h.088a.268.268,0,0,0,0-.295s0-.029.059-.029.147-.03.207-.03a.833.833,0,0,0,.147-.679c.03.03.059.03.118,0,0-.059,0-.088.059-.118a1.042,1.042,0,0,1,.413-.088.893.893,0,0,1,.472.147.185.185,0,0,0,.236.059c.62-.3,1.239-.59,1.829-.944a1.2,1.2,0,0,0,.266-.148c0,.03.059.059.118.03.708-.413,1.446-.826,2.183-1.239.384-.236.738-.472,1.121-.708.207-.148.413-.3.59-.443h.029c.649-.443,1.3-.885,1.948-1.357a.844.844,0,0,0,.413-.236c.177-.118.354-.236.561-.384.679-.59,1.387-1.151,2.124-1.711a1.131,1.131,0,0,0,.147-.177c-.029,0-.029,0-.029-.03.029.03.089,0,.118-.059.148-.118.325-.266.531-.413.738-.62,1.416-1.269,2.125-1.918-.03-.03-.03-.03,0-.03v-.029a.214.214,0,0,1-.177.118c.029,0,.059-.03.059-.089.059-.029.088-.088.147-.147,0,.059,0,.089-.029.118a.9.9,0,0,0,.206-.147c.708-.679,1.446-1.3,2.213-1.918a1.028,1.028,0,0,0,.384-.325.62.62,0,0,0,.177-.118,1.831,1.831,0,0,1,.561-.413,6.239,6.239,0,0,0,.708-.59c.059.059.118.059.147,0a.615.615,0,0,0,.236-.177h.03A3.162,3.162,0,0,1,664.856,253.582ZM648.3,249.215a.448.448,0,0,0,.384.089,4.468,4.468,0,0,0,1.033.413,7.507,7.507,0,0,1,.826.472,9.322,9.322,0,0,1,1.829,1.564c.177.236.324.413.5.62a.173.173,0,0,0,.089.206,1.628,1.628,0,0,0,.177.236.984.984,0,0,0,.147.354,2.454,2.454,0,0,1,.118.443.22.22,0,0,0,.03.148.677.677,0,0,1,.029.413,1.133,1.133,0,0,1-.059.708,1.6,1.6,0,0,0-.236.443,1.086,1.086,0,0,1-.561.472,2.217,2.217,0,0,0-.442-.03c-.059-.029-.089-.059-.118-.029a1.572,1.572,0,0,1-.767-.236.321.321,0,0,1-.148-.03l-.029-.029a.029.029,0,0,1-.03.029.13.13,0,0,0-.089-.029s-.03,0-.03-.059c-.059.059-.088.089-.147.059l.059-.059h-.148v-.029c-.118.029-.177,0-.177-.059-.03,0-.03-.03-.059-.03a.154.154,0,0,1-.118.059.158.158,0,0,1-.118-.089h-.059a.3.3,0,0,0-.206-.118h-.236a.158.158,0,0,0-.118-.089.4.4,0,0,1-.118-.089,1.056,1.056,0,0,1-.177-.029.981.981,0,0,0-.413-.029c-.03-.03-.059-.03-.118-.059a.8.8,0,0,0-.5-.177,1.708,1.708,0,0,0-1.21,0q-.133.089-.177,0a.287.287,0,0,0-.03-.265,6.785,6.785,0,0,0,.3-.826,4.813,4.813,0,0,1,.03-1.3.564.564,0,0,0-.266-.531,1.619,1.619,0,0,1-.649-.531,1.044,1.044,0,0,0-.148-.236c-.03-.029-.059-.088-.088-.118.059,0,.088-.03.029-.089v-.177a.533.533,0,0,1-.059-.295.225.225,0,0,1,.088-.266c0-.029,0-.059-.029-.059.029,0,.059,0,.059-.03v-.206c.089-.089.118-.177.059-.266a.5.5,0,0,0-.059-.147.444.444,0,0,0,.325-.118.108.108,0,0,0,.147-.059,1.327,1.327,0,0,1,.59-.03.271.271,0,0,1,.325.03A3.606,3.606,0,0,1,648.3,249.215Z" transform="translate(-494.535 -248.986)"/></g></g><line class="b" x2="97.714" transform="translate(137 90.5)"/><path class="a" d="M-26.591-5.6c-1.027-.4-1.612-.949-1.612-1.859,0-1.092.845-1.664,1.989-1.664a2.187,2.187,0,0,1,1.157.286l.364,1.7h.741L-23.861-9A3.843,3.843,0,0,0-26.2-9.75c-1.794,0-3.172.962-3.172,2.613,0,1.43.975,2.249,2.457,2.847l.533.221c1.274.507,1.794.949,1.794,1.872,0,1.157-.9,1.781-2.275,1.781a2.893,2.893,0,0,1-1.495-.351l-.364-1.781h-.728l-.091,2a5.4,5.4,0,0,0,2.769.754c1.976,0,3.354-1.014,3.354-2.7,0-1.339-.7-2.132-2.6-2.886ZM-15.437-.585V-4.693l.039-2.015-.13-.143-2.054.221V-6.2l1.014.2-.039,4.329A2.818,2.818,0,0,1-18.6-.741c-.78,0-1.183-.442-1.183-1.716V-4.693l.065-2.015-.143-.143-2.093.208v.416l1.027.208-.039,3.627c-.013,1.9.7,2.574,1.859,2.574A3.308,3.308,0,0,0-16.568-1.17l.13,1.287L-14.462,0V-.429ZM-6.1-.6c-.013-.715-.026-1.7-.026-2.392V-4.355c0-1.833-.611-2.587-1.82-2.587A3.638,3.638,0,0,0-10.51-5.629l-.117-1.17-.195-.13-2,.78v.429l1.131.117c.026.572.039,1.066.039,1.872v.741c0,.663-.013,1.664-.026,2.392l-1.053.156V0h3.276V-.442L-10.446-.6c-.013-.728-.026-1.729-.026-2.392V-5.1a2.924,2.924,0,0,1,1.989-.949c.832,0,1.183.442,1.183,1.729V-2.99c0,.689-.013,1.677-.026,2.392l-1.053.156V0H-5.1V-.442ZM6.662-8.9,7.04-7.02h.7L7.664-9.529H.592v.494l1.326.143c.026,1.248.026,2.509.026,3.783v.7c0,1.274,0,2.522-.026,3.77L.592-.494V0h4.03V-.494L3.27-.65C3.243-1.9,3.243-3.172,3.243-4.563H5.493l.182,1.482h.6V-6.539h-.6l-.182,1.4H3.243c0-1.287,0-2.535.026-3.77Zm4.238.338a.891.891,0,0,0,.91-.884.872.872,0,0,0-.91-.871.868.868,0,0,0-.923.871A.886.886,0,0,0,10.9-8.567ZM11.524-.6c-.013-.728-.026-1.729-.026-2.392V-4.9l.026-1.9-.2-.13-2.184.767v.429l1.157.1c.026.624.039,1.092.039,1.885v.754c0,.663-.013,1.664-.026,2.392L9.223-.442V0H12.5V-.442Zm9.321,0c-.013-.715-.026-1.7-.026-2.392V-4.355c0-1.833-.611-2.587-1.82-2.587a3.638,3.638,0,0,0-2.561,1.313L16.322-6.8l-.195-.13-2,.78v.429l1.131.117c.026.572.039,1.066.039,1.872v.741c0,.663-.013,1.664-.026,2.392l-1.053.156V0h3.276V-.442L16.5-.6c-.013-.728-.026-1.729-.026-2.392V-5.1a2.924,2.924,0,0,1,1.989-.949c.832,0,1.183.442,1.183,1.729V-2.99c0,.689-.013,1.677-.026,2.392l-1.053.156V0h3.276V-.442Zm3.978-3.38C24.966-5.668,25.889-6.4,26.76-6.4a1.6,1.6,0,0,1,1.573,1.651c0,.468-.143.793-.767.793Zm4.563.546a2.6,2.6,0,0,0,.1-.793,2.552,2.552,0,0,0-2.665-2.717,3.359,3.359,0,0,0-3.263,3.614c0,2.223,1.3,3.51,3.211,3.51a2.887,2.887,0,0,0,2.691-1.625l-.286-.195a2.418,2.418,0,0,1-2,1.027c-1.391,0-2.34-.949-2.366-2.834Z" transform="translate(274.571 94)"/></g></svg>