<svg xmlns="http://www.w3.org/2000/svg" width="200" height="121.256" viewBox="0 0 200 121.256"><defs><style>.a,.c{fill:none;stroke-width:0.5px;}.a{stroke:#fff;stroke-dasharray:2;}.b{fill:#fff;}.c{stroke:#000;stroke-dasharray:3;}</style></defs><g transform="translate(-583)"><path class="a" d="M0,0H197" transform="translate(584 82)"/><path d="M0,0H200V100H0Z" transform="translate(583)"/><g transform="translate(602 56.695)"><path class="b" d="M165.514,251.993c0,.028.056.028.112.028a1.471,1.471,0,0,0,.559.168.06.06,0,0,0,.056.056c.112.084.252.2.391.279.084.084.168.14.252.224a3.332,3.332,0,0,1,.335.308c.084.056.2.14.308.224a.112.112,0,0,1,.112.056.217.217,0,0,0,.112.112,1.58,1.58,0,0,1,.475.587,1.774,1.774,0,0,1,.335.587,2.824,2.824,0,0,1,.168.7,7.419,7.419,0,0,1-.028,1.118c-.028.167-.056.307-.084.475-.084.336-.14.671-.2.978-.028.056-.056.084-.056.112a2.56,2.56,0,0,0,.475.252l.056-.028v-.112a.408.408,0,0,0,.252.168.15.15,0,0,0,.112.084,2.067,2.067,0,0,1,.978,1.09.332.332,0,0,1-.112.363.218.218,0,0,1-.224.028.125.125,0,0,0-.14,0c-.112.056-.2.056-.251-.028a.542.542,0,0,0-.252.14.377.377,0,0,1-.252-.14.672.672,0,0,1-.252-.056,3.153,3.153,0,0,0-.7-.084c-.056.168-.111.307-.14.419a.475.475,0,0,1-.084.28c-.056,0-.056,0-.056.028-.056.112-.084.224-.112.28a1.584,1.584,0,0,0-.112.336,2.186,2.186,0,0,1-.14.391c-.028.056,0,.084.028.112V261.5a.243.243,0,0,0-.084.168c-.028.028-.028.028,0,.028a.125.125,0,0,0,0,.14c-.056.2-.112.419-.168.615l-.167.419c0,.028,0,.028.028.028a2.2,2.2,0,0,0-.14.392,1.09,1.09,0,0,0-.056.168.1.1,0,0,0-.056.14.346.346,0,0,0-.112.224.027.027,0,0,0,.028.028c0-.028,0-.056.056-.084a.258.258,0,0,1-.112.168.793.793,0,0,1-.112.363h-.028a.169.169,0,0,0-.028.112c.028-.028.028-.084.084-.112l.028-.028a1.864,1.864,0,0,1-.168.559c-.028.028-.028.084-.056.14a2.3,2.3,0,0,1-.2.363,2.1,2.1,0,0,0-.112.307l-.084.084a3.174,3.174,0,0,1,.14-.363c.028-.112.056-.224.084-.308l.168-.5a1.585,1.585,0,0,1,.112-.335q-.042-.042,0-.168a1.944,1.944,0,0,1-.084.224v.084a.253.253,0,0,0-.084.2c-.028,0-.056,0-.056.028h.056a2.282,2.282,0,0,1-.252.7.1.1,0,0,1-.028.056h-.028c-.056.14-.112.251-.168.363-.028.084-.056.14-.084.224l-.168.5c-.056.056-.056.084-.056.084a.84.84,0,0,1-.112.28,1.412,1.412,0,0,0-.14.363c-.084.168-.14.336-.224.5v.028a4.068,4.068,0,0,0-.168.391.027.027,0,0,1-.028-.028.845.845,0,0,1-.112.224l-.028-.028c.028-.028.056-.056.084-.056h-.056a.241.241,0,0,1-.084.167l.084-.251c.028.028.056,0,.084-.028a.591.591,0,0,1,.112-.28.45.45,0,0,1,.084-.252c0-.111.056-.168.14-.168.028-.056.028-.112.056-.168a.1.1,0,0,1-.056-.028.087.087,0,0,0-.028.056h-.028a.5.5,0,0,0,.14-.2c-.028,0-.028,0-.028-.028.028,0,.056-.028.028-.056a.577.577,0,0,1,.112-.168c0-.028,0-.028.056-.056a.087.087,0,0,0-.056-.028,1.275,1.275,0,0,0,.14-.279.317.317,0,0,0,.084-.223.517.517,0,0,0,.056-.2c.028-.056.056-.14.084-.2a.282.282,0,0,0-.112.2,2.84,2.84,0,0,0-.14.336c-.084.14-.14.279-.2.391-.028-.028-.028-.028-.056-.028a.4.4,0,0,1-.168.28.7.7,0,0,0-.112.2.519.519,0,0,1-.2.224.213.213,0,0,0-.056.112c0,.056-.028.112-.084.112-.056.168-.112.335-.168.475,0,.028,0,.028.056,0a.087.087,0,0,1-.056.028v-.028c-.112.224-.2.419-.279.559-.028.084-.028.14-.056.14-.028.056-.056.084-.056.112l-.084.084c0,.028,0,.028.028.028h.028c-.056.028-.084.056-.084.112a1.3,1.3,0,0,0-.14.28.4.4,0,0,0-.168.251.153.153,0,0,0-.056.14.491.491,0,0,0-.111.14c0,.056,0,.112-.028.112h-.028v.028a.537.537,0,0,1-.14.251c-.056.028-.056.028-.056-.028-.056.028-.084.056-.084.084h-.028a5.647,5.647,0,0,0-.363.5c-.112.168-.224.335-.335.475a5.184,5.184,0,0,1-.727.811,11.645,11.645,0,0,0,1.593-2.152,7.047,7.047,0,0,0,.615-1.4,1.472,1.472,0,0,0,.224-.419c-.028-.028-.028-.028-.056-.028-.084.167-.14.307-.2.447a.605.605,0,0,1-.084.14,9.428,9.428,0,0,0-.5,1.09.241.241,0,0,0-.112.2v.028h-.028c-.14.2-.252.391-.363.559-.028-.028-.028-.028-.056,0,0-.056.028-.084.056-.14a2.524,2.524,0,0,0,.168-.28,1.172,1.172,0,0,1,.224-.335v-.14a.027.027,0,0,1-.028.028h.028a1.044,1.044,0,0,1-.14.168v.028c-.028,0-.056.028-.084.028-.028-.084.028-.168.112-.252a3.341,3.341,0,0,0,.14-.5.578.578,0,0,0-.111.168c-.2.335-.419.615-.615.894a1.717,1.717,0,0,0-.2.279,1.218,1.218,0,0,1-.056.279c-.056.056-.14.112-.2.168a.1.1,0,0,1-.056-.028c-.14.2-.279.363-.419.559-.056.084-.084.112-.084.168a.562.562,0,0,0-.056.252,6.471,6.471,0,0,0-.391.531.262.262,0,0,1-.224.168,2.13,2.13,0,0,0-.559.559c-.224.252-.475.475-.7.7a2.482,2.482,0,0,1-.475.224c-.2.14-.363.251-.531.363a1.194,1.194,0,0,1-.392.112h-.112a5.735,5.735,0,0,0,.811-.838h-.028a.242.242,0,0,0,.168-.084.087.087,0,0,1-.056-.028c.056-.028.084-.028.14-.056v-.056c0,.056.028.056.028.028.028,0,.028-.028.028-.084h.028a1.132,1.132,0,0,0,.279-.252h-.084a.1.1,0,0,0,.084-.028h.028c.056-.028.084-.112.14-.168h.028a.132.132,0,0,1,.14-.14v.028l.335-.419h-.028c0,.028-.028.056-.084.056a.757.757,0,0,0,.224-.2.177.177,0,0,0,.168-.14c.028,0,.056-.028.056-.084-.056,0-.084,0-.112.028s-.056.028-.028.028c0,0,0-.028-.056-.084l-.028.028h.028a3.331,3.331,0,0,0-.307.335c-.028.028-.028.028-.028.056s0,.028.028.028a.907.907,0,0,0-.363.363.027.027,0,0,0,.028.028,1.091,1.091,0,0,0-.28.224h.084c-.056.028-.112.084-.168.084a2.548,2.548,0,0,1-.252.279c0,.028.028.028.028-.028,0,.056-.028.056-.028.056l-.028-.028c-.056.084-.14.14-.2.112,0,.028,0,.028.028,0,.056-.028.056-.084.056-.2a1.309,1.309,0,0,0,.531-.5.455.455,0,0,1,.14-.252c0-.028.028-.028.056-.056a5.147,5.147,0,0,0,.475-.615l-.028-.028a.21.21,0,0,1-.112.028c0,.028,0,.028.028.028-.056.028-.084.056-.14.084a.027.027,0,0,1-.028.028c0,.028,0,.028.028.028-.14.168-.252.307-.391.447a.1.1,0,0,1-.084.028l-.224.224h.028a4.439,4.439,0,0,1-.615.643.211.211,0,0,1-.2.112,1.124,1.124,0,0,1-.168.056c.028.028.028,0,.028-.028h-.028a1.366,1.366,0,0,0-.2.084,4.367,4.367,0,0,0,.755-.559.256.256,0,0,0,.112-.168q.042-.084.084-.084a.59.59,0,0,0,.168-.112c-.028-.028-.028-.056.028-.084a.187.187,0,0,0,.112-.2,1.137,1.137,0,0,0,.279-.252c.028-.028.056-.084.112-.14a.577.577,0,0,1,.112-.168.968.968,0,0,0,.2-.335c-.279.279-.531.559-.783.838l-.335.419a.239.239,0,0,0-.084.14.052.052,0,0,1,0-.084c-.168.14-.308.252-.419.363h-.028a2.262,2.262,0,0,0,.447-.447.507.507,0,0,0-.308.279.5.5,0,0,1-.252.112c-.028.056-.056.056-.084.056a.177.177,0,0,0,.168-.14h-.028c-.224.2-.419.392-.587.559v0a1.9,1.9,0,0,0-.336.335c-.056,0-.084,0-.084.056a2.088,2.088,0,0,0-.336.2.607.607,0,0,0,.084-.14.219.219,0,0,0-.224.028,1.585,1.585,0,0,0-.224.2h-.028a.819.819,0,0,0,.363-.335.06.06,0,0,0-.056.056l-.028-.028a.3.3,0,0,0,.084-.2c-.056.028-.084.056-.084.112-.168.112-.307.224-.447.335a1.351,1.351,0,0,0-.2.084,1.087,1.087,0,0,0-.279.224c0,.056,0,.056-.028.056h-.028c.028,0,.028,0,.056-.056a.168.168,0,0,1-.112.028c-.028.028-.056.084-.112.112a.217.217,0,0,0-.084.028c-.112.084-.224.2-.336.279h-.14c.112-.168.252-.335.391-.531a.929.929,0,0,1,.279-.391.85.85,0,0,0,.14-.2.254.254,0,0,1,.112-.224.169.169,0,0,0,.084-.168v-.112h0s0-.028.056-.084h.028l-.084.084.727-.727a.281.281,0,0,0,.112-.14,1.22,1.22,0,0,0,.168-.2v-.028a.334.334,0,0,0,.2-.2h-.028a.431.431,0,0,0,.2-.2h0v-.028l.056-.056h.028c.056-.112.14-.2.2-.308a.145.145,0,0,0,.056-.112h-.028a.483.483,0,0,0,.14-.112c0,.028,0,.056-.028.056a.436.436,0,0,0,.168-.224.028.028,0,0,0-.028.028v-.028a.1.1,0,0,0,.084-.028c0,.028,0,.028-.028.028h.028c.084-.112.2-.224.335-.391-.056.056-.084.084-.084.112a.125.125,0,0,1,0,.14,1.3,1.3,0,0,0-.28.28.1.1,0,0,0,.028.084c0-.028.028-.056.056-.084a1.228,1.228,0,0,0-.168.447c.028.112.028.2-.028.252a.616.616,0,0,1-.084.14c0,.084,0,.14-.056.14h.112a21.974,21.974,0,0,0,3.046-4.556.256.256,0,0,1,.084-.14c.252-.587.475-1.174.727-1.761a.572.572,0,0,1,.14-.252v-.056a.2.2,0,0,0-.14.111c.028-.028.056-.084.112-.111a.53.53,0,0,0,.056-.224h-.028a.651.651,0,0,0,.2-.308.087.087,0,0,0,.056-.028l-.028.028c0,.084,0,.14-.056.168-.056,0-.056.028-.028.056-.056.056-.056.084-.056.084.028,0,.056,0,.056-.056a.418.418,0,0,1-.112.224.1.1,0,0,0-.028.084h.028c0-.028,0-.028.028-.028a.464.464,0,0,0-.056.14c-.028.028-.028.056-.056.084a.354.354,0,0,0-.028.168,1.138,1.138,0,0,0-.14.251h.028a.217.217,0,0,0-.028.084l-.056.056a.606.606,0,0,1-.084.14c0,.028,0,.028.028.028.028.056,0,.084-.028.112-.028.056-.056.084-.056.112h0v.14a1.713,1.713,0,0,1,.14-.335c.168-.419.335-.811.5-1.23-.028,0-.028-.028.028-.084.084-.224.168-.447.252-.7a2.159,2.159,0,0,0,.2-.727.122.122,0,0,1-.084.028.027.027,0,0,1-.028.028.254.254,0,0,1-.084.2.169.169,0,0,1-.084.168.532.532,0,0,0,.056-.363,2.49,2.49,0,0,0-.279.643l-.084.252v.028a.5.5,0,0,0-.112.251.449.449,0,0,1-.084.168.626.626,0,0,0-.084.28c-.028,0-.028,0-.028-.028a.544.544,0,0,0-.028.2,4.8,4.8,0,0,1-.252.531,1.236,1.236,0,0,0-.056.279l-.112.112a4.916,4.916,0,0,1-.447,1.118c.084-.252.2-.5.307-.755a1.1,1.1,0,0,1,.056-.168c.084-.2.167-.419.251-.643,0-.056.028-.084.028-.14.056-.028.056-.056.056-.112a.451.451,0,0,0,.084-.252,2.087,2.087,0,0,1-.307.559,2.979,2.979,0,0,0-.252.531c-.112.224-.2.419-.279.615a.871.871,0,0,1-.168.363,1.316,1.316,0,0,0-.168.419c-.084.112-.14.224-.224.335-.056.084-.084.2-.14.28a1.783,1.783,0,0,1-.2.335c-.028,0-.028,0-.028-.028a1.136,1.136,0,0,0-.251.279h.028c-.028,0-.028,0-.056-.028,0-.028.028-.056.084-.112.112-.2.252-.391.363-.615,0-.056.028-.112.028-.168l.028-.028a2.338,2.338,0,0,0,.335-.643,4.617,4.617,0,0,1,.335-.615.359.359,0,0,1,.112-.279,2.882,2.882,0,0,0,.2-.587.027.027,0,0,1-.028-.028.55.55,0,0,1,.111-.224v-.028a1.341,1.341,0,0,0,.084-.2c0-.084.028-.14.028-.2,0,.028.028.028.028.056.056-.056.056-.112,0-.14.028,0,.028-.028.028-.056l.084-.084c.056,0,.056-.056.028-.112v-.028c0,.056-.028.084-.028.112,0-.028.028-.056.028-.112h.028c.028,0,.028-.028.028-.084a.087.087,0,0,0-.028.056.29.29,0,0,1-.028-.112c-.112.363-.252.7-.363,1.006-.168.363-.308.727-.475,1.09-.112.168-.224.335-.308.475h.028a.06.06,0,0,0,.056-.056.388.388,0,0,1-.14.279.656.656,0,0,0,.056-.224,7.481,7.481,0,0,1-.335.671h.028a.385.385,0,0,1-.084.112.112.112,0,0,0-.056.112v-.112c.224-.475.475-.922.727-1.4a1.463,1.463,0,0,1,.168-.447l.028-.028h-.028c.028-.028.028-.084.056-.14.056-.112.112-.252.168-.391.084-.252.2-.5.307-.755.168-.419.308-.839.476-1.258a1.252,1.252,0,0,1,.2-.5c0-.084.028-.14.028-.224a.445.445,0,0,0,.112-.2c-.056.028-.056.028-.028.056a1.128,1.128,0,0,0-.14.252.052.052,0,0,1,0-.084c0-.028,0-.028.028-.056a1.272,1.272,0,0,0,.14-.391c-.028.028-.028.028,0,.028a1.189,1.189,0,0,0,.056-.14c-.056.056-.056.084-.056.084a.254.254,0,0,1,.112-.224v-.2c0-.056.056-.112.112-.2a2.169,2.169,0,0,1,.056-.587.027.027,0,0,0,.028.028.209.209,0,0,0,.028-.14.475.475,0,0,1,.028-.2,1.176,1.176,0,0,0,.112-.447,2.932,2.932,0,0,0,.14-.531,2.252,2.252,0,0,0,.14-.587c-.587.168-1.146.308-1.705.475-.252.056-.475.112-.7.14h-.056l.028-.028h-.028a.272.272,0,0,1-.252.112c.028,0,.056-.028.084-.056-.028,0-.056.028-.084.028-.056.056-.084.084-.14.084a.087.087,0,0,1,.028-.056h-.028a.087.087,0,0,0-.028.056,1.136,1.136,0,0,1-.475.14.111.111,0,0,0,.112-.056.658.658,0,0,1-.224.056,2.892,2.892,0,0,1-.391.112c-.056.056-.112.084-.14.056a2.765,2.765,0,0,1-.307.14c-.056-.028-.084,0-.112.028a2.619,2.619,0,0,1-.447.112,1.456,1.456,0,0,0-.419.2,1.961,1.961,0,0,1-.084.224.211.211,0,0,1,.028.14c0,.307-.028.587-.028.838a2.093,2.093,0,0,0,.112.447c.028.167.056.335.084.475,0,.112.028.2.028.308a2.181,2.181,0,0,1,.056.391,1.18,1.18,0,0,0-.084.615c0,.028.028.056.028.084l.084.5a.713.713,0,0,1,.056.2.568.568,0,0,1-.028.14v.084c0-.028-.028-.028-.028-.056,0,.028-.028.028-.028.056a.1.1,0,0,1-.084.028v.112c-.056,0-.056-.028-.056-.056-.028.056-.056.084-.084.084,0,.028-.028.056-.028.028a.027.027,0,0,1-.028-.028.027.027,0,0,0-.028.028c.028.028.028.028.028.056-.056.028-.056.056,0,.084v.028h-.056c0-.056,0-.056-.028-.056a.217.217,0,0,0-.028.084.028.028,0,0,1-.028-.028c-.028-.056-.056-.084-.112-.084a.253.253,0,0,1-.028.14.027.027,0,0,1-.028-.028c-.056.028-.056.056-.028.084l-.056.056c-.028.028-.028.028-.056.028s-.028-.028-.028-.084c-.028.056-.056.084-.084.084s-.028-.028-.084-.084c-.028.056-.028.112.028.112h-.084c.056.112.056.14,0,.14V266.5a.28.28,0,0,0-.14-.112.028.028,0,1,1-.056,0,.087.087,0,0,1-.056-.028c-.028.084-.084.112-.14.056-.028.056-.056.056-.056.028-.028,0-.056-.028-.112-.028,0,.056,0,.056.028.056h-.028a.1.1,0,0,1-.112-.112v.028c-.028,0-.028,0-.056-.028a.123.123,0,0,1-.028.14.823.823,0,0,0-.252-.056c0,.056,0,.084.028.084h-.084c-.056.056-.084.084-.14.056a.028.028,0,0,1-.028-.028c-.056,0-.084-.028-.14-.084a.145.145,0,0,1-.223.028.132.132,0,0,1-.168-.028c-.056.028-.084.028-.14-.028-.028-.028-.028-.056-.056-.056-.028.056-.028.056-.056.028-.028,0-.056-.028-.112-.084-.084,0-.112-.056-.168-.084a.507.507,0,0,0-.2-.14c-.056,0-.056.028-.056.084a.087.087,0,0,1-.056.028,2.95,2.95,0,0,1-1.369-1.593,4.74,4.74,0,0,0-.308-.755,3.082,3.082,0,0,0-.308.168q-1.09.545-2.1,1.174c-.028.056-.056.084-.084.084a.766.766,0,0,1-.364.363.365.365,0,0,1-.279-.252c-.028,0-.028,0-.028-.028a.623.623,0,0,1,.084-.28.477.477,0,0,0-.168.168c-.028.028-.028.028-.028,0a.691.691,0,0,0,.224-.391h-.028c-.056.112-.14.14-.2.112a1.035,1.035,0,0,0,.279-.168A7.869,7.869,0,0,1,151.4,263.2c.308-.168.615-.363.95-.559a.3.3,0,0,1,0-.308c.028.028.028.028,0,.056a.128.128,0,0,0,0,.14v-.084c.028.056.028.112.056.168.028,0,.056-.056.028-.14a.472.472,0,0,1,0-.279h-.028a1.6,1.6,0,0,0-.112-.615,9.945,9.945,0,0,1-.14-1.314,8.516,8.516,0,0,1-.056-.867.027.027,0,0,1-.028-.028.06.06,0,0,1-.056.056.028.028,0,0,0,.028.028l.028-.028v.28a.214.214,0,0,0-.056.112h.056c0,.2.028.363.028.559v.056a6.542,6.542,0,0,0,.2,1.258,3.107,3.107,0,0,0,.056.531c-.028.028-.056.056-.056.084v-.028c-.028-.2-.056-.363-.084-.559.028-.056,0-.084-.028-.14a.085.085,0,0,0,0-.112,1.354,1.354,0,0,0-.028-.335.458.458,0,0,1-.084-.168c.056-.028.056-.084,0-.14v-.168a.237.237,0,0,1-.056-.168q.042,0,0-.084a13.515,13.515,0,0,1,0-1.509c0-.084.028-.168.028-.251.028-.224.056-.447.084-.643a.516.516,0,0,1,.056-.2.822.822,0,0,1,.056-.28h-.028a.254.254,0,0,0,.084-.2c.028-.112.084-.224.112-.335s.028-.252.056-.363l.028-.028a1.551,1.551,0,0,1,.168-.587.416.416,0,0,1,.056-.252.5.5,0,0,0,.251.112.122.122,0,0,0,.028-.084v.028a.188.188,0,0,0,.112-.168l-.028.028v-.028a.451.451,0,0,1,.252.084.157.157,0,0,0,.168.028l.028-.028a.028.028,0,0,1-.028-.028c.028.056.112.056.2.056a.464.464,0,0,0,.279,0,.793.793,0,0,0,.363.112c.028.028.056.028.056,0v-.056a.4.4,0,0,0,.2.056.718.718,0,0,1,.2.056,3.009,3.009,0,0,0,.419.2,2.844,2.844,0,0,1,.419.2c.14.084.308.168.475.252a.169.169,0,0,0,.168.084,4.266,4.266,0,0,1,.587.391c.14.2.308.363.475.559a.988.988,0,0,0,.14.224,4.536,4.536,0,0,1,.308.643.335.335,0,0,1,.056.223,3.449,3.449,0,0,1,.056.531.356.356,0,0,1,0,.336,1.691,1.691,0,0,1-.168.531.211.211,0,0,0,.224-.028c.335-.112.671-.224,1.006-.363a3.62,3.62,0,0,0,.727-.224c1.146-.335,2.348-.643,3.55-.922a1.389,1.389,0,0,1,.056-.447.449.449,0,0,1,.084-.252h-.028l.084-.419a.237.237,0,0,1,0-.2c.056-.056.056-.14.028-.252a.272.272,0,0,0,.028-.252.253.253,0,0,0,.028-.14.1.1,0,0,1,.028-.056.028.028,0,0,1-.028-.028l.028-.056-.028-.028a1.123,1.123,0,0,0,.084-.419c.028,0,.028-.056.028-.112h-.028c.028,0,.028-.056,0-.14a.087.087,0,0,0,.056.028v-.028h-.028a.625.625,0,0,0,.084-.279v-.14c.056-.028.056-.056.028-.14a.475.475,0,0,1,.056-.14,1.241,1.241,0,0,1,.056-.279v-.112a.475.475,0,0,1,.056-.14.615.615,0,0,1,.056-.391,11.337,11.337,0,0,0,.224-1.956.743.743,0,0,0,.335.084h.112a.169.169,0,0,0-.028-.224.865.865,0,0,1,.363.084.125.125,0,0,0,0-.14c0-.028.028-.056.056-.084a.1.1,0,0,1,.028-.084,2.076,2.076,0,0,1,.335.2C165.4,252.049,165.459,252.049,165.514,251.993Z" transform="translate(-149.163 -250.965)"/><path class="b" d="M273.712,253.344c.084.028.14,0,.224-.084v.112a3.382,3.382,0,0,0,.392-.279c0,.028,0,.056.028.056a.532.532,0,0,0-.2.335h.028a5.572,5.572,0,0,0-.391.447.573.573,0,0,1-.224.224,2.493,2.493,0,0,0-.419.531v.028a1.832,1.832,0,0,1-.419.5,3.332,3.332,0,0,0-.419.5,5.818,5.818,0,0,0-1.034,1.146h.056c-.028.028-.056.056-.056.084v-.084l-.112.112c.056.028.056.056,0,.084,0,.056-.028.056-.056.028a.6.6,0,0,1-.084.14.027.027,0,0,0,.028.028,1.262,1.262,0,0,0-.308.475,1,1,0,0,0-.2.279c-.028.028-.028.056-.056.084v-.028c-.028.028-.056.056-.056.084a.477.477,0,0,0-.168.168c-.028,0-.056.028-.084.084-.056.056-.112.14-.168.2a1.537,1.537,0,0,0-.363.5.358.358,0,0,1-.112.168,1.63,1.63,0,0,0-.112.224.984.984,0,0,0-.279.335c.028.028.028.028.056,0a1.047,1.047,0,0,0,.336-.363.343.343,0,0,1,.084-.056.253.253,0,0,0,.084-.2.772.772,0,0,1,.2-.252.027.027,0,0,1-.028-.028.143.143,0,0,0,.14-.112.592.592,0,0,1,.112-.168c0-.028.028-.056.084-.112a.376.376,0,0,1,.168-.2c.028-.056.028-.084.056-.14.2-.2.392-.391.587-.615a.1.1,0,0,1,.028-.084c0,.056-.028.084-.028.112-.056.084-.112.2-.168.28v.168c-.14.2-.28.363-.419.531-.307.447-.615.866-.922,1.285-.2.252-.419.5-.615.755a6.409,6.409,0,0,0-.587.643,4.955,4.955,0,0,0-.447.615c0,.028,0,.084-.056.084a.212.212,0,0,0,.14-.056,1.262,1.262,0,0,0-.279.391c-.112.084-.168.168-.14.279a3.347,3.347,0,0,0-.419.5.286.286,0,0,1-.224.14,2.829,2.829,0,0,1-.531.475c-.028.028-.056.028-.084.056a4.289,4.289,0,0,0-.5.5c-.14.168-.279.307-.392.419a5.438,5.438,0,0,0-.671.755,3.941,3.941,0,0,1-.335.5c-.084.084-.168.2-.252.279a7.853,7.853,0,0,1-.671.7,1.213,1.213,0,0,1-.167.2.4.4,0,0,1-.307.251.242.242,0,0,1-.084.168,3.491,3.491,0,0,0-.307.363,4.751,4.751,0,0,1-1.286,1.2,2.268,2.268,0,0,1-.224.251.286.286,0,0,1-.14.168.6.6,0,0,0-.308.335,8.468,8.468,0,0,0-1.258,1.174,1,1,0,0,0-.307.112h-.056a.185.185,0,0,1-.14.112h-.363c-.056,0-.084,0-.112-.028-.056-.056-.084-.112-.14-.168a1.85,1.85,0,0,1-.419-.112.473.473,0,0,1-.28-.084.72.72,0,0,1-.363-.224.362.362,0,0,1-.308-.14,1.717,1.717,0,0,1-.559-.252.461.461,0,0,1-.224-.28,1.47,1.47,0,0,1-.559-.615.239.239,0,0,1-.224-.2l-.475-.475-.252-.419a.581.581,0,0,1-.168-.279.214.214,0,0,1-.028-.279.028.028,0,0,1-.028-.028c.028-.028.028-.056.028-.112-.028,0-.028-.028-.028-.056a.21.21,0,0,0,.112-.028,2.465,2.465,0,0,1-.14-.419.4.4,0,0,0-.056-.167,1.348,1.348,0,0,1,.2-.084l.028-.028h.084a.254.254,0,0,0,0-.279s0-.028.056-.028.14-.028.2-.028a.789.789,0,0,0,.14-.643c.028.028.056.028.112,0,0-.056,0-.084.056-.112a.985.985,0,0,1,.391-.084.845.845,0,0,1,.447.14.175.175,0,0,0,.224.056c.587-.28,1.174-.559,1.733-.894a1.136,1.136,0,0,0,.251-.14c0,.028.056.056.112.028.671-.392,1.369-.783,2.068-1.174.363-.224.7-.447,1.062-.671.2-.14.392-.28.559-.419h.028c.615-.419,1.23-.839,1.845-1.286a.8.8,0,0,0,.392-.224c.168-.112.335-.224.531-.363.643-.559,1.314-1.09,2.012-1.621a1.075,1.075,0,0,0,.14-.168c-.028,0-.028,0-.028-.028.028.028.084,0,.112-.056.14-.112.307-.252.5-.391.7-.587,1.342-1.2,2.013-1.817-.028-.028-.028-.028,0-.028v-.028a.2.2,0,0,1-.168.112c.028,0,.056-.028.056-.084.056-.028.084-.084.14-.14,0,.056,0,.084-.028.112a.843.843,0,0,0,.2-.14c.671-.643,1.37-1.23,2.1-1.817a.974.974,0,0,0,.363-.308.587.587,0,0,0,.168-.112,1.736,1.736,0,0,1,.531-.391,5.915,5.915,0,0,0,.671-.559c.056.056.111.056.14,0a.582.582,0,0,0,.224-.168h.028A2.983,2.983,0,0,1,273.712,253.344Zm-15.68-4.137a.424.424,0,0,0,.363.084,4.225,4.225,0,0,0,.978.391,7.146,7.146,0,0,1,.783.447,8.837,8.837,0,0,1,1.733,1.482c.168.224.307.391.475.587a.164.164,0,0,0,.084.2,1.543,1.543,0,0,0,.168.224.937.937,0,0,0,.14.335,2.328,2.328,0,0,1,.112.419.21.21,0,0,0,.028.14.642.642,0,0,1,.028.391,1.076,1.076,0,0,1-.056.671,1.52,1.52,0,0,0-.224.419,1.029,1.029,0,0,1-.531.447,2.1,2.1,0,0,0-.419-.028c-.056-.028-.084-.056-.112-.028a1.489,1.489,0,0,1-.727-.224.3.3,0,0,1-.14-.028l-.028-.028a.027.027,0,0,1-.028.028.123.123,0,0,0-.084-.028s-.028,0-.028-.056c-.056.056-.084.084-.14.056l.056-.056h-.14v-.028c-.112.028-.168,0-.168-.056-.028,0-.028-.028-.056-.028a.144.144,0,0,1-.112.056.15.15,0,0,1-.112-.084h-.056a.283.283,0,0,0-.2-.112H259.4a.149.149,0,0,0-.112-.084.383.383,0,0,1-.112-.084,1,1,0,0,1-.168-.028.93.93,0,0,0-.391-.028c-.028-.028-.056-.028-.112-.056a.76.76,0,0,0-.475-.168,1.619,1.619,0,0,0-1.146,0q-.126.084-.167,0a.272.272,0,0,0-.028-.251,6.462,6.462,0,0,0,.279-.783,4.558,4.558,0,0,1,.028-1.23.534.534,0,0,0-.252-.5,1.533,1.533,0,0,1-.615-.5.987.987,0,0,0-.14-.224c-.028-.028-.056-.084-.084-.112.056,0,.084-.028.028-.084v-.168a.5.5,0,0,1-.056-.279.213.213,0,0,1,.084-.252c0-.028,0-.056-.028-.056.028,0,.056,0,.056-.028v-.2c.084-.084.112-.168.056-.252a.468.468,0,0,0-.056-.14.42.42,0,0,0,.308-.112.1.1,0,0,0,.14-.056A1.257,1.257,0,0,1,257,249.1a.256.256,0,0,1,.307.028A3.414,3.414,0,0,1,258.031,249.207Z" transform="translate(-224.156 -248.989)"/><path class="b" d="M363.418,259.363a.132.132,0,0,0,.168-.028v-.028a.946.946,0,0,1,.335.112v-.056a.471.471,0,0,1,.168.168v-.168a1.125,1.125,0,0,0-.251-.14.469.469,0,0,0,.14.056c0-.028.028-.028.056-.056a1.46,1.46,0,0,0,.754.419c.028-.028.056-.028.112-.028a1.52,1.52,0,0,1,.5.279c.14.112.28.224.447.336a.516.516,0,0,1,.419.335.954.954,0,0,0,.419.391,5.048,5.048,0,0,0,.5.559,7.887,7.887,0,0,1,.475,1.118,3.156,3.156,0,0,1,.14,1.118,2.458,2.458,0,0,1-.28.978c-.2.447-.391.866-.559,1.314a.66.66,0,0,0-.056.224.463.463,0,0,0-.14.363,3.835,3.835,0,0,0-.335.475.169.169,0,0,0-.028.112,5.306,5.306,0,0,1-.615.922,4.434,4.434,0,0,1-.363.615c0,.028.028.056.084.056v-.056a.317.317,0,0,1-.084.224.177.177,0,0,0-.168.14,3.792,3.792,0,0,0-.419.587,1.423,1.423,0,0,0-.307.447.563.563,0,0,1-.252.307,2.537,2.537,0,0,1-.2.391c-.168.224-.363.419-.5.587a.868.868,0,0,1,.14-.279l.084-.084-.028-.028a1.069,1.069,0,0,0,.252-.363c.028,0,.028-.028.056-.056V270.6a.58.58,0,0,0,.168-.112c.028,0,.028-.056.028-.112a.1.1,0,0,1-.056.028c-.028.084-.056.112-.14.112.084,0,.112-.056.14-.14-.056,0-.056-.056,0-.112a.225.225,0,0,0,.112-.251.407.407,0,0,1-.252.167,5.7,5.7,0,0,0-.5.727,2.46,2.46,0,0,0-.168.279c-.363.559-.727,1.118-1.09,1.649-.084,0-.112.028-.112.084a15.949,15.949,0,0,0,1.37-2.1h-.056a4.42,4.42,0,0,0-.5.615c-.252.363-.5.727-.755,1.062a2,2,0,0,1-.391.531h-.056l.168-.168a1.841,1.841,0,0,1,.475-.643.7.7,0,0,1,.2-.335h-.084a.027.027,0,0,0,.028-.028.229.229,0,0,0-.14.14,7.81,7.81,0,0,1-.671.922.355.355,0,0,1-.252.2c-.056.028-.056.056-.056.112-.056-.028-.084,0-.14.056l.028.028-.084.084h.056l-.084.084a.123.123,0,0,0,.028-.084.652.652,0,0,0-.2.2c-.028,0-.028.028-.028.056h.056a.355.355,0,0,1-.168.028c0,.056,0,.056.056.056a.163.163,0,0,0-.14.056c0,.056,0,.056.028.056-.251.2-.5.363-.727.531a3.637,3.637,0,0,1-.335.308v-.028a.278.278,0,0,1-.168.056,1.006,1.006,0,0,1,.2-.279h-.028l-.336.252a3.305,3.305,0,0,0,.839-.811v-.028c-.224.168-.419.336-.643.475,0,.028.028.028.056.028v.028a8.928,8.928,0,0,0-.755.587.411.411,0,0,1-.168.14v-.028c-.056.056-.084.084-.112.084a8.441,8.441,0,0,0,1.034-.978h.056a2.394,2.394,0,0,0,.252-.391v-.028a.793.793,0,0,0-.252.279,3.238,3.238,0,0,1-.447.308c-.028-.028-.028-.056-.056-.028s-.028.028.028.028v.084a.027.027,0,0,1-.028-.028,1.547,1.547,0,0,0-.224.168.582.582,0,0,1-.168.112,1.577,1.577,0,0,0-.419.279h-.084a13.109,13.109,0,0,1-1.789,1.509,1.688,1.688,0,0,0-.279.2.476.476,0,0,1-.14.056,1.1,1.1,0,0,0-.279.224,2.794,2.794,0,0,1-.531.335c-.168.112-.308.2-.419.28-.112,0-.168.028-.2.084a8.258,8.258,0,0,1-.727.671c.056-.056.14-.056.252-.028-.168.056-.307.112-.447.168a.3.3,0,0,1-.14.028c-.392.308-.755.559-1.146.811a3.307,3.307,0,0,0-.615.391,1.674,1.674,0,0,0-.447.14,1.194,1.194,0,0,1-.727.2c-.168.028-.307.056-.475.084a.947.947,0,0,0-.279-.028,19.346,19.346,0,0,0,1.845-.95,20.443,20.443,0,0,0,2.655-1.705.245.245,0,0,0,.252-.14h.028c.028,0,0,0-.028-.056a3.5,3.5,0,0,1-.783.419c-.308.2-.559.391-.839.587l-.754.335a10.089,10.089,0,0,1-.95.475c-.279.112-.559.224-.811.308a.074.074,0,0,0-.084.084l.028-.028c-.2.028-.252-.028-.224-.14a.743.743,0,0,0,.168-.14q0-.126.168-.168c.28-.2.587-.392.922-.615a3.162,3.162,0,0,0,.363-.279h-.279a.247.247,0,0,0-.307.056c-.028,0-.028.028-.056.056a.1.1,0,0,0,.056.028.285.285,0,0,0-.252.056,1.275,1.275,0,0,0-.559-.028c-.056.056-.112.084-.14.112,0,.028,0,.028.028.028-.056.056-.084.084-.112.084h.168a1.644,1.644,0,0,1,.168-.112c-.112.056-.168.112-.168.2.028.056.056.028.084-.056-.056.084-.112.14-.168.14,0,.056.028.084.084.028a1.416,1.416,0,0,1-.224.2c.028.028.056,0,.084-.028a.574.574,0,0,1-.251.14c-.224.14-.475.251-.7.363-.056.056-.112.112-.168.112a9.374,9.374,0,0,1-1.062.531.235.235,0,0,0-.168.056,1.2,1.2,0,0,0-.475.168.408.408,0,0,1-.224.14.127.127,0,0,1,0-.14c.056,0,.112-.028.2-.112,0-.028-.028-.056-.028-.112a2.956,2.956,0,0,0,.978-.5.3.3,0,0,0-.14.028c.111-.056.223-.14.335-.2-.028.028-.056.056-.084.056a.086.086,0,0,1,.028.056c.251-.14.475-.279.727-.419.112-.084.224-.14.335-.224a9.817,9.817,0,0,0,1.174-.811l.279-.279a2.715,2.715,0,0,1,.671-.419,2.256,2.256,0,0,0,.391-.252l.028.028c-.028,0-.056.028-.111.056a.134.134,0,0,0,.2,0l.028-.028c-.056-.056-.084-.084-.14-.084a.028.028,0,0,0-.028-.028,21.449,21.449,0,0,1-1.929,1.09c-.223.112-.447.252-.643.363-.14.056-.252.112-.363.168a.122.122,0,0,0,.028-.084c.112-.056.252-.14.392-.2.391-.252.755-.5,1.146-.783.727-.475,1.453-.978,2.236-1.453a18.151,18.151,0,0,0,1.789-1.2,5.168,5.168,0,0,1,.559-.531c-.028-.056,0-.112.084-.2a13.1,13.1,0,0,0,1.314-1.174.369.369,0,0,1,.084-.223,10.177,10.177,0,0,0,1.258-1.2.267.267,0,0,0-.2.056v.084a.027.027,0,0,0-.028-.028c0,.056,0,.056-.028.028a1.3,1.3,0,0,1-.2.2c.307-.336.615-.7.95-1.062a.339.339,0,0,1,.168-.252v-.028a3.381,3.381,0,0,0-.587.671c-1.062,1.118-2.152,2.18-3.3,3.214a1.459,1.459,0,0,1-.755.419,2.15,2.15,0,0,0-.559.364,1.545,1.545,0,0,1-.5.391,3.767,3.767,0,0,0,.727-.643v-.056H353.8a.758.758,0,0,1,.335-.2c.307-.252.615-.5.922-.782.056,0,.084-.056.112-.112.112,0,.14-.056.14-.14a.473.473,0,0,1-.14.056,1.25,1.25,0,0,0,.308-.224.1.1,0,0,0-.028.056.877.877,0,0,0,.307-.252.73.73,0,0,0,.168-.14h-.112v-.028c.671-.587,1.342-1.2,1.984-1.873a.027.027,0,0,1-.028-.028.347.347,0,0,0,.168-.224c.056,0,.084,0,.112-.056a1.732,1.732,0,0,0,.252-.335,2.77,2.77,0,0,0,.475-.5,22.48,22.48,0,0,0,1.565-2.516.549.549,0,0,0-.252.252,5.02,5.02,0,0,1-.615.95c-.056,0-.084.056-.112.112.028,0,.028.028.056.028a1.73,1.73,0,0,1-.168.112,13.726,13.726,0,0,0,.782-1.258,1.149,1.149,0,0,1,.084-.224.125.125,0,0,0-.084.112c0,.056-.028.112-.084.112a.028.028,0,0,1-.028-.028c.335-.587.671-1.146,1.006-1.7a.465.465,0,0,1,.112-.307q.252-.545.5-1.174c.252-.475.5-1.006.727-1.509a8.152,8.152,0,0,1-.112-.866,6.35,6.35,0,0,0-.615-.308h-.112a.027.027,0,0,1,.028-.028.553.553,0,0,0-.308.056,8,8,0,0,1-1.146.419,10.288,10.288,0,0,1-1.174.2.23.23,0,0,0,.14-.14.344.344,0,0,0,.223-.111l-.056-.056.028-.028h-.14a22.7,22.7,0,0,0,2.292-.866.342.342,0,0,0,.252-.084,1,1,0,0,0-.28-.056.9.9,0,0,0-.475.056c.028,0,.056-.028.084-.056-.028.028-.084,0-.112-.056a2.219,2.219,0,0,0-.447.224c.056-.028.112-.084.168-.112h-.168c-.168.056-.308.112-.419.14a.56.56,0,0,0-.224.112,4.55,4.55,0,0,1-.866.308c-.056.028-.084.056-.14.084-.251.084-.5.168-.782.252a1,1,0,0,1-.475.308c-.419.168-.811.335-1.23.5a.027.027,0,0,1-.028.028V263a.211.211,0,0,0,.112-.028V263a6.364,6.364,0,0,0,.782-.224c-.056,0-.112.056-.168.112l.028-.028a2.751,2.751,0,0,1-.307.14,3.263,3.263,0,0,0-.419.168h-.028c-.084.056-.168.084-.252.14a8.061,8.061,0,0,0-.811.531c0,.028.028.084.028.112a.074.074,0,0,0-.084.084.027.027,0,0,0,.028.028c.028-.084.112-.112.224-.112-.056,0-.084.028-.084.056a.713.713,0,0,0,.2-.056c.084-.084.2-.14.252-.2a4.362,4.362,0,0,0-.559.447h.028c1.09-.643,2.208-1.23,3.326-1.845h.056c-.028.028,0,.028.028.028a5.038,5.038,0,0,1-.7.643.185.185,0,0,0-.056.2h.084c.2-.084.392-.2.643-.279a.213.213,0,0,1,.252-.028v.028a1.391,1.391,0,0,0-.475.419.609.609,0,0,0-.252.2,1.62,1.62,0,0,1-.531.391,1.276,1.276,0,0,1-.335.335,8.86,8.86,0,0,1-.894.447.92.92,0,0,1-.363.2.372.372,0,0,1-.168.14v-.028a.929.929,0,0,1-.279.168c-.336.252-.671.5-.978.755a4.007,4.007,0,0,0-.95.391,2.992,2.992,0,0,0-1.4,1.09,2.276,2.276,0,0,0-.783.671.575.575,0,0,1-.475.056c-.14.084-.308.168-.419.252a.366.366,0,0,0-.308.056,1.88,1.88,0,0,1-.95-.2,3.358,3.358,0,0,1-.95-.475c-.168-.112-.335-.224-.475-.335-.14-.168-.308-.335-.475-.531a2.921,2.921,0,0,1-.783-1.258.716.716,0,0,1,.056-.2c0-.028.028-.084.112-.14q-.126-.168,0-.252v-.084c0-.084.028-.112.084-.112a.074.074,0,0,0,.084-.084c.811-.475,1.649-.978,2.488-1.453a2.1,2.1,0,0,1,.5-.224c.28-.168.559-.336.895-.5,0,.028.028.028.056,0a25.862,25.862,0,0,1,3.159-1.621.982.982,0,0,1,.391-.168c-.056,0-.084.028-.112.028.028.028.056.028.112-.028a1.282,1.282,0,0,1,.391-.14,2.567,2.567,0,0,1,.643-.251c-.168.112-.335.2-.531.308v-.028c-.028.028-.056.056-.084.056v-.028c-.056,0-.084.028-.112.028a.027.027,0,0,0,.028-.028.416.416,0,0,0-.252.056h.056a6.156,6.156,0,0,1-.867.419,1.235,1.235,0,0,0-.2.168c.727-.279,1.481-.559,2.236-.838a25.1,25.1,0,0,1,3.494-1.034.1.1,0,0,0,.028-.056.585.585,0,0,0,.363-.056h.028a9.913,9.913,0,0,1,2.739-.14c.112,0,.279.028.447.028A2.386,2.386,0,0,0,363.418,259.363ZM350.533,277.28a4.847,4.847,0,0,1,.978-.615c.475-.308.978-.643,1.481-.978q-1.006.755-2.1,1.425C350.784,277.168,350.645,277.224,350.533,277.28Zm1.7-.782c-.251.2-.5.363-.782.559a2.447,2.447,0,0,0-.279.168V277.2c-.028.056-.056.056-.084.056.559-.363,1.146-.755,1.705-1.174A2.652,2.652,0,0,1,352.238,276.5Zm-.782.14c.112-.084.224-.168.363-.279-.056,0-.056,0-.028-.028a.3.3,0,0,0,.14-.028h-.056c0-.028.028-.028.084-.028C351.763,276.413,351.6,276.553,351.455,276.637Zm2.068-.615c-.112.084-.251.168-.391.252a9.618,9.618,0,0,1-.922.671.841.841,0,0,1,.224-.112c-.028.028-.028.056-.056.084h.084c-.056,0-.056.028-.028.084.279-.168.559-.335.811-.5a.97.97,0,0,0,.531-.335h-.168A.616.616,0,0,1,353.524,276.022Zm2.376-.056h.056c-.224.112-.419.251-.615.363h-.028a3.7,3.7,0,0,1-.447.335h.14c-.028.028-.028.028-.028,0a.353.353,0,0,0,.168-.028c.279-.2.531-.419.811-.643a1.591,1.591,0,0,1,.224-.2A.579.579,0,0,0,355.9,275.966Zm-.419,1.006a.306.306,0,0,1-.14.028.468.468,0,0,1-.14.056.087.087,0,0,0,.028.056.709.709,0,0,1-.2.056c.028,0,.056-.028.112-.028-.056.056-.084.112-.112.112a1,1,0,0,1,.307-.112h.084a.074.074,0,0,0,.084-.084c-.028.028-.084.028-.084-.028Zm2.767-2.544c-.335.279-.643.531-.95.811-.7.587-1.426,1.118-2.152,1.649.224-.14.447-.252.643-.391.447-.335.922-.7,1.426-1.062a2.306,2.306,0,0,0,.5-.531A2.711,2.711,0,0,0,358.247,274.429Zm-2.124-14.171a.685.685,0,0,0-.419.14c.028.028.056,0,.056-.028a.475.475,0,0,1-.2.028.982.982,0,0,0,.391-.168.416.416,0,0,0-.2.028c.2-.056.391-.112.615-.168a.215.215,0,0,1,.14-.056A2.468,2.468,0,0,0,356.123,260.258Zm1.566-.587a.575.575,0,0,1-.252.14.254.254,0,0,0-.2.084v-.056a.454.454,0,0,0-.168.084v-.028a1.348,1.348,0,0,0-.447.224c-.028,0-.028-.028-.028-.056h-.056a.186.186,0,0,0,.14-.112.472.472,0,0,0,.279-.084c.252-.056.531-.168.811-.252C357.716,259.671,357.689,259.671,357.689,259.671Zm-.5,16.547c.112-.056.224-.14.392-.224a.339.339,0,0,1,.14-.028A.732.732,0,0,1,357.185,276.218Zm1.118-.782a1.25,1.25,0,0,1-.307.224,1.092,1.092,0,0,1,.223-.279.653.653,0,0,0,.279-.14A.338.338,0,0,0,358.3,275.435Zm.391-.028q0,.042.084,0c-.056.028-.084.056-.112.028a.343.343,0,0,1-.252.112,1.189,1.189,0,0,0-.2.14,1.93,1.93,0,0,1,.363-.308,1.07,1.07,0,0,0-.168.14,1.493,1.493,0,0,0,.308-.14.427.427,0,0,1,.168-.112C358.806,275.323,358.75,275.379,358.695,275.407Zm-.028-15.988c-.056,0-.084,0-.112.028a.027.027,0,0,0,.028.028,1.944,1.944,0,0,1-.279.112.287.287,0,0,1,.168-.14,1.36,1.36,0,0,1,.2-.084.4.4,0,0,1,.168-.056h.028A.7.7,0,0,1,358.667,259.419Zm1.985-.363c-.084-.028-.14-.056-.2-.028a1.76,1.76,0,0,1-.2.056.332.332,0,0,1-.224.028.964.964,0,0,1-.363.084c-.2.084-.363.14-.531.2-.028-.028-.056-.028-.112-.028,0-.056,0-.056-.028-.056h-.028a10.558,10.558,0,0,1,2.124-.363h.168A4.024,4.024,0,0,0,360.651,259.056Zm.056,7.826a2.273,2.273,0,0,0-.335.559c0-.028.028-.056.028-.028v.056A5.944,5.944,0,0,0,360.707,266.882Z" transform="translate(-289.965 -256.043)"/><path class="b" d="M463.637,278.7h.251c.308.028.587.084.895.14.112.028.224.028.335.056a.465.465,0,0,1,.308.112.541.541,0,0,0,.279.084c.391.28.755.559,1.146.838a3.375,3.375,0,0,0,.447.447.185.185,0,0,1,.14.112,8.408,8.408,0,0,1,1.118,1.314,1.917,1.917,0,0,0,.084.224,1.946,1.946,0,0,1,.252.475c.028.112.056.2.084.28a1.266,1.266,0,0,1,.056.643c-.028.084-.084.2-.111.279a2.338,2.338,0,0,1-.364.5,1.341,1.341,0,0,1-.419.2.984.984,0,0,1-.363.224c-.112.028-.2.028-.308.056a.3.3,0,0,1-.2.084.1.1,0,0,1-.028-.084c-.084.056-.14.056-.2,0a.169.169,0,0,1-.168-.084c-.028.028-.056.028-.084.056a.3.3,0,0,1-.335.028c-.056.056-.14.112-.2.168a.229.229,0,0,0-.14.14h-.084a1.119,1.119,0,0,0-.335.28c-.084,0-.112,0-.14.056a3.709,3.709,0,0,0,.447-.336l-.028-.028.056-.056a.217.217,0,0,0-.224.056,2.145,2.145,0,0,0-.363.252h.028a.086.086,0,0,0-.028-.056.4.4,0,0,0-.168.056c0,.028-.028.056-.084.056a1.168,1.168,0,0,1-.391.251h-.056c-.056.056-.112.084-.14.112.028,0,.056-.028.112-.084a.729.729,0,0,1-.307.084,3.428,3.428,0,0,0,1.118-.643h-.056a.278.278,0,0,1,.112-.14c.028-.028.028-.084.056-.112a.211.211,0,0,0-.2.028c-.056.028-.084.056-.14.084h-.252a.225.225,0,0,0-.252.084.447.447,0,0,0-.2.112c-.056,0-.084,0-.084.028h.028a.027.027,0,0,0-.028.028v-.028a.2.2,0,0,0-.14.112h-.056a.757.757,0,0,0,.224-.2h-.028l-.587.336c.168-.112.307-.2.447-.308a.253.253,0,0,0,.168-.168.659.659,0,0,1-.28.14,2.283,2.283,0,0,1-.559.336c-.056,0-.112.028-.112.056h.028c-.056,0-.084,0-.112.028v-.028c-.168.084-.307.168-.447.224a.154.154,0,0,1,.14-.084h-.084a.519.519,0,0,0-.2.056,4.542,4.542,0,0,1-.5.28c-.056.028-.112.028-.112.056a1.5,1.5,0,0,0-.531.2.153.153,0,0,0-.14.084.211.211,0,0,1-.028.112c-.028,0-.056,0-.056-.028v-.056a.135.135,0,0,1-.2-.028.254.254,0,0,1-.14.028.1.1,0,0,0-.028-.056c-.028,0-.028,0-.028.028a.027.027,0,0,1,.028.028c-.028,0-.028.028-.056.056a.212.212,0,0,1-.14-.056c0,.028,0,.056-.028.056-.028-.028-.028-.056-.056-.056-.028.056-.028.056-.056.028-.028-.056-.028-.056-.056-.056h.056c.028-.028.056-.028.084-.056a.06.06,0,0,0,.056.056.121.121,0,0,1,.084-.028c.028,0,.056-.028.084-.056a.572.572,0,0,0,.307,0c0-.028,0-.028.028-.028a.06.06,0,0,0,.056-.056.4.4,0,0,0,.168-.056h-.056c.168-.084.335-.2.531-.279-.056.028-.084.056-.112.056v.028a.074.074,0,0,0-.084.084c-.028,0-.028,0-.028-.028,0,.028,0,.028-.028.056s-.028.028-.056.028c.028.028.056.028.084.056a8.526,8.526,0,0,0,1.789-.978c-.168.112-.364.2-.559.308a4.964,4.964,0,0,1-.671.335c-.056.056-.084.056-.112,0,.028,0,.056-.056.112-.112-.112.056-.224.084-.279.112.028,0,.028-.028.056-.056a1.865,1.865,0,0,0,.252-.168.43.43,0,0,0-.28.112.122.122,0,0,0-.084.028c-.028,0-.084-.028-.112-.028a.5.5,0,0,1-.28.112.29.29,0,0,1-.224.112.027.027,0,0,1-.028.028l-.168.084c-.056.028-.084.056-.112.028-.056-.028-.084-.028-.084,0v-.028a.4.4,0,0,0-.2.056c-.084.056-.2.112-.28.168a.027.027,0,0,1-.028.028.867.867,0,0,0-.224.056c.112.168.2.363.279.5a2.048,2.048,0,0,1,.335.056.474.474,0,0,0,.2.279h0c0,.028,0,.028.056.028-.056.028-.056.028-.056.056l.168.168a.791.791,0,0,1,.279.251c.028.056.056.14.084.2a2.177,2.177,0,0,1,.391,1.174.154.154,0,0,1-.084.14c0,.028,0,.056.028.056a.918.918,0,0,0-.252.615,1.668,1.668,0,0,0-.251.419c-.056.168-.112.308-.168.475v.084c-.056.028-.112.056-.112.112a2.884,2.884,0,0,1-.476.866.692.692,0,0,0-.111.279.52.52,0,0,0-.336.2,1.363,1.363,0,0,0,.447-.447,6.791,6.791,0,0,0,.5-1.118c-.056,0-.084,0-.112-.028v-.056c-.14.14-.252.308-.392.447-.028.056-.028.084-.056.112a.578.578,0,0,0-.28.168h-.056a.613.613,0,0,1,.14-.224c.028-.028.028-.056.028-.112v-.028a4.974,4.974,0,0,0-.392.5.242.242,0,0,0-.084.168s0-.028.056-.056a.7.7,0,0,1-.14.2h-.056a1.136,1.136,0,0,0-.168.308c-.084.084-.14.168-.224.251h.028v.056h-.056c-.028,0-.028,0,0,.028h-.056a.376.376,0,0,1-.2.168.715.715,0,0,1-.2.279,4.27,4.27,0,0,0-.363.335c0-.028.028-.056.084-.084h-.084a.2.2,0,0,0,.112-.14c0-.056.028-.084.112-.084a.446.446,0,0,0,.2-.252c.028,0,.056-.028.112-.084a.572.572,0,0,0,.224-.224c.028-.028.028-.056.056-.112a.433.433,0,0,0,.224-.224c.028-.028.028-.056.028-.112a.372.372,0,0,0,.084-.224.685.685,0,0,1-.252.307,1.183,1.183,0,0,1-.475.5.434.434,0,0,1-.224.168c0,.056-.028.084-.056.084-.028.056-.056.056-.084.056a1.477,1.477,0,0,1-.391.335.371.371,0,0,1-.168.14.1.1,0,0,1-.028.056l-.028-.028c-.028,0-.056.028-.084.028a.318.318,0,0,1,.084-.224.254.254,0,0,0,.084-.2,1.125,1.125,0,0,1-.251.14,1.7,1.7,0,0,1-.447.335.468.468,0,0,1-.14.056.317.317,0,0,0-.224.084s0,.028-.056.084c-.028,0-.056.028-.112.056H457.1a.027.027,0,0,1-.028.028c0,.056-.028.056-.084.056a3.054,3.054,0,0,1-.475.363c-.224.112-.419.224-.643.335-.028.028-.056.056-.084.056a4.349,4.349,0,0,1-.615.336,1.2,1.2,0,0,1-.14.028.212.212,0,0,1-.112-.028h.112a2.98,2.98,0,0,1,.307-.252.4.4,0,0,1-.168.056.984.984,0,0,0-.251.112.318.318,0,0,1-.224.084h.056c-.084.028-.168.056-.2.112l-.224.112a.389.389,0,0,1-.251.112c-.028,0-.056,0-.056-.028a.353.353,0,0,1-.168.028.522.522,0,0,1-.2.056v-.028a1.171,1.171,0,0,1-.727.14.085.085,0,0,1-.112,0v-.056h.028a.576.576,0,0,0-.308,0h-.028a.317.317,0,0,1-.224.084c-.028.028-.056.028-.112.028a1.047,1.047,0,0,0,.335-.2,1.647,1.647,0,0,0-.559.168.3.3,0,0,1-.14.028v-.028a2.549,2.549,0,0,0,.363-.224c0-.028,0-.056.056-.084a5.664,5.664,0,0,0,.727-.5.5.5,0,0,0,.14-.112l-.028-.028a.816.816,0,0,1,.224-.112c0-.056.056-.112.112-.168.643-.447,1.286-.923,1.9-1.426a2.679,2.679,0,0,0,.419-.391l.028-.028a.027.027,0,0,1-.028.028.1.1,0,0,0,.056-.028l.28-.28h-.028a.769.769,0,0,0,.252-.2.305.305,0,0,1,.14-.112,1.32,1.32,0,0,1,.252-.335c.028,0,.056-.028.112-.056a.949.949,0,0,1,.168-.335c.224-.252.447-.531.671-.811v-.084a2.125,2.125,0,0,1,.223-.308c0-.056.028-.112.028-.168l.056-.028c-.028.028-.028.028,0,.056a.7.7,0,0,0,.084-.363s.028,0,.028-.056c0,.028,0,.028.028.028v-.028a.236.236,0,0,0,.084-.14.1.1,0,0,1-.028-.056.61.61,0,0,1,.14-.223.475.475,0,0,1,.028-.2c.028-.084.056-.168.084-.28a3.24,3.24,0,0,0,.14-.782l-.2-.2a.865.865,0,0,1-.252-.531c-.028,0-.028-.028-.028-.084a.472.472,0,0,1-.084-.279v-.252a.223.223,0,0,1-.056-.279h.056c0-.028,0-.056.056-.084,0,.028.028.028.056,0a.88.88,0,0,1,.14-.279c.056,0,.084.028.14.056l.028-.028v-.028c0,.056.056.056.112,0a.469.469,0,0,1,.056-.14.325.325,0,0,0,.279-.056h.028q0-.084.084,0a1.181,1.181,0,0,0,.336-.112c.168-.084.307-.168.447-.251a12.308,12.308,0,0,0,2.516-1.761c.112-.084.224-.168.391-.28a1.7,1.7,0,0,1,.224-.224c0-.084.084-.168.2-.252a10.885,10.885,0,0,0,1.2-1.062,5.282,5.282,0,0,1,.559-.559c-.056-.056-.112-.112-.168-.112a.53.53,0,0,0-.363-.028c0-.028-.028-.028-.084-.028H464a.111.111,0,0,1-.112.056v.028c-.028-.056-.056-.084-.112-.084a.205.205,0,0,1-.168.056.027.027,0,0,1-.028-.028.217.217,0,0,1-.084.028c-.112,0-.2.028-.252.028a.179.179,0,0,0-.168,0c-.2,0-.363.028-.531.028a.709.709,0,0,1-.335.056,1.294,1.294,0,0,1-.531.112c0,.028-.028.056-.028.084h-.2a.87.87,0,0,1-.223.056c-.28.112-.559.168-.839.251a.153.153,0,0,1-.14.084h.028a1.274,1.274,0,0,0-.391.14.552.552,0,0,0-.308.167,1,1,0,0,1,.308-.112,1.72,1.72,0,0,1,.335-.14h.028a3.742,3.742,0,0,0-.671.307v.056a.145.145,0,0,0-.112.056.06.06,0,0,1,.056-.056H459.5c-.028,0-.056.028-.111.056a.027.027,0,0,1,.028.028.1.1,0,0,1-.056.028,1.777,1.777,0,0,0-.335.2.131.131,0,0,0,.168-.028c0,.028,0,.028.028.028a2.57,2.57,0,0,1-.363.224.1.1,0,0,0-.056.028,1.672,1.672,0,0,1-.419.252.339.339,0,0,0-.084.056.6.6,0,0,0-.14.084.308.308,0,0,0-.279.139.3.3,0,0,1-.14.028,1.466,1.466,0,0,1-.531.307h-.028a.392.392,0,0,1-.112.084.5.5,0,0,0-.2.224c-.112.056-.168.112-.224.14l-.112.112a.146.146,0,0,1-.056.112.392.392,0,0,1-.084.112l-.084.168a.186.186,0,0,1-.14.112,1.351,1.351,0,0,1-.084.2.1.1,0,0,1-.028.084,2.21,2.21,0,0,1-1.034.922,1.176,1.176,0,0,0-.447.112h-.447a.213.213,0,0,1-.14-.056,1.2,1.2,0,0,1-.336-.056.415.415,0,0,0-.2-.028,1.174,1.174,0,0,1-.279-.112.214.214,0,0,1-.14-.056,1.588,1.588,0,0,0-.335-.112.675.675,0,0,0-.419-.112,1.453,1.453,0,0,1-.447-.168.211.211,0,0,1-.112-.056.874.874,0,0,1-.419-.419,2.588,2.588,0,0,1-.14-.28v-.084a.238.238,0,0,0,0-.2V283.7a.491.491,0,0,0,.224-.251c.5-.419,1.034-.839,1.537-1.314a2.573,2.573,0,0,0,.251-.14,6.465,6.465,0,0,1,.978-.5c.168-.084.308-.168.447-.252,0,.028.028.056.084.028h.2c.168-.084.363-.14.559-.224.168-.084.336-.2.559-.307a1.883,1.883,0,0,1,.615-.363c0-.028.056-.028.112-.028.308-.168.615-.307.922-.447a.725.725,0,0,0,.308-.084c.224-.084.475-.2.727-.28l1.006-.335a2.364,2.364,0,0,1,.475-.112c.335-.112.7-.224,1.062-.307a.656.656,0,0,0,.307-.056h.447c.252,0,.531-.028.783-.028a5.432,5.432,0,0,1,.643-.056A.656.656,0,0,1,463.637,278.7Z" transform="translate(-364.609 -270.096)"/><path class="b" d="M553.608,248.9a.4.4,0,0,0,.2.056.105.105,0,0,0,.168,0,.249.249,0,0,0,.224.14c0,.056.028.056.056,0a3.386,3.386,0,0,1,.307.335.5.5,0,0,0,.335.252,2.071,2.071,0,0,0,.2.335,2.809,2.809,0,0,1,.335.643,1.31,1.31,0,0,1,.252.615,1.106,1.106,0,0,0,.168.419c-.112.084-.14.168-.112.252-.028.028-.056.056-.084.056a.052.052,0,0,0,0,.084c0-.028,0-.028.028-.056a.776.776,0,0,0-.028.251.124.124,0,0,0,.084.168v.419a.342.342,0,0,1-.168.392.651.651,0,0,0-.14.2c-.084.056-.14.112-.14.168,0,.112-.028.168-.084.2h.084a1.323,1.323,0,0,0-.28.279.085.085,0,0,0-.056.028.665.665,0,0,0-.308.391,6.716,6.716,0,0,0-.783.363.335.335,0,0,1-.056.084c-.028,0-.056.028-.084.028l-.112.112c.056,0,.084,0,.084-.028,0,.028,0,.028.028.028a2.71,2.71,0,0,0-.419.279c-.14.084-.252.14-.335.2,0-.028,0-.028-.056-.028s-.112,0-.112.056h.112a.387.387,0,0,1-.112.084h-.14a2.444,2.444,0,0,1-.866.559c0,.028-.056.056-.112.084a.616.616,0,0,0-.307.14c-.084,0-.14.028-.14.056a.483.483,0,0,1-.14.112c-.112.028-.2.056-.28.084a.214.214,0,0,0-.027.112h-.112a.752.752,0,0,1-.224.2,1.455,1.455,0,0,0-.307.279c-.028,0-.028,0-.028-.028a.486.486,0,0,0-.084.112c-.028-.056-.056-.084-.084-.084a8.2,8.2,0,0,1-1.034.95c0-.028-.028-.084-.056-.084-.056.028-.084.056-.14.084-.028.056-.056.056-.112.056.056,0,.084-.056.056-.112a3.012,3.012,0,0,1,.391-.447.154.154,0,0,1-.14.084c-.056,0-.084,0-.056.028a14.48,14.48,0,0,0-1.146,1.118c0,.056.056.084.112.14,0-.028.028-.056.084-.056v.028c-.056,0-.056.028-.056.028a4.064,4.064,0,0,1,.308.419.958.958,0,0,0,.168.252c.084.168.168.335.252.475a.7.7,0,0,1,.112.2.623.623,0,0,0,.084.14c0,.056,0,.112.056.112a1.241,1.241,0,0,0,.224.307c0,.028,0,.028.028.028.14.279.251.559.363.811a3.7,3.7,0,0,0,.168.7.625.625,0,0,1,.084.279,6.6,6.6,0,0,1,.2.7,1.973,1.973,0,0,0,.168.783l.168,1.258a1.275,1.275,0,0,1,.056.559,4.4,4.4,0,0,1-.028.866c-.028.531-.028,1.062-.028,1.593a.28.28,0,0,1,.028-.112,1.413,1.413,0,0,1,.056.252v.056a.29.29,0,0,0,.028.112v.028l-.028-.028v.112a.125.125,0,0,0,0,.14,1.225,1.225,0,0,0,.028-.14,3.424,3.424,0,0,1-.056.559.027.027,0,0,0,.028.028h-.028v.224c-.028-.028-.056-.028-.056,0a.123.123,0,0,0,.028.084h.056c-.028.028-.028.056-.028.112-.056.028-.056.056-.056.112,0,.028-.028.028-.056.028a.651.651,0,0,1-.056.224.337.337,0,0,0-.056.224.438.438,0,0,0-.028.335.335.335,0,0,0-.112.224,2.65,2.65,0,0,1-.2.811c-.028,0-.028.056-.056.112a.254.254,0,0,0-.2.084.12.12,0,0,1-.112.112l-.028.028v-.056c-.112.028-.167.028-.2,0a.266.266,0,0,1-.2.168.215.215,0,0,0-.028.084,1.472,1.472,0,0,1-.335-.028c-.056-.028-.084-.056-.112-.056-.084.111-.14.14-.252.056-.028,0-.055,0-.084-.056a.17.17,0,0,1-.224,0,.98.98,0,0,1-.391-.168,1.464,1.464,0,0,1-.28-.308.128.128,0,0,1-.112-.14.163.163,0,0,1-.2-.084c-.14-.14-.28-.307-.419-.475a1.984,1.984,0,0,1-.224-.5,1.315,1.315,0,0,1-.168-.419,3.917,3.917,0,0,1-.419-.839v-.028c.028,0,.028-.028.028-.112a.027.027,0,0,1-.028-.028c0,.028.028.028.084.028.028-.028.028-.084.028-.2.112,0,.14-.056.14-.224a.087.087,0,0,0-.028-.056c.056,0,.084-.028.028-.112v-.028c.056.056.084.028.111-.056a.112.112,0,0,0,.112.056,1.328,1.328,0,0,0,.363-.671c-.056-.028-.056-.084,0-.2a4.746,4.746,0,0,1,.167-.866,1.454,1.454,0,0,0,.056-.392h-.112a4.973,4.973,0,0,0,.252-.978l-.056-.056h-.056a13.545,13.545,0,0,1,.251-1.4.1.1,0,0,0-.027-.056.785.785,0,0,0,.027-.251,8.155,8.155,0,0,0,.084-1.146h-.056c0-.168-.028-.308-.028-.447a.124.124,0,0,0,0-.14,1.43,1.43,0,0,0-.223-1.062.55.55,0,0,1-.084-.279c-.028-.056-.056-.084-.084-.14a1.62,1.62,0,0,0,.28.224c.028.084.056.112.111.056a7.478,7.478,0,0,0,.671.335,3.231,3.231,0,0,1,.755.755l.028-.056a9.728,9.728,0,0,0-1.146-1.565,2.092,2.092,0,0,0-.335-.251c-.028-.028-.056-.084-.112-.112a1.067,1.067,0,0,1-.307.308c.028,0,.056-.028.111-.084a.5.5,0,0,0-.2.14c-.084.056-.14.112-.224.168a1.338,1.338,0,0,1,.252-.307.545.545,0,0,0,.224-.224h-.028a3.123,3.123,0,0,0-.447.336.164.164,0,0,0-.112.028.1.1,0,0,1,.055-.028.358.358,0,0,0-.168.028c0,.028.028.056.084.056h-.056c-.028,0-.028-.028-.028-.056a5.719,5.719,0,0,1-.475.419v.112a5.68,5.68,0,0,1-.755.643.316.316,0,0,0-.223.084c.028-.028.028-.056-.028-.056a1.249,1.249,0,0,0-.308.224h.028l-.028.028c-.056,0-.112.028-.112.056s0,.028.028,0c0,.056-.028.056-.028.056a1.587,1.587,0,0,0-.224.168h-.028a.154.154,0,0,0-.084.14H543.8a.1.1,0,0,1-.084.028c-.028,0-.028.028-.028.084v.028h-.112c-.028.056-.056.084-.056.112-.028,0-.056,0-.056.028l-.168.168v-.084h-.028a.374.374,0,0,0,.224-.2v.084c.056-.028.084-.056.084-.112.028,0,.028-.028.028-.084.028-.028.056-.028.084-.056H543.6a3.465,3.465,0,0,1-.643.475,2.681,2.681,0,0,1-.559.363c.028,0,.028,0,.028-.028H542.4a.027.027,0,0,1-.028.028l-.168.168h0c-.084.028-.112.056-.112.112v-.056a1.338,1.338,0,0,1-.447.224v.056c0,.028.028,0,.056-.028l-.056.056c-.028,0-.028-.028-.028-.056a.087.087,0,0,0-.028.056h-.084c-.056.056-.112.084-.14.056h-.084a.448.448,0,0,0-.224.084c.056,0,.14-.028.2-.028a.086.086,0,0,1-.056.028.2.2,0,0,1-.168.112c-.056,0-.056.028-.056.084v.028h-.028c0,.056-.028.084-.056.084-.028-.056,0-.084.056-.084a.435.435,0,0,1-.168.084.052.052,0,0,0,0,.084s0,.028.056.028a.3.3,0,0,1-.2.056c-.056,0-.056.028-.028.084H540.5c-.028,0-.055-.028-.084-.028a1.119,1.119,0,0,0-.308.335.944.944,0,0,1,.336-.168.121.121,0,0,1,.084-.028l-.084.084h-.028a.435.435,0,0,1-.224.168,1.028,1.028,0,0,1-.14.252,3.259,3.259,0,0,1-.476.391,4.518,4.518,0,0,0-.531.5c.027-.084.084-.112.168-.14a.878.878,0,0,0-.168.2.423.423,0,0,0-.224.112.29.29,0,0,1-.2.14c-.056,0-.112.028-.168.028-.056.056-.084.112-.14.14a.535.535,0,0,0-.363.056c-.084,0-.14.028-.224.028a1.306,1.306,0,0,1,.391-.391v-.056c.168-.168.363-.336.531-.5a.1.1,0,0,0,.112-.112c.28-.224.559-.475.867-.7-.056-.028-.056-.056-.028-.056.028-.028.084-.028.168-.056a.1.1,0,0,0,.028-.056c.028,0,.056,0,.084-.056-.028,0-.056,0-.056-.056.056,0,.084-.056.112-.112-.028.056-.056.084-.112.056a.619.619,0,0,0,.224-.14c.056.056.083.056.14.028-.084.056-.168.084-.252.14v.028a4.532,4.532,0,0,0,.727-.559,2.655,2.655,0,0,0,.587-.531H541.2a3.2,3.2,0,0,1-.475.419c-.084.028-.111.056-.111.084a.186.186,0,0,1,.111-.14c-.056,0-.111.028-.111.056a2.436,2.436,0,0,0-.28.168h.084c-.056,0-.084,0-.084.028v-.028a.229.229,0,0,0-.14.14h.084c-.056,0-.084,0-.056.028v-.028c-.028.084-.056.112-.112.084h-.056v.028a.242.242,0,0,0-.168.084c0,.056-.056.056-.084.056v.056c-.056.028-.056.056-.056.112a.633.633,0,0,1-.279.14.306.306,0,0,1-.14.028c0-.028.056-.028.14-.056l.279-.279a.842.842,0,0,0,.2-.14h-.056c.056-.056.084-.112.112-.112h.112a5.067,5.067,0,0,0,.531-.559c-.084.028-.14.056-.224.084a.657.657,0,0,1-.252.168.146.146,0,0,0-.112-.056l-.112.112c.056-.056.084-.056.112,0a2.209,2.209,0,0,0-.224.251h.056a1.205,1.205,0,0,0-.2.168c-.168.167-.335.335-.5.531h.112a.13.13,0,0,0-.14.084h.028c-.028.056-.056.056-.112.028a.807.807,0,0,1-.307.308c-.112.056-.224.14-.335.2-.2.14-.391.279-.559.391a.328.328,0,0,1,.14-.14c.084-.056.168-.14.279-.224a11.672,11.672,0,0,1,1.174-1.174v-.056h.056c.028,0,.056-.056.112-.112h.028c-.028-.084,0-.14.084-.14a2.984,2.984,0,0,1,.2-.307.2.2,0,0,0,.112-.14c-.028-.028-.056-.056-.056-.084-.363.363-.671.7-.95,1.006.027,0,.084-.056.14-.112v.112c-.028,0-.028,0-.028.028h.028a4.985,4.985,0,0,0-.783.755.283.283,0,0,0-.2.112c-.028.112-.084.14-.2.112-.14.2-.279.363-.447.559a.187.187,0,0,0-.2.112c-.028.028,0,.028.056.028v.028c-.056,0-.084-.028-.084-.056a.455.455,0,0,1-.112.2c-.028.028-.056.056-.084.056v0c-.056.028-.084.056-.14.056-.028.056-.084.056-.14,0a2.546,2.546,0,0,0,.475-.475.125.125,0,0,1,0-.14h-.028v.084c-.056,0-.056-.028-.056-.056-.028.056-.056.084-.056.112-.056,0-.112.028-.112.056a.15.15,0,0,0-.084.112.371.371,0,0,0-.14.167v0c-.224.224-.419.419-.615.643l-.336.251c-.168.112-.335.224-.475.336h-.028v-.084a1.115,1.115,0,0,0,.279-.335,1.252,1.252,0,0,1-.363.307.287.287,0,0,1-.112.028v-.028a.355.355,0,0,0-.2.112c-.028,0-.056.028-.084.028a.1.1,0,0,0,.056-.028v-.084a10.343,10.343,0,0,0,1.034-1.146,7.107,7.107,0,0,1,.615-.727c.084-.056.2-.14.307-.224a7.822,7.822,0,0,0,.7-.866h-.028c-.028.056-.056.056-.056,0a1.475,1.475,0,0,0,.307-.279.153.153,0,0,1-.084.14.691.691,0,0,0,.28-.335.39.39,0,0,1-.084.112.564.564,0,0,1,.112-.224.169.169,0,0,1-.223-.028,12.773,12.773,0,0,0-1.006,1.146,16.665,16.665,0,0,1-1.174,1.23,1.13,1.13,0,0,0-.251.14v.028a1.62,1.62,0,0,0-.447.531,1.9,1.9,0,0,1-.252.168.145.145,0,0,0,.056-.112.34.34,0,0,1-.056.084c.028-.084.028-.112.084-.14v.056a.472.472,0,0,0,.168-.167h-.112a.277.277,0,0,0,.112-.028v.028c.056-.084.168-.2.252-.308a.154.154,0,0,0,.084-.14c-.056.056-.084.112-.14.14a.474.474,0,0,0,.112-.363v-.084l-.084.084.028.028c-.028.028-.084.056-.112.084,0-.028.028-.056.056-.084v.056c.028-.056.028-.084,0-.084.112-.168.224-.363.363-.559a2.051,2.051,0,0,0,.308-.252c.028,0,.084-.056.14-.112,0-.056.028-.084.112-.112h-.084a.605.605,0,0,1,.084-.14h-.084c.056-.112.112-.168.2-.168v-.028c0,.028.028.028.084.028v-.112c0-.028.056-.056.112-.112a.559.559,0,0,0,.223-.279.027.027,0,0,1-.028-.028c-.028.056-.056.084-.084.084a.074.074,0,0,1-.084.084,2.569,2.569,0,0,0-.14.252h-.056a.726.726,0,0,1,.2-.279.294.294,0,0,0,.112-.279h0c0-.028.028-.056.084-.056v.028a.257.257,0,0,0,.084-.14c.028,0,.056-.028.14-.084a.217.217,0,0,0-.084-.028,1.69,1.69,0,0,0,.224-.224.168.168,0,0,0-.028.112,6.889,6.889,0,0,0,.587-.755,1.142,1.142,0,0,1,.307-.168.3.3,0,0,1,.084-.2.609.609,0,0,1,.224-.252c.028,0,.028-.028.056-.112a1.22,1.22,0,0,0,.307-.252c.056-.028.084-.056.084-.084v-.084c-.056.028-.084.084-.112.084-.056,0-.056,0-.056-.028l.168-.084c.056-.056.112-.084.112-.14h.028c.056,0,.056-.028.056-.056s0-.028-.056-.028a.211.211,0,0,0,.112-.2.846.846,0,0,0,.2-.14c-.056.084-.111.14-.111.224a.217.217,0,0,1,.111-.112.2.2,0,0,1-.111.14.978.978,0,0,0,.224-.14h.028V261.2a.45.45,0,0,0,.2-.112.1.1,0,0,1-.084-.028.436.436,0,0,0,.224-.168l-.028.028c.028.028.056.028.112-.028a.635.635,0,0,1,.2-.28H539.8c-.028,0-.028.028-.028.056,0-.056.056-.112.112-.168,0,.056,0,.084-.056.084a.145.145,0,0,0,.112-.056v-.056c.028,0,.056-.028.112-.056-.028-.028-.028-.056,0-.056,0-.028.027-.056.056-.084a.965.965,0,0,0,.336-.336h-.028c.028-.028.056-.028.084-.056v.028c-.028.028-.028.028,0,.028a3.808,3.808,0,0,1,.671-.671h-.084l.168-.168a.1.1,0,0,1,.056.028.9.9,0,0,1,.168-.14c-.028,0-.056,0-.056-.028l-.112.112a.36.36,0,0,1,.168-.112,1.069,1.069,0,0,0,.307-.308h-.028l.531-.531a.215.215,0,0,0,.14-.056.715.715,0,0,0,.447-.363.169.169,0,0,0,.084-.168.336.336,0,0,1-.2.2c0-.028.028-.028.056-.028h-.112c.252-.252.531-.5.783-.755.028-.028.028-.056,0-.112a.285.285,0,0,1-.224.14c0,.028.028.056.028.084h-.028l.028-.084c-.028.028-.028.028-.028,0,.531-.531,1.062-1.062,1.593-1.621a3.644,3.644,0,0,1,.336-.363l1.649-1.565q.755-.671,1.509-1.258c1.09-.838,2.18-1.649,3.214-2.488a.637.637,0,0,0,.335-.168c.084-.056.2-.112.335-.2.056,0,.084-.028.14-.112a3.308,3.308,0,0,0,.7-.363c.084-.056.14,0,.168.112A1.407,1.407,0,0,0,553.608,248.9Z" transform="translate(-424.226 -248.823)"/><path class="b" d="M663.777,253.344c.084.028.14,0,.224-.084v.112a3.359,3.359,0,0,0,.391-.279c0,.028,0,.056.028.056a.532.532,0,0,0-.2.335h.028a5.584,5.584,0,0,0-.391.447.573.573,0,0,1-.224.224,2.5,2.5,0,0,0-.419.531v.028a1.84,1.84,0,0,1-.419.5,3.356,3.356,0,0,0-.419.5,5.816,5.816,0,0,0-1.034,1.146h.056c-.028.028-.056.056-.056.084v-.084l-.112.112c.056.028.056.056,0,.084,0,.056-.028.056-.056.028a.63.63,0,0,1-.084.14.027.027,0,0,0,.027.028,1.265,1.265,0,0,0-.307.475,1.009,1.009,0,0,0-.2.279c-.028.028-.028.056-.056.084v-.028c-.028.028-.056.056-.056.084a.477.477,0,0,0-.168.168c-.028,0-.055.028-.084.084-.056.056-.112.14-.168.2a1.532,1.532,0,0,0-.364.5.353.353,0,0,1-.112.168,1.609,1.609,0,0,0-.112.224,1,1,0,0,0-.28.335c.028.028.028.028.056,0a1.047,1.047,0,0,0,.335-.363.345.345,0,0,1,.084-.056.255.255,0,0,0,.084-.2.77.77,0,0,1,.2-.252.027.027,0,0,1-.028-.028.143.143,0,0,0,.14-.112.584.584,0,0,1,.112-.168c0-.028.028-.056.084-.112a.374.374,0,0,1,.167-.2c.028-.056.028-.084.056-.14.2-.2.391-.391.587-.615a.1.1,0,0,1,.027-.084c0,.056-.027.084-.027.112-.056.084-.112.2-.168.28v.168c-.14.2-.279.363-.419.531-.307.447-.615.866-.923,1.285-.2.252-.419.5-.615.755a6.428,6.428,0,0,0-.587.643,4.988,4.988,0,0,0-.447.615c0,.028,0,.084-.056.084a.213.213,0,0,0,.14-.056,1.258,1.258,0,0,0-.279.391c-.112.084-.168.168-.14.279a3.364,3.364,0,0,0-.419.5.285.285,0,0,1-.224.14,2.826,2.826,0,0,1-.531.475c-.028.028-.056.028-.084.056a4.268,4.268,0,0,0-.5.5c-.14.168-.28.307-.392.419a5.436,5.436,0,0,0-.671.755,3.974,3.974,0,0,1-.335.5c-.084.084-.168.2-.252.279a7.93,7.93,0,0,1-.671.7,1.237,1.237,0,0,1-.168.2.4.4,0,0,1-.308.251.243.243,0,0,1-.084.168,3.494,3.494,0,0,0-.308.363,4.747,4.747,0,0,1-1.286,1.2,2.321,2.321,0,0,1-.224.251.287.287,0,0,1-.14.168.6.6,0,0,0-.308.335,8.442,8.442,0,0,0-1.258,1.174,1,1,0,0,0-.307.112h-.056a.185.185,0,0,1-.14.112h-.363c-.056,0-.084,0-.112-.028-.056-.056-.084-.112-.14-.168a1.845,1.845,0,0,1-.419-.112.473.473,0,0,1-.28-.084.721.721,0,0,1-.363-.224.36.36,0,0,1-.307-.14,1.715,1.715,0,0,1-.559-.252.461.461,0,0,1-.224-.28,1.473,1.473,0,0,1-.559-.615.239.239,0,0,1-.223-.2l-.475-.475-.252-.419a.581.581,0,0,1-.168-.279.216.216,0,0,1-.028-.279.027.027,0,0,1-.028-.028c.028-.028.028-.056.028-.112-.028,0-.028-.028-.028-.056a.21.21,0,0,0,.112-.028,2.449,2.449,0,0,1-.139-.419.4.4,0,0,0-.056-.167,1.344,1.344,0,0,1,.2-.084l.028-.028h.084a.254.254,0,0,0,0-.279s0-.028.056-.028.139-.028.2-.028a.789.789,0,0,0,.14-.643c.028.028.056.028.112,0,0-.056,0-.084.056-.112a.987.987,0,0,1,.391-.084.846.846,0,0,1,.448.14.175.175,0,0,0,.224.056c.587-.28,1.174-.559,1.733-.894a1.134,1.134,0,0,0,.252-.14c0,.028.056.056.112.028.67-.392,1.37-.783,2.068-1.174.364-.224.7-.447,1.062-.671.2-.14.392-.28.559-.419h.028c.615-.419,1.23-.839,1.845-1.286a.8.8,0,0,0,.391-.224c.168-.112.335-.224.531-.363.643-.559,1.314-1.09,2.012-1.621a1.064,1.064,0,0,0,.14-.168c-.028,0-.028,0-.028-.028.028.028.084,0,.112-.056.14-.112.307-.252.5-.391.7-.587,1.342-1.2,2.013-1.817-.028-.028-.028-.028,0-.028v-.028a.2.2,0,0,1-.168.112c.028,0,.056-.028.056-.084.056-.028.084-.084.14-.14,0,.056,0,.084-.028.112a.848.848,0,0,0,.2-.14c.671-.643,1.37-1.23,2.1-1.817a.974.974,0,0,0,.363-.308.587.587,0,0,0,.168-.112,1.735,1.735,0,0,1,.531-.391,5.907,5.907,0,0,0,.671-.559c.056.056.112.056.14,0a.585.585,0,0,0,.224-.168h.028A3,3,0,0,1,663.777,253.344Zm-15.68-4.137a.424.424,0,0,0,.363.084,4.229,4.229,0,0,0,.978.391,7.107,7.107,0,0,1,.782.447,8.83,8.83,0,0,1,1.733,1.482c.168.224.307.391.475.587a.164.164,0,0,0,.084.2,1.543,1.543,0,0,0,.168.224.934.934,0,0,0,.14.335,2.318,2.318,0,0,1,.112.419.208.208,0,0,0,.028.14.642.642,0,0,1,.027.391,1.074,1.074,0,0,1-.056.671,1.51,1.51,0,0,0-.223.419,1.029,1.029,0,0,1-.531.447,2.1,2.1,0,0,0-.419-.028c-.056-.028-.084-.056-.112-.028a1.489,1.489,0,0,1-.726-.224.3.3,0,0,1-.14-.028l-.027-.028a.027.027,0,0,1-.028.028.124.124,0,0,0-.084-.028s-.028,0-.028-.056c-.056.056-.084.084-.14.056l.056-.056h-.14v-.028c-.112.028-.168,0-.168-.056-.028,0-.028-.028-.056-.028a.146.146,0,0,1-.112.056.15.15,0,0,1-.112-.084h-.056a.282.282,0,0,0-.2-.112h-.224a.15.15,0,0,0-.112-.084.38.38,0,0,1-.112-.084,1,1,0,0,1-.168-.028.93.93,0,0,0-.391-.028c-.028-.028-.056-.028-.112-.056a.76.76,0,0,0-.475-.168,1.618,1.618,0,0,0-1.146,0q-.126.084-.168,0a.271.271,0,0,0-.028-.251,6.432,6.432,0,0,0,.28-.783,4.558,4.558,0,0,1,.028-1.23.534.534,0,0,0-.252-.5,1.534,1.534,0,0,1-.615-.5.988.988,0,0,0-.14-.224c-.028-.028-.056-.084-.084-.112.056,0,.084-.028.028-.084v-.168a.506.506,0,0,1-.056-.279.213.213,0,0,1,.084-.252c0-.028,0-.056-.028-.056.028,0,.056,0,.056-.028v-.2c.084-.084.112-.168.056-.252a.475.475,0,0,0-.056-.14.42.42,0,0,0,.307-.112.1.1,0,0,0,.14-.056,1.257,1.257,0,0,1,.559-.028.256.256,0,0,1,.308.028A3.415,3.415,0,0,1,648.1,249.207Z" transform="translate(-502.42 -248.989)"/></g><path class="c" d="M0,0H114" transform="translate(583.5 114.5)"/><path d="M-32.728-6.9c-1.264-.5-1.984-1.168-1.984-2.288,0-1.344,1.04-2.048,2.448-2.048a2.691,2.691,0,0,1,1.424.352l.448,2.1h.912l.112-2.288A4.73,4.73,0,0,0-32.248-12c-2.208,0-3.9,1.184-3.9,3.216,0,1.76,1.2,2.768,3.024,3.5l.656.272c1.568.624,2.208,1.168,2.208,2.3,0,1.424-1.1,2.192-2.8,2.192A3.56,3.56,0,0,1-34.9-.944l-.448-2.192h-.9L-36.36-.672a6.651,6.651,0,0,0,3.408.928c2.432,0,4.128-1.248,4.128-3.328,0-1.648-.864-2.624-3.2-3.552ZM-19-.72V-5.776l.048-2.48-.16-.176-2.528.272v.528l1.248.24-.048,5.328A3.468,3.468,0,0,1-22.888-.912c-.96,0-1.456-.544-1.456-2.112V-5.776l.08-2.48-.176-.176-2.576.256v.512l1.264.256L-25.8-2.944c-.016,2.336.864,3.168,2.288,3.168a4.071,4.071,0,0,0,3.12-1.664l.16,1.584L-17.8,0V-.528ZM-7.512-.736c-.016-.88-.032-2.1-.032-2.944V-5.36c0-2.256-.752-3.184-2.24-3.184a4.478,4.478,0,0,0-3.152,1.616l-.144-1.44-.24-.16-2.464.96v.528l1.392.144c.032.7.048,1.312.048,2.3v.912c0,.816-.016,2.048-.032,2.944l-1.3.192V0h4.032V-.544l-1.216-.192c-.016-.9-.032-2.128-.032-2.944V-6.272A3.6,3.6,0,0,1-10.44-7.44c1.024,0,1.456.544,1.456,2.128V-3.68c0,.848-.016,2.064-.032,2.944l-1.3.192V0H-6.28V-.544ZM8.2-10.96l.464,2.32h.864l-.1-3.088H.728v.608l1.632.176c.032,1.536.032,3.088.032,4.656v.864c0,1.568,0,3.1-.032,4.64L.728-.608V0h4.96V-.608L4.024-.8c-.032-1.536-.032-3.1-.032-4.816H6.76l.224,1.824H7.72V-8.048H6.984L6.76-6.32H3.992c0-1.584,0-3.12.032-4.64Zm5.216.416a1.1,1.1,0,0,0,1.12-1.088,1.073,1.073,0,0,0-1.12-1.072,1.068,1.068,0,0,0-1.136,1.072A1.091,1.091,0,0,0,13.416-10.544Zm.768,9.808c-.016-.9-.032-2.128-.032-2.944V-6.032l.032-2.336-.24-.16-2.688.944v.528l1.424.128c.032.768.048,1.344.048,2.32v.928c0,.816-.016,2.048-.032,2.944l-1.344.192V0h4.032V-.544Zm11.472,0c-.016-.88-.032-2.1-.032-2.944V-5.36c0-2.256-.752-3.184-2.24-3.184a4.478,4.478,0,0,0-3.152,1.616l-.144-1.44-.24-.16-2.464.96v.528l1.392.144c.032.7.048,1.312.048,2.3v.912c0,.816-.016,2.048-.032,2.944l-1.3.192V0h4.032V-.544L20.312-.736c-.016-.9-.032-2.128-.032-2.944V-6.272A3.6,3.6,0,0,1,22.728-7.44c1.024,0,1.456.544,1.456,2.128V-3.68c0,.848-.016,2.064-.032,2.944l-1.3.192V0h4.032V-.544Zm4.9-4.16c.176-2.08,1.312-2.976,2.384-2.976A1.964,1.964,0,0,1,34.872-5.84c0,.576-.176.976-.944.976Zm5.616.672A3.2,3.2,0,0,0,36.3-5.2a3.141,3.141,0,0,0-3.28-3.344A4.134,4.134,0,0,0,29-4.1C29-1.36,30.6.224,32.952.224a3.554,3.554,0,0,0,3.312-2l-.352-.24A2.977,2.977,0,0,1,33.448-.752c-1.712,0-2.88-1.168-2.912-3.488Z" transform="translate(746 121)"/></g></svg>